<?xml version="1.0" encoding="utf-8"?>
<!-- Generator: Adobe Illustrator 26.0.0, SVG Export Plug-In . SVG Version: 6.00 Build 0)  -->
<svg version="1.1" id="Layer_1" xmlns="http://www.w3.org/2000/svg" xmlns:xlink="http://www.w3.org/1999/xlink" x="0px" y="0px"
	 viewBox="0 0 455.6 242.1" style="enable-background:new 0 0 455.6 242.1;" xml:space="preserve">
<style type="text/css">
	.st0{fill-rule:evenodd;clip-rule:evenodd;fill:#D89987;}
	.st1{fill-rule:evenodd;clip-rule:evenodd;fill:#3FBFB7;}
	.st2{fill-rule:evenodd;clip-rule:evenodd;fill:#FFFFFF;}
	.st3{fill:#FFFFFF;}
</style>
<g>
	<g id="logo">
		<path class="st0" d="M54.1,23c8.7-12.1,21.2-10,31.9-1.3c0,44.3,0,88.5,0,132.8c-1,1.6-3.9,3-7.6,5.2c-5.6,3.2-13.4,6.9-20.1,6.6
			c-7.1-0.6-14.4-3.9-19.6-11.6c-10.4-2.7-17.5-7.5-18.9-21.1c-5-2.7-8.8-8.1-8.5-16.2c-8.4-10.7-7.1-24.5,1.4-33.9
			c0-3.7,0.3-5.6,1.2-8.5c-0.6-6.8,3.9-13.1,7.6-16.6c0.1-7.9,3.2-13.4,10.2-19.9C34.3,26.4,42.8,22.5,54.1,23L54.1,23z"/>
		<path class="st1" d="M118.1,23c-8.7-12.1-21.2-10-31.9-1.3c0,44.3,0,88.5,0,132.8c1,1.6,3.7,3,7.5,5.2c5.6,3.2,13.4,6.9,20.1,6.6
			c7.1-0.6,14.4-3.9,19.6-11.6c10.4-2.7,17.6-7.5,18.9-21.1c5-2.7,8.8-8.1,8.5-16.2c8.4-10.7,7.1-24.5-1.3-33.9
			c0-3.7-0.3-5.6-1.3-8.5c0.6-6.8-3.9-13.1-7.6-16.6c-0.1-7.9-3.2-13.4-10.2-19.9C138,26.4,129.3,22.5,118.1,23L118.1,23z"/>
		<path class="st2" d="M80.5,99.4c0,0.1,0,0.1,0.1,0.3c-0.4,0.1-0.6,0.1-1,0.3c-2.5,2-4.2,4.2-5.2,8.1c-0.7,2.7-0.6,5.8,0.1,8.5
			c0,0.3,0.1,0.6,0.1,0.7c0.4,1.2,1,2.2,1.7,3.2c0.7,1.4,1.6,2.7,2,4.3c0.4,2,1,3.9,1.4,5.9c0.3,1.4,0.6,2.9,0.6,4.5
			c0,2.9-0.7,5.8-1.3,8.5c-0.4,2-2.9,1.3-2.5-0.6c0.6-2.6,1.3-5.3,1.3-7.9c0-1.3-0.3-2.7-0.4-4c-0.4-2-1-3.9-1.4-5.8
			c0-0.1-0.1-0.4-0.1-0.6c-0.4-1-1-2.2-1.6-3.2c-0.9-1.4-1.7-2.9-2.2-4.6c-0.7-3-1-6.5-0.1-9.7c0.6-2.3,1.6-4.5,3-6.3
			c-3.6,0.6-7.8,0.7-10.8,0.1c-3.7-0.7-7.1-2.3-9.7-4.9c-1.4-1.4,0.4-2.9,1.7-1.6c2.3,2.3,5,3.6,8.4,4.2c3.9,0.7,9.8,0.1,13.6-1
			c1.2-0.9,2.3-1.7,3.5-2.6c0.3-0.1,0.6-0.4,1-0.7c0.6,0.6,1,1.3,1.6,1.9c-0.4,0.3-0.7,0.4-1,0.7C82.5,98,81.4,98.7,80.5,99.4
			L80.5,99.4z M56.1,113.9c1.3-0.1,2.6-0.1,3.9,0.1c2.6,0.7,4.6,2.6,6.3,4.5c1.2,1.4-0.7,3-2,1.4c-1.3-1.6-3-3.2-5-3.7
			c-1.4-0.4-3.3-0.3-4.5,0.6c-0.4,0.9-1,1.6-1.6,2.5c-2.2,2.6-5.3,3.7-8.4,5.3c-4.2,2.2-8.7,3.9-13.1,5.5c-2.9,1-6.1,1.6-8.9,2.5
			c-0.4,0.1-0.9,0.3-1.3,0.3c-0.3-0.7-0.4-1.4-0.7-2.3c0.4,0,0.7-0.1,1.2-0.3c2.9-0.9,5.9-1.4,8.8-2.5c4.3-1.6,8.7-3.3,12.9-5.3
			c2.6-1.3,5.8-2.5,7.5-4.6c0.4-0.6,0.7-1.2,1.2-1.7c0.1-0.3,0.3-0.6,0.4-0.9c1-2,1.7-4.2,1.7-6.5c0-1.4,0-3.5-1.4-4.5
			c-0.7-0.6-1.7-0.7-2.7-0.7c-0.4,0-0.7,0.1-1.2,0.1c-1.7,0.3-3.5,0.9-5.2,1.6c-2,0.7-4.2,1.6-6.5,1.6c-2.5,0.1-5-0.9-6.6-2.6
			c-1.4-1.6,0.7-2.9,1.9-1.4c1,1.2,3,1.9,4.6,1.7c0.3,0,0.6,0,0.9-0.1c1.7-0.1,3.3-0.9,4.9-1.4c2.3-0.9,4.6-1.7,7.2-1.7
			c5-0.1,6.8,3.3,6.6,7.6C57,110.7,56.6,112.3,56.1,113.9L56.1,113.9z M30.1,43.4c2.7-1.6,5.2-2.6,8.4-2.9c1.3-0.1,2.7-0.3,3.9-0.3
			c4,0,8.1,0.4,11.1,3.2c2.2,1.9,2.3,5,2.2,7.6c-0.1,2.3-0.7,5.6,0.6,7.8c1,1.6,3.7,2,5.6,2.2c1.4,0,2.7,0,4-0.3
			c3.5-0.6,6.8-2.3,7.9-5.6c0.6-1.7,3-1.3,2.5,0.6c-0.6,1.6-1.4,3-2.6,4.2c-3,2.7-7.6,3.7-11.8,3.6c-2.7-0.1-6.1-0.9-7.6-3.2
			c-1.9-2.7-1.2-6.1-0.9-9.1c0.1-1.7,0.1-4.5-1.4-5.6c-2.5-2.2-6.2-2.6-9.5-2.5c-1.2,0-2.5,0-3.6,0.1c-2.7,0.3-5,1.3-7.4,2.7
			c-0.3,0.1-0.7,0.4-1,0.6c-0.6,0.4-1.3,0.7-1.9,1.2c0.1-1,0.4-2.2,0.4-3.2C29.4,43.8,29.7,43.5,30.1,43.4L30.1,43.4z M81.8,34.6
			c-1.3-1.7-3.5-3.3-5.8-3.5c-1.2-0.1-2.5,0.1-3.5,0.7c-1.6,0.7-3.5,2-3.6,3.9c-0.1,1.7,0.1,3.3,1,4.9c0.7,1.3,1.9,2.5,2.3,3.9
			c0.4,0.9,0.6,1.9,0.4,2.9c-0.3,3.6-3.3,6.5-6.1,8.8c-1.6,1.3-3-0.6-1.6-1.7c2.2-1.9,4.9-4.3,5.2-7.2c0-0.6,0-1.2-0.3-1.7
			c-0.3-0.6-0.6-1.2-1-1.6c-0.4-0.7-0.9-1.3-1.3-2c-1.2-2-1.4-4-1.3-6.2c0-0.3,0-0.6,0.1-0.9c0.6-2.3,2.7-4.2,5-5
			c1.4-0.6,3-0.9,4.6-0.9c3.2,0.1,5.8,2.2,7.6,4.5c0.1,0.3,0.4,0.6,0.7,1c-0.6,0.7-1.2,1.4-1.7,2.2C82.4,35.7,82.1,35.2,81.8,34.6
			L81.8,34.6z M18.3,73c2.2,3.3,6.3,5.2,10.4,5.2s8.1-0.9,12-1.6c3.2-0.6,6.3-1.2,9.7-1.2c4.3,0,9.8,0.3,13.3,3
			c1.4,1.2,0,3.2-1.6,1.7c-2.9-2.3-8.1-2.5-11.7-2.5c-7.2,0-14.3,2.9-21.7,2.7c-4.9,0-9.8-2.3-12.6-6.3c-0.3-0.3-0.4-0.6-0.7-1
			c0.7-0.7,1.3-1.3,2-2C17.7,72,18.1,72.6,18.3,73L18.3,73z M46.3,55.7c-1.3,2-2.3,4.5-2,6.9c0.3,1.9,2.2,3.2,3.6,4.3
			c2,1.4,4.3,2.9,6.9,3.3c4.3,0.6,8.8-0.6,13.1-0.9c3.6-0.3,7.2,2.9,8.4,5.9c1.3,3.3,0.4,7.5-2,10.2c-2.6,2.9-6.9,4-10.8,4.2
			c-0.4,0.1-0.7,0.1-1.2,0.1c-1.7-0.1-3.5-0.7-5.2-1.3s-3.7-1.3-5.8-1.2c-0.1,0-0.4,0-0.6,0.1c-0.9,0.4-1.9,1.4-2.5,2.2
			c-0.6,0.6-1,1.3-1.6,1.7c-2.6,2.5-6.2,4.2-9.8,4.6c-0.4,0-0.9,0-1.2,0c-1.4-0.1-2.7-0.7-3.9-1.3c-0.9-0.4-2-1-3-1
			c-0.1,0-0.4,0-0.6,0c-2,0.1-3.9,1.6-5,3c-1.3,1.4-2.5,3.7-2.3,5.6c0.3,2.9,3.5,5.6,5.9,7.1c1,0.6,2.9,0.6,4,0.3
			c1.7-0.6,2.7,1.4,0.9,2.2c-1.9,0.6-4.6,0.6-6.2-0.4c-3.2-1.9-6.6-5-6.9-8.8c-0.3-2.5,1.2-5.3,2.7-7.2c1.9-2.3,4.6-4.2,7.6-4
			c0.1,0,0.4,0,0.6,0c1.3,0.1,2.3,0.6,3.5,1.2c1,0.6,2.5,1.3,3.6,1.2c3-0.4,6.2-1.9,8.5-3.9c0.6-0.6,1-1,1.4-1.6
			c1.3-1.4,2.6-2.7,4.6-3c0.4-0.1,1-0.1,1.4-0.1c1.9,0.1,3.6,0.7,5.3,1.3c1.6,0.6,3.5,1.3,5.3,1.2c3.2-0.1,6.9-1.2,9.1-3.5
			c1.9-2,2.5-5.3,1.6-7.8c-0.7-2.2-3.5-4.6-5.9-4.5c-4.6,0.4-8.9,1.4-13.7,0.9c-3-0.3-5.6-1.9-8.1-3.7c-2-1.6-4.2-3.2-4.6-5.9
			c-0.4-3,0.7-5.9,2.5-8.5C45.1,52.8,47.5,53.9,46.3,55.7L46.3,55.7z M40.8,150.9c2.5-0.3,6.2-1.7,8.2-3c4.3-2.7,8.4-6.1,11.7-10
			c1.2-1.3,3.3-0.1,1.9,1.6c-3.5,4-7.8,7.4-12.3,10.2c-2.3,1.6-6.5,3.2-9.4,3.5c-0.4,0-0.9,0.1-1.3,0.1c-0.1-0.7-0.1-1.6-0.3-2.3
			C39.9,151.1,40.4,151.1,40.8,150.9L40.8,150.9z M37.2,134.6c2.9,0.4,5.9-0.6,8.7-1c3-0.6,5.8-2.2,8.2-3.9c1.2-0.9,2.3-1.6,3.5-2.3
			c1-0.6,2.2-1.3,3.3-1.3c2.6-0.3,5.2,1,7.1,2.6c1.9,1.6,3.2,4,3.7,6.3c0.7,2.2,0.7,4.5,0.1,6.6c-0.6,2-2,3.6-3.3,5.2
			c-1,1.2-2.2,1.7-3.2,2.6c-1.4,1.2-3.2-0.6-1.6-1.9c0.9-0.7,2-1.3,2.9-2.2c1-1.3,2.3-2.7,2.9-4.3c0.4-1.7,0.4-3.7-0.1-5.3
			c-0.6-2-1.6-3.9-3.2-5.3c-1.3-1.2-3.3-2.3-5.2-2c-0.7,0.1-1.7,0.6-2.3,1c-1.2,0.7-2.3,1.4-3.3,2.3c-2.9,2-5.8,3.7-9.2,4.3
			c-3.3,0.6-6.2,1.6-9.5,1C34.9,136.7,35,134.2,37.2,134.6L37.2,134.6z M14.5,115.4c4.5,1.9,15.9,1.2,20.2-1
			c0.4-0.1,0.7-0.3,1.2-0.6c0.4,0.7,0.7,1.4,1.2,2.2c-0.3,0.1-0.7,0.3-1,0.6c-5,2.5-17.2,3.2-22.4,1c-0.4-0.1-0.7-0.3-1.2-0.4
			c0.3-0.7,0.6-1.4,1-2.2C13.7,115.2,14.1,115.3,14.5,115.4L14.5,115.4z"/>
		<path class="st2" d="M106.6,35.7c0.4,0,0.9,0.4,0.9,0.9c0,0.6-0.4,0.9-0.9,0.9c-0.6,0-1-0.3-1-0.9
			C105.6,36.2,106.1,35.7,106.6,35.7L106.6,35.7z M106.6,34.6c1.2,0,2.2,0.9,2.2,2s-1,2-2.2,2s-2.2-0.9-2.2-2
			C104.5,35.4,105.3,34.6,106.6,34.6L106.6,34.6z"/>
		<path class="st2" d="M106.5,29c0.6,0,0.9,0.3,0.9,0.9c0,0.4-0.4,0.9-0.9,0.9c-0.6,0-0.9-0.4-0.9-0.9C105.6,29.2,106.1,29,106.5,29
			L106.5,29z M106.5,27.8c1.2,0,2.2,0.9,2.2,2s-1,2-2.2,2s-2.2-0.9-2.2-2S105.3,27.8,106.5,27.8L106.5,27.8z"/>
		<path class="st2" d="M105.9,21.7c0.4,0,0.9,0.4,0.9,0.9c0,0.4-0.4,0.9-0.9,0.9c-0.6,0-1-0.4-1-0.9
			C104.9,22.2,105.3,21.7,105.9,21.7L105.9,21.7z M105.9,20.6c1.2,0,2.2,0.9,2.2,2s-1,2-2.2,2s-2.2-0.9-2.2-2
			C103.8,21.5,104.8,20.6,105.9,20.6L105.9,20.6z"/>
		<polygon class="st2" points="91.1,20.7 106.2,35.2 105.1,36.3 89.9,21.9 		"/>
		<polygon class="st2" points="95.1,18 106.2,28.4 104.9,29.5 94.1,19.1 		"/>
		<polygon class="st2" points="100.3,16.1 105.5,21.2 104.3,22.3 98.6,16.7 		"/>
		<path class="st2" d="M118.9,72.3c0.6,0,1,0.4,1,0.9c0,0.6-0.4,0.9-1,0.9c-0.4,0-0.9-0.4-0.9-0.9C118.1,72.7,118.5,72.3,118.9,72.3
			L118.9,72.3z M118.9,71.1c1.2,0,2.2,0.9,2.2,2s-1,2-2.2,2s-2.2-0.9-2.2-2S117.8,71.1,118.9,71.1L118.9,71.1z"/>
		<path class="st2" d="M125.8,81.2c0.4,0,0.9,0.3,0.9,0.9c0,0.4-0.4,0.9-0.9,0.9c-0.6,0-0.9-0.4-0.9-0.9S125.4,81.2,125.8,81.2
			L125.8,81.2z M125.8,80.1c1.2,0,2.2,0.9,2.2,2s-1,2-2.2,2s-2.2-0.9-2.2-2S124.7,80.1,125.8,80.1L125.8,80.1z"/>
		<path class="st2" d="M130.9,85.8c0.4,0,0.9,0.4,0.9,0.9s-0.4,0.9-0.9,0.9c-0.4,0-0.9-0.4-0.9-0.9
			C129.9,86.3,130.3,85.8,130.9,85.8L130.9,85.8z M130.9,84.7c1.2,0,2.2,0.9,2.2,2s-1,2-2.2,2c-1.2,0-2.2-0.9-2.2-2
			S129.6,84.7,130.9,84.7L130.9,84.7z"/>
		<path class="st2" d="M140.3,82.4c0.4,0,0.9,0.4,0.9,0.9s-0.4,0.9-0.9,0.9c-0.6,0-1-0.4-1-0.9S139.7,82.4,140.3,82.4L140.3,82.4z
			 M140.3,81.2c1.2,0,2.2,0.9,2.2,2s-1,2-2.2,2c-1.2,0-2.2-0.9-2.2-2S139.1,81.2,140.3,81.2L140.3,81.2z"/>
		<path class="st2" d="M134.5,53.4c0.4,0,0.9,0.4,0.9,0.9c0,0.4-0.4,0.9-0.9,0.9c-0.6,0-0.9-0.4-0.9-0.9
			C133.5,53.8,133.9,53.4,134.5,53.4L134.5,53.4z M134.5,52.2c1.2,0,2.2,0.9,2.2,2s-0.9,2-2.2,2c-1.2,0-2.2-0.9-2.2-2
			C132.2,53.1,133.2,52.2,134.5,52.2L134.5,52.2z"/>
		<path class="st2" d="M139.7,58.7c0.4,0,0.9,0.4,0.9,0.9c0,0.4-0.4,0.9-0.9,0.9c-0.6,0-0.9-0.4-0.9-0.9
			C138.9,59.1,139.3,58.7,139.7,58.7L139.7,58.7z M139.7,57.5c1.2,0,2.2,0.9,2.2,2s-1,2-2.2,2c-1.3,0-2.2-0.9-2.2-2
			S138.6,57.5,139.7,57.5L139.7,57.5z"/>
		<path class="st2" d="M145.3,64.6c0.6,0,1,0.4,1,0.9c0,0.6-0.4,0.9-1,0.9c-0.4,0-0.9-0.4-0.9-0.9S144.9,64.6,145.3,64.6L145.3,64.6
			z M145.3,63.5c1.3,0,2.2,0.9,2.2,2c0,1.2-1,2-2.2,2c-1.2,0-2.2-0.9-2.2-2C143.2,64.3,144.2,63.5,145.3,63.5L145.3,63.5z"/>
		<path class="st2" d="M116.2,37.3c0.4,0,0.9,0.4,0.9,0.9s-0.4,0.9-0.9,0.9c-0.6,0-0.9-0.4-0.9-0.9
			C115.3,37.6,115.6,37.3,116.2,37.3L116.2,37.3z M116.2,36c1.2,0,2.2,0.9,2.2,2s-0.9,2-2.2,2c-1.2,0-2.2-0.9-2.2-2
			C114,37,115,36,116.2,36L116.2,36z"/>
		<path class="st2" d="M109,79.9c0.6,0,0.9,0.4,0.9,0.9c0,0.6-0.3,0.9-0.9,0.9c-0.4,0-0.9-0.4-0.9-0.9
			C107.9,80.3,108.4,79.9,109,79.9L109,79.9z M109,78.8c1.3,0,2.2,0.9,2.2,2s-1,2-2.2,2s-2.2-0.9-2.2-2S107.7,78.8,109,78.8
			L109,78.8z"/>
		<path class="st2" d="M103.6,84.1c0.4,0,0.9,0.4,0.9,0.9s-0.4,0.9-0.9,0.9c-0.6,0-0.9-0.4-0.9-0.9S103.2,84.1,103.6,84.1
			L103.6,84.1z M103.6,82.9c1.2,0,2.2,0.9,2.2,2s-1,2-2.2,2s-2.2-0.9-2.2-2C101.5,84,102.5,82.9,103.6,82.9L103.6,82.9z"/>
		<path class="st2" d="M126.1,138.8c0.6,0,0.9,0.3,0.9,0.9c0,0.4-0.4,0.9-0.9,0.9c-0.6,0-0.9-0.4-0.9-0.9
			C125.3,139.1,125.7,138.8,126.1,138.8L126.1,138.8z M126.1,137.5c1.2,0,2.2,0.9,2.2,2c0,1.2-1,2-2.2,2s-2.2-0.9-2.2-2
			C124,138.5,125,137.5,126.1,137.5L126.1,137.5z"/>
		<path class="st2" d="M118.2,146.9c0.4,0,0.9,0.4,0.9,0.9c0,0.6-0.4,0.9-0.9,0.9c-0.6,0-1-0.3-1-0.9
			C117.3,147.3,117.8,146.9,118.2,146.9L118.2,146.9z M118.2,145.7c1.2,0,2.2,0.9,2.2,2c0,1.2-1,2-2.2,2c-1.3,0-2.2-1-2.2-2
			C116,146.8,117.1,145.7,118.2,145.7L118.2,145.7z"/>
		<path class="st2" d="M111,102.9c0.3-0.3,0.9-0.3,1.3,0s0.4,0.9,0,1.2c-0.3,0.3-0.9,0.3-1.3,0S110.5,103.3,111,102.9L111,102.9z
			 M110.1,102c0.9-0.7,2.2-0.7,3,0c0.9,0.9,0.9,2,0,2.9c-0.9,0.8-2.2,0.9-3,0C109.2,104.2,109.2,102.9,110.1,102L110.1,102z"/>
		<path class="st2" d="M118.2,120.8c0.4,0,0.9,0.4,0.9,0.9c0,0.4-0.4,0.9-0.9,0.9c-0.6,0-1-0.4-1-0.9
			C117.3,121.2,117.8,120.8,118.2,120.8L118.2,120.8z M118.2,119.6c1.2,0,2.2,1,2.2,2c0,1.2-1,2-2.2,2c-1.3,0-2.2-1-2.2-2
			S117.1,119.6,118.2,119.6L118.2,119.6z"/>
		<path class="st2" d="M91.5,84.4c0.3-0.3,0.9-0.3,1.3,0c0.3,0.3,0.3,0.9,0,1.3c-0.4,0.3-1,0.3-1.3,0C91.1,85.3,91.1,84.8,91.5,84.4
			L91.5,84.4z M90.6,83.5c0.7-0.9,2.2-0.9,3,0c0.9,0.9,0.9,2,0,2.9c-0.9,0.9-2.3,0.9-3,0C89.8,85.7,89.8,84.4,90.6,83.5L90.6,83.5z"
			/>
		<path class="st2" d="M97.3,48c0.4,0,0.9,0.4,0.9,0.9c0,0.4-0.4,0.9-0.9,0.9c-0.6,0-1-0.4-1-0.9C96.4,48.5,96.8,48,97.3,48L97.3,48
			z M97.3,46.9c1.2,0,2.2,0.9,2.2,2s-0.9,2-2.2,2c-1.2,0-2.2-0.9-2.2-2S96.1,46.9,97.3,46.9L97.3,46.9z"/>
		<path class="st2" d="M131.9,139.7c0.4,0,0.9,0.4,0.9,0.9s-0.4,0.9-0.9,0.9c-0.6,0-0.9-0.4-0.9-0.9
			C130.9,140.1,131.3,139.7,131.9,139.7L131.9,139.7z M131.9,138.5c1.2,0,2.2,0.9,2.2,2s-1,2-2.2,2c-1.2,0-2.2-0.9-2.2-2
			C129.7,139.4,130.7,138.5,131.9,138.5L131.9,138.5z"/>
		<path class="st2" d="M138.3,140.1c0.4,0,0.9,0.4,0.9,0.9s-0.4,0.9-0.9,0.9s-0.9-0.4-0.9-0.9C137.4,140.6,137.7,140.1,138.3,140.1
			L138.3,140.1z M138.3,139c1.2,0,2.2,0.9,2.2,2c0,1.2-1,2-2.2,2c-1.2,0-2.2-0.9-2.2-2C136.1,139.8,137,139,138.3,139L138.3,139z"/>
		<path class="st2" d="M147.4,106.2c0.6,0,1,0.4,1,0.9c0,0.6-0.4,0.9-1,0.9c-0.4,0-0.9-0.4-0.9-0.9
			C146.5,106.5,146.8,106.2,147.4,106.2L147.4,106.2z M147.4,105c1.2,0,2.2,0.9,2.2,2c0,1.2-1,2-2.2,2c-1.2,0-2.2-0.9-2.2-2
			C145.2,105.9,146.1,105,147.4,105L147.4,105z"/>
		<path class="st2" d="M158,104.5c0.4,0,0.9,0.4,0.9,0.9c0,0.6-0.4,0.9-0.9,0.9c-0.6,0-0.9-0.3-0.9-0.9
			C157.2,104.9,157.5,104.5,158,104.5L158,104.5z M158,103.3c1.2,0,2.2,0.9,2.2,2c0,1.2-1,2-2.2,2c-1.2,0-2.2-0.9-2.2-2
			C155.9,104.2,156.9,103.3,158,103.3L158,103.3z"/>
		<polygon class="st2" points="98.1,69.5 108.5,79.5 107.4,80.5 96.4,70.3 96.4,50 98.1,50 		"/>
		<polygon class="st2" points="103.9,66.6 116.9,79.2 116.9,89.9 132.6,104.9 132.6,139.5 130.9,139.5 130.9,105.5 115.3,90.5 
			115.3,79.8 102.3,67.4 102.3,43.8 103.9,43.8 		"/>
		<polygon class="st2" points="108.5,61.7 118.6,71.4 117.5,72.6 106.9,62.3 106.9,43.4 108.5,43.4 		"/>
		<polygon class="st2" points="111.7,57.8 126.9,71.8 126.9,80.9 125.1,80.9 125.1,72.6 110,58.5 110,41.4 111.7,41.4 		"/>
		<polygon class="st2" points="117.1,55.1 131.6,69.5 131.6,85.4 130,85.4 130,70.1 115.3,55.7 115.3,39.5 117.1,39.5 		"/>
		<polygon class="st2" points="122.4,51.8 140.9,69.5 140.9,82.1 139.3,82.1 139.3,70.3 120.8,52.5 120.8,24.3 122.4,24.3 		"/>
		<polygon class="st2" points="128.7,40.5 135.5,40.5 135.5,53.1 133.8,53.1 133.8,42.1 127.1,42.1 127.1,25.6 128.7,25.6 		"/>
		<polygon class="st2" points="132.9,32.1 140.6,39.4 140.6,58.4 138.9,58.4 138.9,39.9 131.2,32.9 131.2,25.9 132.9,25.9 		"/>
		<rect x="144.6" y="44.6" class="st2" width="1.6" height="19.8"/>
		<polygon class="st2" points="139.1,109.7 139.1,139.8 137.4,139.8 137.4,108.9 151.1,95.7 151.1,60.3 152.7,60.3 152.7,96.4 		"/>
		<path class="st2" d="M144,139.8c1.2,0,2.2,1,2.2,2c0,1.2-0.9,2-2.2,2s-2.2-0.9-2.2-2C141.9,140.8,142.9,139.8,144,139.8L144,139.8
			z"/>
		<polygon class="st2" points="146.6,127.3 146.6,108.1 148.2,108.1 148.2,127.8 144.9,131.3 144.9,142.7 143.2,142.7 143.2,130.7 
					"/>
		<polygon class="st2" points="153.6,110.8 153.6,132.6 152,132.6 152,110.1 156.5,105.8 157.8,106.8 		"/>
		<polygon class="st2" points="125.3,107.1 103.3,86.1 104.6,85 127,106.5 127,138.7 125.3,138.7 		"/>
		<rect x="117.3" y="122.8" class="st2" width="1.7" height="23.8"/>
		<polygon class="st2" points="93.5,85.3 111.4,102.1 110.1,103.3 92.4,86.4 		"/>
		<path class="st2" d="M110.7,109.4c0.3-0.3,0.9-0.3,1.3,0c0.4,0.3,0.4,0.9,0,1.2c-0.4,0.3-1,0.3-1.3,0
			C110.4,110.2,110.4,109.8,110.7,109.4L110.7,109.4z M109.8,108.7c0.9-0.9,2.2-0.9,3,0c0.9,0.9,0.9,2,0,2.9c-0.9,0.7-2.2,0.7-3,0
			C109,110.7,109,109.4,109.8,108.7L109.8,108.7z"/>
		<path class="st2" d="M103.8,117.7c0.3-0.3,0.9-0.3,1.3,0c0.4,0.3,0.4,0.9,0,1.3c-0.4,0.3-0.9,0.3-1.3,0
			C103.3,118.6,103.3,118,103.8,117.7L103.8,117.7z M102.9,116.9c0.9-0.7,2.2-0.7,3,0c0.7,0.9,0.7,2.2,0,2.9c-0.9,0.9-2.2,0.9-3,0
			C102,119,102,117.6,102.9,116.9L102.9,116.9z"/>
		<path class="st2" d="M103,139.4c0.3-0.3,0.9-0.3,1.3,0c0.3,0.3,0.3,0.9,0,1.3c-0.4,0.3-0.9,0.3-1.3,0S102.6,139.8,103,139.4
			L103,139.4z M102.2,138.7c0.9-0.9,2.2-0.9,3,0c0.9,0.7,0.9,2,0,2.9c-0.9,0.7-2.2,0.7-3,0C101.3,140.7,101.3,139.4,102.2,138.7
			L102.2,138.7z"/>
		<path class="st2" d="M106.4,143.4c0.4-0.3,1-0.3,1.3,0c0.3,0.3,0.3,0.9,0,1.3c-0.4,0.3-1,0.3-1.3,0
			C106.1,144.3,106.1,143.7,106.4,143.4L106.4,143.4z M105.5,142.6c0.9-0.7,2.2-0.7,3,0c0.9,0.9,0.9,2,0,2.9c-0.9,0.9-2.2,0.9-3,0
			C104.6,144.7,104.6,143.4,105.5,142.6L105.5,142.6z"/>
		<path class="st2" d="M106.4,153.6c0.4-0.3,0.9-0.3,1.3,0c0.3,0.3,0.3,0.9,0,1.3c-0.4,0.3-0.9,0.3-1.3,0
			C105.9,154.4,105.9,153.8,106.4,153.6L106.4,153.6z M105.5,152.7c0.9-0.9,2.2-0.9,3,0c0.9,0.9,0.9,2.2,0,2.9c-0.9,0.9-2.2,0.9-3,0
			C104.6,154.9,104.6,153.6,105.5,152.7L105.5,152.7z"/>
		<polygon class="st2" points="88.2,86.9 111.1,108.7 109.8,109.8 87,88 		"/>
		<polygon class="st2" points="103.6,106.9 87.6,91.6 88.7,90.5 105.2,106.3 105.2,117 103.6,117 		"/>
		<polygon class="st2" points="106.2,127.3 87.2,109.4 88.3,108.2 107.8,126.7 107.8,142.7 106.2,142.7 		"/>
		<polygon class="st2" points="98.1,144.2 106.8,152.5 105.5,153.7 96.6,144.9 96.6,117.5 98.1,117.5 		"/>
		<polygon class="st2" points="102.7,131 97,125.2 98.1,124.2 104.3,130.3 104.3,138.8 102.7,138.8 		"/>
		<path class="st2" d="M71.6,199h28.6c1.6,0,2.7,1.3,2.7,2.7l0,0c0,1.6-1.2,2.7-2.7,2.7H71.6c-1.4,0-2.7-1.3-2.7-2.7l0,0
			C68.8,200.3,70.1,199,71.6,199L71.6,199z"/>
		<path class="st2" d="M71.6,213.9h28.6c1.6,0,2.7,1.3,2.7,2.7l0,0c0,1.4-1.2,2.7-2.7,2.7H71.6c-1.4,0-2.7-1.3-2.7-2.7l0,0
			C68.8,215.2,70.1,213.9,71.6,213.9L71.6,213.9z"/>
		<path class="st2" d="M71.6,206.5h28.6c1.6,0,2.7,1.3,2.7,2.7l0,0c0,1.6-1.2,2.7-2.7,2.7H71.6c-1.4,0-2.7-1.3-2.7-2.7l0,0
			C68.8,207.8,70.1,206.5,71.6,206.5L71.6,206.5z"/>
		<path class="st2" d="M77.1,221.6h17.8c1.6,0,2.7,1.3,2.7,2.7l0,0c0,1.6-1.3,2.7-2.7,2.7H77.1c-1.6,0-2.7-1.3-2.7-2.7l0,0
			C74.2,222.7,75.5,221.6,77.1,221.6L77.1,221.6z"/>
		<path class="st2" d="M79.7,172.7c1.9,0.4,4.3,0.4,5.5,0.4c2.3,0,4.8-0.1,7.1-0.7c0.1-0.1,0.3-0.1,0.6-0.3
			c6.6-9.8,12.3-1.6,3.2,3.6c-1.4,2.9-2,7.4-2.2,9.4c-0.4,3-0.4,5.9-0.6,8.8c0,0.9,0,1.6-0.1,2.3c-1.4-0.1-3-0.1-4.5-0.1
			c0-0.7,0-1.4,0.1-2.3c0.1-3,0.3-6.2,0.6-9.2c0.3-2,0.6-4.6,1.3-7.1c-1.9,0.3-3.9,0.3-5.5,0.3c-1,0-2.2,0-3.3-0.1
			c1.4,5.3,1,12.3,0.7,16.3c0,0.7,0,1.4-0.1,2.2c-1.4-0.1-3-0.1-4.5-0.3c0-0.7,0.1-1.4,0.1-2.3c0.1-3.5,0.3-6.8,0.1-10.2
			c-0.1-1.4-0.4-4.6-1.4-6.8C67.4,172.5,72.9,163.4,79.7,172.7L79.7,172.7z"/>
		<path class="st2" d="M62.2,172.2c7.8,5.3,13,12.7,12.4,22.2c-0.3,4.9-6.3,4.6-6.1-0.3c0.3-7.5-3.7-12.9-9.8-17
			C55,174.5,57.9,169.1,62.2,172.2L62.2,172.2z"/>
		<path class="st2" d="M109.8,172.2c-7.8,5.3-12.9,12.7-12.4,22.2c0.3,4.9,6.3,4.6,6.2-0.3c-0.4-7.5,3.7-12.9,9.7-17
			C117.2,174.5,114.3,169.1,109.8,172.2L109.8,172.2z"/>
		<path class="st0" d="M82.8,23.2C74,16.5,64.2,14.7,57,24.8l-1.2,1.4L54,26.1c-10.2-0.6-16.9,2.9-18.8,13l-0.1,1l-0.7,0.7
			c-5.8,5.2-9.1,9.8-9.2,17.6v1.3l-1,0.9c-3.7,3.5-7.2,8.8-6.6,14.2v0.6l-0.1,0.6c-1,2.7-1,4.8-1,7.5v1.2l-0.7,0.9
			c-7.6,8.5-8.4,20.9-1.3,30l0.7,0.9v1.2c-0.1,5.3,1.6,10.5,6.8,13.3l1.6,0.9l0.1,1.6c1,10.8,5.8,15.5,16.5,18.3l1.2,0.3l0.7,1
			c3.9,5.8,9.8,9.5,17,10.1c5.9,0.1,13.3-3.5,18.2-6.2c0.9-0.6,4.6-2.5,5.9-3.6C82.8,110.1,82.8,66.6,82.8,23.2L82.8,23.2z M54.1,23
			c8.7-12.1,21.2-10,31.9-1.3c0,44.3,0,88.5,0,132.8c-1,1.6-3.9,3-7.6,5.2c-5.6,3.2-13.4,6.9-20.1,6.6c-7.1-0.6-14.4-3.9-19.6-11.6
			c-10.4-2.7-17.5-7.5-18.9-21.1c-5-2.7-8.8-8.1-8.5-16.2c-8.4-10.7-7.1-24.5,1.4-33.9c0-3.7,0.3-5.6,1.2-8.5
			c-0.6-6.8,3.9-13.1,7.6-16.6c0.1-7.9,3.2-13.4,10.2-19.9C34.3,26.4,42.8,22.5,54.1,23L54.1,23z"/>
		<path class="st1" d="M89.3,23.2c8.8-6.6,18.6-8.5,25.8,1.6l1,1.4l1.9-0.1c10.4-0.6,16.9,2.9,18.8,13l0.1,1l0.7,0.7
			c5.8,5.2,9.1,9.8,9.2,17.6v1.3l1,0.9c3.7,3.5,7.2,8.8,6.6,14.2v0.6l0.3,0.6c0.9,2.7,1,4.8,1,7.5v1.2l0.7,0.9
			c7.8,8.5,8.4,20.9,1.2,30l-0.7,0.9l0.1,1.2c0.1,5.3-1.6,10.5-6.8,13.3l-1.6,0.9l-0.1,1.6c-1,10.8-5.9,15.5-16.5,18.3l-1.3,0.3
			l-0.7,1c-3.7,5.8-9.8,9.5-17,10.1c-5.9,0.1-13.3-3.5-18.2-6.2c-0.9-0.6-4.6-2.5-5.9-3.6C89.3,110.1,89.3,66.6,89.3,23.2L89.3,23.2
			z M118.1,23c-8.7-12.1-21.2-10-31.9-1.3c0,44.3,0,88.5,0,132.8c1,1.6,3.7,3,7.5,5.2c5.6,3.2,13.4,6.9,20.1,6.6
			c7.1-0.6,14.4-3.9,19.6-11.6c10.4-2.7,17.6-7.5,18.9-21.1c5-2.7,8.8-8.1,8.5-16.2c8.4-10.7,7.1-24.5-1.3-33.9
			c0-3.7-0.3-5.6-1.3-8.5c0.6-6.8-3.9-13.1-7.6-16.6c-0.1-7.9-3.2-13.4-10.2-19.9C138,26.4,129.3,22.5,118.1,23L118.1,23z"/>
	</g>
	<g id="text">
		<g>
			<path class="st3" d="M166.7,143.3h14.4l-4.3,4v18.8l1.7-1.9v-16.5l3.5-3.3l0.4,0.7l-3.2,3v15.2l9.5-11.4c1.4-1.6,2-3.2,2-4.5
				c0-0.7-0.4-1.6-1.2-2.3c-0.7-0.7-1.7-1.2-2.9-1.4v-0.3h16.3v0.3c-3.6,0.9-7.4,3.7-11.6,8.7l-4.3,5l11.4,22.1l5.2,3.3h-16l4-3
				l-7.7-15.3l-5,6.2v8.8l5,5.9h-15.9l-0.9-0.9h14.9l-3.9-4.8v-9.5l5.3-6.6l-0.7-1.3l-6.3,7.7v9.7l3.7,3.3h-14.2l4.2-3.6V147
				L166.7,143.3z M204.7,146c-3,0.1-6.1,2-9.1,5.3l-5.3,6.1l11,22.1l8.8,5.9h-19.7l-0.9-0.9h17.9l-6.6-4.5l-11.3-22.7l5.8-6.5
				c3-3.3,6.1-5.2,9.2-5.5L204.7,146z"/>
			<path class="st3" d="M227.8,142.9c5,0,8.9,1.9,12,5.6c3,3.7,4.5,8.8,4.5,15.2c0,6.1-1.4,10.8-4.5,14.3c-2.9,3.6-6.9,5.3-12,5.3
				c-3.9,0-7.4-1.3-10.5-3.7c-4.5-3.7-6.8-9.2-6.8-16.5c0-6.2,1.6-11.1,4.6-14.9C218.4,144.7,222.6,142.9,227.8,142.9z M227.8,145.6
				c-6.9,0-10.4,6.1-10.4,18.3c0,11.3,3.5,17,10.2,17c3.2,0,5.6-1.4,7.2-4.5c1.7-3,2.5-7.4,2.5-13.1c0-6.5-0.9-11.1-2.5-13.7
				C233.4,146.9,231,145.6,227.8,145.6z M237.7,144.4c2.9,1.4,5.3,3.9,6.9,7.4c1.7,3.5,2.6,7.4,2.6,12c0,6.6-1.7,12-5,16
				c-3.3,4-7.8,6.1-13.3,6.1c-3.5,0-6.8-1.2-9.8-3.6v-0.1c2.6,1.9,5.8,2.7,9.7,2.7c5.2,0,9.4-1.9,12.7-5.8c3.3-3.9,4.9-8.8,4.9-14.9
				c0-4.5-0.7-8.5-2.3-11.8c-1.4-3.3-3.6-5.9-6.5-7.5v-0.4L237.7,144.4L237.7,144.4z M234.4,150.2l-0.6-0.3c-2-1.2-3.7-1.6-5.5-1.6
				c-5.5,0-8.1,5.3-8.1,16c0,7.8,1.7,13,5,15.5l-0.3,0.3c-2-1.4-3.5-3.3-4.3-5.8c-0.9-2.3-1.3-5.6-1.3-9.7c0-11.4,3-17.2,8.9-17.2
				C231.1,147.5,233.1,148.3,234.4,150.2z"/>
			<path class="st3" d="M287.4,143.3c-2.3,1.2-3.9,2.3-4.5,3.3c-1,1.6-1.6,3.9-1.6,7.1v2V183h-5.2l-14.6-28.3v16.8v1.4l0.4,4.5
				c0.4,2,1.3,3.6,2.7,4.6l0.3,0.1c-2.9-1-4.3-4-4.3-9.1v-2.9v-17l-1.7-3.2v17.8c0,5.6,0.4,9.4,1.2,11.1c0.7,1.7,2.5,3,5.2,3.9
				l2.7,2.9h-16.8l-0.4-0.9h15.5l-1.6-1.7h-14.4c2.5-0.9,4.2-2.2,5-3.6c0.9-1.6,1.3-4.2,1.3-7.8v-24.7l-4-3.5h15.6l-4.3,2.9l15,29.2
				v-3.7l-12.9-25l4.3-2.9l0.6,0.6l-3.9,2.6l11.7,23.1v-14.4v-1.6c0-3.6-0.3-5.9-0.9-7.2c-0.6-1.2-2-2.3-4.3-3.5h13.9L287.4,143.3
				L287.4,143.3z M288.5,145.6l-0.6,0.9c-1.6,0.4-2.6,1-3.2,2c-0.6,1-0.9,2.7-0.9,5v31.9h-6.6l-0.4-0.9h6.2v-30.7
				c0-2.9,0.4-4.9,1.2-6.1C284.9,146.8,286.4,145.9,288.5,145.6z"/>
			<path class="st3" d="M323.6,143.3l-24.7,37h1.9l24.2-36.4l0.6,0.7l-23.8,35.7h3h2.5h1.3c1.7,0,3.3-0.3,4.8-1
				c1.6-0.6,2.6-1.4,3.5-2.5c1-1.3,1.7-2.7,2.5-4.2c1.7,4.5,3.6,7.9,5.5,10.4h-35.3l23-34.4h-0.6H308c-3.7,0-6.3,0.4-7.8,1.2
				c-1.4,0.9-2.5,2.5-3,5l-0.7-0.7c0.4-1.7,1.3-3.2,2.6-4.3c0.9-0.7,1.9-1.3,3-1.6s3.2-0.4,5.8-0.4c1.7,0,3.3,0,4.8,0.1h0.4l1.2-1.7
				c-1.4-0.1-2.9-0.1-4.3-0.1c-4.3,0-7.2,0.1-8.8,0.6s-3,1.2-4.2,2.5c-0.9,1-1.6,2.3-2.2,3.9l-0.3-0.6c-1-2.3-2.5-5.2-4.3-8.7
				l-0.1-0.3h33.6V143.3z M328.1,182.7l-1.6,2.7h-35.2l-0.6-0.9h35.4l1.2-1.9c-2.3-2.9-4.2-6.2-5.6-9.8l1,0.4c1,3.2,2.7,6.2,5.2,9.1
				L328.1,182.7z"/>
			<path class="st3" d="M363,143.3l-0.4,0.6c-2.2,2.6-3.7,5.5-5,8.8c-0.1-0.4-0.4-0.9-0.4-1c-1.2-2.5-2.3-4-3.6-4.8
				c-1.3-0.7-3.6-1-6.9-1c-1.6,0-3.5,0-5.6,0.1v14.2h2v-12.6c1.6-0.1,3-0.3,4.5-0.3c2.6,0,4.5,0.3,5.8,0.9c1.3,0.6,2.3,1.6,3.3,3.2
				c-0.3-0.1-0.4-0.3-0.6-0.4c-1.7-1.3-2.9-2.2-3.6-2.3c-0.7-0.3-2.2-0.4-4.3-0.4c-0.7,0-1.9,0-3.5,0.1H344V160h5.6l4-5.5v13.3
				l-4-5.2h-8.8V180h2v-15.9h6.6l0.9,0.9h-6.8v15c4.2,0,7.2-0.3,8.9-0.9c1.7-0.6,3.2-1.7,4.2-3.5l1.6-2.9c0-0.1,0.1-0.3,0.4-0.7
				c0.6,2.3,1.2,4,2,5.5c0.9,1.3,2.2,2.9,3.9,4.8H330l4.8-3.6v-13.7c-1.7,0.1-3.3,0.7-4.8,1.6l-0.4-0.6c1.3-0.9,3-1.4,5.2-1.7v-1.4
				c-0.3,0-0.6,0-0.7,0c-2.2,0-4,0.7-5.8,2.3c1-3.3,3.2-4.9,6.5-4.9V147l-4.8-3.7H363L363,143.3z M368.2,182.7l-1.6,2.7h-33.8
				l-0.4-0.9h33.8l1-1.9c-3-2.7-5-5.6-6.2-8.8l1,0.4c1.2,2.6,3,5.3,5.8,7.9L368.2,182.7z M355.4,155.7v13.7l-0.7-0.4v-13.7
				L355.4,155.7z M364.5,145.5l-0.3,0.3c-2.5,3.3-4.2,6.2-5,8.5l-0.6-0.7c1.4-3.2,3.2-6.1,5.3-8.8L364.5,145.5z"/>
			<path class="st3" d="M369.5,143.3h13.9c5.9,0,10.1,0.9,12.6,2.5c3.2,2,4.8,4.9,4.8,8.5c0,2.2-0.6,4.2-1.9,5.8
				c-1.2,1.6-2.9,2.7-5,3.5c-2.2,0.7-5.6,1.2-10.4,1.2h-3.7v15l3.7,3.5H369l4.3-3.6v-12.4c-0.3,0-0.4,0-0.6,0c-1.4,0-2.9,0.3-4.3,1
				l-0.3-0.6c1.4-0.7,2.6-1.2,3.7-1.2h1.2h0.3V165c-0.4,0-0.7-0.1-1-0.1c-2.2,0-3.9,0.6-5.3,1.6l-0.3-0.4c1.3-2.3,3.3-3.5,6.1-3.5
				h0.4v-15.2L369.5,143.3z M399.1,146.6c1.3,0.6,2.3,1.7,3,3.3c0.7,1.6,1.2,3.3,1.2,5.3c0,4.5-1.7,7.6-5.2,9.7
				c-2.6,1.4-7.1,2.2-13.4,2.2c-1,0-1.9,0-2.6,0v12.7l4.9,5.8h-15.5l-0.9-0.9h14.6l-3.9-4.6v-14c1.7,0.1,3.7,0.1,5.8,0.1
				c5.3,0,9.2-0.9,11.8-2.7c2.6-1.9,3.9-4.8,3.9-8.7c0-1.6-0.3-3-0.7-4.2C401.4,149.5,400.6,148.1,399.1,146.6z M379.6,146.5v15.5
				h0.4h0.9c0.1,0,0.1,0,0.4,0v-13.7h3.5c2.6,0,4.5,0.3,5.6,0.7s2,1.4,2.7,2.9c-0.7-1-1.7-1.7-2.9-2.2c-1.2-0.4-2.7-0.6-4.9-0.6
				h-3.2v13c4,0,7.1-0.6,8.9-1.7c1.9-1.2,2.9-3,2.9-5.6c0-2.9-0.9-4.9-2.6-6.2c-1.7-1.3-4.5-1.9-8.2-1.9
				C382.3,146.3,381.1,146.3,379.6,146.5z"/>
			<path class="st3" d="M443,143.3c-0.1,0.3-0.3,0.6-0.4,0.7l-2.2,3.7c-0.7,1.3-1.4,3-2,4.9v0.1l-0.3-0.1l-0.1-0.4
				c-0.6-2.3-1.4-4-2.6-4.9c-1.2-0.9-2.7-1.3-5-1.3c-0.9,0-1.9,0-2.7,0.1h-0.1v33.5l3.6,3.3h-14.2l4.3-3.6v-30.7H419
				c-2.2,0-3.6,0.4-4.5,1.3c-0.9,0.9-1.4,2.3-1.6,4.5h-0.9c0.3-2.5,0.9-4,1.9-5s2.7-1.4,5-1.4h1.9h0.3v-1.4c-1-0.1-2-0.1-3-0.1
				c-2.6,0-4.6,0.6-5.8,1.6c-1.2,1-1.9,2.9-1.9,5.5h-0.4c-0.9-2.9-2.3-6.1-4-9.5l-0.1-0.3H443L443,143.3L443,143.3z M436.8,150.1
				c-1.6-1-3.5-1.6-5.6-1.6c-0.4,0-1,0-1.4,0.1l0.1,31l4.9,5.8H419l-0.7-0.9H433l-4.2-4.8v-32.2h1.7c2,0,3.5,0.1,4.2,0.4
				C435.7,148.5,436.4,149.1,436.8,150.1z M445,145.2c-1.4,1.9-2.9,4.8-4.5,9.1l-0.1,0.3l-0.7-0.6l0.1-0.3c1.6-4.3,3-7.2,4.5-8.9
				l0.1-0.1L445,145.2z"/>
			<g>
				<path class="st3" d="M189.9,195c-0.9,1.2-1.4,2.2-1.9,3.5c-1,2.3-1.6,3.7-1.9,4.3l-0.1,0.1c0-0.1-0.1-0.3-0.1-0.4
					c-0.4-1.4-0.9-2.5-1-2.9c-0.3-0.6-0.7-1-1.3-1.6c-1.4-1.3-3-1.9-4.9-1.9c-1.7,0-3,0.4-4.2,1.4c-1.2,0.9-1.7,2.2-1.7,3.5
					c0,2.6,2,4.5,5.9,5.3l3.9,1c5.6,1.3,8.5,4.3,8.5,8.9c0,2.6-1,4.8-2.9,6.5c-1.9,1.7-4.3,2.6-7.2,2.6c-1.7,0-3.7-0.3-5.9-0.9
					l-2.7-0.7c-1.2-0.3-2-0.4-2.7-0.4c-1,0-1.9,0.3-2.9,0.9l-0.1-0.3c1.9-2.9,3.3-5.8,4-8.4l0.4,0.1c0.3,2.5,1.3,4.3,2.9,5.8
					c1.6,1.3,3.7,2,6.5,2c2.2,0,3.7-0.4,5-1.4c1.3-1,1.9-2.3,1.9-3.9c0-1.9-0.9-3.5-2.6-4.8c-1.3-0.9-3.7-1.7-7.6-2.5
					c-2.9-0.6-5-1.6-6.5-2.9c-1.3-1.3-2-3.2-2-5.6s0.9-4.5,2.6-6.1c1.7-1.6,4-2.3,6.9-2.3c1.9,0,3.9,0.3,6.3,1
					c1.2,0.3,2,0.4,2.6,0.4c0.7,0,1.6-0.3,2.5-0.9L189.9,195z M189.9,210c2.2,1.6,3.2,3.7,3.2,6.6c0,3-1.2,5.5-3.5,7.6
					c-2.3,2-5.2,3.2-8.4,3.2c-1.7,0-3.2-0.1-4.6-0.6l-3.7-0.9c-0.9-0.3-1.9-0.3-2.9-0.3c-0.9,0-1.7,0.1-2.5,0.6l-0.3-0.7
					c0.9-0.4,1.6-0.6,2.5-0.6c0.9,0,2,0.1,3.2,0.4l3.6,0.9c1.4,0.3,2.9,0.6,4.6,0.6c3.2,0,5.8-1,7.9-3c2.2-2,3.3-4.5,3.3-7.2
					C192.5,214,191.7,211.9,189.9,210L189.9,210z M170.3,209.1l0.9,0.4c0.6,0.9,2,1.7,4.5,2.3l3.7,1c2.6,0.6,4.3,1.2,5.2,1.6
					c0.9,0.4,1.4,1.2,1.9,2.2l-0.1,0.1c-0.7-0.9-1.4-1.4-2.3-1.7c-0.9-0.4-2.5-0.9-4.8-1.4c-3.3-0.7-5.6-1.4-6.8-2
					C171.2,210.9,170.6,210.1,170.3,209.1z M173.3,216.8c0.6,2.9,2.2,4.8,4.6,5.9v0.1c-2.9-0.9-4.6-2.9-5.3-6.1L173.3,216.8z
					 M184.6,200.6c-1.7-1.9-3.6-2.7-5.5-2.7c-1.2,0-2.2,0.3-2.9,1c-0.7,0.7-1.2,1.6-1.2,2.6c0,1.2,0.7,2.3,2.3,3.6l0.1,0.1l-0.1,0.1
					c-2-0.9-3-2.3-3-4c0-1.2,0.4-2.2,1.3-3c0.9-0.7,2-1.2,3.5-1.2c1.3,0,2.5,0.3,3.5,0.9s1.7,1.4,2.2,2.5L184.6,200.6z M191.4,196
					l-0.1,0.3c-0.6,1-1.2,2.2-1.6,3c-1.2,2.3-1.7,3.6-1.9,3.9l-0.1,0.1l-0.6-0.3l0.1-0.1c0.4-1,1.2-2.3,2-4l1.6-3l0.1-0.1L191.4,196
					z"/>
				<path class="st3" d="M207.7,194.4c3.7,0,6.8,1.4,9.1,4.3s3.5,6.8,3.5,11.6c0,4.6-1.2,8.2-3.3,10.8c-2.3,2.7-5.2,4-9.1,4
					c-3,0-5.6-1-7.9-2.9c-3.5-2.9-5.2-6.9-5.2-12.6c0-4.8,1.2-8.5,3.5-11.3C200.6,195.8,203.8,194.4,207.7,194.4z M207.7,196.4
					c-5.3,0-7.9,4.6-7.9,14c0,8.5,2.6,12.9,7.8,12.9c2.5,0,4.3-1.2,5.5-3.5c1.3-2.3,1.9-5.6,1.9-10c0-4.9-0.6-8.4-1.9-10.4
					C212,197.4,210.2,196.4,207.7,196.4z M215.2,195.7c2.2,1,4,2.9,5.3,5.5c1.3,2.6,1.9,5.6,1.9,9.1c0,5-1.3,9.1-3.9,12.3
					c-2.6,3-5.9,4.6-10.1,4.6c-2.6,0-5.2-0.9-7.5-2.7v-0.1c1.9,1.4,4.3,2.2,7.4,2.2c3.9,0,7.2-1.4,9.7-4.5c2.5-2.9,3.7-6.8,3.7-11.4
					c0-3.5-0.6-6.3-1.7-8.9c-1.2-2.6-2.7-4.5-4.9-5.8v-0.1L215.2,195.7L215.2,195.7z M212.8,200l-0.4-0.3c-1.4-0.9-2.9-1.3-4.2-1.3
					c-4,0-6.2,4-6.2,12.1c0,5.9,1.3,9.8,3.7,11.7l-0.1,0.3c-1.6-1.2-2.7-2.6-3.3-4.3c-0.7-1.9-1-4.2-1-7.4c0-8.7,2.3-13,6.8-13
					C210.3,197.9,211.7,198.6,212.8,200z"/>
				<path class="st3" d="M224.6,194.7h11.3l-3.3,3.2V223h0.1h0.9h0.1v-25l2.6-2.6l0.3,0.6l-2.3,2.3V223c0.7,0,1.4,0.1,2,0.1
					c2.5,0,4.3-0.6,5.6-1.6c1.3-1.2,2.2-2.9,2.6-5.5c1.4,4.3,3,7.2,4.5,8.8h-24.6l3.2-2.6v-24.5L224.6,194.7z M251.3,224.7l-1,2.2
					h-24.5l-0.6-0.6H250l0.7-1.4c-1.7-2.2-3-4.5-4.2-7.1l-0.1-0.3l0.7,0.3l0.1,0.4c1,2.3,2.3,4.5,3.7,6.3L251.3,224.7z"/>
				<path class="st3" d="M277.9,194.7l-4.2,3.3v15.2c0,2.7-0.1,4.8-0.3,6.1c-0.1,1.2-0.6,2.2-1,3c-1.3,2-3.9,3-7.8,3
					c-4,0-6.9-1-8.5-3c-1.3-1.6-1.9-4.6-1.9-9.1v-15.6l-3.2-2.9h11.1l-3.2,3.2v15.3v3.6c0,2.3,0.4,4,1.4,4.9c1,1,2.6,1.4,4.9,1.4
					c2.6,0,4.3-0.7,5.2-2.2c0.7-1.2,1.2-3.7,1.2-7.8l0.1-15.2l-3.6-3.3L277.9,194.7L277.9,194.7z M278.6,196.3l-3.2,2.6v14.6
					c0,4.8-0.4,7.9-1.2,9.4c-1.6,2.9-4.5,4.5-8.9,4.5c-3.9,0-6.8-1-8.7-2.9l0.1,0.1l0.9,0.4c1.9,1.2,4.3,1.7,7.4,1.7
					c4.3,0,7.2-1.3,8.5-4c0.7-1.4,1.2-4.5,1.2-8.8v-15l3.5-2.9L278.6,196.3z M262.7,196l-2.3,2.3v17.5v1.6l0.7,3
					c0.4,0.6,1,1.3,2,2.2v0.1c-1.3-0.6-2.2-1.3-2.7-2.3c-0.4-1-0.7-2.6-0.7-4.8V198l2.6-2.6L262.7,196z"/>
				<path class="st3" d="M306.2,194.7c-0.1,0.3-0.3,0.4-0.3,0.6l-1.6,2.9c-0.6,1-1,2.3-1.6,3.7v0.1l-0.3-0.1v-0.3
					c-0.4-1.7-1.2-3-1.9-3.7c-0.9-0.7-2.2-1-3.9-1c-0.7,0-1.4,0-2.2,0.1h-0.3v25.4l2.7,2.6h-10.7l3.3-2.7v-23.4h-1.7
					c-1.6,0-2.7,0.3-3.5,1c-0.7,0.6-1.2,1.7-1.2,3.3h-0.6c0.1-1.9,0.6-3.2,1.4-3.9c0.7-0.7,2-1,3.9-1h1.4h0.3v-1.2
					c-0.9-0.1-1.6-0.1-2.3-0.1c-2,0-3.5,0.4-4.3,1.3s-1.4,2.2-1.4,4.2h-0.3c-0.7-2.2-1.7-4.6-3.2-7.2L278,195h28.1L306.2,194.7
					L306.2,194.7z M301.4,199.9c-1.2-0.7-2.6-1.2-4.2-1.2c-0.3,0-0.7,0-1.2,0l0.1,23.5l3.7,4.5h-12l-0.6-0.6h11.3l-3.2-3.6v-24.4
					h1.3c1.6,0,2.6,0.1,3.2,0.4C300.5,198.7,301.1,199.2,301.4,199.9z M307.7,196.3c-1,1.4-2.2,3.6-3.5,6.8l-0.1,0.3l-0.6-0.4v-0.1
					c1.2-3.2,2.3-5.5,3.3-6.8l0.1-0.1L307.7,196.3z"/>
				<path class="st3" d="M307.9,194.7H319l-3.2,3.2v24.5l2.9,2.5h-11l3.3-2.7v-24.5L307.9,194.7z M320,196.1l-2.5,2.3v24l3.9,4.5
					h-12.1l-0.6-0.6h11.4l-3.2-3.6v-24.4l2.6-2.6L320,196.1z"/>
				<path class="st3" d="M335.8,194.4c3.7,0,6.8,1.4,9.1,4.3c2.3,2.9,3.5,6.8,3.5,11.6c0,4.6-1.2,8.2-3.3,10.8c-2.3,2.7-5.2,4-9.1,4
					c-3,0-5.6-1-7.9-2.9c-3.5-2.9-5.2-6.9-5.2-12.6c0-4.8,1.2-8.5,3.5-11.3C328.5,195.8,331.7,194.4,335.8,194.4z M335.8,196.4
					c-5.3,0-7.9,4.6-7.9,14c0,8.5,2.6,12.9,7.8,12.9c2.5,0,4.3-1.2,5.5-3.5c1.3-2.3,1.9-5.6,1.9-10c0-4.9-0.6-8.4-1.9-10.4
					C339.9,197.4,338.1,196.4,335.8,196.4z M343.1,195.7c2.3,1,4,2.9,5.3,5.5s1.9,5.6,1.9,9.1c0,5-1.3,9.1-3.9,12.3
					c-2.6,3-5.9,4.6-10.1,4.6c-2.6,0-5.2-0.9-7.5-2.7v-0.1c1.9,1.4,4.3,2.2,7.4,2.2c3.9,0,7.2-1.4,9.7-4.5c2.5-2.9,3.7-6.8,3.7-11.4
					c0-3.5-0.6-6.3-1.7-8.9c-1.2-2.6-2.7-4.5-4.9-5.8v-0.1L343.1,195.7L343.1,195.7z M340.7,200l-0.4-0.3c-1.4-0.9-2.9-1.3-4.2-1.3
					c-4,0-6.2,4-6.2,12.1c0,5.9,1.3,9.8,3.7,11.7l-0.1,0.3c-1.6-1.2-2.7-2.6-3.3-4.3c-0.7-1.9-1-4.2-1-7.4c0-8.7,2.3-13,6.8-13
					C338.2,197.9,339.8,198.6,340.7,200z"/>
				<path class="st3" d="M379.4,194.7c-1.7,0.9-2.9,1.7-3.5,2.6c-0.7,1.2-1.2,3-1.2,5.3v1.6v20.6h-3.9l-11.1-21.5v12.7v1l0.3,3.3
					c0.3,1.6,1,2.7,2.2,3.5l0.1,0.1c-2.2-0.7-3.2-3-3.2-6.9v-2.2v-12.7l-1.3-2.5v13.6c0,4.3,0.3,7.1,0.9,8.4
					c0.6,1.3,1.9,2.3,3.9,2.9l2,2.2h-12.7l-0.4-0.6h11.7l-1.2-1.3h-11c1.9-0.7,3.2-1.6,3.7-2.7c0.6-1.2,1-3.2,1-5.9v-18.7l-3.2-2.6
					h11.8l-3.3,2.2l11.4,22.1v-2.9l-9.7-18.9l3.3-2.2l0.4,0.4l-2.9,2l8.9,17.5v-11v-1.3c0-2.7-0.3-4.5-0.7-5.5
					c-0.4-0.9-1.6-1.7-3.3-2.6H379.4z M380.1,196.4l-0.4,0.7c-1.2,0.3-2,0.9-2.5,1.6c-0.4,0.7-0.6,2-0.6,3.9v24.1h-5l-0.3-0.6h4.8
					v-23.4c0-2.2,0.3-3.7,0.9-4.6C377.3,197.3,378.5,196.7,380.1,196.4z"/>
				<path class="st3" d="M403.5,195c-0.9,1.2-1.4,2.2-1.9,3.5c-1,2.3-1.6,3.7-1.9,4.3l-0.1,0.1c0-0.1-0.1-0.3-0.1-0.4
					c-0.4-1.4-0.9-2.5-1-2.9c-0.3-0.6-0.7-1-1.3-1.6c-1.4-1.3-3-1.9-4.9-1.9c-1.7,0-3,0.4-4.2,1.4c-1.2,0.9-1.7,2.2-1.7,3.5
					c0,2.6,2,4.5,5.9,5.3l3.9,1c5.6,1.3,8.5,4.3,8.5,8.9c0,2.6-1,4.8-2.9,6.5c-1.9,1.7-4.3,2.6-7.2,2.6c-1.7,0-3.7-0.3-5.9-0.9
					l-2.7-0.7c-1.2-0.3-2-0.4-2.7-0.4c-1,0-1.9,0.3-2.9,0.9l-0.1-0.3c1.9-2.9,3.3-5.8,4-8.4l0.4,0.1c0.3,2.5,1.3,4.3,2.9,5.8
					c1.6,1.3,3.7,2,6.5,2c2.2,0,3.7-0.4,5-1.4c1.3-1,1.9-2.3,1.9-3.9c0-1.9-0.9-3.5-2.6-4.8c-1.3-0.9-3.7-1.7-7.6-2.5
					c-2.9-0.6-5-1.6-6.5-2.9c-1.3-1.3-2-3.2-2-5.6s0.9-4.5,2.6-6.1s4-2.3,6.9-2.3c1.9,0,3.9,0.3,6.3,1c1.2,0.3,2,0.4,2.6,0.4
					c0.7,0,1.6-0.3,2.5-0.9L403.5,195z M403.5,210c2.2,1.6,3.2,3.7,3.2,6.6c0,3-1.2,5.5-3.5,7.6c-2.3,2-5.2,3.2-8.4,3.2
					c-1.7,0-3.2-0.1-4.6-0.6l-3.7-0.9c-0.9-0.3-1.9-0.3-2.7-0.3s-1.7,0.1-2.5,0.6l-0.3-0.7c0.9-0.4,1.6-0.6,2.5-0.6
					c1,0,2,0.1,3.2,0.4l3.6,0.9c1.4,0.3,2.9,0.6,4.6,0.6c3.2,0,5.8-1,7.9-3c2.2-2,3.3-4.5,3.3-7.2C405.9,214,405.1,211.9,403.5,210
					L403.5,210z M383.8,209.1l0.9,0.4c0.6,0.9,2,1.7,4.5,2.3l3.7,1c2.6,0.6,4.3,1.2,5.2,1.6s1.4,1.2,1.9,2.2l-0.1,0.1
					c-0.7-0.9-1.4-1.4-2.3-1.7c-0.9-0.4-2.5-0.9-4.8-1.4c-3.3-0.7-5.6-1.4-6.8-2C384.7,210.9,384,210.1,383.8,209.1z M386.7,216.8
					c0.6,2.9,2.2,4.8,4.6,5.9v0.1c-2.9-0.9-4.6-2.9-5.3-6.1L386.7,216.8z M398,200.6c-1.7-1.9-3.6-2.7-5.5-2.7c-1.2,0-2.2,0.3-2.9,1
					c-0.7,0.7-1.2,1.6-1.2,2.6c0,1.2,0.7,2.3,2.3,3.6l0.1,0.1l-0.1,0.1c-2-0.9-3-2.3-3-4c0-1.2,0.4-2.2,1.3-3c0.9-0.7,2-1.2,3.5-1.2
					c1.3,0,2.5,0.3,3.5,0.9c1,0.6,1.7,1.4,2.2,2.5L398,200.6z M404.9,196l-0.1,0.3c-0.6,1-1.2,2.2-1.6,3c-1.2,2.3-1.7,3.6-1.9,3.9
					l-0.1,0.1l-0.6-0.3l0.1-0.1c0.4-1,1.2-2.3,2-4l1.6-3l0.1-0.1L404.9,196z"/>
			</g>
		</g>
	</g>
</g>
</svg>
