<?xml version="1.0" encoding="utf-8"?>
<!-- Generator: Adobe Illustrator 26.0.0, SVG Export Plug-In . SVG Version: 6.00 Build 0)  -->
<svg version="1.1" id="Layer_1" xmlns="http://www.w3.org/2000/svg" xmlns:xlink="http://www.w3.org/1999/xlink" x="0px" y="0px"
	 viewBox="0 0 70 70" style="enable-background:new 0 0 70 70;" xml:space="preserve">
<style type="text/css">
	.st0{fill:#FFFFFF;}
</style>
<g>
	<g>
		<path class="st0" d="M48.8,5H21.3C12.3,5,5,12.3,5,21.3v27.3c0,9,7.5,16.4,16.4,16.4h27.3c9,0,16.4-7.5,16.4-16.4V21.3
			C65.2,12.3,57.7,5,48.8,5z M59.8,48.8c0,6-4.9,10.9-10.9,10.9H21.3c-6,0-10.9-4.9-10.9-10.9V21.3c0-6,4.9-10.9,10.9-10.9h27.3
			c6,0,10.9,4.9,10.9,10.9v27.5H59.8z M37.2,21.3c-1.4-0.4-2.8-0.4-4.2,0c-7.5,1.1-12.6,8.2-11.4,15.6c0.6,3.6,2.5,6.9,5.4,9.1
			c2.5,1.7,5.3,2.8,8.2,2.8c0.6,0,1.4,0,1.8-0.4c3.6-0.6,6.9-2.5,9.1-5.4c2.2-3.1,3.1-6.6,2.5-10.2C47.9,26.8,43.2,22.1,37.2,21.3z
			 M41.9,39.7c-1.4,1.7-3.2,3.1-5.4,3.2c-4.3,0.6-8.8-2.5-9.3-6.9c-0.7-4.3,2.5-8.8,6.9-9.3c0.4,0,0.7,0,1.1,0s0.7,0,1.1,0
			c3.6,0.6,6.4,3.2,6.9,6.9C43.5,35.9,42.9,38.1,41.9,39.7z M48.1,18.1c-0.5,0.6-0.7,1.1-0.7,1.8c0,0.4,0,0.7,0.4,1.1
			c0,0.4,0.4,0.6,0.6,0.7c0.6,0.6,1.4,0.7,1.8,0.7c0.6,0,1.4-0.4,1.8-0.7c0.4-0.4,0.6-0.6,0.6-0.7s0.4-0.6,0.4-1.1
			c0-0.7-0.4-1.4-0.7-1.8C51,17,49.2,17,48.1,18.1z"/>
	</g>
</g>
</svg>
