<?xml version="1.0" encoding="utf-8"?>
<!-- Generator: Adobe Illustrator 26.0.0, SVG Export Plug-In . SVG Version: 6.00 Build 0)  -->
<svg version="1.1" id="Layer_1" xmlns="http://www.w3.org/2000/svg" xmlns:xlink="http://www.w3.org/1999/xlink" x="0px" y="0px"
	 viewBox="0 0 70 70" style="enable-background:new 0 0 70 70;" xml:space="preserve">
<style type="text/css">
	.st0{fill:#FFFFFF;}
</style>
<g>
	<g>
		<path class="st0" d="M5,65h12.9V22.1H5V65z M60.6,27.7c-2.5-3-6.5-4.4-10.7-4.4c-5.5,0-9.9,3-12.5,7.4H37l-0.9-8.6h-9.9
			c0,4.4,0,42.9,0,42.9h12.9c0,0,0-21.4,0-27c0.9-3.4,3-5.1,6.5-5.1c4.3,0,6.5,3,6.5,9V65H65V41C65,35,63.6,30.7,60.6,27.7z M11.5,5
			C7.6,5,5,8,5,11.5S7.6,18,11.5,18s6.5-3,6.5-6.5S15.4,5,11.5,5z"/>
	</g>
</g>
</svg>
