<?xml version="1.0" encoding="utf-8"?>
<!-- Generator: Adobe Illustrator 26.0.0, SVG Export Plug-In . SVG Version: 6.00 Build 0)  -->
<svg version="1.1" id="Layer_1" xmlns="http://www.w3.org/2000/svg" xmlns:xlink="http://www.w3.org/1999/xlink" x="0px" y="0px"
	 viewBox="0 0 70 70" style="enable-background:new 0 0 70 70;" xml:space="preserve">
<style type="text/css">
	.st0{fill:#A5A5A5;}
</style>
<path class="st0" d="M63.3,55.3L43,35l20.3-20.3c2.2-2.2,2.2-5.6,0-8c-2.2-2.2-5.6-2.2-8,0L35,27L14.7,6.7c-2.2-2.2-5.6-2.2-8,0
	s-2.2,5.6,0,8L27,35L6.7,55.3c-2.2,2.2-2.2,5.6,0,8c2.2,2.2,5.6,2.2,8,0L35,43l20.3,20.3c2.2,2.2,5.6,2.2,8,0
	C65.5,60.9,65.5,57.5,63.3,55.3z"/>
</svg>
