<?xml version="1.0" encoding="utf-8"?>
<!-- Generator: Adobe Illustrator 26.0.0, SVG Export Plug-In . SVG Version: 6.00 Build 0)  -->
<svg version="1.1" id="Layer_1" xmlns="http://www.w3.org/2000/svg" xmlns:xlink="http://www.w3.org/1999/xlink" x="0px" y="0px"
	 viewBox="0 0 70 70" style="enable-background:new 0 0 70 70;" xml:space="preserve">
<style type="text/css">
	.st0{fill:#FFFFFF;}
</style>
<path class="st0" d="M64.9,18.5c-2.3,1.1-4.7,1.7-7.1,2c2.6-1.5,4.5-3.9,5.4-6.9c-2.4,1.5-5,2.4-7.8,3c-2.3-2.4-5.6-3.9-9-3.9
	c-6.9,0-12.3,5.6-12.3,12.3c0,1.1,0.2,2,0.3,2.9C24,27.2,15,22.4,9,14.8c-1.1,1.8-1.7,3.9-1.7,6.2c0,4.2,2.3,8.1,5.6,10.2
	C10.8,31,9,30.6,7.3,29.5v0.2c0,6,4.2,11,9.9,12c-1.1,0.3-2.1,0.5-3.3,0.5c-0.9,0-1.7-0.2-2.3-0.3c1.7,5,6.2,8.4,11.4,8.6
	c-4.1,3.3-9.5,5.4-15.2,5.4c-1.1,0-2,0-3-0.2c5.6,3.6,12,5.6,18.9,5.6C46.6,61.3,59,42.5,59,26.1c0-0.5,0-1.1,0-1.7
	C61.3,23.1,63.2,20.9,64.9,18.5z"/>
</svg>
