<?xml version="1.0" encoding="utf-8"?>
<!-- Generator: Adobe Illustrator 26.0.0, SVG Export Plug-In . SVG Version: 6.00 Build 0)  -->
<svg version="1.1" id="Layer_1" xmlns="http://www.w3.org/2000/svg" xmlns:xlink="http://www.w3.org/1999/xlink" x="0px" y="0px"
	 viewBox="0 0 40 40" style="enable-background:new 0 0 40 40;" xml:space="preserve">
<style type="text/css">
	.st0{fill:#FFFFFF;}
</style>
<path class="st0" d="M25.6,17.9l-5-5c-0.1-0.1-0.2-0.2-0.2-0.2c-0.2-0.1-0.5-0.1-0.7,0c-0.1,0.1-0.2,0.1-0.2,0.2l-5,5
	c-0.4,0.4-0.4,0.8,0,1.1s0.8,0.4,1.1,0l3.6-3.6v11.4c0,0.5,0.4,0.8,0.8,0.8c0.5,0,0.8-0.4,0.8-0.8V15.4l3.6,3.6
	c0.2,0.2,0.5,0.2,0.6,0.2s0.5-0.1,0.6-0.2C25.9,18.6,25.9,18.2,25.6,17.9z"/>
</svg>
