<svg xmlns="http://www.w3.org/2000/svg" width="677.425" height="420.801" viewBox="0 0 677.425 420.801">
  <g id="_3747372" data-name="3747372" transform="translate(-33.368 -35.879)">
    <g id="Background_Complete">
      <g id="Group_364" data-name="Group 364">
        <path id="Path_12674" data-name="Path 12674" d="M466.99,443.86a16.657,16.657,0,0,1,24.72,12.82c-10.1.01-20.05-2.35-24.72-12.82" fill="#fff"/>
        <g id="Group_362" data-name="Group 362">
          <path id="Path_12675" data-name="Path 12675" d="M478.76,433.51a21.559,21.559,0,0,0,28.18-22.46c-12.83,2.52-24.87,8-28.18,22.46" fill="#fff"/>
          <g id="Group_361" data-name="Group 361">
            <path id="Path_12676" data-name="Path 12676" d="M434.79,450.6a3.071,3.071,0,0,1,.63-.25c.47-.16,1.08-.37,1.84-.62,1.61-.52,3.93-1.28,6.78-2.27,5.7-1.97,13.53-4.83,21.97-8.51,4.21-1.85,8.18-3.73,11.73-5.53,3.54-1.83,6.68-3.58,9.25-5.15a59.779,59.779,0,0,0,5.87-4.04c1.32-1.04,1.97-1.72,2.01-1.67a3.518,3.518,0,0,1-.46.5,16.071,16.071,0,0,1-1.43,1.33,53.269,53.269,0,0,1-5.81,4.19c-2.56,1.62-5.68,3.41-9.22,5.26-3.55,1.83-7.52,3.73-11.74,5.58-8.46,3.68-16.32,6.5-22.06,8.38-2.87.95-5.21,1.65-6.83,2.11-.77.22-1.39.39-1.87.53A2.424,2.424,0,0,1,434.79,450.6Z"/>
          </g>
        </g>
        <g id="Group_363" data-name="Group 363">
          <path id="Path_12677" data-name="Path 12677" d="M479.96,449.74c-.05.07-1.22-.74-3.24-1.83a38.884,38.884,0,0,0-17.08-4.67c-2.29-.09-3.71.02-3.72-.08a3.6,3.6,0,0,1,.99-.16,23.466,23.466,0,0,1,2.73-.13,34.4,34.4,0,0,1,17.25,4.72,27.179,27.179,0,0,1,2.29,1.5A3.513,3.513,0,0,1,479.96,449.74Z"/>
        </g>
      </g>
      <g id="Group_366" data-name="Group 366">
        <path id="Path_12678" data-name="Path 12678" d="M241.73,404.78a21,21,0,0,0,20.7,28.36c-1.91-12.59-6.76-24.55-20.7-28.36" fill="#fff"/>
        <g id="Group_365" data-name="Group 365">
          <path id="Path_12679" data-name="Path 12679" d="M239.76,398.6c.08-.02.43,1.38,1.15,3.57a51.83,51.83,0,0,0,8.48,15.82c1.43,1.82,2.4,2.88,2.33,2.94a4.324,4.324,0,0,1-.76-.67c-.47-.45-1.11-1.15-1.86-2.03a43.918,43.918,0,0,1-8.54-15.95c-.32-1.12-.54-2.04-.66-2.68A3.25,3.25,0,0,1,239.76,398.6Z"/>
        </g>
      </g>
      <g id="Group_368" data-name="Group 368">
        <path id="Path_12680" data-name="Path 12680" d="M41.89,152.44a32.532,32.532,0,0,0,32.07,43.93c-2.97-19.5-10.47-38.01-32.07-43.93" fill="#fff"/>
        <g id="Group_367" data-name="Group 367">
          <path id="Path_12681" data-name="Path 12681" d="M38.83,142.88a9.48,9.48,0,0,1,.47,1.49c.26.97.67,2.36,1.22,4.07a77.733,77.733,0,0,0,13.16,24.54c1.11,1.4,2.05,2.52,2.71,3.27a7.8,7.8,0,0,1,.98,1.22,8.747,8.747,0,0,1-1.13-1.08c-.71-.71-1.69-1.79-2.85-3.17a69.711,69.711,0,0,1-13.22-24.66c-.51-1.73-.87-3.14-1.07-4.13A11.444,11.444,0,0,1,38.83,142.88Z"/>
        </g>
      </g>
      <g id="Group_370" data-name="Group 370">
        <path id="Path_12682" data-name="Path 12682" d="M75.68,351.48a21.006,21.006,0,0,0,3.4,34.95c4.74-11.81,6.66-24.56-3.4-34.95" fill="#fff"/>
        <g id="Group_369" data-name="Group 369">
          <path id="Path_12683" data-name="Path 12683" d="M77.12,345.16c.08.03-.33,1.4-.82,3.66a53.667,53.667,0,0,0-1.16,8.93,53.077,53.077,0,0,0,.41,9c.3,2.29.6,3.7.51,3.72a4.109,4.109,0,0,1-.31-.96c-.17-.63-.37-1.55-.57-2.7a43.977,43.977,0,0,1,.76-18.08c.29-1.13.57-2.03.79-2.64A4.352,4.352,0,0,1,77.12,345.16Z"/>
        </g>
      </g>
      <g id="Group_372" data-name="Group 372">
        <path id="Path_12684" data-name="Path 12684" d="M261.26,98.62a21,21,0,0,0,30.33-17.69c-12.72.62-25.1,4.21-30.33,17.69" fill="#fff"/>
        <g id="Group_371" data-name="Group 371">
          <path id="Path_12685" data-name="Path 12685" d="M254.91,99.95c-.01-.09,1.41-.28,3.67-.78a53.175,53.175,0,0,0,8.6-2.68,53.912,53.912,0,0,0,8.01-4.13c1.96-1.23,3.11-2.09,3.16-2.02a3.725,3.725,0,0,1-.75.69c-.5.42-1.25.98-2.21,1.64a44.581,44.581,0,0,1-8.01,4.31,43.448,43.448,0,0,1-8.73,2.56c-1.15.2-2.08.33-2.73.38A3.745,3.745,0,0,1,254.91,99.95Z"/>
        </g>
      </g>
      <g id="Group_374" data-name="Group 374">
        <path id="Path_12686" data-name="Path 12686" d="M235.34,96.81a27.689,27.689,0,0,0,16.72-43.17c-12.6,11.09-22.42,24.97-16.72,43.17" fill="#fff"/>
        <g id="Group_373" data-name="Group 373">
          <path id="Path_12687" data-name="Path 12687" d="M229.89,103.39a6.364,6.364,0,0,1,.84-1.03c.57-.63,1.38-1.57,2.34-2.75a66.666,66.666,0,0,0,11.53-20.7c.5-1.44.87-2.62,1.11-3.44a7.591,7.591,0,0,1,.43-1.26,6.811,6.811,0,0,1-.24,1.31c-.18.84-.5,2.04-.95,3.5a58.9,58.9,0,0,1-11.59,20.82c-1.01,1.16-1.86,2.06-2.48,2.66A6.125,6.125,0,0,1,229.89,103.39Z"/>
        </g>
      </g>
      <g id="Group_376" data-name="Group 376">
        <path id="Path_12688" data-name="Path 12688" d="M317.37,439.37a12.646,12.646,0,0,0,21.01,2.36c-6.36-4.27-13.64-6.99-21.01-2.36" fill="#fff"/>
        <g id="Group_375" data-name="Group 375">
          <path id="Path_12689" data-name="Path 12689" d="M313.83,437.73a60.443,60.443,0,0,0,7.2,2.64,56.241,56.241,0,0,0,7.58,1.14,7.559,7.559,0,0,1-2.27.13,24.987,24.987,0,0,1-5.44-.77,25.881,25.881,0,0,1-5.14-1.93A7.626,7.626,0,0,1,313.83,437.73Z"/>
        </g>
      </g>
      <g id="Group_378" data-name="Group 378">
        <path id="Path_12690" data-name="Path 12690" d="M410.07,80.33a12.647,12.647,0,0,0,21.07-1.75c-7.07-2.95-14.73-4.22-21.07,1.75" fill="#fff"/>
        <g id="Group_377" data-name="Group 377">
          <path id="Path_12691" data-name="Path 12691" d="M406.28,79.41a58.444,58.444,0,0,0,7.57,1.2,59.108,59.108,0,0,0,7.66-.34,7.705,7.705,0,0,1-2.2.57,25.339,25.339,0,0,1-10.91-.61A7.7,7.7,0,0,1,406.28,79.41Z"/>
        </g>
      </g>
      <g id="Group_380" data-name="Group 380">
        <path id="Path_12692" data-name="Path 12692" d="M650.31,111.09a20.994,20.994,0,0,0,26.38-23.15c-12.37,3.03-23.83,8.93-26.38,23.15" fill="#fff"/>
        <g id="Group_379" data-name="Group 379">
          <path id="Path_12693" data-name="Path 12693" d="M644.33,113.61c-.03-.08,1.33-.55,3.45-1.47a51.96,51.96,0,0,0,14.99-9.87c1.68-1.58,2.65-2.64,2.71-2.59a4.029,4.029,0,0,1-.6.82c-.41.51-1.04,1.21-1.86,2.04a43.831,43.831,0,0,1-15.11,9.94c-1.09.42-1.98.72-2.6.9A4.025,4.025,0,0,1,644.33,113.61Z"/>
        </g>
      </g>
      <g id="Group_382" data-name="Group 382">
        <path id="Path_12694" data-name="Path 12694" d="M673.97,415.88a36.534,36.534,0,0,0,21.18-57.29c-16.4,14.89-29.06,33.41-21.18,57.29" fill="#fff"/>
        <g id="Group_381" data-name="Group 381">
          <path id="Path_12695" data-name="Path 12695" d="M666.91,424.68a11,11,0,0,1,1.11-1.36c.75-.84,1.8-2.09,3.05-3.66s2.68-3.5,4.18-5.7c1.47-2.21,3.01-4.71,4.47-7.41,1.44-2.71,2.67-5.37,3.7-7.82,1.01-2.46,1.83-4.71,2.44-6.63s1.08-3.48,1.37-4.57a12.884,12.884,0,0,1,.51-1.68,12.124,12.124,0,0,1-.32,1.73c-.23,1.11-.64,2.69-1.21,4.63s-1.36,4.22-2.35,6.71a85.011,85.011,0,0,1-3.69,7.88,86.643,86.643,0,0,1-4.53,7.43c-1.53,2.2-2.99,4.12-4.29,5.66s-2.39,2.77-3.19,3.57A10.208,10.208,0,0,1,666.91,424.68Z"/>
        </g>
      </g>
    </g>
    <g id="Capa_8">
      <g id="Group_384" data-name="Group 384">
        <path id="Path_12696" data-name="Path 12696" d="M538.22,289.8c-6.32-35.25-36.58-66.03-72.27-68.94-19.45-1.58-39,4.55-58.37,2.21a67.964,67.964,0,0,1-42.48-22.4c-15.98-18.2-21.42-44.09-38.35-61.42-23.34-23.88-64.08-24.26-92.47-6.69s-45.57,49.28-53.43,81.73l-.31,9.87c-1.71,33.66,7.14,72.79,26.68,102.79,19.79,30.4,32.8,42.95,68.86,64.81,30.62,18.56,90.58,26.72,126.38,27.58s72.57-9.81,99.5-33.42C528.87,362.32,544.54,325.05,538.22,289.8Z" fill="#00bfa6"/>
        <g id="Group_383" data-name="Group 383" opacity="0.8">
          <path id="Path_12697" data-name="Path 12697" d="M538.22,289.8c-6.32-35.25-36.58-66.03-72.27-68.94-19.45-1.58-39,4.55-58.37,2.21a67.964,67.964,0,0,1-42.48-22.4c-15.98-18.2-21.42-44.09-38.35-61.42-23.34-23.88-64.08-24.26-92.47-6.69s-45.57,49.28-53.43,81.73l-.31,9.87c-1.71,33.66,7.14,72.79,26.68,102.79,19.79,30.4,32.8,42.95,68.86,64.81,30.62,18.56,90.58,26.72,126.38,27.58s72.57-9.81,99.5-33.42C528.87,362.32,544.54,325.05,538.22,289.8Z" fill="#fff"/>
        </g>
      </g>
      <g id="Group_385" data-name="Group 385">
        <circle id="Ellipse_1772" data-name="Ellipse 1772" cx="17.25" cy="17.25" r="17.25" transform="translate(536.653 427.76) rotate(-81.743)" fill="#00bfa6"/>
        <circle id="Ellipse_1773" data-name="Ellipse 1773" cx="17.25" cy="17.25" r="17.25" transform="translate(536.653 427.76) rotate(-81.743)" fill="#fff" opacity="0.8"/>
      </g>
    </g>
    <g id="_x34_04">
      <g id="Group_416" data-name="Group 416">
        <g id="Group_386" data-name="Group 386">
          <path id="Path_12698" data-name="Path 12698" d="M435.16,280.45q.495,51.645-22.52,78.97t-63.03,27.7q-40.2.39-63.91-26.49t-24.22-78.52l-.58-60.56q-.495-51.465,22.52-78.97t63.21-27.89q40.005-.39,63.73,26.67t24.22,78.52Zm-44.83-66.92q-.315-32.52-11.37-48.04t-31.97-15.32q-20.91.2-31.58,15.93t-10.36,48.25l.71,73.58q.315,32.715,11.47,48.32t32.07,15.41q20.91-.2,31.49-15.93t10.26-48.62Z" fill="#00bfa6"/>
        </g>
        <g id="Group_387" data-name="Group 387" opacity="0.4">
          <path id="Path_12699" data-name="Path 12699" d="M435.16,280.45q.495,51.645-22.52,78.97t-63.03,27.7q-40.2.39-63.91-26.49t-24.22-78.52l-.58-60.56q-.495-51.465,22.52-78.97t63.21-27.89q40.005-.39,63.73,26.67t24.22,78.52Zm-44.83-66.92q-.315-32.52-11.37-48.04t-31.97-15.32q-20.91.2-31.58,15.93t-10.36,48.25l.71,73.58q.315,32.715,11.47,48.32t32.07,15.41q20.91-.2,31.49-15.93t10.26-48.62Z"/>
        </g>
        <g id="Group_388" data-name="Group 388">
          <path id="Path_12700" data-name="Path 12700" d="M460.62,280.21q.495,51.645-22.52,78.97t-63.03,27.7q-40.2.39-63.91-26.49t-24.22-78.52l-.58-60.56q-.495-51.465,22.52-78.97t63.21-27.89q40.005-.39,63.73,26.67t24.22,78.52Zm-44.83-66.92q-.315-32.52-11.37-48.04t-31.97-15.32q-20.91.2-31.58,15.93t-10.36,48.25l.71,73.58q.315,32.715,11.47,48.32t32.07,15.41q20.91-.2,31.49-15.93t10.26-48.62Z" fill="#00bfa6"/>
        </g>
        <g id="Group_389" data-name="Group 389">
          <path id="Path_12701" data-name="Path 12701" d="M286.55,224.92c.05.13-5.86,2.48-13.2,5.24s-13.34,4.89-13.39,4.75,5.86-2.48,13.21-5.24S286.5,224.78,286.55,224.92Z" fill="#00bfa6"/>
        </g>
        <g id="Group_390" data-name="Group 390">
          <path id="Path_12702" data-name="Path 12702" d="M288.02,248.85c.05.13-5.86,2.48-13.2,5.24s-13.34,4.89-13.39,4.75,5.86-2.48,13.21-5.24C281.97,250.84,287.97,248.71,288.02,248.85Z" fill="#00bfa6"/>
        </g>
        <g id="Group_391" data-name="Group 391">
          <path id="Path_12703" data-name="Path 12703" d="M289.49,272.78c.05.13-5.86,2.48-13.2,5.24s-13.34,4.89-13.39,4.75,5.86-2.48,13.21-5.24C283.44,274.77,289.44,272.64,289.49,272.78Z" fill="#00bfa6"/>
        </g>
        <g id="Group_392" data-name="Group 392">
          <path id="Path_12704" data-name="Path 12704" d="M290.96,296.71c.05.13-5.86,2.48-13.2,5.24s-13.34,4.89-13.39,4.75,5.86-2.48,13.21-5.24C284.91,298.7,290.91,296.57,290.96,296.71Z" fill="#00bfa6"/>
        </g>
        <g id="Group_393" data-name="Group 393">
          <path id="Path_12705" data-name="Path 12705" d="M292.43,320.64a4.1,4.1,0,0,1-.92.45c-.6.26-1.48.62-2.56,1.05-2.17.87-5.19,2.03-8.53,3.29s-6.38,2.37-8.59,3.14c-1.1.39-2,.7-2.62.9a3.438,3.438,0,0,1-.99.26,4.1,4.1,0,0,1,.92-.45c.6-.26,1.48-.62,2.56-1.05,2.17-.87,5.19-2.03,8.53-3.29s6.38-2.37,8.58-3.14c1.1-.39,2-.7,2.62-.9A3.532,3.532,0,0,1,292.43,320.64Z" fill="#00bfa6"/>
        </g>
        <g id="Group_394" data-name="Group 394">
          <path id="Path_12706" data-name="Path 12706" d="M299.26,342.53a19.956,19.956,0,0,1-3.03,1.33c-1.89.76-4.52,1.78-7.44,2.88s-5.57,2.06-7.49,2.73a20.881,20.881,0,0,1-3.16.99,19.956,19.956,0,0,1,3.03-1.33c1.89-.76,4.52-1.78,7.44-2.88s5.56-2.06,7.49-2.73A19.875,19.875,0,0,1,299.26,342.53Z" fill="#00bfa6"/>
        </g>
        <g id="Group_395" data-name="Group 395">
          <path id="Path_12707" data-name="Path 12707" d="M313.89,362.61a16.287,16.287,0,0,1-2.69,1.21c-1.68.68-4.03,1.59-6.62,2.57s-4.96,1.83-6.68,2.43a15.469,15.469,0,0,1-2.82.86,16.287,16.287,0,0,1,2.69-1.21c1.68-.68,4.03-1.59,6.62-2.57s4.96-1.83,6.68-2.43A16.555,16.555,0,0,1,313.89,362.61Z" fill="#00bfa6"/>
        </g>
        <g id="Group_396" data-name="Group 396">
          <path id="Path_12708" data-name="Path 12708" d="M338.2,375.78a16.287,16.287,0,0,1-2.69,1.21c-1.69.69-4.03,1.59-6.62,2.57s-4.96,1.83-6.68,2.43a15.469,15.469,0,0,1-2.82.86,16.287,16.287,0,0,1,2.69-1.21c1.68-.68,4.03-1.59,6.62-2.57s4.96-1.83,6.68-2.43A15.473,15.473,0,0,1,338.2,375.78Z" fill="#00bfa6"/>
        </g>
        <g id="Group_397" data-name="Group 397">
          <path id="Path_12709" data-name="Path 12709" d="M411.52,324.71c.06.13-7.53,3.67-16.95,7.91s-17.11,7.56-17.17,7.43,7.53-3.67,16.95-7.91S411.46,324.58,411.52,324.71Z" fill="#00bfa6"/>
        </g>
        <g id="Group_398" data-name="Group 398">
          <path id="Path_12710" data-name="Path 12710" d="M416.5,304.21c.06.13-6.21,3.08-13.99,6.58s-14.15,6.23-14.21,6.1,6.21-3.08,14-6.58S416.44,304.08,416.5,304.21Z" fill="#00bfa6"/>
        </g>
        <g id="Group_399" data-name="Group 399">
          <path id="Path_12711" data-name="Path 12711" d="M418.79,281.18c.06.13-6.21,3.08-13.99,6.58s-14.15,6.23-14.21,6.1,6.21-3.08,14-6.58S418.73,281.04,418.79,281.18Z" fill="#00bfa6"/>
        </g>
        <g id="Group_400" data-name="Group 400">
          <path id="Path_12712" data-name="Path 12712" d="M421.08,258.14c.06.13-6.21,3.08-13.99,6.58s-14.15,6.23-14.21,6.1,6.21-3.08,14-6.58S421.02,258.01,421.08,258.14Z" fill="#00bfa6"/>
        </g>
        <g id="Group_401" data-name="Group 401">
          <path id="Path_12713" data-name="Path 12713" d="M423.38,235.11c.06.13-6.21,3.08-13.99,6.58s-14.15,6.23-14.21,6.1,6.21-3.08,14-6.58C416.95,237.71,423.32,234.98,423.38,235.11Z" fill="#00bfa6"/>
        </g>
        <g id="Group_402" data-name="Group 402">
          <path id="Path_12714" data-name="Path 12714" d="M418.79,214.6c.06.13-6.21,3.08-13.99,6.58s-14.15,6.23-14.21,6.1,6.21-3.08,14-6.58S418.73,214.47,418.79,214.6Z" fill="#00bfa6"/>
        </g>
        <g id="Group_403" data-name="Group 403">
          <path id="Path_12715" data-name="Path 12715" d="M418.79,192.52c.06.13-6.21,3.08-13.99,6.58s-14.15,6.23-14.21,6.1,6.21-3.08,14-6.58S418.73,192.39,418.79,192.52Z" fill="#00bfa6"/>
        </g>
        <g id="Group_404" data-name="Group 404">
          <path id="Path_12716" data-name="Path 12716" d="M416.5,171.73c.06.13-6.21,3.08-13.99,6.58s-14.15,6.23-14.21,6.1,6.21-3.08,14-6.58S416.44,171.6,416.5,171.73Z" fill="#00bfa6"/>
        </g>
        <g id="Group_405" data-name="Group 405">
          <path id="Path_12717" data-name="Path 12717" d="M396.75,157.24a85.45,85.45,0,0,1-8.47,4.09,87.08,87.08,0,0,1-8.68,3.62,85.45,85.45,0,0,1,8.47-4.09A84.881,84.881,0,0,1,396.75,157.24Z" fill="#00bfa6"/>
        </g>
        <g id="Group_406" data-name="Group 406">
          <path id="Path_12718" data-name="Path 12718" d="M386.19,148.37a85.45,85.45,0,0,1-8.47,4.09,87.08,87.08,0,0,1-8.68,3.62,85.45,85.45,0,0,1,8.47-4.09A84.889,84.889,0,0,1,386.19,148.37Z" fill="#00bfa6"/>
        </g>
        <g id="Group_407" data-name="Group 407">
          <path id="Path_12719" data-name="Path 12719" d="M287.68,195.91c.05.13-5.86,2.48-13.2,5.24s-13.34,4.89-13.39,4.75,5.86-2.48,13.21-5.24S287.63,195.78,287.68,195.91Z" fill="#00bfa6"/>
        </g>
        <g id="Group_408" data-name="Group 408">
          <path id="Path_12720" data-name="Path 12720" d="M295.04,166.07c.05.13-6.36,2.67-14.32,5.66s-14.45,5.31-14.5,5.17,6.36-2.67,14.32-5.66S294.99,165.93,295.04,166.07Z" fill="#00bfa6"/>
        </g>
        <g id="Group_409" data-name="Group 409">
          <path id="Path_12721" data-name="Path 12721" d="M314.27,136.53c.05.13-8.08,3.31-18.16,7.1s-18.29,6.75-18.34,6.61,8.08-3.31,18.16-7.1S314.22,136.4,314.27,136.53Z" fill="#00bfa6"/>
        </g>
        <g id="Group_410" data-name="Group 410">
          <path id="Path_12722" data-name="Path 12722" d="M456.31,325.04a2.613,2.613,0,0,1-.42-.14c-.29-.11-.69-.27-1.2-.47-.53-.2-1.22-.34-2.02-.57a19.432,19.432,0,0,0-2.83-.34c-4.27-.28-10.67,1.28-16.86,5.91a47.612,47.612,0,0,0-8.93,8.83c-2.87,3.51-5.68,7.48-8.87,11.49a52.6,52.6,0,0,1-11.52,11.17,41.672,41.672,0,0,1-15.94,6.46,40.984,40.984,0,0,1-17.19-.57,81.309,81.309,0,0,1-15.06-5.59c-4.64-2.15-8.98-4.35-13.14-6.15a68.648,68.648,0,0,0-11.92-4.06,44.046,44.046,0,0,0-10.3-1.19,31.407,31.407,0,0,0-7.75,1.05,28.051,28.051,0,0,0-4.61,1.81c-.49.26-.86.46-1.14.6a2.613,2.613,0,0,1-.4.19,2.667,2.667,0,0,1,.37-.24c.27-.16.65-.37,1.12-.65a25.449,25.449,0,0,1,4.6-1.91,30.884,30.884,0,0,1,7.8-1.15,43.939,43.939,0,0,1,10.39,1.12,68.016,68.016,0,0,1,12.01,4.02c4.19,1.79,8.53,3.98,13.17,6.11a81.744,81.744,0,0,0,14.98,5.53,40.659,40.659,0,0,0,16.98.56,41.432,41.432,0,0,0,15.75-6.37,52.126,52.126,0,0,0,11.44-11.05c3.19-3.98,6.01-7.94,8.91-11.46a47.908,47.908,0,0,1,9.05-8.85c6.27-4.64,12.77-6.16,17.08-5.82a19.218,19.218,0,0,1,2.86.39c.8.24,1.49.41,2.02.62.51.22.9.39,1.19.52C456.18,324.97,456.32,325.04,456.31,325.04Z" fill="#fff"/>
        </g>
        <g id="Group_411" data-name="Group 411">
          <path id="Path_12723" data-name="Path 12723" d="M462.62,258.3c.01.05-.71.15-1.94.56a19.34,19.34,0,0,0-4.83,2.58c-1.91,1.33-3.98,3.19-6.41,5.11a46.6,46.6,0,0,1-8.59,5.29,47.233,47.233,0,0,1-17.66,4.56c-1.17.1-2.23.06-3.16.08-.93-.04-1.73-.05-2.39-.1l-1.5-.15a1.877,1.877,0,0,1-.52-.09,2.149,2.149,0,0,1,.53-.02c.4.01.9.03,1.5.05.68,0,1.47.01,2.38.02.92-.05,1.98-.04,3.14-.16a49.156,49.156,0,0,0,17.47-4.67,47.875,47.875,0,0,0,8.52-5.2c2.43-1.89,4.54-3.73,6.5-5.04a18.158,18.158,0,0,1,4.98-2.48,11.356,11.356,0,0,1,1.48-.32A1.762,1.762,0,0,1,462.62,258.3Z" fill="#fff"/>
        </g>
        <g id="Group_412" data-name="Group 412">
          <path id="Path_12724" data-name="Path 12724" d="M331.99,281.47a2.091,2.091,0,0,1-.55-.08c-.35-.08-.89-.16-1.55-.35a23.832,23.832,0,0,1-5.36-2.35,54.49,54.49,0,0,1-7-5.11c-2.51-2.07-5.19-4.45-8.26-6.57a28.9,28.9,0,0,0-23.72-4.29c-1.33.34-2.05.6-2.07.55a2.3,2.3,0,0,1,.51-.23c.34-.13.84-.33,1.5-.52a26.477,26.477,0,0,1,5.75-1.05,28.172,28.172,0,0,1,18.32,5.1c3.11,2.15,5.79,4.55,8.28,6.63a57.311,57.311,0,0,0,6.88,5.17,25.984,25.984,0,0,0,5.23,2.47A21.26,21.26,0,0,1,331.99,281.47Z" fill="#fff"/>
        </g>
        <g id="Group_413" data-name="Group 413">
          <path id="Path_12725" data-name="Path 12725" d="M332.17,186.94a11.989,11.989,0,0,1-1.67.61,20.351,20.351,0,0,1-2,.59c-.79.2-1.68.46-2.68.64-1,.21-2.1.43-3.3.58-1.19.2-2.47.29-3.82.41a58.048,58.048,0,0,1-8.8-.11,58.732,58.732,0,0,1-8.67-1.54c-1.3-.37-2.55-.7-3.68-1.12-1.15-.37-2.19-.79-3.13-1.18-.96-.36-1.78-.79-2.52-1.13s-1.36-.67-1.85-.95a11.568,11.568,0,0,1-1.52-.91,11.877,11.877,0,0,1,1.62.73c.51.26,1.13.56,1.88.87s1.57.72,2.53,1.06c.95.37,1.99.77,3.13,1.11,1.13.4,2.37.71,3.66,1.06a61.2,61.2,0,0,0,8.6,1.48,62.924,62.924,0,0,0,8.72.15c1.34-.11,2.61-.18,3.79-.36,1.19-.13,2.28-.33,3.28-.51,1.01-.16,1.89-.39,2.68-.57.79-.16,1.46-.35,2.01-.5A13.868,13.868,0,0,1,332.17,186.94Z" fill="#fff"/>
        </g>
        <g id="Group_414" data-name="Group 414">
          <path id="Path_12726" data-name="Path 12726" d="M456.94,186.69a2.216,2.216,0,0,1-.43-.2c-.32-.18-.7-.4-1.16-.67a18.5,18.5,0,0,0-1.86-1.01,26.551,26.551,0,0,0-2.53-1.19c-.48-.2-.98-.41-1.5-.62s-1.09-.37-1.67-.57c-1.14-.42-2.42-.71-3.74-1.06a41.182,41.182,0,0,0-17.68-.16c-1.33.32-2.61.59-3.76.99-.58.19-1.15.34-1.68.54s-1.03.41-1.51.6a27.519,27.519,0,0,0-2.55,1.15,18.31,18.31,0,0,0-1.87.98c-.46.26-.85.47-1.17.65a2.215,2.215,0,0,1-.43.2,2.1,2.1,0,0,1,.37-.29c.31-.2.68-.44,1.13-.74a18.2,18.2,0,0,1,1.84-1.07,27.689,27.689,0,0,1,2.54-1.23c.49-.2.99-.41,1.52-.63s1.1-.38,1.69-.58a38.244,38.244,0,0,1,3.79-1.05,40.073,40.073,0,0,1,17.88.16c1.34.36,2.62.67,3.77,1.11.58.21,1.15.38,1.67.61s1.02.45,1.5.66a26.714,26.714,0,0,1,2.52,1.27,14.946,14.946,0,0,1,1.82,1.1c.44.3.81.55,1.11.76C456.83,186.57,456.95,186.67,456.94,186.69Z" fill="#fff"/>
        </g>
        <g id="Group_415" data-name="Group 415">
          <path id="Path_12727" data-name="Path 12727" d="M395.8,118.76a4.871,4.871,0,0,1-.72.43c-.53.29-1.23.67-2.12,1.15-1.85.99-4.53,2.4-7.89,4.07-6.7,3.31-16.12,7.84-27.26,10.66a74.658,74.658,0,0,1-15.99,2.22,57.39,57.39,0,0,1-13.13-1.13,46.242,46.242,0,0,1-8.5-2.6c-.98-.38-1.69-.78-2.2-1a5.1,5.1,0,0,1-.74-.39,4.849,4.849,0,0,1,.79.3c.52.2,1.24.57,2.23.91a49.13,49.13,0,0,0,8.49,2.42,58.407,58.407,0,0,0,13.05,1.01,75.663,75.663,0,0,0,15.87-2.25c11.07-2.8,20.48-7.26,27.22-10.49,3.32-1.64,6.03-2.97,7.96-3.92.91-.44,1.63-.8,2.17-1.06A7.47,7.47,0,0,1,395.8,118.76Z" fill="#fff"/>
        </g>
      </g>
      <g id="Group_442" data-name="Group 442">
        <g id="Group_417" data-name="Group 417">
          <path id="Path_12728" data-name="Path 12728" d="M195.06,293l33.43,1.46-1.55,35.43-33.43-1.46-2.57,58.87-43.97-1.92,2.57-58.87L35.98,321.55l.09-26.98,121-173.8,45.42,1.98ZM80.05,287.98l71.04,3.1,4.69-107.38-1.07-.41-3.97,7.65Z" fill="#00bfa6"/>
        </g>
        <g id="Group_418" data-name="Group 418" opacity="0.4">
          <path id="Path_12729" data-name="Path 12729" d="M195.06,293l33.43,1.46-1.55,35.43-33.43-1.46-2.57,58.87-43.97-1.92,2.57-58.87L35.98,321.55l.09-26.98,121-173.8,45.42,1.98ZM80.05,287.98l71.04,3.1,4.69-107.38-1.07-.41-3.97,7.65Z"/>
        </g>
        <g id="Group_419" data-name="Group 419">
          <path id="Path_12730" data-name="Path 12730" d="M223.02,294.22l33.43,1.46-1.55,35.43-33.43-1.46-2.57,58.87-43.97-1.92,2.57-58.87L63.94,322.77l.09-26.98,121-173.8,45.42,1.98ZM108,289.2l71.04,3.1,4.69-107.38-1.07-.41-3.97,7.65Z" fill="#00bfa6"/>
        </g>
        <g id="Group_441" data-name="Group 441">
          <g id="Group_420" data-name="Group 420">
            <path id="Path_12731" data-name="Path 12731" d="M64.59,300.92a5.952,5.952,0,0,1-1.08.61c-.71.36-1.75.86-3.04,1.47-2.58,1.21-6.17,2.82-10.17,4.51s-7.66,3.14-10.33,4.15c-1.33.5-2.41.9-3.17,1.16a5.016,5.016,0,0,1-1.19.35,5.411,5.411,0,0,1,1.12-.54c.83-.35,1.87-.79,3.11-1.31,2.73-1.14,6.3-2.63,10.26-4.29,3.94-1.68,7.5-3.21,10.22-4.37l3.1-1.31A5.922,5.922,0,0,1,64.59,300.92Z" fill="#00bfa6"/>
          </g>
          <g id="Group_421" data-name="Group 421">
            <path id="Path_12732" data-name="Path 12732" d="M80.87,270.98a11.22,11.22,0,0,1-1.51.8c-.99.48-2.42,1.15-4.2,1.97-3.56,1.63-8.52,3.8-14.03,6.13s-10.52,4.37-14.17,5.79c-1.82.71-3.31,1.27-4.34,1.64a9.426,9.426,0,0,1-1.62.52,10.648,10.648,0,0,1,1.55-.71c1.09-.46,2.53-1.06,4.27-1.8,3.69-1.55,8.63-3.63,14.1-5.93,5.46-2.32,10.4-4.42,14.08-5.98,1.74-.74,3.18-1.35,4.27-1.81A8.744,8.744,0,0,1,80.87,270.98Z" fill="#00bfa6"/>
          </g>
          <g id="Group_422" data-name="Group 422">
            <path id="Path_12733" data-name="Path 12733" d="M100.74,244.27a11.81,11.81,0,0,1-1.58.8c-1.03.48-2.53,1.16-4.39,1.97-3.72,1.63-8.9,3.8-14.64,6.13s-10.98,4.37-14.78,5.79c-1.9.71-3.45,1.27-4.52,1.64a9.716,9.716,0,0,1-1.69.52,11.093,11.093,0,0,1,1.62-.71c1.13-.46,2.64-1.06,4.46-1.8,3.84-1.55,9.01-3.63,14.72-5.93l14.69-5.98,4.45-1.81A11.487,11.487,0,0,1,100.74,244.27Z" fill="#00bfa6"/>
          </g>
          <g id="Group_423" data-name="Group 423">
            <path id="Path_12734" data-name="Path 12734" d="M180.33,275.11a5.98,5.98,0,0,1-1.09.59c-.71.35-1.75.83-3.05,1.41-2.58,1.17-6.18,2.72-10.19,4.35s-7.68,3.01-10.34,3.97c-1.33.48-2.42.86-3.17,1.1a4.81,4.81,0,0,1-1.19.33,5.906,5.906,0,0,1,1.12-.52c.83-.34,1.88-.76,3.11-1.26,2.74-1.09,6.32-2.53,10.28-4.11,3.95-1.62,7.52-3.08,10.24-4.2,1.24-.5,2.28-.92,3.11-1.26A5.663,5.663,0,0,1,180.33,275.11Z" fill="#00bfa6"/>
          </g>
          <g id="Group_424" data-name="Group 424">
            <path id="Path_12735" data-name="Path 12735" d="M177.09,330.05a5.858,5.858,0,0,1-1.05.59c-.69.35-1.7.83-2.95,1.41-2.5,1.17-5.99,2.72-9.88,4.34s-7.44,3.01-10.03,3.97c-1.29.48-2.35.86-3.08,1.11a5.51,5.51,0,0,1-1.16.34,5.362,5.362,0,0,1,1.08-.52c.81-.34,1.82-.76,3.02-1.26,2.66-1.1,6.13-2.53,9.97-4.11,3.82-1.62,7.28-3.08,9.93-4.2,1.19-.5,2.2-.92,3.02-1.26A5.424,5.424,0,0,1,177.09,330.05Z" fill="#00bfa6"/>
          </g>
          <g id="Group_425" data-name="Group 425">
            <path id="Path_12736" data-name="Path 12736" d="M176.63,349.31a5.858,5.858,0,0,1-1.05.59c-.69.35-1.7.83-2.95,1.41-2.5,1.17-5.99,2.72-9.88,4.34s-7.44,3.01-10.03,3.97c-1.29.48-2.35.86-3.08,1.11a5.51,5.51,0,0,1-1.16.34,5.012,5.012,0,0,1,1.08-.52c.81-.34,1.82-.76,3.02-1.26,2.66-1.1,6.13-2.53,9.97-4.11,3.82-1.62,7.28-3.08,9.93-4.2,1.19-.5,2.2-.92,3.02-1.26A4.593,4.593,0,0,1,176.63,349.31Z" fill="#00bfa6"/>
          </g>
          <g id="Group_426" data-name="Group 426">
            <path id="Path_12737" data-name="Path 12737" d="M176.17,368.56a5.858,5.858,0,0,1-1.05.59c-.69.35-1.7.83-2.95,1.41-2.5,1.17-5.99,2.72-9.88,4.34s-7.44,3.01-10.03,3.97c-1.29.48-2.35.86-3.08,1.11a5.51,5.51,0,0,1-1.16.34,5.362,5.362,0,0,1,1.08-.52c.81-.34,1.82-.76,3.02-1.26,2.66-1.1,6.13-2.53,9.97-4.11,3.82-1.62,7.28-3.08,9.93-4.2,1.19-.5,2.2-.92,3.02-1.26A5.006,5.006,0,0,1,176.17,368.56Z" fill="#00bfa6"/>
          </g>
          <g id="Group_427" data-name="Group 427">
            <path id="Path_12738" data-name="Path 12738" d="M180.85,254.77a5.979,5.979,0,0,1-1.09.59c-.71.35-1.75.83-3.05,1.41-2.58,1.17-6.18,2.72-10.19,4.35s-7.68,3.01-10.34,3.97c-1.33.48-2.42.86-3.17,1.1a4.81,4.81,0,0,1-1.19.33,5.219,5.219,0,0,1,1.12-.52c.83-.34,1.88-.76,3.11-1.26,2.74-1.09,6.32-2.53,10.28-4.11,3.95-1.62,7.52-3.08,10.24-4.2,1.24-.5,2.28-.92,3.11-1.26A5.661,5.661,0,0,1,180.85,254.77Z" fill="#00bfa6"/>
          </g>
          <g id="Group_428" data-name="Group 428">
            <path id="Path_12739" data-name="Path 12739" d="M181.37,234.43a5.979,5.979,0,0,1-1.09.59c-.71.35-1.75.83-3.05,1.41-2.58,1.17-6.18,2.72-10.19,4.35s-7.68,3.01-10.34,3.97c-1.33.48-2.42.86-3.17,1.1a4.812,4.812,0,0,1-1.19.33,5.906,5.906,0,0,1,1.12-.52c.83-.34,1.88-.76,3.11-1.26,2.74-1.09,6.32-2.53,10.28-4.11,3.95-1.62,7.52-3.08,10.24-4.2,1.24-.5,2.28-.92,3.11-1.26A5.661,5.661,0,0,1,181.37,234.43Z" fill="#00bfa6"/>
          </g>
          <g id="Group_429" data-name="Group 429">
            <path id="Path_12740" data-name="Path 12740" d="M181.89,214.09a5.365,5.365,0,0,1-1.03.56c-.68.33-1.67.79-2.9,1.35-2.46,1.11-5.88,2.6-9.7,4.15s-7.32,2.86-9.86,3.77c-1.27.46-2.3.81-3.02,1.05a4.853,4.853,0,0,1-1.13.31,5.6,5.6,0,0,1,1.06-.5c.8-.32,1.79-.73,2.96-1.2,2.62-1.04,6.02-2.41,9.79-3.91,3.75-1.54,7.15-2.94,9.75-4.01,1.17-.47,2.16-.88,2.96-1.2A4.614,4.614,0,0,1,181.89,214.09Z" fill="#00bfa6"/>
          </g>
          <g id="Group_430" data-name="Group 430">
            <path id="Path_12741" data-name="Path 12741" d="M184.19,195.08a29.24,29.24,0,0,1-5.01,2.14,29.827,29.827,0,0,1-5.19,1.65,29.24,29.24,0,0,1,5.01-2.14A27.639,27.639,0,0,1,184.19,195.08Z" fill="#00bfa6"/>
          </g>
          <g id="Group_431" data-name="Group 431">
            <path id="Path_12742" data-name="Path 12742" d="M120.57,216.59a11.81,11.81,0,0,1-1.58.8c-1.03.48-2.53,1.16-4.39,1.97-3.72,1.63-8.9,3.8-14.64,6.13s-10.98,4.37-14.78,5.79c-1.9.71-3.45,1.27-4.52,1.64a9.718,9.718,0,0,1-1.69.52,11.1,11.1,0,0,1,1.62-.71c1.13-.46,2.64-1.06,4.46-1.8,3.84-1.55,9.01-3.63,14.72-5.93l14.69-5.98,4.45-1.81A10.988,10.988,0,0,1,120.57,216.59Z" fill="#00bfa6"/>
          </g>
          <g id="Group_432" data-name="Group 432">
            <path id="Path_12743" data-name="Path 12743" d="M140.41,188.9a11.811,11.811,0,0,1-1.58.8c-1.03.48-2.53,1.16-4.39,1.97-3.72,1.63-8.9,3.8-14.64,6.13s-10.98,4.37-14.78,5.79c-1.9.71-3.45,1.27-4.52,1.64a9.718,9.718,0,0,1-1.69.52,11.1,11.1,0,0,1,1.62-.71c1.13-.46,2.64-1.06,4.46-1.8,3.84-1.55,9.01-3.63,14.72-5.93l14.69-5.98,4.45-1.81A11.489,11.489,0,0,1,140.41,188.9Z" fill="#00bfa6"/>
          </g>
          <g id="Group_433" data-name="Group 433">
            <path id="Path_12744" data-name="Path 12744" d="M158.74,161.22a11.811,11.811,0,0,1-1.58.8c-1.03.48-2.53,1.16-4.39,1.97-3.72,1.63-8.9,3.8-14.64,6.13s-10.98,4.37-14.78,5.79c-1.9.71-3.45,1.27-4.52,1.64a9.718,9.718,0,0,1-1.69.52,11.1,11.1,0,0,1,1.62-.71c1.13-.46,2.64-1.06,4.46-1.8,3.84-1.55,9.01-3.63,14.72-5.93l14.69-5.98,4.45-1.81A9.721,9.721,0,0,1,158.74,161.22Z" fill="#00bfa6"/>
          </g>
          <g id="Group_434" data-name="Group 434">
            <path id="Path_12745" data-name="Path 12745" d="M177.82,134.6a11.811,11.811,0,0,1-1.58.8c-1.03.48-2.53,1.16-4.39,1.97-3.72,1.63-8.9,3.8-14.64,6.13s-10.98,4.37-14.78,5.79c-1.9.71-3.45,1.27-4.52,1.64a9.719,9.719,0,0,1-1.69.52,11.1,11.1,0,0,1,1.62-.71c1.13-.46,2.64-1.06,4.46-1.8,3.84-1.55,9.01-3.63,14.72-5.93l14.69-5.98,4.45-1.81A11.487,11.487,0,0,1,177.82,134.6Z" fill="#00bfa6"/>
          </g>
          <g id="Group_435" data-name="Group 435">
            <path id="Path_12746" data-name="Path 12746" d="M228.44,175.27a6.583,6.583,0,0,1-.58.66,19.783,19.783,0,0,1-1.81,1.75,31.772,31.772,0,0,1-7.77,5.02,34.039,34.039,0,0,1-13.36,3.05,31.293,31.293,0,0,1-8.09-.91,41.668,41.668,0,0,1-8.18-3.05c-5.38-2.62-10.16-5.71-14.83-7.86a33.92,33.92,0,0,0-13.09-3.42,19.419,19.419,0,0,0-8.93,1.67,15.486,15.486,0,0,0-2.17,1.24,6.153,6.153,0,0,1-.74.47,6.165,6.165,0,0,1,.68-.55,13.476,13.476,0,0,1,2.14-1.34,19.192,19.192,0,0,1,9.03-1.86,33.936,33.936,0,0,1,13.29,3.35c4.72,2.15,9.52,5.23,14.85,7.83a41.764,41.764,0,0,0,8.07,3.03,31.119,31.119,0,0,0,7.96.92,34.082,34.082,0,0,0,13.21-2.9,33.068,33.068,0,0,0,7.79-4.83c.85-.68,1.45-1.28,1.87-1.67A5.75,5.75,0,0,1,228.44,175.27Z" fill="#fff"/>
          </g>
          <g id="Group_436" data-name="Group 436">
            <path id="Path_12747" data-name="Path 12747" d="M214.52,125.83a8.513,8.513,0,0,1-1.27.74c-.83.45-2.07,1.04-3.63,1.7a54.885,54.885,0,0,1-5.6,2,62.166,62.166,0,0,1-7.1,1.63,61.345,61.345,0,0,1-7.25.71,55.459,55.459,0,0,1-5.94-.12c-1.69-.13-3.05-.29-3.98-.46a7.74,7.74,0,0,1-1.44-.3,7.218,7.218,0,0,1,1.46.1c.94.11,2.3.21,3.97.29s3.68.1,5.9.01a67.76,67.76,0,0,0,7.18-.75,66.646,66.646,0,0,0,7.05-1.58c2.13-.62,4.03-1.26,5.59-1.88s2.82-1.14,3.68-1.54A9.083,9.083,0,0,1,214.52,125.83Z" fill="#fff"/>
          </g>
          <g id="Group_437" data-name="Group 437">
            <path id="Path_12748" data-name="Path 12748" d="M143.52,236.89a7.42,7.42,0,0,1-.9-1.01c-.62-.74-1.42-1.69-2.37-2.81a110.237,110.237,0,0,0-8.37-8.75,30.653,30.653,0,0,0-5.25-4.04,15.938,15.938,0,0,0-5-1.94,14.16,14.16,0,0,0-4.96-.03c0-.02.11-.06.33-.13a8.628,8.628,0,0,1,.98-.23,11.2,11.2,0,0,1,3.71.03,15.522,15.522,0,0,1,5.17,1.89,29.088,29.088,0,0,1,5.36,4.07,89.669,89.669,0,0,1,8.3,8.9c.98,1.21,1.74,2.22,2.25,2.93A5.561,5.561,0,0,1,143.52,236.89Z" fill="#fff"/>
          </g>
          <g id="Group_438" data-name="Group 438">
            <path id="Path_12749" data-name="Path 12749" d="M223.29,267.1q.015.03-.39.3c-.27.18-.65.46-1.19.76a27.928,27.928,0,0,1-4.69,2.23,30.638,30.638,0,0,1-31.97-6.54,28.745,28.745,0,0,1-3.44-3.89c-.37-.49-.61-.9-.79-1.17s-.26-.42-.24-.43a16.083,16.083,0,0,1,1.19,1.47,33.75,33.75,0,0,0,3.52,3.75,31.151,31.151,0,0,0,31.59,6.47,32.722,32.722,0,0,0,4.71-2.06C222.68,267.41,223.26,267.07,223.29,267.1Z" fill="#fff"/>
          </g>
          <g id="Group_439" data-name="Group 439">
            <path id="Path_12750" data-name="Path 12750" d="M252.42,330.42s-.11-.15-.29-.46c-.19-.33-.45-.79-.79-1.38a37.722,37.722,0,0,0-3.42-5.07c-.43-.51-.88-1.04-1.36-1.61-.24-.28-.48-.57-.73-.86-.28-.27-.56-.55-.85-.83l-1.8-1.77c-.67-.56-1.38-1.14-2.1-1.75a47.281,47.281,0,0,0-10.98-6.53,45.121,45.121,0,0,0-15.05-3.49,41.939,41.939,0,0,0-17.43,2.8c-5.85,2.3-11.5,5.78-17.48,9.14a81.187,81.187,0,0,1-9.39,4.65A37.976,37.976,0,0,1,160.3,326a33.864,33.864,0,0,1-10.79-.65,48.435,48.435,0,0,1-9.93-3.39,102.783,102.783,0,0,1-16.91-10.28c-5.14-3.65-9.98-7.17-14.81-9.99a53.949,53.949,0,0,0-14.23-6.08,36.734,36.734,0,0,0-12.71-.84,27.241,27.241,0,0,0-9.24,2.67,23.582,23.582,0,0,0-5.03,3.45c-.48.48-.86.86-1.12,1.13-.26.25-.4.37-.4.37s.11-.14.36-.41.62-.67,1.09-1.17a22.331,22.331,0,0,1,5.01-3.55,27.013,27.013,0,0,1,9.29-2.78,36.553,36.553,0,0,1,12.83.77,53.986,53.986,0,0,1,14.36,6.06c4.87,2.82,9.73,6.34,14.87,9.97a103.782,103.782,0,0,0,16.85,10.21,47.862,47.862,0,0,0,9.83,3.35,33.4,33.4,0,0,0,10.62.64,37.607,37.607,0,0,0,10.31-2.71,82.74,82.74,0,0,0,9.34-4.62c5.97-3.34,11.64-6.82,17.55-9.14a37.3,37.3,0,0,1,4.46-1.44c.75-.19,1.48-.42,2.23-.57.75-.12,1.5-.25,2.24-.37a42.071,42.071,0,0,1,8.7-.4,45.359,45.359,0,0,1,15.16,3.59,47.512,47.512,0,0,1,11.02,6.64q1.095.915,2.1,1.77c.62.62,1.22,1.23,1.8,1.8l.84.84c.25.3.49.59.73.88.47.57.92,1.11,1.35,1.63a36.338,36.338,0,0,1,3.35,5.15c.32.61.57,1.07.75,1.41A4.476,4.476,0,0,1,252.42,330.42Z" fill="#fff"/>
          </g>
          <g id="Group_440" data-name="Group 440">
            <path id="Path_12751" data-name="Path 12751" d="M222.2,372.19a1.994,1.994,0,0,1-.51.13c-.4.08-.88.17-1.48.28a20.84,20.84,0,0,1-2.35.34c-.92.09-1.97.25-3.14.27-.59.03-1.2.05-1.83.08s-1.3-.01-1.99-.02c-1.38.01-2.84-.13-4.38-.25a55.189,55.189,0,0,1-19.23-5.6c-1.37-.73-2.68-1.39-3.83-2.14-.58-.37-1.16-.69-1.69-1.05s-1.02-.72-1.5-1.05c-.97-.65-1.78-1.34-2.5-1.92a21.908,21.908,0,0,1-1.8-1.55c-.44-.41-.8-.75-1.09-1.03a2.263,2.263,0,0,1-.36-.38,2.075,2.075,0,0,1,.43.31c.31.26.69.57,1.16.96.49.43,1.1.94,1.85,1.48s1.55,1.22,2.53,1.84c.48.33.99.66,1.51,1.02s1.11.67,1.69,1.02c1.16.73,2.46,1.37,3.82,2.08a61.41,61.41,0,0,0,9.29,3.61,62.634,62.634,0,0,0,9.77,1.94c1.53.13,2.98.29,4.34.3.68.01,1.34.06,1.97.05s1.24-.03,1.82-.05c1.16,0,2.21-.13,3.13-.19s1.71-.16,2.35-.25c.6-.07,1.09-.14,1.49-.19A1.642,1.642,0,0,1,222.2,372.19Z" fill="#fff"/>
          </g>
        </g>
      </g>
      <g id="Group_468" data-name="Group 468">
        <g id="Group_443" data-name="Group 443">
          <path id="Path_12752" data-name="Path 12752" d="M629.32,293.41l33.3-3.26,3.45,35.29-33.3,3.26,5.74,58.64-43.8,4.28-5.74-58.64L475.84,344.04l-3.71-26.72,95.35-189.09,45.25-4.43ZM514.74,304.62l70.77-6.92L575.05,190.73l-1.12-.25-2.86,8.14Z" fill="#00bfa6"/>
        </g>
        <g id="Group_444" data-name="Group 444" opacity="0.4">
          <path id="Path_12753" data-name="Path 12753" d="M629.32,293.41l33.3-3.26,3.45,35.29-33.3,3.26,5.74,58.64-43.8,4.28-5.74-58.64L475.84,344.04l-3.71-26.72,95.35-189.09,45.25-4.43ZM514.74,304.62l70.77-6.92L575.05,190.73l-1.12-.25-2.86,8.14Z"/>
        </g>
        <g id="Group_445" data-name="Group 445">
          <path id="Path_12754" data-name="Path 12754" d="M657.17,290.69l33.3-3.26,3.45,35.29-33.3,3.26,5.74,58.64-43.8,4.28-5.74-58.64L503.69,341.32l-3.71-26.72,95.35-189.09,45.25-4.42ZM542.6,301.89l70.77-6.92L602.91,188l-1.12-.26-2.86,8.14Z" fill="#00bfa6"/>
        </g>
        <g id="Group_467" data-name="Group 467">
          <g id="Group_446" data-name="Group 446">
            <path id="Path_12755" data-name="Path 12755" d="M501.26,319.61a5.238,5.238,0,0,1-.99.75c-.65.46-1.61,1.1-2.8,1.88-2.38,1.56-5.71,3.66-9.43,5.9s-7.14,4.19-9.64,5.56c-1.25.69-2.26,1.23-2.97,1.59a6.076,6.076,0,0,1-1.13.52,5.361,5.361,0,0,1,1.03-.69c.77-.46,1.74-1.04,2.89-1.73,2.54-1.51,5.87-3.49,9.55-5.69,3.66-2.22,6.98-4.23,9.51-5.76,1.15-.69,2.11-1.27,2.89-1.74A5.412,5.412,0,0,1,501.26,319.61Z" fill="#00bfa6"/>
          </g>
          <g id="Group_447" data-name="Group 447">
            <path id="Path_12756" data-name="Path 12756" d="M513.16,287.67a9.8,9.8,0,0,1-1.38,1c-.91.61-2.23,1.48-3.88,2.54-3.3,2.11-7.9,4.96-13.02,8.04s-9.8,5.8-13.21,7.73c-1.71.96-3.1,1.73-4.06,2.24a11.18,11.18,0,0,1-1.53.75,10.058,10.058,0,0,1,1.43-.92c1.02-.61,2.36-1.41,3.98-2.38,3.43-2.05,8.04-4.81,13.13-7.85,5.08-3.06,9.67-5.84,13.1-7.9,1.62-.98,2.96-1.78,3.97-2.4A9.573,9.573,0,0,1,513.16,287.67Z" fill="#00bfa6"/>
          </g>
          <g id="Group_448" data-name="Group 448">
            <path id="Path_12757" data-name="Path 12757" d="M529.08,258.44a11.4,11.4,0,0,1-1.45,1.01c-.95.62-2.34,1.5-4.07,2.57-3.46,2.13-8.28,5.01-13.63,8.13s-10.25,5.87-13.82,7.81c-1.78.97-3.24,1.74-4.25,2.26a11.217,11.217,0,0,1-1.6.76,11.744,11.744,0,0,1,1.5-.93c1.06-.61,2.46-1.42,4.16-2.41,3.59-2.07,8.41-4.86,13.74-7.94,5.32-3.1,10.13-5.9,13.71-7.99,1.7-.99,3.1-1.81,4.15-2.42A11.294,11.294,0,0,1,529.08,258.44Z" fill="#00bfa6"/>
          </g>
          <g id="Group_449" data-name="Group 449">
            <path id="Path_12758" data-name="Path 12758" d="M612.22,277.78a5.779,5.779,0,0,1-.99.73c-.66.44-1.62,1.07-2.82,1.83-2.4,1.52-5.74,3.56-9.48,5.74s-7.18,4.06-9.68,5.39c-1.25.66-2.27,1.19-2.98,1.54a5.781,5.781,0,0,1-1.13.5,5.7,5.7,0,0,1,1.03-.68c.78-.45,1.75-1.02,2.9-1.68,2.55-1.47,5.9-3.39,9.6-5.52,3.68-2.16,7.01-4.11,9.55-5.6,1.15-.67,2.12-1.23,2.9-1.69A5.59,5.59,0,0,1,612.22,277.78Z" fill="#00bfa6"/>
          </g>
          <g id="Group_450" data-name="Group 450">
            <path id="Path_12759" data-name="Path 12759" d="M616.74,332.62a5.116,5.116,0,0,1-.96.73c-.63.44-1.56,1.06-2.72,1.81-2.31,1.51-5.55,3.53-9.17,5.69s-6.95,4.03-9.37,5.35c-1.21.66-2.2,1.18-2.89,1.53a4.473,4.473,0,0,1-1.1.49,5.247,5.247,0,0,1,1-.67c.76-.45,1.7-1.01,2.81-1.67,2.48-1.46,5.71-3.36,9.29-5.47,3.56-2.14,6.77-4.07,9.24-5.55,1.11-.66,2.05-1.22,2.81-1.67A4.95,4.95,0,0,1,616.74,332.62Z" fill="#00bfa6"/>
          </g>
          <g id="Group_451" data-name="Group 451">
            <path id="Path_12760" data-name="Path 12760" d="M618.99,351.75a5.116,5.116,0,0,1-.96.73c-.63.44-1.56,1.06-2.72,1.81-2.31,1.51-5.55,3.53-9.17,5.69s-6.95,4.03-9.37,5.35c-1.21.66-2.2,1.18-2.89,1.53a4.473,4.473,0,0,1-1.1.49,4.725,4.725,0,0,1,1-.67c.76-.45,1.7-1.01,2.81-1.67,2.48-1.46,5.71-3.36,9.29-5.47,3.56-2.14,6.77-4.07,9.24-5.55,1.11-.66,2.05-1.22,2.81-1.67A4.95,4.95,0,0,1,618.99,351.75Z" fill="#00bfa6"/>
          </g>
          <g id="Group_452" data-name="Group 452">
            <path id="Path_12761" data-name="Path 12761" d="M621.24,370.88a5.116,5.116,0,0,1-.96.73c-.63.44-1.56,1.06-2.72,1.81-2.31,1.51-5.55,3.53-9.17,5.69s-6.95,4.03-9.37,5.35c-1.21.66-2.2,1.18-2.89,1.53a4.473,4.473,0,0,1-1.1.49,5.247,5.247,0,0,1,1-.67c.76-.45,1.7-1.01,2.81-1.67,2.48-1.46,5.71-3.36,9.29-5.47,3.56-2.14,6.77-4.07,9.24-5.55,1.11-.66,2.05-1.22,2.81-1.67A4.948,4.948,0,0,1,621.24,370.88Z" fill="#00bfa6"/>
          </g>
          <g id="Group_453" data-name="Group 453">
            <path id="Path_12762" data-name="Path 12762" d="M609.87,257.56a5.779,5.779,0,0,1-.99.73c-.66.44-1.62,1.07-2.82,1.83-2.4,1.52-5.74,3.56-9.48,5.74s-7.18,4.06-9.68,5.39c-1.25.66-2.27,1.19-2.98,1.54a5.781,5.781,0,0,1-1.13.5,5.7,5.7,0,0,1,1.03-.68c.78-.45,1.75-1.02,2.9-1.68,2.55-1.47,5.9-3.39,9.6-5.52,3.68-2.16,7.01-4.11,9.55-5.6,1.15-.67,2.12-1.23,2.9-1.69A6.413,6.413,0,0,1,609.87,257.56Z" fill="#00bfa6"/>
          </g>
          <g id="Group_454" data-name="Group 454">
            <path id="Path_12763" data-name="Path 12763" d="M607.52,237.35a5.78,5.78,0,0,1-.99.73c-.66.44-1.62,1.07-2.82,1.83-2.4,1.52-5.74,3.56-9.48,5.74s-7.18,4.06-9.68,5.39c-1.25.66-2.27,1.19-2.98,1.54a5.781,5.781,0,0,1-1.13.5,5.7,5.7,0,0,1,1.03-.68c.78-.45,1.75-1.01,2.9-1.68,2.55-1.47,5.9-3.39,9.6-5.52,3.68-2.16,7.01-4.11,9.55-5.6,1.15-.67,2.12-1.23,2.9-1.69A6.321,6.321,0,0,1,607.52,237.35Z" fill="#00bfa6"/>
          </g>
          <g id="Group_455" data-name="Group 455">
            <path id="Path_12764" data-name="Path 12764" d="M605.18,217.14a5.109,5.109,0,0,1-.94.7c-.63.42-1.54,1.02-2.68,1.75-2.28,1.45-5.46,3.4-9.02,5.47s-6.84,3.86-9.23,5.12c-1.2.63-2.17,1.13-2.85,1.46a5.373,5.373,0,0,1-1.08.47,5.047,5.047,0,0,1,.98-.65c.75-.43,1.67-.97,2.77-1.61l9.15-5.25c3.5-2.05,6.66-3.91,9.09-5.34,1.09-.63,2.02-1.17,2.77-1.61A5.447,5.447,0,0,1,605.18,217.14Z" fill="#00bfa6"/>
          </g>
          <g id="Group_456" data-name="Group 456">
            <path id="Path_12765" data-name="Path 12765" d="M604.78,197.99a56.676,56.676,0,0,1-9.57,5.18,28.31,28.31,0,0,1,4.66-2.82A30.011,30.011,0,0,1,604.78,197.99Z" fill="#00bfa6"/>
          </g>
          <g id="Group_457" data-name="Group 457">
            <path id="Path_12766" data-name="Path 12766" d="M544.82,228.24a11.4,11.4,0,0,1-1.45,1.01c-.95.62-2.34,1.5-4.07,2.57-3.46,2.13-8.28,5.01-13.63,8.13s-10.25,5.87-13.82,7.81c-1.78.97-3.24,1.74-4.25,2.26a11.213,11.213,0,0,1-1.6.76,11.742,11.742,0,0,1,1.5-.93c1.06-.61,2.46-1.42,4.16-2.41,3.59-2.07,8.41-4.86,13.74-7.94,5.32-3.1,10.13-5.9,13.71-7.99,1.7-.99,3.1-1.81,4.15-2.42A12.046,12.046,0,0,1,544.82,228.24Z" fill="#00bfa6"/>
          </g>
          <g id="Group_458" data-name="Group 458">
            <path id="Path_12767" data-name="Path 12767" d="M560.57,198.04a11.4,11.4,0,0,1-1.45,1.01c-.95.62-2.34,1.5-4.07,2.57-3.46,2.13-8.28,5.01-13.63,8.13s-10.25,5.87-13.82,7.81c-1.78.97-3.24,1.74-4.25,2.26a11.218,11.218,0,0,1-1.6.76,11.742,11.742,0,0,1,1.5-.93c1.06-.61,2.46-1.42,4.16-2.41,3.59-2.07,8.41-4.86,13.74-7.94,5.32-3.1,10.13-5.9,13.71-7.99,1.7-.99,3.1-1.81,4.15-2.42A11.3,11.3,0,0,1,560.57,198.04Z" fill="#00bfa6"/>
          </g>
          <g id="Group_459" data-name="Group 459">
            <path id="Path_12768" data-name="Path 12768" d="M574.83,168.05a11.4,11.4,0,0,1-1.45,1.01c-.95.62-2.34,1.5-4.07,2.57-3.46,2.13-8.28,5.01-13.63,8.13s-10.25,5.87-13.82,7.81c-1.78.97-3.24,1.74-4.25,2.26a11.218,11.218,0,0,1-1.6.76,11.742,11.742,0,0,1,1.5-.93c1.06-.61,2.46-1.42,4.16-2.41,3.59-2.07,8.41-4.86,13.74-7.94,5.32-3.1,10.13-5.9,13.71-7.99,1.7-.99,3.1-1.81,4.16-2.42A10.321,10.321,0,0,1,574.83,168.05Z" fill="#00bfa6"/>
          </g>
          <g id="Group_460" data-name="Group 460">
            <path id="Path_12769" data-name="Path 12769" d="M589.97,139.01a11.4,11.4,0,0,1-1.45,1.01c-.95.62-2.34,1.5-4.07,2.57-3.46,2.13-8.28,5.01-13.63,8.13s-10.25,5.87-13.82,7.81c-1.78.97-3.24,1.74-4.25,2.26a11.218,11.218,0,0,1-1.6.76,11.742,11.742,0,0,1,1.5-.93c1.06-.61,2.46-1.42,4.16-2.41,3.59-2.07,8.41-4.86,13.74-7.94,5.32-3.1,10.13-5.9,13.71-7.99,1.7-.99,3.1-1.81,4.15-2.42A11.306,11.306,0,0,1,589.97,139.01Z" fill="#00bfa6"/>
          </g>
          <g id="Group_461" data-name="Group 461">
            <path id="Path_12770" data-name="Path 12770" d="M645.81,172.16a5.717,5.717,0,0,1-.49.73,20.621,20.621,0,0,1-1.55,1.99,31.842,31.842,0,0,1-6.99,6.06,34.078,34.078,0,0,1-12.8,4.9,31.32,31.32,0,0,1-8.13.24,41.613,41.613,0,0,1-8.52-1.87c-5.69-1.84-10.86-4.23-15.79-5.7a33.766,33.766,0,0,0-13.45-1.54,19.4,19.4,0,0,0-8.61,2.91,15.777,15.777,0,0,0-1.97,1.53,6.321,6.321,0,0,1-.67.57,5.91,5.91,0,0,1,.6-.64,13.463,13.463,0,0,1,1.93-1.63,19.161,19.161,0,0,1,8.68-3.11,33.758,33.758,0,0,1,13.63,1.45c4.98,1.46,10.16,3.84,15.81,5.66a41.112,41.112,0,0,0,8.42,1.86,31.321,31.321,0,0,0,8.01-.2,34.1,34.1,0,0,0,12.67-4.73,33.7,33.7,0,0,0,7.04-5.88,23.212,23.212,0,0,0,1.61-1.92A5.888,5.888,0,0,1,645.81,172.16Z" fill="#fff"/>
          </g>
          <g id="Group_462" data-name="Group 462">
            <path id="Path_12771" data-name="Path 12771" d="M625.07,125.17a8.076,8.076,0,0,1-1.15.91c-.76.57-1.9,1.32-3.35,2.19a56.317,56.317,0,0,1-5.26,2.77,62.068,62.068,0,0,1-6.8,2.61,61.323,61.323,0,0,1-7.08,1.72,54.564,54.564,0,0,1-5.9.72,39.889,39.889,0,0,1-4,.1,7.136,7.136,0,0,1-1.47-.09,7.807,7.807,0,0,1,1.46-.11c.94-.03,2.3-.11,3.98-.27s3.66-.42,5.84-.82a62.281,62.281,0,0,0,13.77-4.3c2.02-.91,3.81-1.82,5.27-2.65s2.63-1.53,3.42-2.04A8.51,8.51,0,0,1,625.07,125.17Z" fill="#fff"/>
          </g>
          <g id="Group_463" data-name="Group 463">
            <path id="Path_12772" data-name="Path 12772" d="M570.4,245.11a6.476,6.476,0,0,1-1.03-.87c-.72-.65-1.64-1.47-2.74-2.45a112.188,112.188,0,0,0-9.52-7.49,30.77,30.77,0,0,0-5.76-3.26,16.208,16.208,0,0,0-5.22-1.22,14.139,14.139,0,0,0-4.91.66c-.01-.02.1-.08.31-.18a7.013,7.013,0,0,1,.94-.36,11.159,11.159,0,0,1,3.68-.49,15.673,15.673,0,0,1,5.39,1.14,29.11,29.11,0,0,1,5.88,3.27,87.874,87.874,0,0,1,9.47,7.64c1.14,1.06,2.03,1.95,2.63,2.58A6.294,6.294,0,0,1,570.4,245.11Z" fill="#fff"/>
          </g>
          <g id="Group_464" data-name="Group 464">
            <path id="Path_12773" data-name="Path 12773" d="M653.62,263.81a2.345,2.345,0,0,1-.34.35c-.24.21-.58.55-1.07.92a28.688,28.688,0,0,1-4.33,2.87,30.62,30.62,0,0,1-32.57-1.98,28.178,28.178,0,0,1-3.95-3.37c-.44-.43-.73-.81-.95-1.04a2.179,2.179,0,0,1-.3-.39c.03-.03.5.46,1.39,1.29a31.266,31.266,0,0,0,4.02,3.21,31.149,31.149,0,0,0,32.19,1.96,33.312,33.312,0,0,0,4.38-2.7A16.883,16.883,0,0,1,653.62,263.81Z" fill="#fff"/>
          </g>
          <g id="Group_465" data-name="Group 465">
            <path id="Path_12774" data-name="Path 12774" d="M691.38,322.39s-.13-.14-.35-.42c-.23-.3-.56-.72-.98-1.26a39.048,39.048,0,0,0-4.1-4.54c-.5-.44-1.02-.91-1.57-1.4-.28-.24-.56-.5-.85-.75-.31-.23-.63-.46-.95-.71-.65-.48-1.33-.98-2.03-1.5-.75-.46-1.52-.94-2.33-1.43a47.1,47.1,0,0,0-11.79-4.92,45.011,45.011,0,0,0-15.39-1.34,41.8,41.8,0,0,0-16.86,5.22c-5.47,3.1-10.57,7.34-16.02,11.5a84.9,84.9,0,0,1-8.64,5.93,38.361,38.361,0,0,1-9.96,4.19,33.588,33.588,0,0,1-10.77.87,48.707,48.707,0,0,1-10.31-1.96,103.336,103.336,0,0,1-18.19-7.8c-5.6-2.89-10.89-5.7-16.07-7.81a53.875,53.875,0,0,0-14.94-4.02,36.494,36.494,0,0,0-12.7.96,27.046,27.046,0,0,0-8.77,3.94,23.359,23.359,0,0,0-4.49,4.12c-.41.55-.73.97-.95,1.28-.22.29-.34.43-.34.43s.09-.16.3-.46.52-.75.92-1.31a22.908,22.908,0,0,1,4.46-4.22,26.676,26.676,0,0,1,8.81-4.06,36.764,36.764,0,0,1,12.81-1.04,53.92,53.92,0,0,1,15.07,3.98c5.21,2.1,10.53,4.9,16.13,7.78a104.323,104.323,0,0,0,18.11,7.74,48.542,48.542,0,0,0,10.2,1.94,33.453,33.453,0,0,0,10.61-.86,37.929,37.929,0,0,0,9.83-4.13,83.029,83.029,0,0,0,8.6-5.89c5.44-4.15,10.57-8.39,16.09-11.52a37.961,37.961,0,0,1,4.21-2.05c.71-.29,1.41-.62,2.12-.88.73-.23,1.45-.45,2.16-.68a42.538,42.538,0,0,1,8.56-1.62,45.393,45.393,0,0,1,15.52,1.42,47.55,47.55,0,0,1,11.84,5.02c.8.5,1.58.99,2.33,1.46.7.53,1.38,1.04,2.03,1.53.32.24.64.48.95.72.29.26.57.52.85.76.55.5,1.07.97,1.57,1.42a36.806,36.806,0,0,1,4.04,4.62c.4.55.72.98.94,1.29C691.28,322.24,691.38,322.39,691.38,322.39Z" fill="#fff"/>
          </g>
          <g id="Group_466" data-name="Group 466">
            <path id="Path_12775" data-name="Path 12775" d="M667.32,368a1.577,1.577,0,0,1-.48.2c-.38.13-.85.29-1.42.49a21.132,21.132,0,0,1-2.28.67c-.9.22-1.92.52-3.07.71-.58.11-1.18.22-1.8.34s-1.29.17-1.97.26c-1.36.2-2.83.27-4.38.37a59.5,59.5,0,0,1-10.04-.51,60.479,60.479,0,0,1-9.78-2.33c-1.45-.53-2.85-1-4.1-1.58-.63-.28-1.25-.52-1.82-.81s-1.11-.57-1.64-.83c-1.06-.5-1.95-1.08-2.75-1.54a22.337,22.337,0,0,1-2-1.28c-.49-.35-.9-.63-1.23-.87a2.08,2.08,0,0,1-.41-.33,2.514,2.514,0,0,1,.47.24c.34.21.76.47,1.28.78.55.35,1.22.77,2.04,1.2s1.71.99,2.77,1.47c.52.25,1.07.52,1.64.79s1.19.5,1.82.77c1.25.56,2.63,1.01,4.08,1.52a62.142,62.142,0,0,0,9.71,2.27,63.083,63.083,0,0,0,9.95.55c1.53-.08,2.99-.13,4.34-.32.68-.08,1.34-.13,1.96-.23s1.22-.21,1.8-.3c1.15-.16,2.17-.44,3.07-.63s1.67-.4,2.3-.58c.58-.16,1.06-.29,1.45-.39A1.779,1.779,0,0,1,667.32,368Z" fill="#fff"/>
          </g>
        </g>
      </g>
      <g id="Group_569" data-name="Group 569">
        <g id="Group_566" data-name="Group 566">
          <g id="Group_471" data-name="Group 471">
            <path id="Path_12776" data-name="Path 12776" d="M459.08,221.54l-7-1.09-43.37-13.99-25.37-7.33a27.276,27.276,0,0,0-21.95,1.49c-11.98,6.11-45.05,36.88-45.05,36.88l23.81,24.55-11.22,49.68c12.55,35.68,37.12,39.77,37.12,39.77a87.065,87.065,0,0,0,35.2-5.82c22.82-8.7,46.77-29.09,49.77-37.86,1.8-5.26,3.28-16.32,4.47-28.81l36.12-14.72,9.79-49.97Z" fill="#455a64"/>
            <g id="Group_469" data-name="Group 469">
              <path id="Path_12777" data-name="Path 12777" d="M406.32,309.97a1.79,1.79,0,0,1-.35.31c-.25.18-.59.48-1.08.79a24.7,24.7,0,0,1-4.34,2.33,26.475,26.475,0,0,1-29.96-6.54,24.189,24.189,0,0,1-2.97-3.93c-.32-.49-.5-.9-.65-1.17s-.21-.42-.19-.43a15.67,15.67,0,0,1,1.01,1.49,28.594,28.594,0,0,0,3.07,3.79,26.811,26.811,0,0,0,29.55,6.45,28.964,28.964,0,0,0,4.37-2.16C405.77,310.3,406.29,309.94,406.32,309.97Z" fill="#263238"/>
            </g>
            <g id="Group_470" data-name="Group 470">
              <path id="Path_12778" data-name="Path 12778" d="M392.6,208.51a.749.749,0,0,1,.08.24c.05.19.11.42.18.71.15.62.36,1.55.61,2.74a66.937,66.937,0,0,1,1.43,10.23,32.308,32.308,0,0,1-.41,7.14,23.1,23.1,0,0,1-2.85,7.7,30.283,30.283,0,0,1-5.93,6.87c-2.35,2.1-4.95,4.05-7.6,6.06-5.63,4.24-11.12,8.06-16.03,11.54s-9.23,6.6-12.69,9.22l-.11.08-.11-.09a76.531,76.531,0,0,1-6.95-6.25,20.872,20.872,0,0,1-1.63-1.92,6.232,6.232,0,0,1-.35-.55c-.07-.13-.11-.19-.1-.2a7.873,7.873,0,0,1,.53.68c.36.44.91,1.07,1.68,1.84a84.466,84.466,0,0,0,7.03,6.11h-.22c3.43-2.66,7.73-5.83,12.63-9.32s10.37-7.34,15.99-11.57c2.64-2.01,5.24-3.95,7.57-6.02a30.22,30.22,0,0,0,5.86-6.74,22.56,22.56,0,0,0,2.83-7.53,32.917,32.917,0,0,0,.47-7.05,72.816,72.816,0,0,0-1.26-10.21c-.22-1.16-.39-2.08-.52-2.76-.05-.29-.09-.53-.13-.72A1.453,1.453,0,0,1,392.6,208.51Z" fill="#263238"/>
            </g>
          </g>
          <g id="Group_477" data-name="Group 477">
            <path id="Path_12779" data-name="Path 12779" d="M580.93,231.03c10.16-8.7,13.59-24.37,8.01-36.53q-7.155-.735-14.31-1.48a20.406,20.406,0,0,0,10.4-20.59,27.306,27.306,0,0,1-31.23,5.75c-6.68-3.3-12.1-9.45-19.44-10.74-6.66-1.17-13.21,1.95-19.59,4.22s-14.1,3.52-19.38-.71c-4.19-3.35-5.48-9.23-5.21-14.58s1.82-10.58,2.15-15.93a36.19,36.19,0,0,0-11.59-28.22A27.462,27.462,0,0,0,437.63,98.5c-3.13,2.42-5.77,5.55-9.32,7.3-4.01,1.98-8.67,1.98-13.01,3.05s-8.89,3.94-9.36,8.39l-1.75,9.11a20.222,20.222,0,0,1-.96,1.92c-3.69,6.47-11.23,10.72-12.87,17.98-.92,4.07.22,8.48-1.15,12.42-1.81,5.19-7.41,8.11-10.02,12.94-3.58,6.64-1.15,18.26,4.58,23.17s17.54,10.1,24.92,11.67c2-7.67,3.77-15.87,5.48-24.26,3.01,2.89,6.16,5.64,9.3,8.37,8.22,7.14,16.61,14.39,22.31,23.66,10.83,17.62,11.01,40.98,24.65,56.53,2.67,3.05,5.92,5.77,9.8,6.94s8.48.55,11.35-2.31c3.39-3.38,3.83-9.08,7.57-12.05,4.98-3.95,12.26-.8,17.62,2.63,3.88,2.48,7.75,5.1,12.15,6.46s9.51,1.27,13.24-1.41,5.38-8.4,2.68-12.13c-1.08-1.49-2.69-2.53-3.76-4.03s-1.38-3.87.08-4.98c1.62-1.23,3.88-.04,5.64.99a33.516,33.516,0,0,0,48.74-18.12A27.744,27.744,0,0,1,580.93,231.03Z" fill="#263238"/>
            <g id="Group_472" data-name="Group 472">
              <path id="Path_12780" data-name="Path 12780" d="M572.02,152.55a11.605,11.605,0,0,1,1.29,1.11,15.085,15.085,0,0,1,2.95,3.89,11.311,11.311,0,0,1,1.1,3.37,7.915,7.915,0,0,1-.49,4.18,8.008,8.008,0,0,1-3.07,3.73,6.06,6.06,0,0,1-2.52.91,5.659,5.659,0,0,1-2.8-.41c-3.71-1.51-5.57-5.8-9.59-7.71-3.91-2.07-8.91-2.21-13.72-1.11-4.86,1.11-9.48,3.71-14.22,6.37-4.72,2.64-9.76,5.51-15.55,6.5a21.645,21.645,0,0,1-8.6-.06,16.851,16.851,0,0,1-3.98-1.48,15.58,15.58,0,0,1-3.36-2.49,18.968,18.968,0,0,1-4.31-6.82,30.731,30.731,0,0,1-1.76-7.52c-.53-5.02-.11-9.79-.06-14.23a41.889,41.889,0,0,0-1.21-12.22,27.723,27.723,0,0,0-1.91-5.01,30.9,30.9,0,0,0-7.54-9.83,32.487,32.487,0,0,0-3.91-2.88c-.46-.27-.82-.49-1.09-.64a2.13,2.13,0,0,1-.36-.24,2.9,2.9,0,0,1,.39.19c.27.15.64.35,1.12.6a30.785,30.785,0,0,1,3.99,2.82,29.921,29.921,0,0,1,5.22,5.69,30.795,30.795,0,0,1,4.45,9.2,41.921,41.921,0,0,1,1.29,12.32c-.03,4.45-.43,9.22.11,14.17a30.5,30.5,0,0,0,1.75,7.4,18.542,18.542,0,0,0,4.2,6.63,15.042,15.042,0,0,0,3.24,2.4,16.463,16.463,0,0,0,3.85,1.43,21.149,21.149,0,0,0,8.39.05c5.68-.97,10.66-3.79,15.39-6.43s9.4-5.27,14.36-6.39a25.131,25.131,0,0,1,7.33-.62,19.113,19.113,0,0,1,3.49.57,16.486,16.486,0,0,1,3.2,1.25c4.15,2.03,6.01,6.34,9.53,7.75a5.385,5.385,0,0,0,5.01-.44,7.732,7.732,0,0,0,3.49-7.6,10.816,10.816,0,0,0-1.04-3.31,15.9,15.9,0,0,0-2.84-3.91c-.39-.4-.7-.69-.91-.88S572.02,152.55,572.02,152.55Z" fill="#263238"/>
            </g>
            <g id="Group_473" data-name="Group 473">
              <path id="Path_12781" data-name="Path 12781" d="M408.55,210.27a4,4,0,0,1-.08-.45,7.784,7.784,0,0,0-.27-1.31,11.34,11.34,0,0,0-2.46-4.46,19.059,19.059,0,0,0-6.63-4.61c-2.9-1.32-6.49-1.97-10.44-2.72-3.91-.77-8.4-1.58-12.42-4.26a18.45,18.45,0,0,1-2.94-28.11c4.14-4.25,9.99-6.35,14.77-10.09a19.058,19.058,0,0,0,3.15-3.2,13.21,13.21,0,0,0,1.92-3.96c.79-2.84.73-5.81,1-8.7a19.277,19.277,0,0,1,.8-4.27,10.655,10.655,0,0,1,2.11-3.74,15.014,15.014,0,0,1,7.15-3.98c2.57-.75,5.12-1.21,7.54-1.88a20.589,20.589,0,0,0,6.58-2.94,25.374,25.374,0,0,0,4.94-4.62,54.416,54.416,0,0,0,3.72-5.06c2.21-3.35,4.1-6.47,6.11-8.97a29.292,29.292,0,0,1,5.83-5.76,16.32,16.32,0,0,1,4.6-2.37,11.2,11.2,0,0,1,1.75-.44c.01.04-.61.15-1.72.54a16.9,16.9,0,0,0-4.52,2.43,29.162,29.162,0,0,0-5.72,5.77c-1.98,2.5-3.84,5.62-6.03,8.99a57.82,57.82,0,0,1-3.72,5.12,25.643,25.643,0,0,1-5,4.72,21,21,0,0,1-6.71,3.03c-2.44.68-4.99,1.15-7.53,1.9a14.611,14.611,0,0,0-6.92,3.85,10.245,10.245,0,0,0-2,3.56,19,19,0,0,0-.77,4.16c-.27,2.85-.19,5.85-1.01,8.8a13.564,13.564,0,0,1-2,4.12,19.091,19.091,0,0,1-3.24,3.3,70.421,70.421,0,0,1-7.69,4.89,33.578,33.578,0,0,0-7.04,5.15,17.993,17.993,0,0,0,2.81,27.4c3.91,2.63,8.35,3.47,12.25,4.26,3.93.76,7.56,1.44,10.49,2.81a19.218,19.218,0,0,1,6.67,4.74,11.133,11.133,0,0,1,2.41,4.57,7.027,7.027,0,0,1,.22,1.33A4.062,4.062,0,0,1,408.55,210.27Z" fill="#263238"/>
            </g>
            <g id="Group_474" data-name="Group 474">
              <path id="Path_12782" data-name="Path 12782" d="M488.39,120.5a2.577,2.577,0,0,1-.77-.2,17.806,17.806,0,0,1-2-.81,26.245,26.245,0,0,1-5.97-3.87,26.558,26.558,0,0,1-4.72-5.32,19.183,19.183,0,0,1-1.1-1.86,2.419,2.419,0,0,1-.31-.73c.08-.04.64.93,1.71,2.38a30.7,30.7,0,0,0,10.54,9.07C487.38,120.01,488.43,120.42,488.39,120.5Z" fill="#455a64"/>
            </g>
            <g id="Group_475" data-name="Group 475">
              <path id="Path_12783" data-name="Path 12783" d="M521.64,188.71a18.024,18.024,0,0,1-1.76-.4,29.732,29.732,0,0,0-4.85-.6,62.6,62.6,0,0,0-7.27.21c-2.74.19-5.76.47-8.95.4a24.311,24.311,0,0,1-8.83-1.66,15.668,15.668,0,0,1-5.92-4.32,11.189,11.189,0,0,1-2.28-4.39,7.58,7.58,0,0,1-.21-1.33,1.675,1.675,0,0,1-.01-.47c.06-.01.09.64.41,1.75a11.475,11.475,0,0,0,2.36,4.2,15.649,15.649,0,0,0,5.82,4.12,24.533,24.533,0,0,0,8.65,1.58c3.15.07,6.16-.19,8.9-.36a59.125,59.125,0,0,1,7.32-.1,24.3,24.3,0,0,1,4.88.77,13.307,13.307,0,0,1,1.28.41A1.448,1.448,0,0,1,521.64,188.71Z" fill="#455a64"/>
            </g>
            <g id="Group_476" data-name="Group 476">
              <path id="Path_12784" data-name="Path 12784" d="M580.57,234.18a1.418,1.418,0,0,1-.29.13,4.615,4.615,0,0,1-.89.29,7,7,0,0,1-3.58-.16,11.512,11.512,0,0,1-4.8-3.03,20.057,20.057,0,0,1-3.86-6.47c-1.09-2.56-2.01-5.51-3.79-8.22a22.025,22.025,0,0,0-3.17-3.87,25.379,25.379,0,0,0-4.24-3.21c-6.28-3.78-14.53-5.34-22.95-4.84-8.47.44-16.43,2.1-23.8,2.62a46.96,46.96,0,0,1-19.41-2.01,26.754,26.754,0,0,1-11.12-6.97,16.463,16.463,0,0,1-1.33-1.59,10.008,10.008,0,0,1-.87-1.25c-.2-.33-.36-.59-.49-.8a1.207,1.207,0,0,1-.15-.28,2.09,2.09,0,0,1,.2.25c.13.2.31.45.53.77a10.635,10.635,0,0,0,.9,1.21,17.116,17.116,0,0,0,1.36,1.55,27.114,27.114,0,0,0,11.09,6.76,47,47,0,0,0,19.25,1.87c7.33-.54,15.29-2.21,23.82-2.66,8.49-.5,16.85,1.08,23.23,4.95a25.808,25.808,0,0,1,4.31,3.29,21.644,21.644,0,0,1,3.22,3.97c1.81,2.79,2.7,5.76,3.77,8.32a19.8,19.8,0,0,0,3.72,6.41,11.389,11.389,0,0,0,4.65,3.04,7.022,7.022,0,0,0,3.5.25C580.17,234.35,580.56,234.14,580.57,234.18Z" fill="#455a64"/>
            </g>
          </g>
          <g id="Group_547" data-name="Group 547">
            <g id="Group_545" data-name="Group 545">
              <g id="Group_544" data-name="Group 544">
                <g id="Group_543" data-name="Group 543">
                  <g id="Group_542" data-name="Group 542">
                    <g id="Group_527" data-name="Group 527">
                      <g id="Group_526" data-name="Group 526">
                        <g id="Group_525" data-name="Group 525">
                          <g id="Group_484" data-name="Group 484">
                            <g id="Group_483" data-name="Group 483">
                              <g id="Group_482" data-name="Group 482">
                                <g id="Group_481" data-name="Group 481">
                                  <g id="Group_480" data-name="Group 480">
                                    <g id="Group_479" data-name="Group 479">
                                      <g id="Group_478" data-name="Group 478">
                                        <path id="Path_12785" data-name="Path 12785" d="M423.29,120.49a7.476,7.476,0,0,0-7.62,6.64h0l-8.09,84.21c-1.4,11.84,14.09,37.23,26.78,38.63h0c12.82,1.41,14.07-4.8,15.73-16.02,2.78-18.75,3.71-25.8,3.7-25.69,0,0,16.5-.55,22.62-21.18,3.04-10.26,4.78-27.51,5.75-41.67.87-12.75-5.46-29.36-18.23-29.68Z" fill="#ffbe9d"/>
                                      </g>
                                    </g>
                                  </g>
                                </g>
                              </g>
                            </g>
                          </g>
                          <g id="Group_500" data-name="Group 500">
                            <g id="Group_491" data-name="Group 491">
                              <g id="Group_490" data-name="Group 490">
                                <g id="Group_489" data-name="Group 489">
                                  <g id="Group_488" data-name="Group 488">
                                    <g id="Group_487" data-name="Group 487">
                                      <g id="Group_486" data-name="Group 486">
                                        <g id="Group_485" data-name="Group 485">
                                          <path id="Path_12786" data-name="Path 12786" d="M476.58,156.59a2.724,2.724,0,0,1-2.97,2.38,2.6,2.6,0,0,1-2.46-2.8,2.72,2.72,0,0,1,2.96-2.38A2.6,2.6,0,0,1,476.58,156.59Z" fill="#263238"/>
                                        </g>
                                      </g>
                                    </g>
                                  </g>
                                </g>
                              </g>
                            </g>
                            <g id="Group_499" data-name="Group 499">
                              <g id="Group_498" data-name="Group 498">
                                <g id="Group_497" data-name="Group 497">
                                  <g id="Group_496" data-name="Group 496">
                                    <g id="Group_495" data-name="Group 495">
                                      <g id="Group_494" data-name="Group 494">
                                        <g id="Group_493" data-name="Group 493">
                                          <g id="Group_492" data-name="Group 492">
                                            <path id="Path_12787" data-name="Path 12787" d="M477.73,151.14c-.31.38-2.48-1-5.4-.79-2.93.17-4.97,1.82-5.31,1.49-.17-.15.13-.81,1.02-1.56a7.5,7.5,0,0,1,4.22-1.63,7.2,7.2,0,0,1,4.33,1.07C477.53,150.35,477.88,150.97,477.73,151.14Z" fill="#263238"/>
                                          </g>
                                        </g>
                                      </g>
                                    </g>
                                  </g>
                                </g>
                              </g>
                            </g>
                          </g>
                          <g id="Group_509" data-name="Group 509">
                            <g id="Group_508" data-name="Group 508">
                              <g id="Group_507" data-name="Group 507">
                                <g id="Group_506" data-name="Group 506">
                                  <g id="Group_505" data-name="Group 505">
                                    <g id="Group_504" data-name="Group 504">
                                      <g id="Group_503" data-name="Group 503">
                                        <g id="Group_502" data-name="Group 502">
                                          <g id="Group_501" data-name="Group 501">
                                            <path id="Path_12788" data-name="Path 12788" d="M450.85,158.11c-.35.35-2.37-1.24-5.3-1.32-2.93-.12-5.12,1.33-5.43.96-.15-.16.21-.8,1.17-1.45a7.487,7.487,0,0,1,4.36-1.21,7.209,7.209,0,0,1,4.21,1.49C450.73,157.31,451.02,157.96,450.85,158.11Z" fill="#263238"/>
                                          </g>
                                        </g>
                                      </g>
                                    </g>
                                  </g>
                                </g>
                              </g>
                            </g>
                          </g>
                          <g id="Group_517" data-name="Group 517">
                            <g id="Group_516" data-name="Group 516">
                              <g id="Group_515" data-name="Group 515">
                                <g id="Group_514" data-name="Group 514">
                                  <g id="Group_513" data-name="Group 513">
                                    <g id="Group_512" data-name="Group 512">
                                      <g id="Group_511" data-name="Group 511">
                                        <g id="Group_510" data-name="Group 510">
                                          <path id="Path_12789" data-name="Path 12789" d="M456.31,173.6c.01-.17,1.86-.24,4.84-.23.75.02,1.48-.03,1.67-.52a3.771,3.771,0,0,0-.21-2.27q-.69-2.835-1.45-5.94c-1.99-8.45-3.32-15.36-2.98-15.44s2.23,6.71,4.22,15.16c.47,2.08.93,4.07,1.35,5.96a4.3,4.3,0,0,1,0,2.96,1.847,1.847,0,0,1-1.36.92,5,5,0,0,1-1.28.01C458.13,173.99,456.3,173.76,456.31,173.6Z" fill="#263238"/>
                                        </g>
                                      </g>
                                    </g>
                                  </g>
                                </g>
                              </g>
                            </g>
                          </g>
                          <g id="Group_524" data-name="Group 524">
                            <g id="Group_523" data-name="Group 523">
                              <g id="Group_522" data-name="Group 522">
                                <g id="Group_521" data-name="Group 521">
                                  <g id="Group_520" data-name="Group 520">
                                    <g id="Group_519" data-name="Group 519">
                                      <g id="Group_518" data-name="Group 518">
                                        <path id="Path_12790" data-name="Path 12790" d="M453.79,208.27a54.048,54.048,0,0,1-27.23-11.24s5.21,15.43,26.56,16.23Z" fill="#eb996e"/>
                                      </g>
                                    </g>
                                  </g>
                                </g>
                              </g>
                            </g>
                          </g>
                        </g>
                      </g>
                    </g>
                    <g id="Group_534" data-name="Group 534">
                      <g id="Group_533" data-name="Group 533">
                        <g id="Group_532" data-name="Group 532">
                          <g id="Group_531" data-name="Group 531">
                            <g id="Group_530" data-name="Group 530">
                              <g id="Group_529" data-name="Group 529">
                                <g id="Group_528" data-name="Group 528">
                                  <path id="Path_12791" data-name="Path 12791" d="M451.26,153.1c-.46.71-3.23-.32-6.67-.71-3.44-.45-6.37-.1-6.65-.9-.12-.38.52-1,1.79-1.5a11.67,11.67,0,0,1,10.15,1.22C450.99,152,451.47,152.76,451.26,153.1Z" fill="#263238"/>
                                </g>
                              </g>
                            </g>
                          </g>
                        </g>
                      </g>
                    </g>
                    <g id="Group_541" data-name="Group 541">
                      <g id="Group_540" data-name="Group 540">
                        <g id="Group_539" data-name="Group 539">
                          <g id="Group_538" data-name="Group 538">
                            <g id="Group_537" data-name="Group 537">
                              <g id="Group_536" data-name="Group 536">
                                <g id="Group_535" data-name="Group 535">
                                  <path id="Path_12792" data-name="Path 12792" d="M477.29,147.21c-.48.69-2.53.1-4.96.2-2.43.01-4.46.68-4.97,0-.22-.33.07-1.01.93-1.69a6.935,6.935,0,0,1,3.98-1.3,6.836,6.836,0,0,1,4.02,1.14C477.19,146.21,477.5,146.88,477.29,147.21Z" fill="#263238"/>
                                </g>
                              </g>
                            </g>
                          </g>
                        </g>
                      </g>
                    </g>
                  </g>
                </g>
              </g>
            </g>
            <path id="Path_12793" data-name="Path 12793" d="M449.23,178.91a6.241,6.241,0,0,1,4.58-.96,3.568,3.568,0,0,1,2.13,1.11,4.483,4.483,0,0,1,.74,3.06,6.073,6.073,0,0,1-.28,1.9,2.5,2.5,0,0,1-1.22,1.43,3.343,3.343,0,0,1-1.96.1,7.524,7.524,0,0,1-3.09-1.12,3.85,3.85,0,0,1-1.73-2.7,2.6,2.6,0,0,1,1.55-2.66" fill="#eb996e"/>
            <g id="Group_546" data-name="Group 546">
              <path id="Path_12794" data-name="Path 12794" d="M457.12,185.33c-.22.08-.6-.56-1.3-1.44a10.686,10.686,0,0,0-7.26-4.14c-1.11-.16-1.86-.16-1.9-.39-.05-.2.65-.59,1.92-.72a8.414,8.414,0,0,1,8.19,4.67C457.3,184.47,457.32,185.27,457.12,185.33Z" fill="#263238"/>
            </g>
          </g>
          <path id="Path_12795" data-name="Path 12795" d="M406.45,205.56c6.94-1.38,12.3-7.35,14.69-14.02s2.27-13.95,1.63-21a3.386,3.386,0,0,0-.95-2.48c-1.05-.81-2.56-.15-3.69.54a118,118,0,0,0-12.58,8.84c-3.72,3-7.4,6.45-8.83,11-2.19,6.99,2.44,15.34,9.53,17.19" fill="#263238"/>
          <g id="Group_555" data-name="Group 555">
            <path id="Path_12796" data-name="Path 12796" d="M566.21,203.93l-32.78-52.68-9.05-18.54s-2.89-3.83-5.89-7.1c-4.93-5.37-9.79-1.2-9.79-1.2a3.338,3.338,0,0,0-3.29-2.03,5.6,5.6,0,0,0-4.53,2.31s-1.34-1.49-5.06-1.72a3.919,3.919,0,0,0-2.36.76c-1.22-1.07-3.45-2.62-5.61-1.83-1.68.61-11.87,8.36-14.38,12.26-1.24,1.93,1.06,4.43,4.16,3.26a27.526,27.526,0,0,0,3.72-1.51,9.914,9.914,0,0,0,2.52-2.03s-2.57,4.5-.01,5.29a5.863,5.863,0,0,0,4.82-1.17c.98-.83,2.11-1.9,3.18-2.94-.04.06-.09.12-.13.18-1.42,2.1,2.28,5.21,4.08,3.95a26.614,26.614,0,0,0,2.39-1.89c4.16,3.02-1.62,6.89-4.06,6.69a76.015,76.015,0,0,0-11.28-.04c-2.12.18-4.02.68-5.16,1.86-1.38,1.42.07,4.4,2.02,4.7a131.709,131.709,0,0,1,12.93,2.58c5.61,1.44,20.27,6.21,20.27,6.21l1.43,1.16,19.94,48.61-34.13,7.23-7.62,43.24,61.6-16.71C568.03,235.6,574.61,217.13,566.21,203.93Z" fill="#ffbe9d"/>
            <g id="Group_548" data-name="Group 548">
              <path id="Path_12797" data-name="Path 12797" d="M512.93,159.29a4.413,4.413,0,0,1-.78-.19c-.55-.16-1.29-.37-2.21-.63-1.97-.58-4.72-1.4-8.1-2.41-1.71-.52-3.58-1.08-5.59-1.69s-4.15-1.26-6.44-1.84a61.366,61.366,0,0,0-7.22-1.49,12.365,12.365,0,0,1-3.92-.71,2.647,2.647,0,0,1-.88-.66,1.551,1.551,0,0,1-.3-.54l-.08-.53a5.1,5.1,0,0,1,.13-2.12,2.917,2.917,0,0,1,1.42-1.64,10.55,10.55,0,0,1,1.91-.76,12.821,12.821,0,0,1,3.95-.49c2.6.03,5.05.39,7.39.3a24.494,24.494,0,0,0,3.39-.33c1.09-.2,2.13-.48,3.15-.74a16.579,16.579,0,0,1,5.83-.74,15.756,15.756,0,0,1,4.7,1.2,29.679,29.679,0,0,1,3.28,1.61c.87.49,1.53.9,1.98,1.17a5.307,5.307,0,0,1,.66.45,5.3,5.3,0,0,1-.72-.36c-.51-.27-1.18-.63-2.02-1.09a32.234,32.234,0,0,0-3.29-1.52,15.59,15.59,0,0,0-4.62-1.1,16.57,16.57,0,0,0-5.69.79c-1.01.27-2.06.57-3.18.78a22.9,22.9,0,0,1-3.46.36c-2.39.11-4.87-.24-7.41-.27a12.439,12.439,0,0,0-3.79.47c-1.22.4-2.62.83-2.99,2.07a4.638,4.638,0,0,0-.11,1.9l.06.46a1.121,1.121,0,0,0,.19.33,2.176,2.176,0,0,0,.71.52,12.339,12.339,0,0,0,3.75.66,60.47,60.47,0,0,1,7.27,1.53c2.29.6,4.44,1.25,6.44,1.89s3.86,1.21,5.57,1.75c3.36,1.07,6.1,1.95,8.06,2.57.91.3,1.64.54,2.18.72A5.166,5.166,0,0,1,512.93,159.29Z" fill="#eb996e"/>
            </g>
            <g id="Group_549" data-name="Group 549">
              <path id="Path_12798" data-name="Path 12798" d="M487.66,121.98c.05.08-1.54,1.01-3.9,2.79a38.454,38.454,0,0,0-3.92,3.4c-1.4,1.36-2.87,2.96-4.61,4.45a4.853,4.853,0,0,0-1.85,2.47,1.737,1.737,0,0,0,1.2,2.14,5.256,5.256,0,0,0,2.64.05,12.631,12.631,0,0,0,2.29-.66,17.365,17.365,0,0,0,4.06-2.46,4.376,4.376,0,0,1-.9.93,11.594,11.594,0,0,1-3.02,1.87,12.018,12.018,0,0,1-2.35.74,5.626,5.626,0,0,1-2.88-.02,2.34,2.34,0,0,1-1.31-1,2.392,2.392,0,0,1-.25-1.7,5.178,5.178,0,0,1,2.01-2.76c1.71-1.47,3.18-3.04,4.61-4.4a36.475,36.475,0,0,1,4.04-3.35c1.21-.87,2.25-1.49,2.97-1.91A7.643,7.643,0,0,1,487.66,121.98Z" fill="#eb996e"/>
            </g>
            <g id="Group_550" data-name="Group 550">
              <path id="Path_12799" data-name="Path 12799" d="M500.17,126.12a12.682,12.682,0,0,1-1.16,1.38c-.83.92-1.94,2.14-3.29,3.62-1.42,1.54-3.09,3.33-4.93,5.32a11.807,11.807,0,0,1-3.46,2.64,5.17,5.17,0,0,1-2.29.57,3.184,3.184,0,0,1-2.3-.92,2.188,2.188,0,0,1-.55-1.25,3.936,3.936,0,0,1,.13-1.29,7.666,7.666,0,0,1,1.06-2.19l.01-.01.02-.02c1.76-1.87,3.4-3.63,4.88-5.25,1.5-1.59,2.94-2.89,4.11-4a8.353,8.353,0,0,1,1.71-1.38,4.2,4.2,0,0,1,1.62-.35c.88-.06,1.4.02,1.36.11a4.117,4.117,0,0,0-1.34.06,4.305,4.305,0,0,0-1.51.4,8.765,8.765,0,0,0-1.61,1.39c-1.14,1.14-2.55,2.46-4.02,4.06-1.44,1.62-3.08,3.41-4.84,5.31l.02-.03a6.983,6.983,0,0,0-.97,2.02,3.443,3.443,0,0,0-.12,1.1,1.738,1.738,0,0,0,.41.95,2.723,2.723,0,0,0,1.92.75,4.7,4.7,0,0,0,2.07-.52,11.633,11.633,0,0,0,3.33-2.51c1.87-1.96,3.57-3.73,5.01-5.25,1.4-1.43,2.55-2.62,3.41-3.51.37-.37.69-.68.95-.94A2.038,2.038,0,0,1,500.17,126.12Z" fill="#eb996e"/>
            </g>
            <g id="Group_551" data-name="Group 551">
              <path id="Path_12800" data-name="Path 12800" d="M515.49,130.94c.05.04-.05.3-.4.58a2.159,2.159,0,0,1-1.66.41,2.082,2.082,0,0,1-1.42-.95c-.23-.38-.24-.66-.17-.68s.2.19.46.45a2.178,2.178,0,0,0,2.59.45C515.23,131.06,515.43,130.89,515.49,130.94Z" fill="#eb996e"/>
            </g>
            <g id="Group_552" data-name="Group 552">
              <path id="Path_12801" data-name="Path 12801" d="M516.69,135.53c-.11.09-.86-.66-1.52-1.78a4.325,4.325,0,0,1-.83-2.19c.14-.06.64.84,1.28,1.93A7.671,7.671,0,0,1,516.69,135.53Z" fill="#eb996e"/>
            </g>
            <g id="Group_553" data-name="Group 553">
              <path id="Path_12802" data-name="Path 12802" d="M518.9,153.41a6.727,6.727,0,0,1-.95-2.08,17.073,17.073,0,0,1,.15-10.91,6.861,6.861,0,0,1,1-2.06,27.034,27.034,0,0,0-1.45,7.51A26.343,26.343,0,0,0,518.9,153.41Z" fill="#eb996e"/>
            </g>
            <g id="Group_554" data-name="Group 554">
              <path id="Path_12803" data-name="Path 12803" d="M545.82,222.7c-.1.01-.2-1.06-.72-2.69a15.98,15.98,0,0,0-1.18-2.75,16.49,16.49,0,0,0-4.79-5.45,16.749,16.749,0,0,0-2.57-1.53c-1.55-.73-2.6-.96-2.57-1.06.01-.04.27,0,.75.1a11.611,11.611,0,0,1,1.97.62,14.111,14.111,0,0,1,2.7,1.47,15.509,15.509,0,0,1,4.93,5.62,14.276,14.276,0,0,1,1.11,2.87,10.507,10.507,0,0,1,.36,2.03A2.393,2.393,0,0,1,545.82,222.7Z" fill="#eb996e"/>
            </g>
          </g>
          <g id="Group_561" data-name="Group 561">
            <path id="Path_12804" data-name="Path 12804" d="M431.44,319.01a14.183,14.183,0,0,0-8.32,1.06c-4.45-1.97-9.94,1.43-9.94,1.43-1.61-.77-11.31,5.57-11.31,5.57l-12.08,5.7-64.53-47.95,18.29-19.03-25.63-26.67-30.04,30.91a22.753,22.753,0,0,0-5.99,14.55,29.593,29.593,0,0,0,16.44,28.04l76.04,39a88.75,88.75,0,0,0,17.29-2.69c6.56-1.71,17.77-6.69,17.77-6.69s-.03.34,1.97,4.22c3.61,6.99,8.9-.55,8.9-.55a14.356,14.356,0,0,0,2.05,3.42c4.57,4.43,7.74-1.52,7.74-1.52s1.37,2.39,5.46.61c4.07-1.77-.59-14.06-.59-14.06s1.37,2.67,4.02-.71S435.81,319.92,431.44,319.01Z" fill="#ffbe9d"/>
            <g id="Group_556" data-name="Group 556">
              <path id="Path_12805" data-name="Path 12805" d="M422.31,320.69a2.2,2.2,0,0,1,.84-.32,5.021,5.021,0,0,1,2.45.07,9.352,9.352,0,0,1,3.23,1.65,11.816,11.816,0,0,1,1.61,1.44,9.178,9.178,0,0,1,1.26,1.95,49.008,49.008,0,0,1,2.95,7.41c.3.98.5,1.78.63,2.33a3.331,3.331,0,0,1,.14.88,30,30,0,0,1-1.11-3.1,68.391,68.391,0,0,0-3.07-7.29,8.857,8.857,0,0,0-1.18-1.85,11.587,11.587,0,0,0-1.52-1.39,9.91,9.91,0,0,0-3.04-1.68A6.694,6.694,0,0,0,422.31,320.69Z" fill="#eb996e"/>
            </g>
            <g id="Group_557" data-name="Group 557">
              <path id="Path_12806" data-name="Path 12806" d="M430.08,347.81a6.074,6.074,0,0,1-.56-1.11c-.38-.82-.85-1.85-1.41-3.06-1.19-2.59-2.93-6.12-4.59-10.16a26.392,26.392,0,0,0-2.63-5.46,9.078,9.078,0,0,0-3.71-3.1,5.962,5.962,0,0,0-3.2-.57c-.77.1-1.17.31-1.2.26-.01-.02.09-.07.28-.17a3.407,3.407,0,0,1,.89-.29,5.929,5.929,0,0,1,3.38.43,9.185,9.185,0,0,1,3.96,3.15,25.825,25.825,0,0,1,2.72,5.55c1.65,4.01,3.34,7.57,4.45,10.21.56,1.31.99,2.39,1.26,3.14A6.115,6.115,0,0,1,430.08,347.81Z" fill="#eb996e"/>
            </g>
            <g id="Group_558" data-name="Group 558">
              <path id="Path_12807" data-name="Path 12807" d="M400.46,332.38a5,5,0,0,1,1.03-.57c.78-.38,1.74-.84,2.88-1.39.62-.29,1.27-.61,2.02-.93a5.656,5.656,0,0,1,2.59-.38,5.355,5.355,0,0,1,2.71,1.04,8.783,8.783,0,0,1,1.99,2.37,28.906,28.906,0,0,1,1.4,2.69c.43.87.87,1.69,1.3,2.47.87,1.55,1.69,2.95,2.3,4.16a25.034,25.034,0,0,1,1.28,2.95,4.526,4.526,0,0,1,.32,1.14c-.09.03-.63-1.56-1.93-3.91-.64-1.18-1.49-2.55-2.39-4.1-.45-.78-.9-1.6-1.34-2.48s-.86-1.78-1.39-2.64a8.342,8.342,0,0,0-1.85-2.23,5.03,5.03,0,0,0-2.45-.97,5.229,5.229,0,0,0-2.39.3c-.72.29-1.4.6-2.02.86-1.17.49-2.15.9-2.95,1.24A5.067,5.067,0,0,1,400.46,332.38Z" fill="#eb996e"/>
            </g>
            <g id="Group_559" data-name="Group 559">
              <path id="Path_12808" data-name="Path 12808" d="M401.86,327.07a4.065,4.065,0,0,1-.88.56c-.58.33-1.43.79-2.49,1.35-2.11,1.12-5.05,2.63-8.31,4.27s-6.22,3.1-8.38,4.14c-1.08.52-1.96.93-2.57,1.2a3.648,3.648,0,0,1-.97.37,4.065,4.065,0,0,1,.88-.56c.58-.33,1.43-.79,2.49-1.35,2.11-1.12,5.05-2.63,8.31-4.27s6.22-3.1,8.38-4.14c1.08-.52,1.95-.93,2.57-1.2A3.649,3.649,0,0,1,401.86,327.07Z" fill="#eb996e"/>
            </g>
            <g id="Group_560" data-name="Group 560">
              <path id="Path_12809" data-name="Path 12809" d="M326.11,284.93a33.241,33.241,0,0,0-7.62-.25,32.854,32.854,0,0,0-7.35,2.02,6.925,6.925,0,0,1,1.98-1.12,18.859,18.859,0,0,1,5.31-1.42,19.26,19.26,0,0,1,5.49.14A7.052,7.052,0,0,1,326.11,284.93Z" fill="#eb996e"/>
            </g>
          </g>
          <g id="Group_565" data-name="Group 565">
            <path id="Path_12810" data-name="Path 12810" d="M468.62,111.71a201.556,201.556,0,0,0-47.53,5.02c-3.61.82-7.43,1.88-9.87,4.67-2.58,2.94-3.04,7.14-3.38,11.04q-.615,7.125-1.24,14.25a31.986,31.986,0,0,1-2.28,3.4c-3.76,4.91-8.55,9-11.97,14.16s-5.31,12-2.52,17.52c1.68,3.34,4.81,5.7,7.09,8.66,3.87,5.03,5.13,11.51,7.39,17.44s6.34,11.97,12.57,13.16c2.97.57,6.06-.06,9.05.38,4.47.65,8.23,3.58,11.79,6.37s7.41,5.64,11.9,6.08,9.65-2.6,9.74-7.12a10.556,10.556,0,0,1-10.87-.31c-2.62-1.72-4.31-4.52-6.56-6.71-5.52-5.36-14.43-7.06-18.27-13.73-3.04-5.28-1.83-11.88-.45-17.81,1.2-5.14,2.41-10.72.93-15.66a17.506,17.506,0,0,0,.18-2.4c.04-5.26-2.05-10.9.4-15.55,3.24-6.16,12.58-6.93,15.85-13.07,1.9-3.57,1.23-8.13,3.31-11.59,1.96-3.26,5.86-4.76,9.58-5.57s7.63-1.18,10.92-3.1S470.11,115.2,468.62,111.71Z" fill="#263238"/>
            <g id="Group_562" data-name="Group 562">
              <path id="Path_12811" data-name="Path 12811" d="M480.74,219c.01.01-.04.09-.15.25-.13.18-.29.41-.49.7a14.293,14.293,0,0,1-2.3,2.33,15.6,15.6,0,0,1-4.56,2.45,15.821,15.821,0,0,1-6.81.79,14.3,14.3,0,0,1-7.66-3.14c-2.38-1.83-4.5-4.26-7.19-6.19a10.253,10.253,0,0,0-4.58-1.92,10.1,10.1,0,0,0-5.1.92,26.074,26.074,0,0,1-5.3,1.83,9.249,9.249,0,0,1-5.69-1.01,28.68,28.68,0,0,1-4.81-3.19,37.261,37.261,0,0,1-4.22-3.67,13.088,13.088,0,0,1-3-4.53,9.18,9.18,0,0,1-.34-5.2,27.972,27.972,0,0,1,1.51-4.69c.58-1.48,1.08-2.92,1.52-4.34a58.885,58.885,0,0,0,2.5-19.97c-.06-1.41-.15-2.51-.23-3.25-.03-.35-.06-.63-.07-.84a1.588,1.588,0,0,1-.01-.29,1.021,1.021,0,0,1,.06.28c.03.22.07.49.13.84.11.74.23,1.83.33,3.25a56.883,56.883,0,0,1-.48,12,58.872,58.872,0,0,1-1.8,8.11c-.44,1.43-.93,2.9-1.51,4.38a28.945,28.945,0,0,0-1.47,4.62,8.76,8.76,0,0,0,.34,4.93,12.633,12.633,0,0,0,2.9,4.34,38.462,38.462,0,0,0,4.17,3.61,27.811,27.811,0,0,0,4.72,3.13,8.814,8.814,0,0,0,5.39.97,25.5,25.5,0,0,0,5.19-1.79,10.53,10.53,0,0,1,5.34-.94,10.855,10.855,0,0,1,4.8,2.02c2.75,2,4.85,4.43,7.18,6.25a13.876,13.876,0,0,0,7.43,3.11,16.029,16.029,0,0,0,11.21-3.03A18.983,18.983,0,0,0,480.74,219Z" fill="#263238"/>
            </g>
            <g id="Group_563" data-name="Group 563">
              <path id="Path_12812" data-name="Path 12812" d="M380.83,187.2a10.417,10.417,0,0,1-.8-1.1,11.339,11.339,0,0,1-1.41-3.64,14.884,14.884,0,0,1,.1-6.18,18.876,18.876,0,0,1,3.46-7.42,34.883,34.883,0,0,1,7.22-6.83c2.87-2.14,6.13-4.12,9.38-6.44a34.264,34.264,0,0,0,8.9-8.65,22.293,22.293,0,0,0,2.7-5.97c.65-2.14,1.09-4.38,1.6-6.64a35.591,35.591,0,0,1,2.02-6.58,14.858,14.858,0,0,1,3.93-5.43,16.822,16.822,0,0,1,5.67-3.12,25.677,25.677,0,0,1,6.08-1.2,69.452,69.452,0,0,1,11.4.36,53.8,53.8,0,0,0,9.86.13,20.979,20.979,0,0,0,7.73-2.3,15.5,15.5,0,0,0,4.74-3.82,11.411,11.411,0,0,0,1.91-3.35c.28-.84.39-1.3.42-1.29a9.178,9.178,0,0,1-.32,1.33,11.184,11.184,0,0,1-1.86,3.44,15.322,15.322,0,0,1-4.76,3.95,21.158,21.158,0,0,1-7.83,2.41,53.319,53.319,0,0,1-9.93-.06,68.872,68.872,0,0,0-11.32-.31,25.528,25.528,0,0,0-5.96,1.2,16.189,16.189,0,0,0-5.5,3.04,14.358,14.358,0,0,0-3.79,5.26,35.2,35.2,0,0,0-1.99,6.49c-.52,2.25-.96,4.5-1.61,6.67a22.5,22.5,0,0,1-2.77,6.1,34.6,34.6,0,0,1-9.05,8.76c-3.28,2.32-6.54,4.29-9.4,6.4a34.454,34.454,0,0,0-7.18,6.7,18.759,18.759,0,0,0-3.47,7.26,14.913,14.913,0,0,0-.18,6.08A12.621,12.621,0,0,0,380.83,187.2Z" fill="#455a64"/>
            </g>
            <g id="Group_564" data-name="Group 564">
              <path id="Path_12813" data-name="Path 12813" d="M383.76,192.45a22.112,22.112,0,0,1-3.07-2.95,13.88,13.88,0,0,1-2.67-4.24,7.071,7.071,0,0,1-.46-3.13,6.272,6.272,0,0,1,1.35-3.28c1.62-1.98,4.3-3.05,7.11-3.64,1.42-.3,2.89-.53,4.36-.89a12.6,12.6,0,0,0,4.26-1.77,10.471,10.471,0,0,0,3.1-3.67,33.206,33.206,0,0,0,1.92-4.77,33.778,33.778,0,0,1,2.04-5.01,10.6,10.6,0,0,1,3.75-4.15,18.605,18.605,0,0,1,5.21-2.03c1.77-.46,3.52-.83,5.17-1.39a16.724,16.724,0,0,0,7.94-5.85,60.6,60.6,0,0,0,4.93-7.71,43.4,43.4,0,0,1,4.49-6.66,17.079,17.079,0,0,1,5.13-4.19,13.137,13.137,0,0,1,4.79-1.45,8.953,8.953,0,0,1,3.15.26,6.2,6.2,0,0,1,1.04.36c-.01.03-.37-.11-1.06-.26a9.815,9.815,0,0,0-3.11-.16,13.027,13.027,0,0,0-4.67,1.5,17.026,17.026,0,0,0-4.99,4.17,43.7,43.7,0,0,0-4.4,6.64,59.3,59.3,0,0,1-4.93,7.79,20.893,20.893,0,0,1-3.53,3.57,15.046,15.046,0,0,1-4.63,2.47c-1.69.58-3.45.95-5.2,1.41a18.352,18.352,0,0,0-5.06,1.97,10.11,10.11,0,0,0-3.58,3.96,33.771,33.771,0,0,0-2.01,4.93,33.1,33.1,0,0,1-1.96,4.84,10.874,10.874,0,0,1-3.27,3.84,12.955,12.955,0,0,1-4.43,1.82c-1.5.36-2.98.58-4.38.87-2.77.56-5.37,1.59-6.91,3.45a5.883,5.883,0,0,0-1.31,3.08,6.675,6.675,0,0,0,.4,2.99,14.243,14.243,0,0,0,2.55,4.2c.88,1.04,1.63,1.79,2.14,2.3.24.23.43.42.59.57Q383.775,192.435,383.76,192.45Z" fill="#455a64"/>
            </g>
          </g>
        </g>
        <g id="Group_567" data-name="Group 567">
          <path id="Path_12814" data-name="Path 12814" d="M506.86,127.85a3.136,3.136,0,0,1-.52.77c-.36.48-.9,1.15-1.58,1.97-1.36,1.64-3.32,3.84-5.62,6.15-1.14,1.11-2.21,2.38-3.68,2.84a3.24,3.24,0,0,1-2.11-.02,2.681,2.681,0,0,1-1.36-1.24,4.087,4.087,0,0,1-.38-2.54,2.254,2.254,0,0,1,.24-.9,4.91,4.91,0,0,1-.04.92,4.189,4.189,0,0,0,.49,2.34,2.314,2.314,0,0,0,1.19,1.02,2.812,2.812,0,0,0,1.81-.03c1.27-.41,2.31-1.62,3.46-2.75,2.29-2.3,4.28-4.45,5.71-6.02A26.844,26.844,0,0,1,506.86,127.85Z" fill="#eb996e"/>
        </g>
        <g id="Group_568" data-name="Group 568">
          <path id="Path_12815" data-name="Path 12815" d="M514.5,127.85a3.647,3.647,0,0,1-.6.78c-.41.48-1.02,1.16-1.78,1.99-.8.86-1.7,1.84-2.69,2.91-.51.55-1.05,1.12-1.6,1.71a13.081,13.081,0,0,1-1.88,1.73,4.814,4.814,0,0,1-2.44.97,2.5,2.5,0,0,1-2.27-.99,1.953,1.953,0,0,1-.37-1.16,2.293,2.293,0,0,1,.34-1.07c.37-.6.75-1.06,1.08-1.52.67-.91,1.22-1.64,1.6-2.14a3.453,3.453,0,0,1,.65-.74,3.376,3.376,0,0,1-.48.86c-.34.53-.84,1.3-1.47,2.23-.3.47-.69.98-1,1.52a1.52,1.52,0,0,0,.04,1.74,2.031,2.031,0,0,0,1.85.76,4.342,4.342,0,0,0,2.17-.88,13.607,13.607,0,0,0,1.81-1.66l1.62-1.68c1.02-1.04,1.95-1.99,2.77-2.83.79-.8,1.44-1.44,1.9-1.88A3.88,3.88,0,0,1,514.5,127.85Z" fill="#eb996e"/>
        </g>
      </g>
    </g>
    <g id="Plants">
      <g id="Group_571" data-name="Group 571">
        <path id="Path_12816" data-name="Path 12816" d="M618.91,434a12.663,12.663,0,0,1,20.58-3.56,16.4,16.4,0,0,1-9.21,7.07A10,10,0,0,1,618.91,434" fill="#00bfa6"/>
        <g id="Group_570" data-name="Group 570">
          <path id="Path_12817" data-name="Path 12817" d="M611.81,435.64a13.1,13.1,0,0,1,2.87-.9c1.81-.44,4.32-.94,7.12-1.4s5.34-.81,7.18-1.02a15.979,15.979,0,0,1,3-.23,18.117,18.117,0,0,1-2.95.6c-1.99.33-4.44.73-7.15,1.17-2.79.46-5.31.9-7.13,1.24A26.18,26.18,0,0,1,611.81,435.64Z" fill="#263238"/>
        </g>
      </g>
      <g id="Group_575" data-name="Group 575">
        <path id="Path_12818" data-name="Path 12818" d="M261.48,370.69a16.661,16.661,0,0,1-2.98,27.69c-3.67-9.41-5.08-19.54,2.98-27.69" fill="#00bfa6"/>
        <g id="Group_573" data-name="Group 573">
          <path id="Path_12819" data-name="Path 12819" d="M275.39,377.91a21.554,21.554,0,0,0,31.15,18.11c-6.99-11.04-16.47-20.27-31.15-18.11" fill="#00bfa6"/>
          <g id="Group_572" data-name="Group 572">
            <path id="Path_12820" data-name="Path 12820" d="M243.52,343.13a3.775,3.775,0,0,1,.46.5c.32.38.73.88,1.25,1.49,1.07,1.31,2.61,3.2,4.57,5.49,3.9,4.6,9.41,10.86,15.9,17.39,3.25,3.26,6.44,6.27,9.41,8.93,2.99,2.64,5.76,4.93,8.15,6.75a62.153,62.153,0,0,0,5.89,4.01c1.45.86,2.31,1.21,2.29,1.27a3.283,3.283,0,0,1-.63-.24,14.5,14.5,0,0,1-1.75-.85,53.25,53.25,0,0,1-6.01-3.89c-2.44-1.79-5.23-4.06-8.25-6.69-2.99-2.65-6.2-5.66-9.46-8.92-6.5-6.54-11.98-12.85-15.81-17.52-1.92-2.33-3.43-4.25-4.45-5.6-.48-.64-.87-1.15-1.17-1.55A3.641,3.641,0,0,1,243.52,343.13Z" fill="#263238"/>
          </g>
        </g>
        <g id="Group_574" data-name="Group 574">
          <path id="Path_12821" data-name="Path 12821" d="M260.71,384.91c-.09-.02.25-1.41.53-3.68a38.909,38.909,0,0,0-1.83-17.61c-.75-2.16-1.36-3.45-1.28-3.49a3.693,3.693,0,0,1,.51.87,23,23,0,0,1,1.11,2.5,34.3,34.3,0,0,1,1.86,17.79,24.955,24.955,0,0,1-.57,2.68A4.386,4.386,0,0,1,260.71,384.91Z" fill="#263238"/>
        </g>
      </g>
      <g id="Group_577" data-name="Group 577">
        <path id="Path_12822" data-name="Path 12822" d="M702.02,182.54a12.669,12.669,0,0,1,6.63-19.81c2.13,3.36,2.5,7.53,1.86,11.46a10.009,10.009,0,0,1-8.49,8.35" fill="#00bfa6"/>
        <g id="Group_576" data-name="Group 576">
          <path id="Path_12823" data-name="Path 12823" d="M700.1,189.57a12.238,12.238,0,0,1,.58-2.96c.47-1.8,1.23-4.25,2.15-6.93s1.82-5.08,2.5-6.8a16.152,16.152,0,0,1,1.22-2.75,18.118,18.118,0,0,1-.87,2.88c-.66,1.91-1.46,4.25-2.36,6.85-.92,2.67-1.73,5.1-2.29,6.86S700.17,189.59,700.1,189.57Z" fill="#263238"/>
        </g>
      </g>
      <g id="Group_584" data-name="Group 584">
        <g id="Group_580" data-name="Group 580">
          <path id="Path_12824" data-name="Path 12824" d="M657.95,256.94a24.5,24.5,0,0,1,26.21-30.74c1.39,7.56-.96,15.32-4.95,21.9-4.71,7.74-14.07,11.02-21.26,8.84" fill="#00bfa6"/>
          <g id="Group_578" data-name="Group 578">
            <path id="Path_12825" data-name="Path 12825" d="M628.41,286.54a3.486,3.486,0,0,1,.42-.54c.33-.38.76-.86,1.29-1.47,1.15-1.26,2.82-3.06,4.92-5.26,4.19-4.4,10.05-10.41,16.57-17.01s12.46-12.53,16.78-16.81c2.14-2.1,3.88-3.81,5.14-5.04.58-.56,1.05-1.01,1.42-1.35a4.824,4.824,0,0,1,.52-.45,3.936,3.936,0,0,1-.44.52c-.34.36-.79.83-1.35,1.42-1.23,1.26-2.93,3.01-5.02,5.16-4.3,4.37-10.18,10.33-16.67,16.92s-12.37,12.54-16.68,16.9c-2.09,2.14-3.8,3.88-5.04,5.14-.56.58-1.02,1.04-1.36,1.4A2.909,2.909,0,0,1,628.41,286.54Z" fill="#263238"/>
          </g>
          <g id="Group_579" data-name="Group 579" opacity="0.3">
            <path id="Path_12826" data-name="Path 12826" d="M657.95,256.94a24.5,24.5,0,0,1,26.21-30.74c1.39,7.56-.96,15.32-4.95,21.9-4.71,7.74-14.07,11.02-21.26,8.84"/>
          </g>
        </g>
        <g id="Group_583" data-name="Group 583">
          <path id="Path_12827" data-name="Path 12827" d="M644.29,259.91a15.041,15.041,0,0,1-3.13-24.6c4.01,2.49,6.56,6.77,7.9,11.29,1.57,5.34-.81,10.95-4.77,13.31" fill="#00bfa6"/>
          <g id="Group_581" data-name="Group 581" opacity="0.3">
            <path id="Path_12828" data-name="Path 12828" d="M644.29,259.91a15.041,15.041,0,0,1-3.13-24.6c4.01,2.49,6.56,6.77,7.9,11.29,1.57,5.34-.81,10.95-4.77,13.31"/>
          </g>
          <g id="Group_582" data-name="Group 582">
            <path id="Path_12829" data-name="Path 12829" d="M645.85,268.43a3.913,3.913,0,0,1-.31-.91c-.17-.6-.36-1.47-.57-2.55-.42-2.17-.86-5.18-1.26-8.52s-.68-6.37-.84-8.56a22.6,22.6,0,0,1-.15-3.56,26.346,26.346,0,0,1,.51,3.53c.27,2.33.61,5.28.99,8.54.4,3.33.78,6.34,1.11,8.52C645.66,267.08,645.93,268.41,645.85,268.43Z" fill="#263238"/>
          </g>
        </g>
      </g>
      <g id="Group_587" data-name="Group 587">
        <path id="Path_12830" data-name="Path 12830" d="M457.04,375.81a23.661,23.661,0,0,1,38.92-7.09c-11.34,8.8-24.57,14.8-38.92,7.09" fill="#00bfa6"/>
        <g id="Group_585" data-name="Group 585" opacity="0.3">
          <path id="Path_12831" data-name="Path 12831" d="M457.04,375.81a23.661,23.661,0,0,1,38.92-7.09c-11.34,8.8-24.57,14.8-38.92,7.09"/>
        </g>
        <g id="Group_586" data-name="Group 586">
          <path id="Path_12832" data-name="Path 12832" d="M450.63,379.33a4.607,4.607,0,0,1,.9-.7c.6-.43,1.49-1,2.62-1.66a49.85,49.85,0,0,1,19.36-6.38c1.3-.14,2.36-.21,3.1-.22a4.243,4.243,0,0,1,1.14.03c0,.09-1.61.19-4.19.56a57.659,57.659,0,0,0-19.22,6.34C452.04,378.52,450.68,379.4,450.63,379.33Z" fill="#263238"/>
        </g>
      </g>
      <g id="Group_590" data-name="Group 590">
        <path id="Path_12833" data-name="Path 12833" d="M193.43,245.51a18.278,18.278,0,0,1,26,16.05c-11.05-.82-21.74-4.21-26-16.05" fill="#00bfa6"/>
        <g id="Group_588" data-name="Group 588" opacity="0.3">
          <path id="Path_12834" data-name="Path 12834" d="M193.43,245.51a18.278,18.278,0,0,1,26,16.05c-11.05-.82-21.74-4.21-26-16.05"/>
        </g>
        <g id="Group_589" data-name="Group 589">
          <path id="Path_12835" data-name="Path 12835" d="M187.94,244.22a2.707,2.707,0,0,1,.88.04,23.538,23.538,0,0,1,2.37.38,37.632,37.632,0,0,1,7.54,2.41,37.177,37.177,0,0,1,6.87,3.93c.82.6,1.46,1.11,1.88,1.49s.65.59.63.62c-.05.07-1.04-.7-2.72-1.81a45.65,45.65,0,0,0-14.28-6.29C189.16,244.51,187.93,244.3,187.94,244.22Z" fill="#263238"/>
        </g>
      </g>
      <g id="Group_592" data-name="Group 592">
        <path id="Path_12836" data-name="Path 12836" d="M551.76,363.56a16.354,16.354,0,0,1,20.88-17.64c-3.77,9.17-9.63,17.32-20.88,17.64" fill="#00bfa6"/>
        <g id="Group_591" data-name="Group 591">
          <path id="Path_12837" data-name="Path 12837" d="M549.13,367.87a12.143,12.143,0,0,1,1.25-2.66,33.284,33.284,0,0,1,4.15-5.75,34.028,34.028,0,0,1,5.26-4.75,11.879,11.879,0,0,1,2.5-1.53,28.868,28.868,0,0,1-2.28,1.82,41.479,41.479,0,0,0-9.32,10.39A24.07,24.07,0,0,1,549.13,367.87Z" fill="#263238"/>
        </g>
      </g>
      <g id="Group_595" data-name="Group 595">
        <path id="Path_12838" data-name="Path 12838" d="M630.45,311.61a16.351,16.351,0,0,1,17.19-21.25c-1.98,9.72-6.2,18.82-17.19,21.25" fill="#00bfa6"/>
        <g id="Group_593" data-name="Group 593" opacity="0.3">
          <path id="Path_12839" data-name="Path 12839" d="M630.45,311.61a16.351,16.351,0,0,1,17.19-21.25c-1.98,9.72-6.2,18.82-17.19,21.25"/>
        </g>
        <g id="Group_594" data-name="Group 594">
          <path id="Path_12840" data-name="Path 12840" d="M628.68,316.34a11.525,11.525,0,0,1,.73-2.84,33.342,33.342,0,0,1,7.27-12.08,11.224,11.224,0,0,1,2.17-1.97,27.133,27.133,0,0,1-1.9,2.22,41.342,41.342,0,0,0-7.2,11.97A26.134,26.134,0,0,1,628.68,316.34Z" fill="#263238"/>
        </g>
      </g>
      <g id="Group_597" data-name="Group 597">
        <path id="Path_12841" data-name="Path 12841" d="M37.28,240.1a16.344,16.344,0,0,1,25.55-9.69C56.24,237.8,48,243.54,37.28,240.1" fill="#00bfa6"/>
        <g id="Group_596" data-name="Group 596">
          <path id="Path_12842" data-name="Path 12842" d="M33.37,243.29a11.915,11.915,0,0,1,2.06-2.09,33,33,0,0,1,5.82-4.04,34.109,34.109,0,0,1,6.54-2.73,11.453,11.453,0,0,1,2.87-.61,26.947,26.947,0,0,1-2.76.96,41.393,41.393,0,0,0-12.25,6.7A23,23,0,0,1,33.37,243.29Z" fill="#263238"/>
        </g>
      </g>
    </g>
    <g id="Speech_Bubble">
      <g id="Group_604" data-name="Group 604">
        <g id="Group_601" data-name="Group 601">
          <g id="Group_600" data-name="Group 600">
            <g id="Group_599" data-name="Group 599">
              <path id="Path_12843" data-name="Path 12843" d="M494.37,109.6l8.04-14.49a38.606,38.606,0,1,1,9.35,10.2l.01.02Z" fill="#fff"/>
              <g id="Group_598" data-name="Group 598">
                <path id="Path_12844" data-name="Path 12844" d="M494.37,109.6c.9-.23,6.34-1.61,17.36-4.4l-.07.21-.01-.02-.61-.78.79.59a39.156,39.156,0,0,0,7.94,4.62,38.7,38.7,0,0,0,10.52,2.85,35.464,35.464,0,0,0,6.05.23c1.04-.07,2.1-.11,3.16-.21,1.06-.17,2.13-.35,3.22-.53a38.539,38.539,0,0,0,23.65-15.57,38.147,38.147,0,0,0,6.28-14.78,38.855,38.855,0,0,0-.63-16.93,37.612,37.612,0,0,0-8.31-15.57l-1.57-1.7c-.52-.57-1.13-1.04-1.69-1.56-.58-.49-1.11-1.05-1.74-1.49l-1.84-1.35a16.639,16.639,0,0,0-1.9-1.23l-1.94-1.15c-.68-.32-1.36-.64-2.03-.96a17.637,17.637,0,0,0-2.05-.89,38.911,38.911,0,0,0-17.09-2.47,37.593,37.593,0,0,0-15.63,4.76,38.762,38.762,0,0,0-17.94,22.41,41.238,41.238,0,0,0-1.58,12.43,38.271,38.271,0,0,0,5.8,18.95l.04.06-.04.06c-5.18,9.18-7.7,13.65-8.14,14.42.42-.78,2.88-5.28,7.93-14.55v.13a38.337,38.337,0,0,1-5.94-19.07,41.722,41.722,0,0,1,1.55-12.56A39.073,39.073,0,0,1,516,40.85a37.889,37.889,0,0,1,15.82-4.84,39.373,39.373,0,0,1,17.32,2.49,18.136,18.136,0,0,1,2.08.9c.68.32,1.37.65,2.06.98l1.97,1.17a16.316,16.316,0,0,1,1.93,1.25l1.86,1.37a22.971,22.971,0,0,1,1.76,1.51c.57.53,1.19,1,1.71,1.58l1.59,1.72a37.946,37.946,0,0,1,8.42,15.79,39.44,39.44,0,0,1,.62,17.16,38.246,38.246,0,0,1-6.38,14.96,38.881,38.881,0,0,1-11.01,10.47,39.273,39.273,0,0,1-12.95,5.23c-1.1.18-2.18.35-3.25.52-1.08.1-2.15.14-3.2.21a35.127,35.127,0,0,1-6.11-.25,38.282,38.282,0,0,1-10.6-2.92,39,39,0,0,1-7.97-4.71l.18-.18.01.02.12.16-.2.05C500.74,108.09,495.27,109.39,494.37,109.6Z" fill="#263238"/>
              </g>
            </g>
          </g>
        </g>
        <g id="Group_603" data-name="Group 603">
          <g id="Group_602" data-name="Group 602">
            <path id="Path_12845" data-name="Path 12845" d="M524.36,68.01l5.01-.05a4.263,4.263,0,0,1,4.33-4.33,4.061,4.061,0,0,1,3.95,2.55,4.487,4.487,0,0,1-.32,4.06c-.84,1.41-2.69,2.7-6.07,2.14l.11,11.31,4.96-.05-.06-6.62a9.67,9.67,0,0,0,6.86-9.53c-.07-7.33-6.66-8.97-9.48-8.94C531.51,58.58,524.18,59.17,524.36,68.01Z" fill="#00bfa6"/>
            <rect id="Rectangle_625" data-name="Rectangle 625" width="5.03" height="4.7" transform="translate(531.412 86.028) rotate(-0.55)" fill="#00bfa6"/>
          </g>
        </g>
      </g>
    </g>
  </g>
</svg>
