<?xml version="1.0" encoding="utf-8"?>
<!-- Generator: Adobe Illustrator 24.2.3, SVG Export Plug-In . SVG Version: 6.00 Build 0)  -->
<svg version="1.1" id="Layer_1" xmlns="http://www.w3.org/2000/svg" xmlns:xlink="http://www.w3.org/1999/xlink" x="0px" y="0px"
	 viewBox="0 0 1200 700" style="enable-background:new 0 0 1200 700;" xml:space="preserve">
<style type="text/css">
	.st0{fill:#A3C53A;}
</style>
<path class="st0" d="M392.1,283.5c-0.3-22.9-10.1-43.8-26.1-59.8l20.2-34.9c0.7-1.3,0.3-2.9-1-3.6s-2.9-0.3-3.6,1L362,219.9
	c-16.9-15.2-39.7-25.5-65.2-27.9H273c-25.5,2.5-48.3,12.7-65.2,27.9l-19.5-33.8c-0.7-1.3-2.3-1.7-3.6-1s-1.7,2.3-1,3.6l20.2,34.9
	c-16,16.1-25.8,37-26.1,59.8L392.1,283.5L392.1,283.5z M320.2,241c0-6.6,5.5-12,12.3-12s12.3,5.3,12.3,12v0.1c0,6.6-5.5,12-12.3,12
	C325.7,253,320.2,247.7,320.2,241L320.2,241z M228.4,241c0-6.6,5.5-12,12.3-12s12.3,5.3,12.3,12v0.1c0,6.6-5.5,12-12.3,12
	C233.9,253,228.4,247.7,228.4,241L228.4,241z M138.7,307.4c-13.1,0-23.8,10.6-23.8,23.8v102c0,13.1,10.6,23.8,23.8,23.8
	c13.1,0,23.8-10.6,23.8-23.8v-102C162.5,318,151.8,307.4,138.7,307.4z M177,293.6L177,293.6c-0.1,0.9-0.1,1.8-0.1,2.7v154.5
	c0,16.6,13.2,30,29.5,30h1.2V542c0,13.1,10.6,23.8,23.8,23.8c13.1,0,23.8-10.6,23.8-23.8v-61.1h59.7V542c0,13.1,10.6,23.8,23.8,23.8
	c13.1,0,23.8-10.6,23.8-23.8v-61.1h1.2c16.3,0,29.5-13.4,29.5-30V296.4c0-0.9,0-1.8-0.1-2.7H177V293.6z M431.2,307.4
	c-13.1,0-23.8,10.6-23.8,23.8v102c0,13.1,10.6,23.8,23.8,23.8c13.1,0,23.8-10.6,23.8-23.8v-102C454.9,318,444.3,307.4,431.2,307.4z"
	/>
<path d="M783,320c2.5-0.3,5.7-1.4,7.8,0.5c0.4,2.6,0.2,5.3,0.2,7.9c-0.1,33.5,0.1,67.1-0.1,100.6c-2.6,0.9-5.3,0.9-7.9,0.2
	c0-5.5,0-11.1,0-16.6c-6.3,8.3-15.1,14.8-25.3,17.3c-12.4,3.1-26.3,0.4-36.5-7.5c-6.8-4.8-11.7-11.8-14.8-19.5
	c-4.7-12.5-3.4-27.2,3.9-38.5c6-9.3,15.4-16.5,26.3-19c11.4-2.6,24.1-1.1,34,5.5c4.9,3,8.8,7.2,12.4,11.5
	C783,348.3,783.1,334.2,783,320 M739.2,353.2c-17,3.8-29.6,21.5-27,38.9c1.5,12.1,9.8,22.6,20.6,28c9.1,3.6,19.9,4.3,28.7-0.5
	c14.5-5.8,23.5-22.5,20.6-37.8c-1.7-10.6-8.6-20.3-18.1-25.3C756.5,352.3,747.5,351.5,739.2,353.2L739.2,353.2z M1047,320.5
	c2.1-2.1,5.3-1,7.8-0.4c-0.1,36.4,0,72.7,0,109.1c-2.6,0.8-5.4,0.7-7.9-0.3c-0.1-5.4,0-10.8-0.1-16.2c-7.5,10.2-19.3,17.8-32.2,18.3
	c-8.5,0.5-17.1-1.7-24.6-5.6c-10.8-6-18.9-16.8-21.3-29c-2.2-10.8-0.4-22.5,5.6-31.9c6.2-10.1,16.7-17.5,28.3-19.7
	c11.3-1.9,23.6-0.2,33.1,6.6c4.3,2.8,7.9,6.7,11.2,10.7C1047,348.4,1046.5,334.4,1047,320.5 M1002.9,353.3
	c-9.5,2.4-18,8.8-22.7,17.5c-4.2,7.2-5,15.8-3.6,23.9c2.3,11.7,11.1,21.8,22.2,25.9c7.2,2.5,15.2,3.2,22.6,1
	c7.4-2.8,14.4-7.4,18.8-14.1c5.6-7.9,7.7-18.3,5.4-27.8c-2.3-10.6-10-19.7-19.7-24.3C1018.8,352.1,1010.5,351.6,1002.9,353.3
	L1002.9,353.3z M947.5,320.8c4.3-1.3,8.7,4.2,6,8.1c-1.7,3.2-6.6,3.9-8.9,0.9C941.8,326.9,943.6,321.6,947.5,320.8L947.5,320.8z
	 M549.8,344.8c9.3-1.3,19.2-0.5,27.6,4c6.5,3.1,11.7,8.1,16.2,13.6c0.2-5.7-0.1-11.4,0.2-17c2.4-0.1,4.9-0.1,7.3,0
	c0.4,27.9,0.2,55.9,0.1,83.9c-2.5,0.6-5.1,0.8-7.6,0c0-5.5,0-11-0.1-16.5c-6.9,8.3-16,15.6-26.9,17.6c-9.6,2-19.7,0.4-28.5-3.8
	c-12.6-6.2-21.7-18.7-23.8-32.6c-0.9-8.1-0.2-16.5,3.3-23.9C523.3,357,535.8,347.2,549.8,344.8 M550,353.1
	c-12.5,2.6-23.1,12.5-26.5,24.8c-4.3,14.3,1.8,30.7,14.3,38.9c8.3,5.7,19.3,7.5,29.1,5.1c11.2-3.6,20.9-12.4,24.3-23.8
	c4.9-13.9-0.9-30.3-12.8-38.9C570.4,353.1,559.7,351.1,550,353.1L550,353.1z M631.3,352.9c13.5-11.5,35.3-11.5,48.9,0
	c8.9,7.2,14.4,18.5,14.3,30c-0.1,15.4,0,30.9,0,46.3c-2.6,0.8-5.4,0.8-8,0c-0.1-16.1,0.1-32.3-0.1-48.4
	c-0.8-15.7-15.4-29.1-31.1-28.4c-15.8-0.2-29.7,13.7-30.1,29.4c-0.2,15.8,0,31.6-0.1,47.5c-2.6,0.7-5.4,0.8-8,0
	c0-15.1,0-30.3,0-45.4C616.8,372,622.1,360.3,631.3,352.9L631.3,352.9z M805,380.8c0.2-19.8,18.4-37.7,38.3-36.4
	c0.1,2.4,0.4,4.8-0.1,7.1c-1.9,1.5-4.6,0.9-6.8,1.5c-8.9,1.8-16.7,8.2-20.6,16.4c-3.9,7.5-3,16.3-3.1,24.5
	c-0.1,11.6,0.3,23.3-0.2,34.9c-2.2,1.8-5.1,1-7.6,0.5C805,413.1,805,397,805,380.8L805,380.8z M877,345c10.3-1.8,21.4-0.6,30.5,4.7
	c11,6.2,19.1,17.5,21.3,30c1.1,8.2,0.7,16.8-2.6,24.5c-5.9,14.3-19.9,25.1-35.4,26.7c-10.3,1.1-21.1-1.5-29.6-7.6
	c-9.4-6.3-15.8-16.5-18-27.5c-2.3-10.5,0.1-21.7,5.5-30.9C854.9,354.9,865.3,347.3,877,345 M878.1,353.2
	c-17.3,3.7-30,21.7-27.1,39.2c1.3,9,6.1,17.4,13.3,22.9c8.2,7.2,20.2,9.1,30.6,6.5c6.4-2.2,12.7-5.4,17.3-10.6
	c6.2-6.8,9.6-16.1,9.2-25.3c-0.6-12.1-7.8-23.6-18.5-29.3C895.4,352.3,886.4,351.5,878.1,353.2L878.1,353.2z M944.4,347.7
	c2.3-2.4,6-1.2,8.8-0.5c-0.1,26.3,0.1,52.6-0.1,78.9c-0.3,3.5-4.9,1.7-7.2,2.2c-0.4-0.3-1.2-1-1.7-1.3
	C944.3,400.6,944,374.2,944.4,347.7z"/>
</svg>
