<?xml version="1.0" encoding="utf-8"?>
<!-- Generator: Adobe Illustrator 24.2.3, SVG Export Plug-In . SVG Version: 6.00 Build 0)  -->
<svg version="1.1" id="Layer_1" xmlns="http://www.w3.org/2000/svg" xmlns:xlink="http://www.w3.org/1999/xlink" x="0px" y="0px"
	 viewBox="0 0 400 400" style="enable-background:new 0 0 400 400;" xml:space="preserve">
<style type="text/css">
	.st0{fill:#75D8CC;}
	.st1{fill:url(#SVGID_1_);}
	.st2{fill:url(#SVGID_2_);}
	.st3{fill:url(#SVGID_3_);}
	.st4{fill:#DADFE5;}
	.st5{fill:url(#SVGID_4_);}
	.st6{fill:url(#SVGID_5_);}
	.st7{fill:url(#SVGID_6_);}
	.st8{fill:#3A454F;}
	.st9{fill:url(#SVGID_7_);}
	.st10{fill:url(#SVGID_8_);}
	.st11{fill:url(#SVGID_9_);}
	.st12{fill:url(#SVGID_10_);}
	.st13{fill:#C1CAD4;}
	.st14{fill:url(#SVGID_11_);}
	.st15{fill:url(#SVGID_12_);}
	.st16{fill:url(#SVGID_13_);}
	.st17{fill:#394B5B;}
	.st18{fill:url(#SVGID_14_);}
	.st19{fill:url(#SVGID_15_);}
	.st20{fill:url(#SVGID_16_);}
	.st21{fill:#FCB048;}
	.st22{fill:url(#SVGID_17_);}
	.st23{fill:url(#SVGID_18_);}
	.st24{fill:url(#SVGID_19_);}
	.st25{fill:url(#SVGID_20_);}
	.st26{fill:url(#SVGID_21_);}
	.st27{fill:url(#SVGID_22_);}
	.st28{fill:url(#SVGID_23_);}
	.st29{fill:url(#SVGID_24_);}
	.st30{fill:url(#SVGID_25_);}
	.st31{fill:url(#SVGID_26_);}
	.st32{fill:url(#SVGID_27_);}
	.st33{fill:url(#SVGID_28_);}
	.st34{fill:url(#SVGID_29_);}
	.st35{fill:url(#SVGID_30_);}
	.st36{fill:url(#SVGID_31_);}
	.st37{fill:#FFFFFF;}
	.st38{fill:url(#SVGID_32_);}
	.st39{fill:url(#SVGID_33_);}
	.st40{opacity:0.3;fill:url(#SVGID_34_);enable-background:new    ;}
	.st41{fill:#9FA8AD;}
	.st42{fill:url(#SVGID_35_);}
	.st43{opacity:0.3;fill:url(#SVGID_36_);enable-background:new    ;}
	.st44{fill:#26264F;}
	.st45{fill:url(#SVGID_37_);}
	.st46{opacity:0.75;fill:#F4F7FA;enable-background:new    ;}
	.st47{fill:url(#SVGID_38_);}
	.st48{fill:url(#SVGID_39_);}
	.st49{fill:url(#SVGID_40_);}
	.st50{fill:url(#SVGID_41_);}
	.st51{fill:url(#SVGID_42_);}
	.st52{fill:url(#SVGID_43_);}
	.st53{fill:url(#SVGID_44_);}
	.st54{fill:url(#SVGID_45_);}
	.st55{fill:url(#SVGID_46_);}
	.st56{fill:url(#SVGID_47_);}
	.st57{fill:url(#SVGID_48_);}
	.st58{fill:url(#SVGID_49_);}
	.st59{fill:url(#SVGID_50_);}
</style>
<g>
	<g id="Layer_1_1_">
		<path class="st0" d="M334.3,97.4c-5-6.9-48-63.9-117.7-61.1c-3.5,0.1-71.4,3.7-96.5,48.4c-18.5,33,1.1,62.3-21.5,84.8
			c-19.7,19.6-43.9,6.6-56,22.5c-18.5,24.2,10.9,89.4,56.1,125.8c46.6,37.6,135.8,65.1,205.1,15C381.5,276.6,380.7,161.1,334.3,97.4
			z"/>
		
			<linearGradient id="SVGID_1_" gradientUnits="userSpaceOnUse" x1="140.3557" y1="25.7195" x2="144.2206" y2="22.4721" gradientTransform="matrix(1 0 0 -1 -48.68 349.57)">
			<stop  offset="0" style="stop-color:#AA80F9"/>
			<stop  offset="1" style="stop-color:#6165D7"/>
		</linearGradient>
		<path class="st1" d="M106.2,330.2c0,5.1-3.1,9.2-7,9.2s-7-4.1-7-9.2c0-5.1,3.1-9.2,7-9.2C103.1,321,106.2,325.1,106.2,330.2z"/>
		
			<linearGradient id="SVGID_2_" gradientUnits="userSpaceOnUse" x1="142.8663" y1="18.3436" x2="156.8263" y2="18.3436" gradientTransform="matrix(1 0 0 -1 -48.68 349.57)">
			<stop  offset="0" style="stop-color:#AA80F9"/>
			<stop  offset="1" style="stop-color:#6165D7"/>
		</linearGradient>
		<path class="st2" d="M108.1,331.2c0,5.1-3.1,9.2-7,9.2s-7-4.1-7-9.2c0-5.1,3.1-9.2,7-9.2S108.1,326.2,108.1,331.2z"/>
		
			<linearGradient id="SVGID_3_" gradientUnits="userSpaceOnUse" x1="146.9156" y1="18.1592" x2="152.769" y2="18.1592" gradientTransform="matrix(1 0 0 -1 -48.68 349.57)">
			<stop  offset="0" style="stop-color:#40447E"/>
			<stop  offset="1" style="stop-color:#3C3B6B"/>
		</linearGradient>
		<path class="st3" d="M104.1,331.4c0,2.1-1.3,3.8-2.9,3.8c-1.6,0-2.9-1.7-2.9-3.8s1.3-3.8,2.9-3.8
			C102.8,327.6,104.1,329.3,104.1,331.4z"/>
		<path class="st4" d="M99.2,320v10.1c0,1.5,1.2,2.7,2.7,2.7c0,0,0,0,0,0l0,0c0.9,0,1.7-0.4,2.2-1.1l9.1-12.4L99.2,320z"/>
		
			<linearGradient id="SVGID_4_" gradientUnits="userSpaceOnUse" x1="215.0923" y1="33.7762" x2="218.9492" y2="30.5287" gradientTransform="matrix(1 0 0 -1 -48.68 349.57)">
			<stop  offset="0" style="stop-color:#AA80F9"/>
			<stop  offset="1" style="stop-color:#6165D7"/>
		</linearGradient>
		<path class="st5" d="M180.9,322.1c0,5.1-3.1,9.2-7,9.2s-7-4.1-7-9.2s3.1-9.2,7-9.2S180.9,317.1,180.9,322.1z"/>
		
			<linearGradient id="SVGID_5_" gradientUnits="userSpaceOnUse" x1="217.5897" y1="26.3941" x2="231.5497" y2="26.3941" gradientTransform="matrix(1 0 0 -1 -48.68 349.57)">
			<stop  offset="0" style="stop-color:#AA80F9"/>
			<stop  offset="1" style="stop-color:#6165D7"/>
		</linearGradient>
		<path class="st6" d="M182.9,323.2c0,5.1-3.1,9.2-7,9.2s-7-4.1-7-9.2c0-5.1,3.1-9.2,7-9.2S182.9,318.1,182.9,323.2z"/>
		
			<linearGradient id="SVGID_6_" gradientUnits="userSpaceOnUse" x1="221.639" y1="26.2096" x2="227.4924" y2="26.2096" gradientTransform="matrix(1 0 0 -1 -48.68 349.57)">
			<stop  offset="0" style="stop-color:#40447E"/>
			<stop  offset="1" style="stop-color:#3C3B6B"/>
		</linearGradient>
		<path class="st7" d="M178.8,323.4c0,2.1-1.3,3.8-2.9,3.8s-2.9-1.7-2.9-3.8s1.3-3.8,2.9-3.8S178.8,321.2,178.8,323.4z"/>
		<path class="st4" d="M173.9,312V322c0,1.5,1.2,2.7,2.7,2.7c0,0,0,0,0,0l0,0c0.9,0,1.7-0.4,2.2-1.1l9.1-12.4L173.9,312z"/>
		<path class="st8" d="M98.2,321.6c-1,0-1.8-0.9-1.8-1.9c0-0.9,0.7-1.7,1.6-1.8l88.5-10c4.9-0.9,8.8-4.5,10.1-9.3l37.1-138
			c2-7.4,8.4-12.6,16-13.2l26.9-1.6c1-0.1,1.9,0.7,2,1.7c0.1,1-0.7,1.9-1.7,2c0,0-0.1,0-0.1,0l-26.9,1.6c-6,0.4-11.1,4.6-12.7,10.4
			l-37.1,138c-1.7,6.2-6.8,10.9-13.2,12l-88.6,9.9L98.2,321.6z"/>
		<path class="st4" d="M159.7,267.3c-0.8,0-1.5-0.5-1.8-1.3L137.1,193c-0.3-1,0.3-2,1.3-2.3s2,0.3,2.3,1.3l20.8,73
			c0.3,1-0.3,2-1.2,2.3c0,0,0,0,0,0C160.1,267.3,159.9,267.3,159.7,267.3z"/>
		<path class="st4" d="M181.1,264.2c-0.9,0-1.6-0.6-1.8-1.5l-12.8-72.2c-0.2-1,0.5-1.9,1.5-2.1c0,0,0,0,0,0c1-0.2,1.9,0.5,2.1,1.5
			c0,0,0,0,0,0l12.8,72.2c0.2,1-0.5,1.9-1.5,2.1c0,0,0,0,0,0C181.3,264.2,181.2,264.2,181.1,264.2z"/>
		<path class="st4" d="M194.3,261.8L194.3,261.8c-1.1,0-1.9-0.9-1.8-1.9c0,0,0,0,0,0l3-71.5c0-1,0.8-1.8,1.8-1.8c0,0,0.1,0,0.1,0
			c1,0,1.8,0.9,1.7,1.9c0,0,0,0,0,0l-3,71.5C196.1,261.1,195.3,261.8,194.3,261.8z"/>
		<path class="st4" d="M130.7,269.9c-0.8,0-1.5-0.5-1.7-1.3l-24.5-73c-0.3-1,0.2-2,1.2-2.3s2,0.2,2.3,1.2l24.5,73
			c0.3,1-0.2,2-1.1,2.3c0,0,0,0,0,0C131.1,269.9,130.9,269.9,130.7,269.9z"/>
		
			<linearGradient id="SVGID_7_" gradientUnits="userSpaceOnUse" x1="324.3306" y1="199.7891" x2="391.8775" y2="199.7891" gradientTransform="matrix(1 0 0 -1 -48.68 349.57)">
			<stop  offset="0" style="stop-color:#40447E"/>
			<stop  offset="1" style="stop-color:#3C3B6B"/>
		</linearGradient>
		<path class="st9" d="M339.5,155.9h-0.3L279,151c-2-0.3-3.4-2.1-3.2-4.1c0.2-1.9,1.9-3.3,3.8-3.2l60.2,4.9c2,0.3,3.4,2.1,3.2,4.1
			C342.8,154.5,341.3,155.8,339.5,155.9z"/>
		
			<linearGradient id="SVGID_8_" gradientUnits="userSpaceOnUse" x1="205.9278" y1="0.6849" x2="209.7847" y2="-2.5626" gradientTransform="matrix(1 0 0 -1 -48.68 349.57)">
			<stop  offset="0" style="stop-color:#AA80F9"/>
			<stop  offset="1" style="stop-color:#6165D7"/>
		</linearGradient>
		<path class="st10" d="M171.8,355.2c0,5.1-3.1,9.2-7,9.2s-7-4.1-7-9.2s3.1-9.2,7-9.2S171.8,350.2,171.8,355.2z"/>
		
			<linearGradient id="SVGID_9_" gradientUnits="userSpaceOnUse" x1="208.4247" y1="-6.6979" x2="222.3847" y2="-6.6979" gradientTransform="matrix(1 0 0 -1 -48.68 349.57)">
			<stop  offset="0" style="stop-color:#AA80F9"/>
			<stop  offset="1" style="stop-color:#6165D7"/>
		</linearGradient>
		<path class="st11" d="M173.7,356.3c0,5.1-3.1,9.2-7,9.2s-7-4.1-7-9.2s3.1-9.2,7-9.2S173.7,351.2,173.7,356.3z"/>
		
			<linearGradient id="SVGID_10_" gradientUnits="userSpaceOnUse" x1="212.474" y1="-6.8783" x2="218.3274" y2="-6.8783" gradientTransform="matrix(1 0 0 -1 -48.68 349.57)">
			<stop  offset="0" style="stop-color:#40447E"/>
			<stop  offset="1" style="stop-color:#3C3B6B"/>
		</linearGradient>
		<path class="st12" d="M169.6,356.5c0,2.1-1.3,3.8-2.9,3.8c-1.6,0-2.9-1.7-2.9-3.8c0-2.1,1.3-3.8,2.9-3.8
			C168.3,352.6,169.6,354.3,169.6,356.5z"/>
		<path class="st13" d="M164.8,345.1v10.1c0,1.5,1.2,2.7,2.7,2.7c0,0,0,0,0,0l0,0c0.9,0,1.7-0.4,2.2-1.1l9.1-12.4L164.8,345.1z"/>
		
			<linearGradient id="SVGID_11_" gradientUnits="userSpaceOnUse" x1="270.611" y1="7.1527" x2="274.4759" y2="3.9053" gradientTransform="matrix(1 0 0 -1 -48.68 349.57)">
			<stop  offset="0" style="stop-color:#AA80F9"/>
			<stop  offset="1" style="stop-color:#6165D7"/>
		</linearGradient>
		<path class="st14" d="M236.5,348.8c0,5.1-3.1,9.2-7,9.2s-7-4.1-7-9.2s3.1-9.2,7-9.2S236.5,343.7,236.5,348.8z"/>
		
			<linearGradient id="SVGID_12_" gradientUnits="userSpaceOnUse" x1="273.1171" y1="-0.219" x2="287.0771" y2="-0.219" gradientTransform="matrix(1 0 0 -1 -48.68 349.57)">
			<stop  offset="0" style="stop-color:#AA80F9"/>
			<stop  offset="1" style="stop-color:#6165D7"/>
		</linearGradient>
		<path class="st15" d="M238.4,349.8c0,5.1-3.1,9.2-7,9.2c-3.8,0-7-4.1-7-9.2s3.1-9.2,7-9.2C235.3,340.6,238.4,344.7,238.4,349.8z"
			/>
		
			<linearGradient id="SVGID_13_" gradientUnits="userSpaceOnUse" x1="277.1744" y1="-0.3794" x2="283.0198" y2="-0.3794" gradientTransform="matrix(1 0 0 -1 -48.68 349.57)">
			<stop  offset="0" style="stop-color:#40447E"/>
			<stop  offset="1" style="stop-color:#3C3B6B"/>
		</linearGradient>
		<path class="st16" d="M234.3,349.9c0,2.1-1.3,3.8-2.9,3.8c-1.6,0-2.9-1.7-2.9-3.8s1.3-3.8,2.9-3.8S234.3,347.8,234.3,349.9z"/>
		<path class="st13" d="M229.5,338.6v10.1c0,1.5,1.2,2.7,2.7,2.7l0,0c0.9,0,1.7-0.4,2.2-1.1l9.1-12.4L229.5,338.6z"/>
		<path class="st17" d="M70.6,198.6c-1,0-1.8-0.9-1.8-1.9c0-0.9,0.7-1.7,1.7-1.8l157.6-11.3c0.1,0,0.3,0,0.4,0l65.3,11.1
			c1,0.2,1.7,1.1,1.5,2.1c-0.2,1-1.1,1.7-2.1,1.5c0,0,0,0,0,0l-65-11.1L70.8,198.6H70.6z"/>
		<path class="st17" d="M124.2,214.9c-0.2,0-0.4,0-0.5-0.1l-53.6-16.3c-1-0.3-1.5-1.3-1.2-2.3c0.3-1,1.3-1.5,2.3-1.2l0,0l53.2,16.2
			l168.9-16.5c1-0.1,1.9,0.6,2,1.6c0.1,1-0.6,1.9-1.6,2l-169.3,16.5L124.2,214.9z"/>
		<path class="st17" d="M273.1,272.4c-0.1,0-0.2,0-0.3,0l-64.2-9.9L111,272c-1,0-1.9-0.8-1.9-1.8c0-0.9,0.6-1.7,1.5-1.9l97.9-9.4
			c0.2,0,0.3,0,0.5,0l64.4,9.9c1,0.2,1.7,1.1,1.5,2.1C274.8,271.8,274,272.4,273.1,272.4L273.1,272.4z"/>
		
			<linearGradient id="SVGID_14_" gradientUnits="userSpaceOnUse" x1="180.1358" y1="86.0509" x2="301.3338" y2="86.0509" gradientTransform="matrix(1 0 0 -1 -48.68 349.57)">
			<stop  offset="0" style="stop-color:#FCB148"/>
			<stop  offset="5.000000e-02" style="stop-color:#FDBA46"/>
			<stop  offset="0.14" style="stop-color:#FFC244"/>
			<stop  offset="0.32" style="stop-color:#FFC444"/>
			<stop  offset="0.48" style="stop-color:#FDB946"/>
			<stop  offset="0.78" style="stop-color:#F99C4D"/>
			<stop  offset="0.87" style="stop-color:#F8924F"/>
			<stop  offset="1" style="stop-color:#F8924F"/>
		</linearGradient>
		<path class="st18" d="M140.5,254.3v11.7c0,3.8,23.6,6.8,52.7,6.8s52.7-3.1,52.7-6.8v-11.7H140.5z"/>
		
			<linearGradient id="SVGID_15_" gradientUnits="userSpaceOnUse" x1="241.2884" y1="99.6817" x2="247.671" y2="46.2552" gradientTransform="matrix(1 0 0 -1 -48.68 349.57)">
			<stop  offset="0" style="stop-color:#FFDB44"/>
			<stop  offset="1" style="stop-color:#FEEF06"/>
		</linearGradient>
		<path class="st19" d="M245.8,254.3c0,3.8-23.6,6.8-52.7,6.8s-52.7-3.1-52.7-6.8c0-3.8,23.6-6.8,52.7-6.8S245.8,250.5,245.8,254.3z
			"/>
		
			<linearGradient id="SVGID_16_" gradientUnits="userSpaceOnUse" x1="241.0101" y1="102.0715" x2="242.9747" y2="85.6579" gradientTransform="matrix(1 0 0 -1 -48.68 349.57)">
			<stop  offset="0" style="stop-color:#FFDB44"/>
			<stop  offset="1" style="stop-color:#FEEF06"/>
		</linearGradient>
		<path class="st20" d="M193.1,261.6c-25.8,0-52.7-2.5-52.7-7.2c0-0.3,0.1-0.7,0.4-0.7c0.3,0,0.1,0.4,0.1,0.6c0,3,21.4,6.3,52.2,6.3
			s52.2-3.3,52.2-6.3c0-0.3,0-0.5,0.3-0.5c0.3,0,0.2,0.3,0.2,0.6C245.8,259.1,218.9,261.6,193.1,261.6z"/>
		<path class="st21" d="M188.2,254.7c0.5-0.4,1.1-0.7,1.7-1.1c0.7-0.4,1.5-0.7,2.3-0.9c1.1-0.3,2.3-0.6,3.5-0.7
			c1.7-0.2,3.5-0.3,5.2-0.3c2,0,3.9,0.1,5.7,0.2c1.6,0.1,3.2,0.3,4.7,0.6c1.1,0.2,2.2,0.6,3.3,1c0.7,0.2,1.2,0.7,1.5,1.4l5.9,0.1
			c0.4,0,0.8,0,1.1,0.1c0.3,0.1,0.5,0.2,0.5,0.3v0.5l-7.6-0.1c-0.5,0.8-1.2,1.3-2,1.6c-1.3,0.6-2.7,1-4.2,1.3l-2.8-0.4
			c-0.2,0-0.4-0.1-0.6-0.1c-0.2-0.1-0.2-0.1-0.2-0.2c0-0.1,0.2-0.2,0.6-0.3c0.4-0.1,0.9-0.3,1.5-0.4c0.5-0.2,1.1-0.4,1.6-0.6
			c0.4-0.2,0.8-0.5,1-0.9l-18-0.2c-0.5,0.4-1,0.7-1.6,1c-0.7,0.4-1.5,0.7-2.3,0.9c-1.2,0.3-2.4,0.5-3.6,0.6
			c-1.8,0.2-3.6,0.3-5.5,0.3c-1.7,0-3.3-0.1-4.8-0.2c-1.4-0.1-2.8-0.3-4.2-0.6c-1-0.2-2-0.5-3-1c-0.8-0.4-1.2-0.8-1.3-1.3l-4.9,0
			c-0.4,0-0.8,0-1.2-0.1c-0.3-0.1-0.5-0.2-0.5-0.3v-0.5l6.7,0.1c0.4-0.6,1.1-1.1,1.8-1.3c1.1-0.4,2.2-0.8,3.4-1l2.2,0.3
			c0.7,0.1,1,0.2,1,0.3s-0.1,0.2-0.4,0.3l-1,0.4c-0.4,0.1-0.7,0.3-1.1,0.5c-0.3,0.2-0.6,0.4-0.8,0.6L188.2,254.7z M171.7,255.3
			c0.2,0.4,0.5,0.6,0.9,0.8c0.5,0.3,1.1,0.5,1.7,0.6c0.8,0.2,1.5,0.3,2.3,0.3c0.8,0.1,1.7,0.1,2.7,0.1c0.9,0,1.9,0,2.8-0.1
			c0.7-0.1,1.4-0.2,2.1-0.4c0.5-0.1,1.1-0.3,1.6-0.5c0.4-0.2,0.8-0.4,1.2-0.6L171.7,255.3z M210.9,254.9c-0.2-0.4-0.6-0.7-1-0.8
			c-0.6-0.3-1.3-0.5-2-0.6c-0.9-0.2-1.8-0.3-2.8-0.4c-1-0.1-2.2-0.1-3.5-0.1c-1,0-1.9,0-2.9,0.1c-0.7,0.1-1.4,0.2-2.1,0.4
			c-0.5,0.1-1,0.3-1.5,0.6c-0.4,0.2-0.8,0.4-1.2,0.7L210.9,254.9z"/>
		
			<linearGradient id="SVGID_17_" gradientUnits="userSpaceOnUse" x1="-1966.2361" y1="223.924" x2="-1964.2877" y2="207.5665" gradientTransform="matrix(-1 0 0 1 -1772.0601 38.28)">
			<stop  offset="0" style="stop-color:#F36F56"/>
			<stop  offset="0.31" style="stop-color:#F99C4C"/>
			<stop  offset="0.55" style="stop-color:#FDB946"/>
			<stop  offset="0.68" style="stop-color:#FFC444"/>
			<stop  offset="0.8" style="stop-color:#FFC244"/>
			<stop  offset="0.87" style="stop-color:#FEBA46"/>
			<stop  offset="0.92" style="stop-color:#FCAD49"/>
			<stop  offset="0.96" style="stop-color:#F99A4D"/>
			<stop  offset="1" style="stop-color:#F68252"/>
			<stop  offset="1" style="stop-color:#F57E53"/>
		</linearGradient>
		<path class="st22" d="M193.1,248.2c-23.5,0-47.9,2.1-51.8,6.1c0.1,0.1,0.3,0.3,0.4,0.4c3.3-2.8,23.5-5.6,51.4-5.6
			c28.6,0,49.2,2.9,51.7,5.8c0.1-0.2,0.3-0.3,0.4-0.4C242,250.3,217,248.2,193.1,248.2z"/>
		
			<linearGradient id="SVGID_18_" gradientUnits="userSpaceOnUse" x1="165.4942" y1="98.2749" x2="286.6842" y2="98.2749" gradientTransform="matrix(1 0 0 -1 -48.68 349.57)">
			<stop  offset="0" style="stop-color:#FCB148"/>
			<stop  offset="5.000000e-02" style="stop-color:#FDBA46"/>
			<stop  offset="0.14" style="stop-color:#FFC244"/>
			<stop  offset="0.32" style="stop-color:#FFC444"/>
			<stop  offset="0.48" style="stop-color:#FDB946"/>
			<stop  offset="0.78" style="stop-color:#F99C4D"/>
			<stop  offset="0.87" style="stop-color:#F8924F"/>
			<stop  offset="1" style="stop-color:#F8924F"/>
		</linearGradient>
		<path class="st23" d="M125.8,242v11.7c0,3.8,23.6,6.8,52.7,6.8s52.7-3.1,52.7-6.8V242H125.8z"/>
		
			<linearGradient id="SVGID_19_" gradientUnits="userSpaceOnUse" x1="177.9676" y1="161.5969" x2="184.3503" y2="108.1703" gradientTransform="matrix(1 0 0 -1 0 399.24)">
			<stop  offset="0" style="stop-color:#FFDB44"/>
			<stop  offset="1" style="stop-color:#FEEF06"/>
		</linearGradient>
		<ellipse class="st24" cx="178.5" cy="242" rx="52.7" ry="6.8"/>
		
			<linearGradient id="SVGID_20_" gradientUnits="userSpaceOnUse" x1="226.3686" y1="114.3156" x2="228.3331" y2="97.902" gradientTransform="matrix(1 0 0 -1 -48.68 349.57)">
			<stop  offset="0" style="stop-color:#FFDB44"/>
			<stop  offset="1" style="stop-color:#FEEF06"/>
		</linearGradient>
		<path class="st25" d="M178.5,249.3c-25.8,0-52.7-2.5-52.7-7.2c0-0.3,0.1-0.7,0.4-0.7s0.2,0.4,0.2,0.6c0,3,21.4,6.3,52.2,6.3
			s52.2-3.3,52.2-6.3c0-0.3,0-0.5,0.3-0.5s0.2,0.3,0.2,0.6C231.2,246.9,204.3,249.3,178.5,249.3z"/>
		<path class="st21" d="M173.5,242.4c0.5-0.4,1.1-0.7,1.7-1.1c0.7-0.4,1.5-0.7,2.3-0.9c1.1-0.3,2.3-0.6,3.5-0.7
			c1.7-0.2,3.5-0.3,5.2-0.3c2,0,3.9,0.1,5.7,0.2c1.6,0.1,3.2,0.3,4.7,0.6c1.1,0.2,2.2,0.6,3.3,1c0.7,0.2,1.2,0.7,1.5,1.4l5.9,0.1
			c0.4,0,0.8,0,1.1,0.1c0.3,0.1,0.5,0.2,0.5,0.3v0.5l-7.6-0.1c-0.5,0.8-1.2,1.3-2,1.6c-1.3,0.6-2.7,1-4.2,1.3l-2.8-0.4
			c-0.2,0-0.4-0.1-0.6-0.1c-0.2-0.1-0.2-0.1-0.2-0.2c0-0.1,0.2-0.2,0.6-0.3c0.4-0.1,0.9-0.3,1.5-0.4c0.5-0.2,1.1-0.4,1.6-0.6
			c0.4-0.2,0.8-0.5,1-0.9l-18-0.1c-0.5,0.4-1,0.7-1.6,1c-0.7,0.4-1.5,0.7-2.3,0.9c-1.2,0.3-2.4,0.5-3.6,0.6
			c-1.8,0.2-3.6,0.3-5.5,0.3c-1.6,0-3.3-0.1-4.8-0.2c-1.4-0.1-2.8-0.3-4.2-0.6c-1-0.2-2-0.5-3-1c-0.8-0.4-1.2-0.8-1.3-1.3L147,243
			c-0.4,0-0.8,0-1.2-0.1c-0.3-0.1-0.5-0.2-0.5-0.3v-0.5l6.7,0.1c0.4-0.6,1.1-1.1,1.8-1.3c1.1-0.4,2.2-0.8,3.4-1l2.2,0.3
			c0.7,0.1,1,0.2,1,0.3s-0.1,0.2-0.4,0.3l-1,0.4c-0.4,0.1-0.7,0.3-1.1,0.5c-0.3,0.2-0.6,0.4-0.8,0.6L173.5,242.4z M157.1,243.1
			c0.2,0.4,0.5,0.6,0.9,0.8c0.5,0.3,1.1,0.5,1.7,0.6c0.8,0.2,1.5,0.3,2.3,0.3c0.8,0.1,1.7,0.1,2.7,0.1c0.9,0,1.9,0,2.8-0.1
			c0.7-0.1,1.4-0.2,2.1-0.4c0.5-0.1,1.1-0.3,1.6-0.5c0.4-0.2,0.8-0.4,1.2-0.6L157.1,243.1z M196.3,242.6c-0.2-0.4-0.6-0.7-1-0.8
			c-0.6-0.3-1.3-0.5-1.9-0.6c-0.9-0.2-1.8-0.3-2.8-0.4c-1-0.1-2.2-0.1-3.5-0.1c-1,0-1.9,0-2.9,0.2c-0.7,0.1-1.4,0.2-2.1,0.4
			c-0.5,0.1-1,0.3-1.5,0.6c-0.4,0.2-0.8,0.4-1.2,0.7L196.3,242.6z"/>
		
			<linearGradient id="SVGID_21_" gradientUnits="userSpaceOnUse" x1="-1951.5944" y1="211.68" x2="-1949.6379" y2="195.3224" gradientTransform="matrix(-1 0 0 1 -1772.0601 38.28)">
			<stop  offset="0" style="stop-color:#F36F56"/>
			<stop  offset="0.31" style="stop-color:#F99C4C"/>
			<stop  offset="0.55" style="stop-color:#FDB946"/>
			<stop  offset="0.68" style="stop-color:#FFC444"/>
			<stop  offset="0.8" style="stop-color:#FFC244"/>
			<stop  offset="0.87" style="stop-color:#FEBA46"/>
			<stop  offset="0.92" style="stop-color:#FCAD49"/>
			<stop  offset="0.96" style="stop-color:#F99A4D"/>
			<stop  offset="1" style="stop-color:#F68252"/>
			<stop  offset="1" style="stop-color:#F57E53"/>
		</linearGradient>
		<path class="st26" d="M178.5,236c-23.5,0-47.9,2.1-51.9,6.1c0.2,0.1,0.3,0.3,0.4,0.4c3.3-2.8,23.5-5.6,51.4-5.6
			c28.6,0,49.2,2.9,51.7,5.8c0.1-0.2,0.3-0.3,0.4-0.4C227.3,238.1,202.4,236,178.5,236z"/>
		
			<linearGradient id="SVGID_22_" gradientUnits="userSpaceOnUse" x1="178.1312" y1="110.507" x2="299.3212" y2="110.507" gradientTransform="matrix(1 0 0 -1 -48.68 349.57)">
			<stop  offset="0" style="stop-color:#FCB148"/>
			<stop  offset="5.000000e-02" style="stop-color:#FDBA46"/>
			<stop  offset="0.14" style="stop-color:#FFC244"/>
			<stop  offset="0.32" style="stop-color:#FFC444"/>
			<stop  offset="0.48" style="stop-color:#FDB946"/>
			<stop  offset="0.78" style="stop-color:#F99C4D"/>
			<stop  offset="0.87" style="stop-color:#F8924F"/>
			<stop  offset="1" style="stop-color:#F8924F"/>
		</linearGradient>
		<path class="st27" d="M138.5,229.8v11.7c0,3.8,23.6,6.8,52.7,6.8s52.7-3,52.7-6.8v-11.7H138.5z"/>
		
			<linearGradient id="SVGID_23_" gradientUnits="userSpaceOnUse" x1="190.5958" y1="173.8078" x2="196.9784" y2="120.3813" gradientTransform="matrix(1 0 0 -1 0 399.24)">
			<stop  offset="0" style="stop-color:#FFDB44"/>
			<stop  offset="1" style="stop-color:#FEEF06"/>
		</linearGradient>
		<ellipse class="st28" cx="191.1" cy="229.8" rx="52.7" ry="6.8"/>
		
			<linearGradient id="SVGID_24_" gradientUnits="userSpaceOnUse" x1="239.0097" y1="126.5323" x2="240.9658" y2="110.1215" gradientTransform="matrix(1 0 0 -1 -48.68 349.57)">
			<stop  offset="0" style="stop-color:#FFDB44"/>
			<stop  offset="1" style="stop-color:#FEEF06"/>
		</linearGradient>
		<path class="st29" d="M191.1,237.1c-25.8,0-52.7-2.5-52.7-7.2c0-0.3,0.1-0.7,0.4-0.7c0.3,0,0.2,0.4,0.2,0.6c0,3,21.4,6.4,52.2,6.4
			s52.2-3.4,52.2-6.4c0-0.3,0-0.5,0.3-0.5s0.2,0.3,0.2,0.6C243.8,234.7,216.9,237.1,191.1,237.1z"/>
		<path class="st21" d="M186.1,230.2c0.5-0.4,1.1-0.7,1.7-1.1c0.7-0.4,1.5-0.7,2.3-0.9c1.1-0.3,2.3-0.6,3.5-0.7
			c1.7-0.2,3.5-0.3,5.2-0.3c2,0,3.9,0.1,5.7,0.2c1.6,0.1,3.2,0.3,4.7,0.6c1.1,0.2,2.3,0.5,3.3,1c0.7,0.2,1.2,0.7,1.5,1.4l5.9,0.1
			c0.4,0,0.8,0,1.1,0.1c0.3,0.1,0.5,0.2,0.5,0.3v0.5l-7.6-0.1c-0.5,0.8-1.2,1.3-2,1.6c-1.3,0.6-2.7,1-4.2,1.3l-2.8-0.4
			c-0.2,0-0.4-0.1-0.6-0.1c-0.2-0.1-0.2-0.1-0.2-0.2c0-0.1,0.2-0.2,0.6-0.3s0.9-0.3,1.5-0.4c0.5-0.2,1.1-0.4,1.6-0.6
			c0.4-0.2,0.8-0.4,1-0.8l-18-0.2c-0.5,0.4-1,0.7-1.6,1c-0.7,0.4-1.5,0.7-2.3,0.9c-1.2,0.3-2.4,0.5-3.6,0.7
			c-1.8,0.2-3.6,0.3-5.5,0.3c-1.7,0-3.3-0.1-4.8-0.2c-1.4-0.1-2.8-0.3-4.2-0.6c-1-0.2-2-0.5-3-1c-0.8-0.4-1.2-0.8-1.3-1.3l-4.9,0
			c-0.4,0-0.8,0-1.1-0.1c-0.3-0.1-0.5-0.2-0.5-0.3v-0.5l6.7,0.1c0.4-0.6,1.1-1.1,1.8-1.3c1.1-0.4,2.2-0.8,3.4-1l2.2,0.3
			c0.7,0.1,1,0.2,1,0.3c0,0.1-0.1,0.2-0.4,0.3l-1,0.4c-0.4,0.1-0.8,0.3-1.1,0.5c-0.3,0.2-0.6,0.4-0.8,0.6L186.1,230.2z M169.7,230.9
			c0.2,0.4,0.5,0.6,0.9,0.8c0.5,0.3,1.1,0.5,1.7,0.6c0.8,0.2,1.5,0.3,2.3,0.3c0.8,0.1,1.7,0.1,2.7,0.1c1.1,0,2-0.1,2.8-0.1
			c0.7-0.1,1.4-0.2,2.1-0.4c0.5-0.1,1.1-0.3,1.6-0.5c0.4-0.2,0.8-0.4,1.2-0.6L169.7,230.9z M208.8,230.5c-0.2-0.4-0.6-0.7-1-0.8
			c-0.6-0.3-1.3-0.5-1.9-0.6c-0.9-0.2-1.8-0.3-2.8-0.4c-1.1-0.1-2.2-0.1-3.5-0.1c-1,0-1.9,0-2.9,0.2c-0.7,0.1-1.4,0.2-2.1,0.4
			c-0.5,0.1-1,0.3-1.5,0.6c-0.4,0.2-0.8,0.4-1.2,0.7L208.8,230.5z"/>
		
			<linearGradient id="SVGID_25_" gradientUnits="userSpaceOnUse" x1="-1964.2308" y1="199.468" x2="-1962.2744" y2="183.1105" gradientTransform="matrix(-1 0 0 1 -1772.0601 38.28)">
			<stop  offset="0" style="stop-color:#F36F56"/>
			<stop  offset="0.31" style="stop-color:#F99C4C"/>
			<stop  offset="0.55" style="stop-color:#FDB946"/>
			<stop  offset="0.68" style="stop-color:#FFC444"/>
			<stop  offset="0.8" style="stop-color:#FFC244"/>
			<stop  offset="0.87" style="stop-color:#FEBA46"/>
			<stop  offset="0.92" style="stop-color:#FCAD49"/>
			<stop  offset="0.96" style="stop-color:#F99A4D"/>
			<stop  offset="1" style="stop-color:#F68252"/>
			<stop  offset="1" style="stop-color:#F57E53"/>
		</linearGradient>
		<path class="st30" d="M191.1,223.7c-23.5,0-47.9,2.1-51.9,6.1c0.2,0.1,0.3,0.3,0.4,0.4c3.3-2.8,23.5-5.6,51.4-5.6
			c28.6,0,49.2,2.9,51.6,5.8c0.1-0.2,0.3-0.3,0.4-0.4C240,225.9,215,223.7,191.1,223.7z"/>
		
			<linearGradient id="SVGID_26_" gradientUnits="userSpaceOnUse" x1="185.7968" y1="122.7511" x2="306.9868" y2="122.7511" gradientTransform="matrix(1 0 0 -1 -48.68 349.57)">
			<stop  offset="0" style="stop-color:#FCB148"/>
			<stop  offset="5.000000e-02" style="stop-color:#FDBA46"/>
			<stop  offset="0.14" style="stop-color:#FFC244"/>
			<stop  offset="0.32" style="stop-color:#FFC444"/>
			<stop  offset="0.48" style="stop-color:#FDB946"/>
			<stop  offset="0.78" style="stop-color:#F99C4D"/>
			<stop  offset="0.87" style="stop-color:#F8924F"/>
			<stop  offset="1" style="stop-color:#F8924F"/>
		</linearGradient>
		<path class="st31" d="M146.1,217.6v11.7c0,3.8,23.6,6.8,52.7,6.8s52.7-3.1,52.7-6.8v-11.7H146.1z"/>
		
			<linearGradient id="SVGID_27_" gradientUnits="userSpaceOnUse" x1="198.2702" y1="186.053" x2="204.6528" y2="132.6264" gradientTransform="matrix(1 0 0 -1 0 399.24)">
			<stop  offset="0" style="stop-color:#FFDB44"/>
			<stop  offset="1" style="stop-color:#FEEF06"/>
		</linearGradient>
		<ellipse class="st32" cx="198.8" cy="217.6" rx="52.7" ry="6.8"/>
		
			<linearGradient id="SVGID_28_" gradientUnits="userSpaceOnUse" x1="246.6762" y1="138.7643" x2="248.6345" y2="122.3359" gradientTransform="matrix(1 0 0 -1 -48.68 349.57)">
			<stop  offset="0" style="stop-color:#FFDB44"/>
			<stop  offset="1" style="stop-color:#FEEF06"/>
		</linearGradient>
		<path class="st33" d="M198.8,224.9c-25.8,0-52.7-2.5-52.7-7.2c0-0.3,0.1-0.7,0.4-0.7s0.2,0.4,0.2,0.6c0,3,21.4,6.4,52.2,6.4
			s52.2-3.4,52.2-6.4c0-0.3,0-0.5,0.3-0.5s0.2,0.3,0.2,0.6C251.5,222.5,224.6,224.9,198.8,224.9z"/>
		<path class="st21" d="M193.8,218c0.5-0.4,1.1-0.7,1.7-1.1c0.7-0.4,1.5-0.7,2.3-0.9c1.1-0.3,2.3-0.5,3.5-0.7
			c1.7-0.2,3.5-0.3,5.2-0.3c2,0,3.9,0.1,5.7,0.2c1.6,0.1,3.2,0.3,4.7,0.6c1.1,0.2,2.3,0.5,3.3,1c0.7,0.2,1.2,0.7,1.5,1.4l5.9,0.1
			c0.4,0,0.8,0,1.1,0.1c0.3,0.1,0.5,0.2,0.5,0.3v0.5l-7.6-0.1c-0.5,0.8-1.2,1.3-2,1.6c-1.3,0.6-2.7,1-4.2,1.3l-2.8-0.4
			c-0.2,0-0.4-0.1-0.6-0.1c-0.2-0.1-0.2-0.1-0.2-0.2c0-0.1,0.2-0.2,0.6-0.3s0.9-0.3,1.5-0.4c0.5-0.2,1.1-0.4,1.6-0.6
			c0.4-0.2,0.8-0.5,1.1-0.9l-18-0.2c-0.5,0.4-1,0.7-1.6,1c-0.7,0.4-1.5,0.7-2.3,0.9c-1.2,0.3-2.4,0.5-3.6,0.7
			c-1.5,0.2-3.3,0.2-5.5,0.3c-1.6,0-3.3-0.1-4.8-0.2c-1.4-0.1-2.8-0.3-4.2-0.6c-1-0.2-2-0.5-3-1c-0.8-0.4-1.2-0.8-1.3-1.3l-4.9,0
			c-0.4,0-0.8,0-1.2-0.1c-0.3-0.1-0.5-0.2-0.5-0.3v-0.5l6.7,0.1c0.4-0.6,1.1-1.1,1.8-1.3c1.1-0.4,2.2-0.8,3.4-1l2.2,0.3
			c0.7,0.1,1,0.2,1,0.3s-0.1,0.2-0.4,0.3l-1,0.4c-0.4,0.1-0.8,0.3-1.1,0.5c-0.3,0.2-0.6,0.4-0.8,0.6L193.8,218z M177.3,218.6
			c0.2,0.4,0.5,0.6,0.9,0.8c0.5,0.3,1.1,0.5,1.7,0.6c0.8,0.2,1.5,0.3,2.3,0.3c0.8,0.1,1.7,0.1,2.7,0.1c1.1,0,2-0.1,2.8-0.1
			c0.7-0.1,1.4-0.2,2.1-0.4c0.5-0.1,1.1-0.3,1.6-0.5c0.4-0.2,0.8-0.4,1.2-0.6L177.3,218.6z M216.5,218.2c-0.2-0.4-0.6-0.7-1-0.8
			c-0.6-0.3-1.3-0.5-1.9-0.6c-0.9-0.2-1.8-0.3-2.8-0.4c-1.1-0.1-2.2-0.1-3.5-0.1c-1,0-1.9,0-2.9,0.2c-0.7,0.1-1.4,0.2-2.1,0.4
			c-0.5,0.1-1,0.3-1.5,0.6c-0.4,0.2-0.8,0.4-1.2,0.7L216.5,218.2z"/>
		
			<linearGradient id="SVGID_29_" gradientUnits="userSpaceOnUse" x1="-1971.897" y1="187.2239" x2="-1969.9404" y2="170.8663" gradientTransform="matrix(-1 0 0 1 -1772.0601 38.28)">
			<stop  offset="0" style="stop-color:#F36F56"/>
			<stop  offset="0.31" style="stop-color:#F99C4C"/>
			<stop  offset="0.55" style="stop-color:#FDB946"/>
			<stop  offset="0.68" style="stop-color:#FFC444"/>
			<stop  offset="0.8" style="stop-color:#FFC244"/>
			<stop  offset="0.87" style="stop-color:#FEBA46"/>
			<stop  offset="0.92" style="stop-color:#FCAD49"/>
			<stop  offset="0.96" style="stop-color:#F99A4D"/>
			<stop  offset="1" style="stop-color:#F68252"/>
			<stop  offset="1" style="stop-color:#F57E53"/>
		</linearGradient>
		<path class="st34" d="M198.8,211.5c-23.5,0-47.9,2.1-51.9,6.1c0.2,0.1,0.3,0.3,0.4,0.4c3.3-2.8,23.5-5.6,51.4-5.6
			c28.6,0,49.2,2.9,51.7,5.8c0.1-0.2,0.3-0.3,0.4-0.4C247.6,213.6,222.7,211.5,198.8,211.5z"/>
		<path class="st17" d="M156.7,283.5c-0.7,0-1.4-0.4-1.7-1.1l-32.5-68.6c-0.4-0.9-0.1-2,0.8-2.5c0.9-0.4,2-0.1,2.5,0.8l32,67.4
			L273,268.8c1-0.1,1.9,0.6,2,1.6c0.1,1-0.6,1.9-1.6,2l-116.4,11.1L156.7,283.5z"/>
		<path class="st17" d="M156.7,283.5c-0.1,0-0.3,0-0.4-0.1l-45.9-11.5c-0.5-0.1-0.9-0.5-1.2-0.9l-40.1-73.3c-0.5-0.9-0.2-2,0.7-2.5
			c0.9-0.5,2-0.2,2.5,0.7l0,0l39.7,72.6l45.2,11.3c1,0.3,1.6,1.3,1.3,2.3C158.3,282.9,157.6,283.5,156.7,283.5L156.7,283.5z"/>
		<path class="st17" d="M136,239.9c-0.2,0-0.3,0-0.5-0.1L85.1,225c-1-0.3-1.5-1.3-1.2-2.3c0.3-1,1.3-1.5,2.3-1.2l50.1,14.7l148.9-13
			c1-0.1,1.9,0.6,2,1.6c0.1,1-0.6,1.9-1.6,2c0,0-0.1,0-0.1,0l-149.3,13L136,239.9z"/>
		<path class="st17" d="M148.3,265.9c-0.2,0-0.3,0-0.5-0.1l-48.3-13.5c-1-0.3-1.6-1.3-1.3-2.2c0.3-1,1.3-1.6,2.2-1.3c0,0,0,0,0.1,0
			l48,13.4l129.3-11.3c1-0.1,1.9,0.7,2,1.7c0.1,1-0.7,1.9-1.7,2l0,0l-129.6,11.3L148.3,265.9z"/>
		<path class="st17" d="M180.5,281.2c-0.8,0-1.5-0.5-1.8-1.3L158,210.4c-0.2-1,0.4-2,1.4-2.2c0.9-0.2,1.8,0.3,2.1,1.2l20.7,69.5
			c0.3,1-0.3,2-1.2,2.3c0,0,0,0,0,0C180.8,281.2,180.6,281.3,180.5,281.2z"/>
		<path class="st17" d="M203.4,279.1c-0.9,0-1.6-0.6-1.8-1.5l-12.4-70.5c-0.2-1,0.5-1.9,1.5-2.1c1-0.2,1.9,0.5,2.1,1.5l12.4,70.4
			c0.2,1-0.5,1.9-1.5,2.1L203.4,279.1z"/>
		<path class="st17" d="M229.3,276.1c-1,0-1.8-0.8-1.8-1.7l-3.9-70c-0.1-1,0.7-1.9,1.7-1.9c1-0.1,1.9,0.7,1.9,1.7l3.9,70
			c0.1,1-0.7,1.9-1.7,1.9c0,0,0,0,0,0H229.3z"/>
		<path class="st17" d="M253.7,273.4L253.7,273.4c-1.1-0.1-1.9-0.9-1.8-1.9l3.7-71.1c0.1-1,0.9-1.8,1.9-1.7c1,0.1,1.8,0.9,1.7,1.9
			l0,0l-3.7,71.1C255.5,272.6,254.7,273.4,253.7,273.4z"/>
		<path class="st17" d="M142.8,280c-0.7,0-1.3-0.4-1.7-1l-33.5-69.6c-0.4-0.9-0.1-2,0.8-2.4c0.9-0.4,2-0.1,2.4,0.8l33.5,69.6
			c0.4,0.9,0,2-0.9,2.4C143.4,279.9,143.1,280,142.8,280z"/>
		<path class="st8" d="M124.2,275.4c-0.7,0-1.3-0.4-1.6-1L87,203.1c-0.4-0.9,0.1-2,1-2.4c0.8-0.3,1.8,0,2.2,0.8l35.6,71.2
			c0.5,0.9,0.1,2-0.8,2.5C124.8,275.3,124.5,275.4,124.2,275.4z"/>
		<path class="st17" d="M164.4,347.9c-0.2,0-0.5,0-0.7-0.1l-66.2-26.3c-0.9-0.4-1.4-1.4-1-2.4c0.4-0.9,1.4-1.4,2.4-1l65.8,26.1
			l79.9-9.8c5.7-0.7,10.4-4.7,11.9-10.2l43.8-159c2-7.3,8.4-12.5,15.9-13l23.3-1.7c1-0.1,1.9,0.7,2,1.7c0.1,1-0.7,1.9-1.7,2l0,0
			l-23.3,1.7c-6,0.4-11,4.6-12.6,10.4l-43.8,159c-1.9,6.9-7.8,12.1-15,12.9l-80.4,9.8L164.4,347.9z"/>
		
			<linearGradient id="SVGID_30_" gradientUnits="userSpaceOnUse" x1="183.72" y1="327.8726" x2="269.2201" y2="190.4133" gradientTransform="matrix(1 0 0 -1 -48.68 349.57)">
			<stop  offset="0" style="stop-color:#311944"/>
			<stop  offset="1" style="stop-color:#893976"/>
		</linearGradient>
		<path class="st35" d="M269.5,45.8l-160-8.6c-13.2-0.7-23.9,9-23.9,21.6v87.7c0,12.7,10.7,23.3,23.9,23.6l52.3,1.3l24.4,28.9
			c1.5,1.7,4,2,5.9,0.6l0,0l23.5-28.2l54,1.3c11.8,0.4,21.6-8.8,22-20.6c0-0.3,0-0.5,0-0.8V68.9C291.4,56.6,281.8,46.5,269.5,45.8z"
			/>
		
			<linearGradient id="SVGID_31_" gradientUnits="userSpaceOnUse" x1="186.9039" y1="330.4229" x2="272.404" y2="192.9555" gradientTransform="matrix(1 0 0 -1 -48.68 349.57)">
			<stop  offset="0" style="stop-color:#FF9085"/>
			<stop  offset="1" style="stop-color:#FB6FBB"/>
		</linearGradient>
		<path class="st36" d="M272.7,43.2l-160-8.6c-13.2-0.7-23.9,9-23.9,21.6V144c0,12.7,10.7,23.3,23.9,23.6l52.3,1.3l23.8,28.2
			c1.5,1.8,4.3,2,6.1,0.5c0.2-0.1,0.3-0.3,0.4-0.4l23.4-26.9l54,1.3c11.8,0.4,21.6-8.8,22-20.6c0-0.3,0-0.5,0-0.8V66.3
			C294.6,54.1,284.9,44,272.7,43.2z"/>
		<path class="st37" d="M246.7,95.4c-0.9-16.6-12.2-30.5-26.2-32.3c-11.2-1.4-21.1,4.9-26.4,15.1c-5.3-10.7-15.3-18-26.7-17.7
			C152.9,60.9,141.1,74,140.2,91c-0.6,11.2,3.4,21.4,10.1,28.4l40.9,33.3c1.7,1.4,4.1,1.5,5.8,0.2l40-30.4
			C243.4,116.1,247.3,106.3,246.7,95.4z"/>
		
			<linearGradient id="SVGID_32_" gradientUnits="userSpaceOnUse" x1="82.4497" y1="54.2197" x2="203.0524" y2="54.2197" gradientTransform="matrix(1 0 0 -1 -48.68 349.57)">
			<stop  offset="0" style="stop-color:#E38DDD"/>
			<stop  offset="1" style="stop-color:#9571F6"/>
		</linearGradient>
		<path class="st38" d="M37.9,356.5l-1.8-1.6c-2.8-2.5-3.1-6.9-0.5-9.7c0.1-0.1,0.1-0.1,0.2-0.2l107.1-112.6l11.5,11.1L48,356
			C45.3,358.9,40.8,359.1,37.9,356.5z"/>
		
			<linearGradient id="SVGID_33_" gradientUnits="userSpaceOnUse" x1="159.9277" y1="167.8729" x2="323.9126" y2="167.8729" gradientTransform="matrix(1 0 0 -1 -48.68 349.57)">
			<stop  offset="0" style="stop-color:#E38DDD"/>
			<stop  offset="1" style="stop-color:#9571F6"/>
		</linearGradient>
		<path class="st39" d="M251,123.4c-32-33.5-84.1-35.1-116.2-2.4c-32.7,33.3-31.1,88.3,3.3,121.5c33.6,32.4,85.2,30.9,115.5-2
			C283.4,208,282.3,156.2,251,123.4z M147.4,232.7c-28.7-27.9-30-73.8-2.7-101.7c26.8-27.5,70.6-26.3,97.5,1.7
			c26.5,27.5,27.4,71.3,2.2,98.6C218.9,258.9,175.5,260,147.4,232.7z"/>
		
			<linearGradient id="SVGID_34_" gradientUnits="userSpaceOnUse" x1="82.4818" y1="54.2397" x2="203.0524" y2="54.2397" gradientTransform="matrix(1 0 0 -1 -48.68 349.57)">
			<stop  offset="0" style="stop-color:#E38DDD"/>
			<stop  offset="1" style="stop-color:#9571F6"/>
		</linearGradient>
		<path class="st40" d="M142.9,232.4l-13.6,14.4c1.8,5.9,1.3,10.2,0.2,13.3c-4.4,11.6-19.8,10.4-30.8,27.3
			c-5.5,8.5-2.5,10.2-8.3,17.2c-9.4,11.5-18.6,8.1-26.9,18.4c-8.4,10.4-4.2,20.4-10.5,23.5c-2.7,1.3-7.2,1.3-15-3.8l-2.2,2.3
			c-2.7,2.7-2.6,7,0.1,9.7c0.1,0.1,0.1,0.1,0.2,0.2l1.8,1.6c3,2.6,7.5,2.3,10.2-0.5l106.3-112.4L142.9,232.4z"/>
		<path class="st41" d="M196.3,110.4v0.4l0,0c9.5,0,18.8,1.9,27.5,5.6c9.1,3.9,17.4,9.6,24.2,16.8c13.1,13.7,20.7,31.8,21,50.8
			c0.4,19-6.2,37-18.8,50.6c-12.9,14-31.1,22-50.2,22c-18.6-0.1-36.5-7.4-49.7-20.5c-14.5-14-22.8-33.2-23-53.4
			c-0.4-19.1,6.9-37.7,20.2-51.4c12.8-13.2,30.3-20.6,48.7-20.5L196.3,110.4L196.3,110.4z M196.3,110.4c-18.5,0-36.1,7.4-49,20.7
			c-28.2,28.9-26.9,76.5,2.8,105.3c13.3,13.1,31.3,20.5,50,20.6c19.2,0,37.5-8,50.4-22.1c26-28.2,25.1-73.5-2.3-102
			C234.7,118.6,215.9,110.5,196.3,110.4L196.3,110.4z"/>
		
			<linearGradient id="SVGID_35_" gradientUnits="userSpaceOnUse" x1="842.4738" y1="-190.3725" x2="760.4938" y2="-98.586" gradientTransform="matrix(1 -9.000000e-02 -9.000000e-02 -1 -593.4592 133.1116)">
			<stop  offset="0" style="stop-color:#AA80F9"/>
			<stop  offset="1" style="stop-color:#6165D7"/>
		</linearGradient>
		<path class="st42" d="M255.4,125.4c-32-33.5-84.1-35.1-116.2-2.4c-32.7,33.3-31.1,88.3,3.3,121.5c33.6,32.4,85.2,31,115.5-2
			C287.8,210,286.7,158.1,255.4,125.4z M151.8,234.6c-28.7-27.8-30-73.8-2.7-101.7c26.8-27.5,70.6-26.3,97.5,1.7
			c26.5,27.5,27.4,71.3,2.2,98.6C223.3,260.9,180,261.9,151.8,234.6z"/>
		
			<linearGradient id="SVGID_36_" gradientUnits="userSpaceOnUse" x1="721.9716" y1="-56.347" x2="833.1545" y2="-178.7397" gradientTransform="matrix(1 -9.000000e-02 -9.000000e-02 -1 -593.4592 133.1116)">
			<stop  offset="0" style="stop-color:#E38DDD"/>
			<stop  offset="1" style="stop-color:#9571F6"/>
		</linearGradient>
		<path class="st43" d="M252.3,128.6c-30.2-31.6-79.4-33-109.6-2.1c-30.8,31.4-29.3,83.2,3.1,114.5c31.7,30.6,80.4,29.3,109-1.8
			C282.9,208.5,281.9,159.5,252.3,128.6z M151.8,234.6c-28.7-27.8-30-73.8-2.7-101.7c26.8-27.5,70.6-26.3,97.5,1.7
			c26.5,27.5,27.4,71.3,2.2,98.6C223.3,260.9,180,261.9,151.8,234.6z"/>
		<path class="st44" d="M244.1,188.7c-0.3,0.1-0.6,0.3-0.7,0.6c-0.2,0.3-0.2,0.6-0.1,0.9l6.6,21c0.2,0.6,0.8,1,1.4,0.8c0,0,0,0,0,0
			l15.4-4.5c0.6-0.2,1-0.8,0.8-1.4l-5.9-20.9c-0.2-0.6-0.8-1-1.4-0.8L244.1,188.7z"/>
		
			<linearGradient id="SVGID_37_" gradientUnits="userSpaceOnUse" x1="289.0031" y1="176.323" x2="322.512" y2="121.854" gradientTransform="matrix(1 0 0 -1 -48.68 349.57)">
			<stop  offset="0" style="stop-color:#FF9085"/>
			<stop  offset="1" style="stop-color:#FB6FBB"/>
		</linearGradient>
		<path class="st45" d="M245.3,189.7c-0.5,0.1-0.9,0.7-0.7,1.3c0,0,0,0,0,0.1l5.9,18.8c0.2,0.5,0.7,0.8,1.3,0.7l13.7-4
			c0.5-0.2,0.9-0.7,0.7-1.3l-5.3-18.7c-0.2-0.5-0.7-0.9-1.3-0.7L245.3,189.7z"/>
		<path class="st46" d="M247.3,190.8c-0.4,0.1-0.7,0.6-0.6,1c0,0,0,0,0,0l1.9,6.1c0.1,0.4,0.6,0.7,1,0.5l10.9-2.9
			c0.4-0.1,0.7-0.6,0.6-1c0,0,0,0,0,0l-1.7-6.2c-0.1-0.4-0.6-0.7-1-0.6L247.3,190.8z"/>
		<path class="st46" d="M250.1,200.6c-0.2,0.1-0.4,0.2-0.5,0.4c-0.1,0.2-0.1,0.4-0.1,0.6l1.9,6.3c0.1,0.4,0.6,0.7,1,0.6c0,0,0,0,0,0
			l11.3-3c0.2-0.1,0.4-0.2,0.5-0.4c0.1-0.2,0.1-0.4,0.1-0.6l-1.8-6.4c-0.1-0.4-0.5-0.7-1-0.6c0,0,0,0,0,0L250.1,200.6z"/>
		
			<linearGradient id="SVGID_38_" gradientUnits="userSpaceOnUse" x1="374.8381" y1="104.7258" x2="386.2162" y2="150.2543" gradientTransform="matrix(1 0 0 -1 -48.68 349.57)">
			<stop  offset="0" style="stop-color:#FFC444"/>
			<stop  offset="1" style="stop-color:#F36F56"/>
		</linearGradient>
		<path class="st47" d="M333.4,199.5c0.9,0.3,14,5.6,16.8,19.3c0.2,1.1,2.3,12.9-5.7,21.3c-9,9.4-26.3,9.1-33.1,1.3
			c-1.4-1.6-2.4-3.5-2.9-5.5l0,0l1.8-4.8c2.2-2.7,5.2-3.3,6.8-3.7c4-1,6.9,0.8,9.2-1.1c1.3-1.1,1.5-2.6,1.7-3.9
			c0.8-4.6-1.9-7.5-2-10.3c-0.1-2.1-0.9-6.8,1.9-9.8C329.3,200.6,331.3,199.7,333.4,199.5z"/>
		
			<linearGradient id="SVGID_39_" gradientUnits="userSpaceOnUse" x1="185.0504" y1="-79.7619" x2="190.4548" y2="-84.5649" gradientTransform="matrix(0.9901 -0.14 -0.14 -0.9901 142.6133 297.2374)">
			<stop  offset="0" style="stop-color:#444B8C"/>
			<stop  offset="1" style="stop-color:#26264F"/>
		</linearGradient>
		<path class="st48" d="M338.5,352.7c0.2-0.8,2.9-1.6,4.2-0.5c0.7,0.6,1.1,1.7,0.7,2.2c-0.1,0.2,0.4,0.5-0.1,0.5
			C341.6,355,338.4,353.6,338.5,352.7z"/>
		
			<linearGradient id="SVGID_40_" gradientUnits="userSpaceOnUse" x1="-735.0462" y1="-84.5215" x2="-735.0462" y2="-75.1159" gradientTransform="matrix(0.9901 -0.14 -0.14 -0.9901 1058.8132 167.7174)">
			<stop  offset="0" style="stop-color:#FFC444"/>
			<stop  offset="1" style="stop-color:#F36F56"/>
		</linearGradient>
		<path class="st49" d="M341.4,353.1l2.8-0.4c-1.3-1.6-1.1-6.6-1.1-6.6l-3,0.7c0,0,0.3,1.4,0.9,3.4
			C341.3,351.1,341.4,352.1,341.4,353.1z"/>
		
			<linearGradient id="SVGID_41_" gradientUnits="userSpaceOnUse" x1="185.5938" y1="-79.1545" x2="190.9902" y2="-83.9575" gradientTransform="matrix(0.9901 -0.14 -0.14 -0.9901 142.6133 297.2374)">
			<stop  offset="0" style="stop-color:#444B8C"/>
			<stop  offset="1" style="stop-color:#26264F"/>
		</linearGradient>
		<path class="st50" d="M341.1,352.7c0,0,3.4-0.8,3.7-0.1s0.6,2.5-1.5,2.4C341.2,354.9,341,353.3,341.1,352.7z"/>
		
			<linearGradient id="SVGID_42_" gradientUnits="userSpaceOnUse" x1="347.4863" y1="-3.7166" x2="352.8907" y2="-8.5196" gradientTransform="matrix(1 0 0 -1 -48.68 349.57)">
			<stop  offset="0" style="stop-color:#444B8C"/>
			<stop  offset="1" style="stop-color:#26264F"/>
		</linearGradient>
		<path class="st51" d="M300,355.9c0.3-0.8,3.1-1.2,4.3,0.1c0.6,0.7,0.9,1.9,0.4,2.3c-0.2,0.2,0.4,0.6-0.2,0.5
			C302.6,358.6,299.7,356.7,300,355.9z"/>
		
			<linearGradient id="SVGID_43_" gradientUnits="userSpaceOnUse" x1="-73.2868" y1="1977.995" x2="-67.3452" y2="1972.9434" gradientTransform="matrix(0.14 0.99 -0.99 0.14 2217.1785 3.9277)">
			<stop  offset="0" style="stop-color:#FFC444"/>
			<stop  offset="1" style="stop-color:#F36F56"/>
		</linearGradient>
		<path class="st52" d="M251.3,212.7l-2.6-1.2c-0.6-0.5-1.1-1.1-1.5-1.8c-0.5-0.9-0.7-1.9-0.7-3c0,0-0.1-2.1,0.8-2.4
			c0.1,0,0.3,0,0.4,0l0.9,2.4c0,0,0.1,1.1,1.8,2.1c0.9,0.8,1.7,1.7,2.3,2.7L251.3,212.7z"/>
		
			<linearGradient id="SVGID_44_" gradientUnits="userSpaceOnUse" x1="-572.6183" y1="-8.526" x2="-572.6183" y2="0.8795" gradientTransform="matrix(1 0 0 -1 876.63 349.57)">
			<stop  offset="0" style="stop-color:#FFC444"/>
			<stop  offset="1" style="stop-color:#F36F56"/>
		</linearGradient>
		<path class="st53" d="M302.8,356.6h2.8c-1.1-1.7-0.1-6.6-0.1-6.6l-3.1,0.2c0,0,0.2,1.4,0.4,3.5
			C302.9,354.7,302.9,355.7,302.8,356.6z"/>
		
			<linearGradient id="SVGID_45_" gradientUnits="userSpaceOnUse" x1="-1469.1556" y1="-12.8461" x2="-1504.3644" y2="129.296" gradientTransform="matrix(-1 0 0 -1 -1165.5601 349.57)">
			<stop  offset="0" style="stop-color:#444B8C"/>
			<stop  offset="1" style="stop-color:#26264F"/>
		</linearGradient>
		<path class="st54" d="M295.4,249.3c-2,6.6-3.5,13.3-4.4,20.1c-3.4,25.1,3.9,25.9,2.5,53.7c-0.4,8.9,7.7,29.3,8.4,29.8
			c0.4,0,0.7,0.1,1.1,0c1,0,1.9-0.2,2.9-0.5c1.3-0.2,5.9-12.8,4.9-20.3c-0.8-5.3-0.5-11-0.1-22.3c0.1-1.8,4.8-35.8,4.8-35.8l0,0
			c1.4,12.6,3.1,23.3,4.5,31.5c4.6,26.6,19.5,42.7,20.3,42.9c0.9,0.3,1.9,0.3,2.7-0.2c0.3-0.2,0.5-0.5,0.7-0.8
			c0.4-0.3-0.1-26.5-4.7-46.3c-6.6-28.7-3.7-35.4-5.8-48.2C331.3,242.1,295.4,249.3,295.4,249.3z"/>
		
			<linearGradient id="SVGID_46_" gradientUnits="userSpaceOnUse" x1="330.9281" y1="148.1754" x2="399.2128" y2="93.9791" gradientTransform="matrix(1 0 0 -1 -48.68 349.57)">
			<stop  offset="0" style="stop-color:#FFC444"/>
			<stop  offset="1" style="stop-color:#F36F56"/>
		</linearGradient>
		<path class="st55" d="M322.1,197.3c-4.4-0.1-12.9-1.6-18.4,3.4c-0.1,0.1-0.5,0.6-1.1,1.2c-1.5,1.7-2.8,3.6-3.9,5.6
			c-1.4,2.6-2.5,5.3-3.3,8.1c-1.3,4.6-2.2,9.4-2.6,14.2c-1,13.3,0,19.5,0.9,23.7c8.2,3.8,17.4,5.2,26.3,3.9c4.6-0.7,9-2.1,13.2-4.3
			c-3.2-9.6-0.7-14.7,0.5-19.4c1.7-6.7,1.7-6.2,3.1-11.6c2.3-8.8,2.6-17.8,1.1-19.7C333.5,197.6,326,197.4,322.1,197.3z"/>
		
			<linearGradient id="SVGID_47_" gradientUnits="userSpaceOnUse" x1="348.0353" y1="-3.1029" x2="353.4317" y2="-7.9059" gradientTransform="matrix(1 0 0 -1 -48.68 349.57)">
			<stop  offset="0" style="stop-color:#444B8C"/>
			<stop  offset="1" style="stop-color:#26264F"/>
		</linearGradient>
		<path class="st56" d="M302.6,356.2c0,0,3.5-0.3,3.7,0.4s0.3,2.5-1.8,2.2C302.4,358.5,302.3,356.8,302.6,356.2z"/>
		
			<linearGradient id="SVGID_48_" gradientUnits="userSpaceOnUse" x1="323.1303" y1="138.35" x2="391.4149" y2="84.1537" gradientTransform="matrix(1 0 0 -1 -48.68 349.57)">
			<stop  offset="0" style="stop-color:#FFC444"/>
			<stop  offset="1" style="stop-color:#F36F56"/>
		</linearGradient>
		<path class="st57" d="M310.5,198.9c-4.8-3.1-17.3,6.6-21.1,9.3c-14.7,10.4-12.9,17-19.6,13.7c-4.5-2.2-5.1-8.8-12.8-11.3
			c-1.1-0.3-2.2-0.6-3.3-0.7c0,0-2.5,1.4-2.6,1.4c-1,0.2-1.8,0.7-2.6,1.4c-0.9,1.8-1.5,3.7-1.8,5.6c0.1,1.2,0.3,2.4,0.6,3.6
			c0.3,1.3,3.7,15.4,15.5,19.7c1.6,0.6,3.2,1,4.9,1.1c3.9,0.5,7.4-0.1,13.4-2.2c10.2-3.5,17.9-6.8,24.8-14.8
			c0.3-0.4,0.6-0.8,0.9-1.2C311.8,216.7,315.1,201.9,310.5,198.9z"/>
		
			<linearGradient id="SVGID_49_" gradientUnits="userSpaceOnUse" x1="352.7979" y1="167.5852" x2="382.0329" y2="130.7968" gradientTransform="matrix(1 0 0 -1 -48.68 349.57)">
			<stop  offset="0" style="stop-color:#FFC444"/>
			<stop  offset="1" style="stop-color:#F36F56"/>
		</linearGradient>
		<path class="st58" d="M309.7,192.3c-0.9-1.7-1.1-3.6-0.6-5.5c0.6-2.4,0.8-2.7,1.2-3.2l0.6-0.7l0.1-0.1c0.8-0.4,1.6-0.7,2.4-0.8
			c1.1-0.1,3.4,3.9,4.7,10.1l0.3,0.7c0.6,1.4,1.2,2.8,1.7,4.1c7.5,0.6,8.6,1.5,8.6,2c0.1,1.1-4.2,2.3-7.4,2.8
			c-7,1-14.3-0.8-14.2-2.1c0-0.6,1.4-1.3,7.4-2.1l-0.4-3C313.5,194.4,310.7,194,309.7,192.3z"/>
		<path class="st44" d="M308.3,181.7c0.5,1.9,1.9,3.7,2.5,3.9c0.3,0.1,0.6,0.3,0.9,0.6c0.1,0.1,0.1,0.1,0.2,0.2
			c0.7,1.1-0.8,3-0.3,3.4c0.4,0.3,1.5-0.5,1.7-0.2s-0.7,1.2-0.4,1.5c0.3,0.3,0.8-0.2,1.3,0.1c0.3,0.2,0.2,0.4,0.6,1
			c0.2,0.3,0.4,0.6,0.7,0.9c0.9,0.9,2.9,0.8,3.1,0.3c0.1-0.2,0-0.2-0.1-0.7c0-0.3,0-0.6,0.1-0.9c0.2-0.7,1-1.4,1.8-2.3
			c0.8-0.9,1.4-2,1.6-3.3c0-0.1,0-0.2,0-0.3c0.1-1.7-0.4-3.3-1.4-4.6c-1.6-1.8-3.7-0.2-6.2-1.8c-2.9-1.8-2.4-5.4-3.7-5.5
			C309.4,173.9,307.4,178.3,308.3,181.7z"/>
		
			<linearGradient id="SVGID_50_" gradientUnits="userSpaceOnUse" x1="354.0323" y1="168.5695" x2="383.2754" y2="131.7811" gradientTransform="matrix(1 0 0 -1 -48.68 349.57)">
			<stop  offset="0" style="stop-color:#FFC444"/>
			<stop  offset="1" style="stop-color:#F36F56"/>
		</linearGradient>
		<path class="st59" d="M312.1,189.1c0.3-0.8,1.3-0.4,1.5,0.4c0.2,0.8-0.2,1.7-1.1,1.9c0,0-0.1,0-0.1,0
			C311.6,191.6,311.7,190.2,312.1,189.1z"/>
		<path class="st44" d="M312.1,187.7l-0.7,1.7c0,0-0.7,2-1.6,1.3c-0.8-0.6-0.9-0.6-0.9-0.5l0,0c0,0,0-0.4,0-0.8
			c-0.3,0.7-0.4,1.5-0.4,2.2c-0.1,1,0.1,1.9,0.7,2.7c0.5,0.5,1.2,0.8,1.9,0.8c0.7-0.1,1.4-0.4,2-0.8c0,0-2.2-0.8-2.3-1.1
			c-0.3-0.8,0.8-1.6,1.2-3.6C312.1,188.9,312.2,188.3,312.1,187.7z"/>
	</g>
</g>
</svg>
