<?xml version="1.0" encoding="utf-8"?>
<!-- Generator: Adobe Illustrator 24.2.3, SVG Export Plug-In . SVG Version: 6.00 Build 0)  -->
<svg version="1.1" id="Layer_1" xmlns="http://www.w3.org/2000/svg" xmlns:xlink="http://www.w3.org/1999/xlink" x="0px" y="0px"
	 viewBox="0 0 1200 700" style="enable-background:new 0 0 1200 700;" xml:space="preserve">
<g>
	<path d="M528.2,365.6c-0.6-62,50.8-92.2,53.1-93.6c-29.1-42.4-74.2-48.2-90-48.6c-37.9-4-74.6,22.6-93.9,22.6
		c-19.7,0-49.4-22.3-81.4-21.6c-41.2,0.6-79.7,24.5-100.9,61.5c-43.6,75.5-11.1,186.4,30.7,247.4c20.9,29.9,45.3,63.2,77.3,62.1
		c31.3-1.3,43-19.9,80.7-19.9c37.4,0,48.4,19.9,81,19.2c33.6-0.5,54.7-30,74.9-60.2c24.2-34.2,33.9-68,34.2-69.7
		C593.2,464.5,528.8,439.9,528.2,365.6L528.2,365.6z M466.6,183.2c16.8-21,28.3-49.6,25.1-78.7c-24.3,1.1-54.8,16.8-72.3,37.4
		c-15.5,18.1-29.4,47.8-25.8,75.8C420.9,219.8,449,203.9,466.6,183.2L466.6,183.2z"/>
	<path d="M664.7,369.1c0,3.9-2.4,6.8-6.4,6.8c-3.4,0-5.9-2.9-5.9-6.8c0-3.7,2.7-6.8,6.3-6.8C662.4,362.4,664.7,365.4,664.7,369.1z
		 M655.4,572.3V416.9h6.4v155.4L655.4,572.3L655.4,572.3z M873.6,461.6c0,78.4-43.5,114-91.1,114c-48.6,0-88-38.5-88-110.7
		c0-74.1,40.8-114,91.5-114C835.6,350.8,873.6,390,873.6,461.6z M701,463.2c0,59.4,28.8,105.6,81.9,105.6
		c53.4,0,84.1-47.6,84.1-106.2c0-54.4-24.6-104.1-80.6-104.1S701,405.2,701,463.2L701,463.2z M897,555.5c10.7,7.1,29.1,14,45,14
		c30.1,0,56.9-21.1,56.9-52.1c0-28.8-17.8-43.8-48.1-56.7c-27.1-11.5-51.5-24.1-51.5-54.8c0-32.1,25.3-54.7,59.6-54.7
		c18.5,0,32.4,5.2,38.9,9.7l-2.6,5.6c-5.5-3.9-20.4-8.8-36.6-8.8c-36.3,0-52.1,27.4-52.1,47.6c0,27.9,21.6,37.2,49.5,50.5
		c32.4,15.9,49.5,29.9,49.5,60.3c0,32.7-23.3,59.2-64.8,59.2c-17.2,0-36.9-5.8-46.6-13.3L897,555.5L897,555.5z"/>
</g>
</svg>
