<svg xmlns="http://www.w3.org/2000/svg" width="58.175" height="61.465" viewBox="0 0 58.175 61.465">
  <g id="digitalization" transform="translate(-13.691 0)">
    <path id="Path_11989" data-name="Path 11989" d="M343.168,414.753a.9.9,0,0,0-.889.913,6.671,6.671,0,0,1-2.5,5.269.9.9,0,0,0-.34.7v3.877a.9.9,0,0,0,1.8,0V422.06a8.491,8.491,0,0,0,2.836-6.417.9.9,0,0,0-.913-.889Z" transform="translate(-286.611 -364.917)" fill="#1ab2a9"/>
    <path id="Path_11990" data-name="Path 11990" d="M185.031,196.375V194.39a2.512,2.512,0,0,1,2.29,2.459l.031,2.212a.9.9,0,0,0,1.8-.026l-.031-2.211a4.321,4.321,0,0,0-4.294-4.246l-7.414-.014v-2.082a8.457,8.457,0,1,0-6.914-15.394.9.9,0,0,0,.85,1.589,6.655,6.655,0,1,1,6.064,11.846v-4.651a3.068,3.068,0,1,0-6.136-.057v4.571a6.667,6.667,0,0,1-2.8-8.72.9.9,0,0,0-1.624-.781,8.5,8.5,0,0,0,4.419,11.493V199.5l-2.457-2.979a3.1,3.1,0,0,0-4.334-.356,3.07,3.07,0,0,0-.35,4.319l7.369,8.8v4.482a.9.9,0,0,0,1.8,0v-4.809a.9.9,0,0,0-.21-.578l-7.585-9.059a1.266,1.266,0,0,1,1.922-1.647l4.048,4.909a.908.908,0,0,0,1.6-.573v-18.19a1.277,1.277,0,0,1,1.31-1.265,1.306,1.306,0,0,1,1.222,1.322v12.5a.9.9,0,0,0,1.8,0v-2.009l2.005,0v2.005a.9.9,0,0,0,1.8,0v-2l2.005,0v2A.9.9,0,0,0,185.031,196.375Z" transform="translate(-131.73 -153.163)" fill="#1ab2a9"/>
    <path id="Path_11991" data-name="Path 11991" d="M68.673,26.193a3.2,3.2,0,0,0-3.062,2.292H55.983a13.22,13.22,0,0,0-2.76-7.227L56.185,18.3h4.629a3.8,3.8,0,1,0,0-1.8h-4.1V11.4a3.192,3.192,0,1,0-1.8,0v5.618l-2.889,2.89a13.2,13.2,0,0,0-8.334-3.754l-.034,0V7.472a3.8,3.8,0,1,0-1.8,0v8.682a13.315,13.315,0,0,0-8.373,3.752l-2.885-2.885V11.4a3.192,3.192,0,1,0-1.8,0v5.09H24.7a3.8,3.8,0,1,0,0,1.8h4.619l2.957,2.957a13.212,13.212,0,0,0-2.752,7.2c0,.012,0,.023,0,.035H19.929a3.193,3.193,0,1,0,0,1.8H29.52a13.162,13.162,0,0,0,3.217,7.792,13.381,13.381,0,0,0,2.254,2.067.9.9,0,0,0,1.057-1.46A11.582,11.582,0,0,1,34.1,36.9c-6.441-7.308-1.036-18.961,8.647-18.972A11.579,11.579,0,0,1,54.183,30.195a11.443,11.443,0,0,1-2.051,5.778.9.9,0,0,0,1.474,1.037,13.245,13.245,0,0,0,2.375-6.689c0-.011,0-.023,0-.034h9.628a3.192,3.192,0,1,0,3.062-4.094ZM28.3,8.34a1.39,1.39,0,1,1,1.39,1.39A1.392,1.392,0,0,1,28.3,8.34ZM21.009,19.391a2,2,0,1,1,2-2A2,2,0,0,1,21.009,19.391ZM16.867,30.777a1.39,1.39,0,1,1,1.39-1.39A1.392,1.392,0,0,1,16.867,30.777Zm23.888-27a2,2,0,1,1,2,2,2,2,0,0,1-2-2ZM64.5,15.4a2,2,0,1,1-2,2A2,2,0,0,1,64.5,15.4ZM54.422,8.34a1.39,1.39,0,1,1,1.39,1.39A1.392,1.392,0,0,1,54.422,8.34ZM68.673,30.777a1.39,1.39,0,1,1,1.39-1.39A1.392,1.392,0,0,1,68.673,30.777Z" fill="#1ab2a9"/>
  </g>
</svg>
