<svg xmlns="http://www.w3.org/2000/svg" width="65.537" height="67.601" viewBox="0 0 65.537 67.601">
  <g id="idea" transform="translate(-7.815)">
    <g id="Group_250" data-name="Group 250" transform="translate(60.285 25.431)">
      <g id="Group_249" data-name="Group 249">
        <path id="Path_11973" data-name="Path 11973" d="M407.468,193a1.32,1.32,0,1,0-1.867,1.867l.062.06A1.32,1.32,0,0,0,407.468,193Z" transform="translate(-405.214 -192.615)" fill="#1ab2a9"/>
      </g>
    </g>
    <g id="Group_252" data-name="Group 252" transform="translate(43.193 20.231)">
      <g id="Group_251" data-name="Group 251">
        <path id="Path_11974" data-name="Path 11974" d="M292.427,156.648a20.671,20.671,0,0,0-2.306-1.361,17.708,17.708,0,0,0-13.428-1.28,1.32,1.32,0,1,0,.783,2.522,15.116,15.116,0,0,1,11.457,1.117,18.384,18.384,0,0,1,2.01,1.187,1.32,1.32,0,1,0,1.483-2.185Z" transform="translate(-275.764 -153.23)" fill="#1ab2a9"/>
      </g>
    </g>
    <g id="Group_254" data-name="Group 254" transform="translate(16.246 8.379)">
      <g id="Group_253" data-name="Group 253">
        <path id="Path_11975" data-name="Path 11975" d="M127.29,95.815a16.988,16.988,0,0,1-1.454-3.638c1.544-3.806.981-8.017-1.591-11.869-3.955-5.925-12.06-10.225-19.273-10.225a23.626,23.626,0,0,0-10.885,2.645A11.3,11.3,0,1,0,77.073,84.405a2.207,2.207,0,0,1,1.275,1.961v7.726a2.676,2.676,0,0,0,2.673,2.674h.449a23.515,23.515,0,0,0,7.963,14.889,5.207,5.207,0,0,1-.361,2.566c-.409,1.421-1.036,3-1.589,4.393-.37.932-.69,1.737-.883,2.346a1.32,1.32,0,0,0,1.258,1.72h18.847a2.143,2.143,0,0,0,2.005-1.6,12.906,12.906,0,0,0,.546-2c.157-.713.525-2.385.89-2.587a.268.268,0,0,1,.073,0,1.3,1.3,0,0,0,.2.016c1.974,0,3.587.09,5.009.168,4.173.232,6.693.371,8.9-2.812,1.124-1.619,1-3.98.862-6.48a23.58,23.58,0,0,1-.014-3.724,11.52,11.52,0,0,1,1.169-.871c1.245-.855,2.42-1.662,2.42-2.889C128.775,98.977,128.211,97.746,127.29,95.815ZM78.453,82.154a8.662,8.662,0,1,1,9.037,0,4.8,4.8,0,0,0-2.314,2.829H80.768A4.807,4.807,0,0,0,78.453,82.154Zm6.5,5.47v1.931H80.989V87.623Zm-3.932,6.5a.038.038,0,0,1-.032-.033v-1.9h3.965v1.9a.038.038,0,0,1-.033.033Zm43.838,6.5c-1.136.781-2.118,1.454-2.263,2.474a23.5,23.5,0,0,0-.035,4.44c.1,1.855.213,3.957-.394,4.832-1.314,1.893-2.45,1.911-6.587,1.681-1.365-.076-3.059-.17-5.067-.173a2.814,2.814,0,0,0-2.947,1.747,12.268,12.268,0,0,0-.89,2.893,14.028,14.028,0,0,1-.392,1.524H89.759l.179-.451c1.9-4.789,3.107-8.3,1.273-9.887a20.9,20.9,0,0,1-7.076-12.936h.786a2.677,2.677,0,0,0,2.673-2.674V86.369a2.208,2.208,0,0,1,1.275-1.964,11.226,11.226,0,0,0,5.369-8.74,20.978,20.978,0,0,1,10.735-2.942c6.291,0,13.632,3.891,17.077,9.05a9.91,9.91,0,0,1,1.311,9.482c-.518,1.247.25,2.977,1.546,5.7a23.826,23.826,0,0,1,1.188,2.749A12.476,12.476,0,0,1,124.86,100.622Z" transform="translate(-71.668 -63.458)" fill="#1ab2a9"/>
      </g>
    </g>
    <g id="Group_256" data-name="Group 256" transform="translate(29.296 14.321)">
      <g id="Group_255" data-name="Group 255">
        <path id="Path_11976" data-name="Path 11976" d="M175.243,111.964a5.286,5.286,0,0,0-2.8-3.348,1.32,1.32,0,0,0-1.21,2.347,2.647,2.647,0,0,1,1.464,1.688,4,4,0,0,1-.366,2.728,1.32,1.32,0,1,0,2.227,1.42A6.618,6.618,0,0,0,175.243,111.964Z" transform="translate(-170.514 -108.47)" fill="#1ab2a9"/>
      </g>
    </g>
    <g id="Group_258" data-name="Group 258" transform="translate(26.229)">
      <g id="Group_257" data-name="Group 257">
        <path id="Path_11977" data-name="Path 11977" d="M148.6,0a1.32,1.32,0,0,0-1.32,1.32V5.084a1.32,1.32,0,0,0,2.641,0V1.32A1.321,1.321,0,0,0,148.6,0Z" transform="translate(-147.279)" fill="#1ab2a9"/>
      </g>
    </g>
    <g id="Group_260" data-name="Group 260" transform="translate(7.815 18.414)">
      <g id="Group_259" data-name="Group 259">
        <path id="Path_11978" data-name="Path 11978" d="M12.9,139.465H9.135a1.32,1.32,0,0,0,0,2.641H12.9a1.32,1.32,0,0,0,0-2.641Z" transform="translate(-7.815 -139.465)" fill="#1ab2a9"/>
      </g>
    </g>
    <g id="Group_262" data-name="Group 262" transform="translate(17.022 2.467)">
      <g id="Group_261" data-name="Group 261">
        <path id="Path_11979" data-name="Path 11979" d="M81.891,22.6l-1.881-3.258a1.32,1.32,0,1,0-2.287,1.32L79.6,23.923a1.32,1.32,0,0,0,2.287-1.32Z" transform="translate(-77.545 -18.684)" fill="#1ab2a9"/>
      </g>
    </g>
    <g id="Group_264" data-name="Group 264" transform="translate(10.281 9.207)">
      <g id="Group_263" data-name="Group 263" transform="translate(0)">
        <path id="Path_11980" data-name="Path 11980" d="M31.735,71.793l-3.259-1.881a1.32,1.32,0,0,0-1.32,2.287l3.259,1.881a1.32,1.32,0,0,0,1.32-2.287Z" transform="translate(-26.495 -69.735)" fill="#1ab2a9"/>
      </g>
    </g>
    <g id="Group_266" data-name="Group 266" transform="translate(38.918 9.207)">
      <g id="Group_265" data-name="Group 265">
        <path id="Path_11981" data-name="Path 11981" d="M249.1,70.393a1.32,1.32,0,0,0-1.8-.483l-3.259,1.881a1.32,1.32,0,1,0,1.32,2.287l3.259-1.881A1.32,1.32,0,0,0,249.1,70.393Z" transform="translate(-243.382 -69.732)" fill="#1ab2a9"/>
      </g>
    </g>
    <g id="Group_268" data-name="Group 268" transform="translate(10.281 25.739)">
      <g id="Group_267" data-name="Group 267" transform="translate(0)">
        <path id="Path_11982" data-name="Path 11982" d="M32.219,195.606a1.32,1.32,0,0,0-1.8-.483L27.156,197a1.32,1.32,0,1,0,1.32,2.287l3.259-1.881A1.32,1.32,0,0,0,32.219,195.606Z" transform="translate(-26.495 -194.946)" fill="#1ab2a9"/>
      </g>
    </g>
    <g id="Group_270" data-name="Group 270" transform="translate(17.022 31.572)">
      <g id="Group_269" data-name="Group 269">
        <path id="Path_11983" data-name="Path 11983" d="M81.136,239.3a1.321,1.321,0,0,0-1.8.483l-1.61,2.789a1.32,1.32,0,1,0,2.287,1.32l1.61-2.789A1.32,1.32,0,0,0,81.136,239.3Z" transform="translate(-77.545 -239.127)" fill="#1ab2a9"/>
      </g>
    </g>
    <g id="Group_272" data-name="Group 272" transform="translate(33.554 2.467)">
      <g id="Group_271" data-name="Group 271">
        <path id="Path_11984" data-name="Path 11984" d="M206.625,18.86a1.32,1.32,0,0,0-1.8.483L202.94,22.6a1.32,1.32,0,1,0,2.287,1.32l1.881-3.258A1.32,1.32,0,0,0,206.625,18.86Z" transform="translate(-202.763 -18.683)" fill="#1ab2a9"/>
      </g>
    </g>
  </g>
</svg>
