<?xml version="1.0" encoding="utf-8"?>
<!-- Generator: Adobe Illustrator 24.2.3, SVG Export Plug-In . SVG Version: 6.00 Build 0)  -->
<svg version="1.1" id="Layer_1" xmlns="http://www.w3.org/2000/svg" xmlns:xlink="http://www.w3.org/1999/xlink" x="0px" y="0px"
	 viewBox="0 0 400 400" style="enable-background:new 0 0 400 400;" xml:space="preserve">
<style type="text/css">
	.st0{fill:#75D8CC;}
	.st1{fill:url(#SVGID_1_);}
	.st2{clip-path:url(#SVGID_3_);}
	.st3{fill:#FCFDFE;}
	.st4{fill:url(#SVGID_4_);}
	.st5{clip-path:url(#SVGID_6_);}
	.st6{fill:url(#SVGID_7_);}
	.st7{fill:url(#SVGID_8_);}
	.st8{fill:url(#SVGID_9_);}
	.st9{fill:#D8DEE8;}
	.st10{fill:#FFFFFF;}
	.st11{opacity:0.48;fill:#FFFFFF;enable-background:new    ;}
	.st12{fill:url(#SVGID_10_);}
	.st13{opacity:0.3;fill:url(#SVGID_11_);enable-background:new    ;}
	.st14{opacity:0.3;fill:#C7CCD3;enable-background:new    ;}
	.st15{fill:url(#SVGID_12_);}
	.st16{opacity:0.5;}
	.st17{clip-path:url(#SVGID_14_);}
	.st18{fill:url(#SVGID_15_);}
	.st19{fill:url(#SVGID_16_);}
	.st20{fill:url(#SVGID_17_);}
	.st21{fill:url(#SVGID_18_);}
	.st22{fill:url(#SVGID_19_);}
	.st23{fill:url(#SVGID_20_);}
	.st24{fill:url(#SVGID_21_);}
	.st25{opacity:0.3;fill:url(#SVGID_22_);enable-background:new    ;}
	.st26{fill:url(#SVGID_23_);}
	.st27{fill:url(#SVGID_24_);}
	.st28{fill:url(#SVGID_25_);}
	.st29{opacity:0.3;}
	.st30{fill:url(#SVGID_26_);}
	.st31{fill:url(#SVGID_27_);}
	.st32{fill:url(#SVGID_28_);}
	.st33{fill:url(#SVGID_29_);}
	.st34{fill:url(#SVGID_30_);}
	.st35{fill:url(#SVGID_31_);}
	.st36{fill:url(#SVGID_32_);}
	.st37{fill:url(#SVGID_33_);}
	.st38{fill:url(#SVGID_34_);}
</style>
<g>
	<g id="Layer_1_1_">
		<path class="st0" d="M214.2,50.4c-72-2.2-134.4,51.5-143.8,122c-10.3,77.1,46.4,146.4,116.1,157.5
			c86.8,13.8,170.9-66.1,163.4-152.8C344.3,111.8,287.4,52.6,214.2,50.4z"/>
		
			<linearGradient id="SVGID_1_" gradientUnits="userSpaceOnUse" x1="743.9272" y1="296.3573" x2="767.8963" y2="174.112" gradientTransform="matrix(0.99 0.14 0.14 -0.99 -622.8152 333.7991)">
			<stop  offset="0" style="stop-color:#FFC444"/>
			<stop  offset="1" style="stop-color:#F36F56"/>
		</linearGradient>
		<path class="st1" d="M130.2,253c-2.2,3.7-6.1,8.7-10.2,14.4l69.7,10c-7.8-21.2-18.8-43.5-2.4-80.4c7.7-17.3,28.2-47.7,19.7-68
			c-9.6-23.1-28.6-13.1-33.4-31c-7.6-28-31.4-47.4-56.9-33.5c-25.2,13.7-24.3,63.8,8.9,118.6C145,225.3,141.8,233.9,130.2,253z"/>
		<g>
			<g>
				<defs>
					<path id="SVGID_2_" d="M187.3,197.1c7.7-17.3,28.2-47.7,19.7-68c-9.6-23.1-28.6-13.1-33.4-31c-7.6-28-31.4-47.4-56.9-33.5
						c-25.2,13.7-24.3,63.8,8.9,118.6c19.4,42,16.2,50.6,4.7,69.7C122.1,266.5,158.3,262.2,187.3,197.1z"/>
				</defs>
				<clipPath id="SVGID_3_">
					<use xlink:href="#SVGID_2_"  style="overflow:visible;"/>
				</clipPath>
				<g class="st2">
					<path class="st3" d="M156.6,268.6c0.5-9.2,0.5-17.8,0.5-27v-3.1c-0.3-4.4-0.4-8.8-0.6-13c-0.3-9.5-0.6-18.5-2.2-28.1
						c0-0.6,0-1.1,0-1.7c0-2.1,0-4.2-1.2-6.2v-0.1c-4.8-50.5-20.1-100.9-45.5-149.7l0.4-0.2c25.4,48.8,40.7,99.2,45.6,149.8
						c1.2,2.1,1.2,4.4,1.2,6.4c0,0.6,0,1.1,0,1.6c1.6,9.5,1.9,18.6,2.2,28.1c0.1,4.2,0.3,8.5,0.6,13v3.1c0,9.2,0,17.8-0.5,27
						L156.6,268.6z"/>
					<path class="st3" d="M156.1,223.8c-0.5-23.9,12.1-52.3,22.8-71.9c7-12.9,14.8-25.3,23.4-37.2l0.3,0.2
						c-8.6,11.9-16.4,24.3-23.4,37.1c-10.6,19.6-23.2,47.9-22.7,71.7L156.1,223.8z"/>
					<path class="st3" d="M140,120.1c-1.9-25.3,2-52.3,3.2-61.2c0.2-1.7,0.4-2.8,0.4-3h0.4c0,0.2-0.1,1.1-0.4,3.1
						c-1.3,8.9-5.1,35.8-3.2,61.1L140,120.1z"/>
					<path class="st3" d="M149.1,160.5c-8.5-21.8-53.2-41.1-53.7-41.3l0.2-0.4c0.5,0.2,45.3,19.6,53.9,41.5L149.1,160.5z"/>
				</g>
			</g>
		</g>
		
			<linearGradient id="SVGID_4_" gradientUnits="userSpaceOnUse" x1="682.2274" y1="205.9239" x2="730.6499" y2="358.3763" gradientTransform="matrix(0.99 0.14 0.14 -0.99 -622.8152 333.7991)">
			<stop  offset="0" style="stop-color:#E38DDD"/>
			<stop  offset="1" style="stop-color:#9571F6"/>
		</linearGradient>
		<path class="st4" d="M110.7,174.7c-4.3,32,12.7,23.8,26.5,29c13,26.2,11.4,48.4-15.9,64l-26.8-8c-10.1-1.9-21.5-6.8-18.9-20.2
			c3-15.2,8-24.4-8.2-34.3s-21.6-24.8-12.4-39.3c9.7-15.3-4.3-39.9,9.8-49.1C89.6,100.7,115.1,141.3,110.7,174.7z"/>
		<g>
			<g>
				<defs>
					<path id="SVGID_5_" d="M104.2,260.9c-9.6-0.8-32-3.2-28.5-21.4c3-15.2,8-24.4-8.2-34.3s-21.6-24.8-12.4-39.3
						c9.7-15.3-4.3-39.9,9.8-49.1c24.7-16,50.2,24.6,45.8,58c-4.4,33.4,14.2,23,28.2,29.7C158.1,213.5,112,261.5,104.2,260.9z"/>
				</defs>
				<clipPath id="SVGID_6_">
					<use xlink:href="#SVGID_5_"  style="overflow:visible;"/>
				</clipPath>
				<g class="st5">
					<path class="st3" d="M109.3,233c-9.6-14.2-17.5-29.4-23.5-45.5c-6-16-9.9-32.7-11.7-49.7c-1-9.6-1.3-19.2-0.9-28.9h0.4
						c-0.4,9.6-0.1,19.2,0.9,28.8c1.8,17,5.7,33.6,11.7,49.6c5.9,16,13.8,31.3,23.4,45.4L109.3,233z"/>
					<path class="st3" d="M73.1,247.3l-0.1-0.4c6-2,12.3-3.1,18.7-3.4c3.2-0.2,6.4-0.2,9.7,0.1v0.4c-3.2-0.2-6.4-0.3-9.6-0.1
						C85.4,244.2,79.1,245.3,73.1,247.3z"/>
					<path class="st3" d="M89.8,197.4c-12.2-15.7-42.4-18.8-42.7-18.8l0-0.4c0.3,0,30.7,3.1,43,19L89.8,197.4z"/>
					<path class="st3" d="M77.5,159.3c-1.1-22.4,18.9-45.2,19.1-45.5l0.3,0.3c-0.2,0.2-20.1,22.9-19,45.2L77.5,159.3z"/>
				</g>
			</g>
		</g>
		
			<linearGradient id="SVGID_7_" gradientUnits="userSpaceOnUse" x1="224.5414" y1="32.3873" x2="203.8693" y2="23.7069" gradientTransform="matrix(1 0 0 -1 -41.28 368.95)">
			<stop  offset="0" style="stop-color:#40447E"/>
			<stop  offset="1" style="stop-color:#3C3B6B"/>
		</linearGradient>
		<path class="st6" d="M353.2,325.2L59,322.6v7.7c0,2.1,1.3,3.8,3,4.2l83.2,15.1c1,0.2,2,0.2,3,0.1L350,332.5
			c1.8-0.2,3.2-1.9,3.2-4.1V325.2z"/>
		
			<linearGradient id="SVGID_8_" gradientUnits="userSpaceOnUse" x1="190.8739" y1="124.1826" x2="169.4328" y2="115.1817" gradientTransform="matrix(1 0 0 -1 -41.28 368.95)">
			<stop  offset="0" style="stop-color:#40447E"/>
			<stop  offset="1" style="stop-color:#3C3B6B"/>
		</linearGradient>
		<path class="st7" d="M251.4,178.7v128c0,1.6-0.5,3.1-1.5,4.3c-0.8,1.1-2.1,1.8-3.4,1.9l-93,7.1l-42.3,3.2l-47.7,3.6l0,0l-1.4,0.2
			c-0.2,0-0.3,0-0.5,0c-0.2,0-0.5,0-0.7,0c-0.7-0.1-1.3-0.3-2-0.6c-1.9-1.1-3-3.1-3-5.3V179.3c0-3.4,2.7-6.2,6.2-6.2h184.4
			C249.1,173.1,251.4,175.5,251.4,178.7z"/>
		
			<linearGradient id="SVGID_9_" gradientUnits="userSpaceOnUse" x1="100.1425" y1="119.0125" x2="295.6058" y2="119.0125" gradientTransform="matrix(1 0 0 -1 -41.28 368.95)">
			<stop  offset="0" style="stop-color:#40447E"/>
			<stop  offset="1" style="stop-color:#3C3B6B"/>
		</linearGradient>
		<path class="st8" d="M254.3,178.7v128c0,1.6-0.6,3.2-1.6,4.4c-0.6,0.6-1.3,1.1-2.1,1.4l0,0c-0.1,0-0.2,0.1-0.4,0.1
			c-0.3,0.1-0.6,0.1-0.9,0.2l-135.7,10.3L65,326.8c-0.4,0-0.7,0-1.1-0.1c-0.2,0-0.3-0.1-0.5-0.1l0,0c-0.1,0-0.3,0-0.4,0
			c-1.9-0.6-3.3-2-3.9-3.9c-0.2-0.6-0.3-1.2-0.3-1.7V179.3c0-3.4,2.7-6.2,6.1-6.2c0,0,0,0,0,0h184.4
			C252.1,173.1,254.3,175.5,254.3,178.7z"/>
		<path class="st9" d="M243.6,303.8L71.9,316c-2.7,0.2-4.9-2-4.9-4.9v-124c-0.1-2.8,2.1-5.1,4.9-5.2l171.7-0.8
			c2.2,0,4.1,2.1,4.1,4.7v112.9C247.7,301.4,245.9,303.6,243.6,303.8z"/>
		<path class="st10" d="M163.7,176.8c-0.1,1.2-1.2,2-2.4,1.9c-1.2-0.1-2-1.2-1.9-2.4c0.1-1.1,1-1.9,2.1-1.9
			C162.8,174.5,163.7,175.5,163.7,176.8z"/>
		<path class="st11" d="M204.9,274c-14.2-8.2-25.4,2.2-36.2-8.1c-6.5-6.2-3.3-10.9-11.4-20.2c-8.9-10.3-14.7-6.8-23.7-16.1
			c-11.3-11.7-5.7-20.9-15.4-29.3c-11.8-10.2-24.6-0.8-35.9-10.6c-4.9-4.2-7.5-10.4-8.9-16.9h-11c-2,0.1-3.6,1.8-3.5,3.8v146.8
			c-0.1,1.8,1.3,3.4,3.2,3.5c0.1,0,0.2,0,0.3,0l187.9-14.3c1-0.1,1.8-0.7,2.3-1.5c-13.8-0.5-22.2-5.5-27.6-10.6
			C214.5,290.5,216.3,280.6,204.9,274z"/>
		
			<linearGradient id="SVGID_10_" gradientUnits="userSpaceOnUse" x1="100.2852" y1="41.5143" x2="394.4587" y2="41.5143" gradientTransform="matrix(1 0 0 -1 -41.28 368.95)">
			<stop  offset="0" style="stop-color:#40447E"/>
			<stop  offset="1" style="stop-color:#3C3B6B"/>
		</linearGradient>
		<path class="st12" d="M256.7,312.2L59,326.9l86.2,15.6c1,0.2,2,0.2,3,0.1l205-17.5l-93.3-12.9
			C258.8,312.1,257.8,312.1,256.7,312.2z"/>
		
			<linearGradient id="SVGID_11_" gradientUnits="userSpaceOnUse" x1="87.8522" y1="74.904" x2="303.3962" y2="74.904" gradientTransform="matrix(1 0 0 -1 0 399.91)">
			<stop  offset="0" style="stop-color:#40447E"/>
			<stop  offset="1" style="stop-color:#3C3B6B"/>
		</linearGradient>
		<polygon class="st13" points="87.9,327.3 252.5,314.9 303.4,321.9 140.2,335.2 		"/>
		<path class="st14" d="M254.3,178.7v120.9l-3,0.2l-3.8,0.2l-3.5,0.2l-18,1.1l-137.2,8.2c-0.9,0.1-1.7,0-2.6-0.1
			c-4.6-0.8-8.4-4.2-9.8-8.6c-0.3-1-0.5-2.1-0.5-3.1V173.1h173.4C252.1,173.1,254.3,175.5,254.3,178.7z"/>
		<path class="st9" d="M305.2,144.7c0-5.5-3.6-10.1-8.2-11.3l-0.5-0.1c-0.5-0.1-1-0.2-1.6-0.2l-100.2-2.5l-102.4-2.5
			c-0.2,0-0.4,0-0.7,0c-2.7,0.1-5.3,1-7.4,2.6l-0.1,0.1c-0.3,0.2-0.6,0.5-0.8,0.7l0,0c-0.2,0.1-0.3,0.3-0.5,0.5
			c-2.1,2.3-3.3,5.3-3.3,8.4v9.1l0,0v142.4c0,1.1,0.1,2.1,0.4,3.1c0.2,0.6,0.4,1.2,0.6,1.7c1.6,3.7,5.1,6.3,9.1,6.9
			c0.9,0.1,1.7,0.2,2.6,0.1l155.2-9.3l0,0l47.3-2.8c5.7-0.3,10.3-5.7,10.3-11.9v-127l0,0L305.2,144.7z"/>
		<path class="st10" d="M297.9,133.1l-202.4-5c-6.8-0.2-12.5,5.1-12.7,11.9c0,0.1,0,0.3,0,0.4v151.4c-0.1,6.5,5.2,11.9,11.7,11.9
			c0.3,0,0.7,0,1,0l202.4-12.1c5.7-0.3,10.2-5.7,10.2-11.9V144.6C308.2,138.4,303.6,133.3,297.9,133.1z"/>
		
			<linearGradient id="SVGID_12_" gradientUnits="userSpaceOnUse" x1="268.0667" y1="33.1765" x2="254.3446" y2="85.4728" gradientTransform="matrix(1 0 0 -1 -41.28 368.95)">
			<stop  offset="0" style="stop-color:#FFFFFF"/>
			<stop  offset="1" style="stop-color:#EBEFF2"/>
		</linearGradient>
		<path class="st15" d="M95.5,299.7c-4.4,0.3-8.3-3-8.6-7.5c0-0.2,0-0.4,0-0.6V140.5c0-4.6,3.8-8.4,8.4-8.4c0.1,0,0.2,0,0.2,0
			l202.4,4.6c3.9,0.1,7,3.6,7,7.8v135.3c0,4.2-3.1,7.8-7,8.1L95.5,299.7z"/>
		<path class="st9" d="M297.9,133.1l-202.4-5c-6.8-0.2-12.5,5.1-12.7,11.9c0,0.1,0,0.3,0,0.4v9.1l225.3,3.2v-8.1
			C308.2,138.4,303.6,133.3,297.9,133.1z"/>
		<path class="st10" d="M105.4,139.6c0,2.2-1.8,4-4,4c0,0-0.1,0-0.1,0c-2.3-0.1-4.1-1.9-4.1-4.2c0-2.2,1.8-4,4-4c0,0,0.1,0,0.1,0
			C103.6,135.5,105.4,137.4,105.4,139.6z"/>
		<path class="st10" d="M119.7,139.9c0,2.2-1.8,4-4,4c0,0-0.1,0-0.1,0c-2.3-0.1-4.1-1.9-4.1-4.2c0-2.2,1.7-4,3.9-4c0,0,0.1,0,0.1,0
			C117.9,135.8,119.7,137.7,119.7,139.9z"/>
		<path class="st10" d="M133.8,140.2c0,2.2-1.7,3.9-3.9,4c0,0-0.1,0-0.1,0c-2.2-0.1-4-1.9-4-4.1c0-2.2,1.7-3.9,3.9-4
			c0,0,0.1,0,0.1,0C132,136.1,133.8,137.9,133.8,140.2z"/>
		<polygon class="st10" points="296.2,280.4 97.6,291.1 97.6,172.4 296.2,173.1 		"/>
		<polygon class="st9" points="206,161.1 97.6,160.1 97.6,166.5 206,167.2 		"/>
		<polygon class="st9" points="285.2,161.8 285.2,167.7 296.2,167.7 296.2,161.9 		"/>
		<g class="st16">
			<path class="st10" d="M220.7,209.7c-23.6-34.1-64.7-22.4-91-60.5c-4.3-6.3-7.8-13.2-10.2-20.5l-23.9-0.6
				c-6.8-0.2-12.5,5.1-12.7,11.9c0,0.1,0,0.3,0,0.4v151.4c-0.1,6.5,5.2,11.9,11.7,11.9c0.3,0,0.7,0,1,0l155.1-9.3
				c-4.8-6.9-8.9-14.2-12.3-21.9C224.7,241.3,234.9,230.2,220.7,209.7z"/>
		</g>
		<g>
			<defs>
				<polygon id="SVGID_13_" points="119.2,290.5 249.7,282.9 337.9,181.7 280.1,90.3 46.8,129.7 79.2,282.1 				"/>
			</defs>
			<clipPath id="SVGID_14_">
				<use xlink:href="#SVGID_13_"  style="overflow:visible;"/>
			</clipPath>
			<g class="st17">
				
					<linearGradient id="SVGID_15_" gradientUnits="userSpaceOnUse" x1="-954.3539" y1="-152.8571" x2="-938.581" y2="-152.8571" gradientTransform="matrix(-1 9.000000e-02 -9.000000e-02 -1 -770.859 354.2523)">
					<stop  offset="0" style="stop-color:#444B8C"/>
					<stop  offset="1" style="stop-color:#26264F"/>
				</linearGradient>
				<path class="st18" d="M180.3,418.8c-0.8,0.8-0.9,2.6-0.9,3.8c0,0.3,0,0.7,0,1c0.5,1.3,3.1,1.4,7.1,1.7c6.4,0.4,8.3,0.8,8.7-0.1
					s-0.8-2.4-0.9-2.5c-0.7-0.9-1.6-1.2-3.2-1.6c-3-0.9-5.1-1.4-5.7-1.5C181.5,418.5,180.8,418.3,180.3,418.8z"/>
				
					<linearGradient id="SVGID_16_" gradientUnits="userSpaceOnUse" x1="-1414.1742" y1="-100.1591" x2="-1406.9893" y2="-85.2834" gradientTransform="matrix(-1 7.000000e-02 -7.000000e-02 -1 -1234.2169 422.1941)">
					<stop  offset="0" style="stop-color:#FFC444"/>
					<stop  offset="1" style="stop-color:#F36F56"/>
				</linearGradient>
				<path class="st19" d="M184.8,412.3l0.2,7.5c-0.2,0.3-2.4,1.3-4.1,0.2l-1.3-7.5L184.8,412.3z"/>
				
					<linearGradient id="SVGID_17_" gradientUnits="userSpaceOnUse" x1="-1185.536" y1="-202.4361" x2="-1168.7305" y2="-202.4361" gradientTransform="matrix(-0.98 0.21 -0.21 -0.98 -954.8827 470.5142)">
					<stop  offset="0" style="stop-color:#444B8C"/>
					<stop  offset="1" style="stop-color:#26264F"/>
				</linearGradient>
				<path class="st20" d="M234.1,418.9c-1.1,1.1-1.4,3.3-0.6,4.4c0.8,1.1,2.2,0.4,6,0.8c4.1,0.4,5.1,1.5,7.9,0.9
					c1.1-0.2,3.1-0.9,3.1-1.7c0-0.6-1-1-4.3-2.4c-4.7-2-4.6-2.1-5.6-2.3C238.1,418.1,235.5,417.5,234.1,418.9z"/>
				
					<linearGradient id="SVGID_18_" gradientUnits="userSpaceOnUse" x1="-1343.4673" y1="-159.6049" x2="-1336.1113" y2="-144.3945" gradientTransform="matrix(-0.99 0.15 -0.15 -0.99 -1115.1459 463.9983)">
					<stop  offset="0" style="stop-color:#FFC444"/>
					<stop  offset="1" style="stop-color:#F36F56"/>
				</linearGradient>
				<path class="st21" d="M237,412.3l1.7,7.1c-0.2,0.4-2.3,1.4-4,0.5l-2.7-7L237,412.3z"/>
				
					<linearGradient id="SVGID_19_" gradientUnits="userSpaceOnUse" x1="-696.1796" y1="866.8555" x2="-704.9241" y2="832.0911" gradientTransform="matrix(-0.4 -0.92 0.92 -0.4 -787.219 -118.8418)">
					<stop  offset="0" style="stop-color:#FFC444"/>
					<stop  offset="1" style="stop-color:#F36F56"/>
				</linearGradient>
				<path class="st22" d="M273.3,184.5c2-2.1,4.7-3.3,7.6-3.3c5-0.2,11.8-3.1,14.7-3.4c0.7-0.1,1.1-0.3,1.1-0.5
					c0.1-0.5-3.1-1.3-6-1.4c-5.1-0.2-8.1,1.8-8.7,0.8c-0.8-1.1,2.5-4.2,1.9-4.9c-0.5-0.5-2.7,1.2-5.1,2.2c-1.7,0.7-8.3,8.7-8.3,8.7
					L273.3,184.5z"/>
				
					<linearGradient id="SVGID_20_" gradientUnits="userSpaceOnUse" x1="304.4455" y1="213.9184" x2="261.4706" y2="170.6445" gradientTransform="matrix(1 0 0 -1 -41.28 368.95)">
					<stop  offset="0" style="stop-color:#FF9085"/>
					<stop  offset="1" style="stop-color:#FB6FBB"/>
				</linearGradient>
				<path class="st23" d="M197.5,179.2c-0.3-3.6-1-14.6,4.8-17.9c6-3.4,15.5,3.3,19.4,6.1c16.4,11.6,16.8,25.7,25.9,27.2
					c4.1,0.7,10.6-1,20.3-13.8l5.5,3.7c-0.3,14.3-7.7,27.2-19.4,32.9c-19.9,9.6-39.7-7.4-42.1-9.5
					C210.5,206.6,198.6,195.8,197.5,179.2z"/>
				
					<linearGradient id="SVGID_21_" gradientUnits="userSpaceOnUse" x1="306.7184" y1="-29.1863" x2="258.8585" y2="78.696" gradientTransform="matrix(1 0 0 -1 -41.28 368.95)">
					<stop  offset="0" style="stop-color:#444B8C"/>
					<stop  offset="1" style="stop-color:#26264F"/>
				</linearGradient>
				<path class="st24" d="M223.3,366.9h20.3c-1.2-7-2.3-14.2-3.2-21.6c-3.6-26.9-5.6-54-5.9-81.1l-38.5,8.1
					c3.2,25.2,9.2,44,14.2,56.8C215.4,342.4,220.4,351.4,223.3,366.9z"/>
				
					<linearGradient id="SVGID_22_" gradientUnits="userSpaceOnUse" x1="306.7184" y1="-29.1863" x2="258.8585" y2="78.696" gradientTransform="matrix(1 0 0 -1 -41.28 368.95)">
					<stop  offset="0" style="stop-color:#444B8C"/>
					<stop  offset="1" style="stop-color:#26264F"/>
				</linearGradient>
				<path class="st25" d="M223.3,366.9h13.3c-2.7-7.2-5-8-7-18.5c-3.4-18.4,2.5-22.4-2.4-37c-4-11.8-9.3-13.3-9.5-21.5
					c-0.3-10.9,9.1-20,16.6-25.8l-38.5,8.1c3.2,25.2,9.2,44,14.2,56.8C215.4,342.4,220.4,351.4,223.3,366.9z"/>
				
					<linearGradient id="SVGID_23_" gradientUnits="userSpaceOnUse" x1="-76.8398" y1="-141.829" x2="-124.6996" y2="-33.9466" gradientTransform="matrix(0.99 -0.12 -0.12 -0.99 299.6789 251.0512)">
					<stop  offset="0" style="stop-color:#444B8C"/>
					<stop  offset="1" style="stop-color:#26264F"/>
				</linearGradient>
				<path class="st26" d="M175.8,366.9h23.7c0.1-2.8,0.2-5.6,0.3-8.4c1.1-32,2.4-63.3,4.1-94.2c-25.7-1.2-34.5,7.9-37.3,11.5
					c-8.7,11.2-4.8,29.2,3,65.2C172.4,354.3,174.4,359.4,175.8,366.9z"/>
				
					<linearGradient id="SVGID_24_" gradientUnits="userSpaceOnUse" x1="-3427.7551" y1="250.0454" x2="-3259.188" y2="135.5477" gradientTransform="matrix(-1 0 0 -1 -3202.8198 368.95)">
					<stop  offset="0" style="stop-color:#311944"/>
					<stop  offset="1" style="stop-color:#6B3976"/>
				</linearGradient>
				<path class="st27" d="M215.7,179.8c3.2-2.1,0.3-8,0.1-20.9c-0.2-15.7,4-18.7,0.6-24.9c-4.1-7.6-14.4-10.7-21.3-10.8
					c-1.5,0-1.9-0.9-14.5,2.4c-22.8,5.9-28.5-0.4-38.7,5.9c-9.9,6.1-5.5,12.8-15.1,19.9c-15.5,11.6-31.9-0.9-42.9,8.8
					c-10.5,9.2-10.7,32.6,0.3,45.4c12.5,14.5,35.1,10.1,50.2,7.3c3.2-0.6,19.3-4,36-16.3c7.5-5.5,14.1-12.1,19.7-19.5
					c1.1-1.4,2.7-2.3,4.4-2.6c2.3-0.2,4.2,1.2,5.1,1.8C204.3,179.6,212.6,181.8,215.7,179.8z"/>
				
					<linearGradient id="SVGID_25_" gradientUnits="userSpaceOnUse" x1="272.6269" y1="167.2853" x2="197.565" y2="89.5032" gradientTransform="matrix(1 0 0 -1 -41.28 368.95)">
					<stop  offset="0" style="stop-color:#FF9085"/>
					<stop  offset="1" style="stop-color:#FB6FBB"/>
				</linearGradient>
				<path class="st28" d="M204.2,162.8c0,0-26.5-7.7-38.1,5.5c-1.8,2.1-3.7,5.1-5.1,11.8c-4.9,23.4,8.2,31.8,6.4,53.1
					c-0.2,2.4-2.5,25.8-19.5,40.2c-8.1,6.8-17.3,9.8-17.1,15.8c0.2,4.4,5.1,8.3,9.7,9.7c8.8,2.7,14-4.7,25.6-7.3
					c12.2-2.7,15,3.6,34.1,6.1c6.4,0.8,35.5,4.7,42.6-7.3c3.1-5.1-0.7-8.3-6.1-29.2c-0.5-2.1-9.9-38.9-7-54.9
					c0.7-4.8,1-9.6,0.9-14.5c-0.1-2.1-0.4-4.3-0.8-6.4c-1.9-7.2-5.4-13.8-10.4-19.4C218.2,164.7,216.9,163.3,204.2,162.8z"/>
				<g class="st29">
					
						<linearGradient id="SVGID_26_" gradientUnits="userSpaceOnUse" x1="208.0629" y1="42.261" x2="264.653" y2="190.8752" gradientTransform="matrix(1 0 0 -1 -41.28 368.95)">
						<stop  offset="0" style="stop-color:#FF9085"/>
						<stop  offset="1" style="stop-color:#FB6FBB"/>
					</linearGradient>
					<path class="st30" d="M166,168.3c-2.7,0-4.8,10.3-5.1,11.8c-4.9,23.4,8.2,31.8,6.4,53.1c-0.2,2.4-2.5,25.8-19.5,40.2
						c-8.1,6.8-17.3,9.8-17.1,15.8c0.2,4.4,5.1,8.3,9.7,9.7c8.8,2.7,14-4.7,25.6-7.3c12.2-2.7,15,3.6,34.1,6.1
						c6.4,0.8,35.5,4.7,42.6-7.3c0.7-1.2,1-1.8,0.9-2.3c-0.8-5.8-27.7-0.5-34.5-11.1c-6.6-10.4,10.5-29,4.8-34.6
						c-4.5-4.4-15.9,6.1-25,1.2c-5.7-3.1-6.7-10-9.5-25C174.6,192.2,170.1,168.3,166,168.3z"/>
				</g>
				
					<linearGradient id="SVGID_27_" gradientUnits="userSpaceOnUse" x1="2106.5427" y1="595.0161" x2="2108.2661" y2="640.9106" gradientTransform="matrix(0.9839 0.1785 0.1785 -0.9839 -1982.6407 391.7183)">
					<stop  offset="0" style="stop-color:#FFC444"/>
					<stop  offset="1" style="stop-color:#F36F56"/>
				</linearGradient>
				<path class="st31" d="M195.7,145.6c0.4,1.7,2.2,10.7-1.5,13c-0.8,0.5-2.3,0.8-5.4,1.4c-2,0.4-3.7,0.6-4.9,0.7
					c0.2,2.2,1.1,4.4,2.4,6.2c4.9,6.3,14.7,4.6,16.1,4.4c4.9-0.9,9.8-2.4,10.9-3.3c1.5-1,2.8-2.2,4-3.6c-1.9-0.9-5.7-3.3-8.3-4.1
					c-1.8-0.5-3.6-1-5.4-1.3l-0.8-5.2C200.4,151,198,148.3,195.7,145.6z"/>
				
					<linearGradient id="SVGID_28_" gradientUnits="userSpaceOnUse" x1="2106.0251" y1="635.5353" x2="2105.2917" y2="576.118" gradientTransform="matrix(0.9839 0.1785 0.1785 -0.9839 -1982.6407 391.7183)">
					<stop  offset="0" style="stop-color:#FFC444"/>
					<stop  offset="1" style="stop-color:#F36F56"/>
				</linearGradient>
				<path class="st32" d="M195.5,150.1c0,0,0.7,6.6,7.1,7.8c5.7,1,10.1-12.8,7.1-16.4c-1.5-1.5-3.4-2.3-5.5-2.3
					c-1.5,0-6.5,1.9-7.1,6.9c-1-1-2.2-1.3-2.8-0.9c-0.8,0.6-0.4,2.1-0.3,2.5C194.2,148.7,194.7,149.5,195.5,150.1z"/>
				
					<linearGradient id="SVGID_29_" gradientUnits="userSpaceOnUse" x1="232.1944" y1="147.7553" x2="257.4168" y2="51.3163" gradientTransform="matrix(1 0 0 -1 -41.28 368.95)">
					<stop  offset="0" style="stop-color:#444B8C"/>
					<stop  offset="1" style="stop-color:#26264F"/>
				</linearGradient>
				<path class="st33" d="M205.7,257.1l17.9-44.3c1.1-2.8-0.2-6.1-3.1-7.2c-0.1-0.1-0.3-0.1-0.4-0.1l-35.3-11.3
					c-2-0.4-4.1,0.6-4.9,2.6l-18.3,46.7c-0.8,2.2,0.3,4.7,2.5,5.5c0.1,0,0.2,0.1,0.3,0.1l36.2,10.5
					C202.7,260.1,204.9,259.1,205.7,257.1z"/>
				
					<linearGradient id="SVGID_30_" gradientUnits="userSpaceOnUse" x1="253.9471" y1="143.3693" x2="248.6206" y2="111.3962" gradientTransform="matrix(1 0 0 -1 -41.28 368.95)">
					<stop  offset="0" style="stop-color:#FFC444"/>
					<stop  offset="0.23" style="stop-color:#FCB048"/>
					<stop  offset="1" style="stop-color:#F36F56"/>
				</linearGradient>
				<path class="st34" d="M203.4,231.6c0,0,3.6-2.4,3.6-4.8c0-2.4,2.4-6,3.6-6s1.2,1.2,0,3.6s4.8,1.2,7.2-1.2
					c2.4-2.4,4.8-2.4,3.6-1.2c-1.1,1-1.9,2.2-2.4,3.6c0,0-2.4,9.5-12.8,8.9L203.4,231.6z"/>
				
					<linearGradient id="SVGID_31_" gradientUnits="userSpaceOnUse" x1="249.1915" y1="189.902" x2="174.1296" y2="112.1199" gradientTransform="matrix(1 0 0 -1 -41.28 368.95)">
					<stop  offset="0" style="stop-color:#FF9085"/>
					<stop  offset="1" style="stop-color:#FB6FBB"/>
				</linearGradient>
				<path class="st35" d="M178.4,163.7c-7.6-3.4-20.4,10.6-22.6,13.1c-12,13.2-29.1,43.1-15.5,60.8c11.3,14.7,41.7,18,66.8-1.2
					l-3.6-7.2c-2.6,0.9-19.7,6.9-32.2-2.4c-2.6-2-3.8-5.3-4.3-9.9c-0.8-8.5,9.2-10.8,15-23.5C187.1,182.2,185,166.6,178.4,163.7z"/>
			</g>
		</g>
		<path class="st10" d="M178,269.4c-0.1,4.4-3.5,8-8,8.3c-4.2,0.3-7.8-2.9-8-7.1c0-0.2,0-0.3,0-0.5c0.1-4.5,3.6-8.1,8-8.3
			c4.2-0.2,7.7,3,8,7.1C178,269.2,178,269.3,178,269.4z"/>
		<path class="st10" d="M209.8,268.1c0,4.3-3.4,7.9-7.7,8.1c-4.1,0.2-7.5-2.9-7.8-7c0-0.2,0-0.3,0-0.5c0-4.3,3.4-7.9,7.8-8.1
			c4.1-0.2,7.5,3,7.7,7C209.8,267.8,209.8,267.9,209.8,268.1z"/>
		<path class="st10" d="M240.6,266.7c0,4.2-3.3,7.7-7.5,8c-4,0.2-7.3-2.9-7.5-6.9c0-0.1,0-0.3,0-0.4c0-4.2,3.3-7.7,7.5-8
			c4-0.1,7.3,3,7.4,7C240.6,266.5,240.6,266.6,240.6,266.7z"/>
		
			<linearGradient id="SVGID_32_" gradientUnits="userSpaceOnUse" x1="322.2464" y1="254.4661" x2="316.8701" y2="274.9602" gradientTransform="matrix(1 0 0 -1 0 399.91)">
			<stop  offset="0" style="stop-color:#E38DDD"/>
			<stop  offset="1" style="stop-color:#9571F6"/>
		</linearGradient>
		<path class="st36" d="M282.5,62.6h53.8c2.1,0,3.9,1.7,3.9,3.9v59.9c0,2.1-1.7,3.9-3.9,3.9h-53.8c-2.1,0-3.9-1.7-3.9-3.9V66.5
			C278.6,64.3,280.3,62.6,282.5,62.6z"/>
		
			<linearGradient id="SVGID_33_" gradientUnits="userSpaceOnUse" x1="271.9301" y1="277.368" x2="328.3209" y2="209.9611" gradientTransform="matrix(1 0 0 -1 0 399.91)">
			<stop  offset="0" style="stop-color:#FFC444"/>
			<stop  offset="1" style="stop-color:#F36F56"/>
		</linearGradient>
		<path class="st37" d="M243.5,86.9h53.8c2.1,0,3.9,1.7,3.9,3.9v59.9c0,2.1-1.7,3.9-3.9,3.9h-53.8c-2.1,0-3.9-1.7-3.9-3.9V90.8
			C239.6,88.6,241.3,86.9,243.5,86.9z"/>
		<path class="st10" d="M278.4,133.8h-16.1l-3.1,9.2h-9.8l16.6-44.6h8.5l16.7,44.6h-9.8L278.4,133.8z M264.8,126.4h11.1l-5.6-16.7
			L264.8,126.4z"/>
		
			<linearGradient id="SVGID_34_" gradientUnits="userSpaceOnUse" x1="238.7147" y1="249.5793" x2="295.1055" y2="182.1653" gradientTransform="matrix(1 0 0 -1 0 399.91)">
			<stop  offset="0" style="stop-color:#FFC444"/>
			<stop  offset="1" style="stop-color:#F36F56"/>
		</linearGradient>
		<polygon class="st38" points="243,136.5 226.4,154.5 249.5,154.5 		"/>
	</g>
</g>
</svg>
