<svg xmlns="http://www.w3.org/2000/svg" width="60.006" height="60" viewBox="0 0 60.006 60">
  <g id="Online_Shopping-Shopping-Smartphone-Shopping_Bag-Commerce" data-name="Online Shopping-Shopping-Smartphone-Shopping Bag-Commerce" transform="translate(-2 -2)">
    <path id="Path_11957" data-name="Path 11957" d="M18,6h2V8H18Z" fill="#1ab2a9"/>
    <path id="Path_11958" data-name="Path 11958" d="M22,6h8V8H22Z" fill="#1ab2a9"/>
    <path id="Path_11959" data-name="Path 11959" d="M41,45a5.006,5.006,0,0,1-5,5H17.732l3.438-5.954A2.957,2.957,0,0,0,21,45a3,3,0,0,0,3,3h4a3,3,0,1,0,0-6H24a2.992,2.992,0,0,0-2.432,1.257,3.99,3.99,0,0,0-7.13-3.551l-3.4,5.892A4.973,4.973,0,0,1,11,45V9a5.006,5.006,0,0,1,5-5H36a5.02,5.02,0,0,1,4.33,2.5l1.731-1A7.028,7.028,0,0,0,36,2H16A7.008,7.008,0,0,0,9,9V28.3a3,3,0,0,0-1.448,1.441L3.013,39.588A10.857,10.857,0,0,0,2,44.2V62H4V44.2a8.863,8.863,0,0,1,.828-3.771L9,31.377V45a6.973,6.973,0,0,0,.889,3.411,1,1,0,0,0,1.781.089l4.5-7.794a2,2,0,1,1,3.464,2l-4.5,7.794a1,1,0,0,0,.009,1.016l2.142,3.56A5.018,5.018,0,0,1,18,57.654V61.99h2V57.654a7.011,7.011,0,0,0-1-3.607L17.769,52H36a7.008,7.008,0,0,0,7-7V40H41ZM24,44h4a1,1,0,0,1,0,2H24a1,1,0,0,1,0-2Z" fill="#1ab2a9"/>
    <path id="Path_11960" data-name="Path 11960" d="M59.11,13.82A16,16,0,0,0,31.14,28.93l-3.38,5.73a1,1,0,0,0,.04,1.08,1.019,1.019,0,0,0,1.01.41l6.53-1.22a15.939,15.939,0,0,0,7.88,3.83,16.6,16.6,0,0,0,2.79.24,16,16,0,0,0,13.1-25.18Zm.68,11.61a14,14,0,0,1-23.45,7.7,1.011,1.011,0,0,0-.69-.27,1.087,1.087,0,0,0-.18.01l-4.87.91,2.52-4.26a1.042,1.042,0,0,0,.06-.91,14,14,0,1,1,26.61-3.18Z" fill="#1ab2a9"/>
    <path id="Path_11961" data-name="Path 11961" d="M53,17H50V16a4,4,0,0,0-8,0v1H39a1,1,0,0,0-1,1V30a3.009,3.009,0,0,0,3,3H51a3.009,3.009,0,0,0,3-3V18A1,1,0,0,0,53,17Zm-9-1a2,2,0,0,1,4,0v1H44Zm8,14a1,1,0,0,1-1,1H41a1,1,0,0,1-1-1V29H52Zm0-3H40V19h2v2h2V19h4v2h2V19h2Z" fill="#1ab2a9"/>
    <path id="Path_11962" data-name="Path 11962" d="M22.293,15.293l-1.54,1.54a5.015,5.015,0,1,0,1.414,1.414l1.54-1.54ZM21,21a3,3,0,1,1-3-3,2.951,2.951,0,0,1,1.285.3l-2.992,2.992,1.414,1.414L20.7,19.715A2.951,2.951,0,0,1,21,21Z" fill="#1ab2a9"/>
    <path id="Path_11963" data-name="Path 11963" d="M25,18h4v2H25Z" fill="#1ab2a9"/>
    <path id="Path_11964" data-name="Path 11964" d="M25,22h4v2H25Z" fill="#1ab2a9"/>
  </g>
</svg>
