<?xml version="1.0" encoding="utf-8"?>
<!-- Generator: Adobe Illustrator 24.2.3, SVG Export Plug-In . SVG Version: 6.00 Build 0)  -->
<svg version="1.1" id="Layer_1" xmlns="http://www.w3.org/2000/svg" xmlns:xlink="http://www.w3.org/1999/xlink" x="0px" y="0px"
	 viewBox="0 0 400 400" style="enable-background:new 0 0 400 400;" xml:space="preserve">
<style type="text/css">
	.st0{fill:#75D8CC;}
	.st1{fill:url(#SVGID_1_);}
	.st2{clip-path:url(#SVGID_3_);}
	.st3{opacity:0.7;}
	.st4{fill:#FCFDFE;}
	.st5{fill:#107A6B;}
	.st6{clip-path:url(#SVGID_5_);}
	.st7{clip-path:url(#SVGID_7_);}
	.st8{fill:url(#SVGID_8_);}
	.st9{clip-path:url(#SVGID_10_);}
	.st10{fill:#BEB8F2;}
	.st11{fill:url(#SVGID_11_);}
	.st12{fill:url(#SVGID_12_);}
	.st13{fill:url(#SVGID_13_);}
	.st14{fill:#DE8BDF;}
	.st15{opacity:0.3;fill:url(#SVGID_14_);enable-background:new    ;}
	.st16{fill:url(#SVGID_15_);}
	.st17{fill:url(#SVGID_16_);}
	.st18{fill:url(#SVGID_17_);}
	.st19{fill:url(#SVGID_18_);}
	.st20{fill:#FFFFFF;}
	.st21{fill:url(#SVGID_19_);}
	.st22{fill:url(#SVGID_20_);}
	.st23{opacity:0.5;}
	.st24{opacity:0.5;fill:#FFFFFF;enable-background:new    ;}
	.st25{fill:url(#SVGID_21_);}
	.st26{fill:url(#SVGID_22_);}
	.st27{fill:url(#SVGID_23_);}
	.st28{fill:url(#SVGID_24_);}
	.st29{opacity:0.3;fill:url(#SVGID_25_);enable-background:new    ;}
	.st30{opacity:0.3;fill:url(#SVGID_26_);enable-background:new    ;}
	.st31{fill:#D8DEE8;}
	.st32{fill:url(#SVGID_27_);}
	.st33{fill:url(#SVGID_28_);}
	.st34{fill:url(#SVGID_29_);}
	.st35{opacity:0.3;fill:#D8DEE8;enable-background:new    ;}
	.st36{fill:url(#SVGID_30_);}
	.st37{fill:url(#SVGID_31_);}
	.st38{fill:url(#SVGID_32_);}
	.st39{fill:url(#SVGID_33_);}
	.st40{fill:url(#SVGID_34_);}
	.st41{opacity:0.3;fill:#FFFFFF;enable-background:new    ;}
</style>
<g>
	<g id="Layer_1_1_">
		<path class="st0" d="M205,43.4c-81.6-2.4-152.3,56.8-163,134.5c-11.7,85,52.6,161.4,131.7,173.7c98.4,15.3,193.8-72.9,185.3-168.5
			C352.4,111.1,287.9,45.9,205,43.4z"/>
		
			<linearGradient id="SVGID_1_" gradientUnits="userSpaceOnUse" x1="290.1391" y1="2.9688" x2="59.8264" y2="401.2231" gradientTransform="matrix(1 0 0 -1 -44.85 364.18)">
			<stop  offset="0" style="stop-color:#FFC444"/>
			<stop  offset="1" style="stop-color:#F36F56"/>
		</linearGradient>
		<path class="st1" d="M212.8,288.2c4.4,5.4,8.6,9.3,13.1,14.3c-27.9,8.5-53.2,21.8-81.4,30.4c6.2-37.6,17.9-57.4-7.7-93.4
			c-12-16.9-40.6-46.6-39.9-67.7c0.9-24,17.7-24.3,6.8-41.4c-17-26.9-14.4-62.9,29.8-65.5c43.6-2.6,81.6,104.3,70.1,141.6
			C200.2,240.1,190.1,260.2,212.8,288.2z"/>
		<g>
			<defs>
				<path id="SVGID_2_" d="M212.8,288.2c4.4,5.4,8.6,9.3,13.1,14.3c-27.9,8.5-53.2,21.8-81.4,30.4c6.2-37.6,17.9-57.4-7.7-93.4
					c-12-16.9-40.6-46.6-39.9-67.7c0.9-24,17.7-24.3,6.8-41.4c-17-26.9-14.4-62.9,29.8-65.5c43.6-2.6,81.6,104.3,70.1,141.6
					C200.2,240.1,190.1,260.2,212.8,288.2z"/>
			</defs>
			<clipPath id="SVGID_3_">
				<use xlink:href="#SVGID_2_"  style="overflow:visible;"/>
			</clipPath>
			<g class="st2">
				<g class="st3">
					<path class="st4" d="M182,315.1l0.6-0.1c-1.6-10.6-2.4-21.5-3.2-32l-0.3-4c-0.6-8.5-1.4-16-2-22.7c-0.4-3.7-0.7-7.3-1-10.7
						c-0.9-10.5-1.5-17.9-1.9-21.5l-0.2-2.4c-2.5-28.8-16.6-67-24.2-87.6c-0.8-2.2-1.5-4.2-2.2-5.9c-10.6-29.4-18.1-61.2-22.3-94.7
						l-0.6,0.1c4.3,33.5,11.8,65.4,22.4,94.8c0.6,1.7,1.3,3.7,2.2,5.9c7.6,20.5,21.6,58.7,24.1,87.4l0.2,2.4
						c0.3,3.7,0.9,11,1.9,21.5c0.3,3.4,0.6,7,1,10.7c0.6,6.7,1.4,14.2,2,22.7l0.3,4C179.6,293.6,180.4,304.5,182,315.1z"/>
					<path class="st4" d="M177.7,261.8l0.6-0.1c-2.6-19-13.2-40.2-30.9-61.4c-14.7-17.7-33.7-34.7-52.3-46.7l-0.3,0.5
						C130.9,177.5,172.2,221.1,177.7,261.8z"/>
					<path class="st4" d="M150.6,137.8l0.5-0.4c-9.4-13.6-20.6-26.1-31.4-38.2c-7.4-8.3-15-16.8-22.1-25.7l-0.5,0.4
						c7,8.9,14.7,17.4,22.1,25.7C130.1,111.7,141.3,124.2,150.6,137.8z"/>
					<path class="st4" d="M167.7,188.5c0.9-23,12.6-53.3,25-64.9l-0.4-0.5c-12.5,11.7-24.2,42.3-25.2,65.4L167.7,188.5z"/>
				</g>
			</g>
		</g>
		<path class="st5" d="M246.5,202.9c1.8,33-18.1,31-43.6,29.4c11.7,28.5,22.1,56.7,32.5,85.3c17.1,0.8,29.3,1,33.5-19.3
			c4.8-23,6.7-36.4,29.9-47.8c23.2-11.4,37.1-34.2,22.8-55.7c-15.1-22.7-2-60.6-27.5-73.2C249.7,99.5,244.7,168.5,246.5,202.9z"/>
		<path class="st5" d="M246.5,202.9c1.8,33-18.1,31-43.6,29.4c11.7,28.5,22.1,56.7,32.5,85.3c17.1,0.8,29.3,1,33.5-19.3
			c4.8-23,6.7-36.4,29.9-47.8c23.2-11.4,37.1-34.2,22.8-55.7c-15.1-22.7-2-60.6-27.5-73.2C249.7,99.5,244.7,168.5,246.5,202.9z"/>
		<g>
			<defs>
				<path id="SVGID_4_" d="M246.5,202.9c1.8,33-18.1,31-43.6,29.4c11.7,28.5,22.1,56.7,32.5,85.3c17.1,0.8,29.3,1,33.5-19.3
					c4.8-23,6.7-36.4,29.9-47.8c23.2-11.4,37.1-34.2,22.8-55.7c-15.1-22.7-2-60.6-27.5-73.2C249.7,99.5,244.7,168.5,246.5,202.9z"/>
			</defs>
			<clipPath id="SVGID_5_">
				<use xlink:href="#SVGID_4_"  style="overflow:visible;"/>
			</clipPath>
			<g class="st6">
				<g>
					<path class="st5" d="M227.8,279.5c21.2-18.1,38.4-33.8,50.3-56.8c11.4-22,14.2-43.3,9.5-71.1c-2.4-14.4-2.6-25-2.5-39.5h-0.6
						c-0.1,14.6,0,25.2,2.5,39.6c4.7,27.7,1.9,48.8-9.5,70.7c-11.9,22.9-29,38.5-50.2,56.6L227.8,279.5z"/>
					<path class="st5" d="M268.6,310.5l0.3-0.5c-7-5.2-14.7-9.3-22.9-12.3c-4.2-1.4-8.5-2.3-12.8-2.7l-0.1,0.6
						c4.3,0.4,8.6,1.3,12.7,2.7C254,301.2,261.7,305.3,268.6,310.5z"/>
					<path class="st5" d="M270.1,236.3c16-13.7,38.2-21.8,62.5-22.7V213c-24.5,1-46.8,9.1-62.9,22.9L270.1,236.3z"/>
					<path class="st5" d="M289.1,182.2l0.6-0.1c-0.4-3.1-12.7-30.4-16.4-38.7c-7.7-17.2-16.3-35.5-17.2-36.6l-0.4,0.4
						c0.8,0.9,8.6,17.5,17.1,36.4C280.5,160.8,288.8,179.8,289.1,182.2z"/>
				</g>
			</g>
		</g>
		<g>
			<defs>
				<rect id="SVGID_6_" x="42.2" y="165.7" width="214.1" height="175.4"/>
			</defs>
			<clipPath id="SVGID_7_">
				<use xlink:href="#SVGID_6_"  style="overflow:visible;"/>
			</clipPath>
			<g class="st7">
				
					<linearGradient id="SVGID_8_" gradientUnits="userSpaceOnUse" x1="230.6504" y1="136.4779" x2="176.2229" y2="-18.2041" gradientTransform="matrix(1 0 0 -1 -44.85 364.18)">
					<stop  offset="0" style="stop-color:#E38DDD"/>
					<stop  offset="1" style="stop-color:#9571F6"/>
				</linearGradient>
				<path class="st8" d="M219.7,415.7c12.6-6.3,25.1-12.9,37.4-19.7c0.3,0.1-3.9-25.2-21.9-32.8c-35.5-14.5-25.1-42.6-24.5-57.3
					c1.7-21-9.6-39-31.8-31.4c-24.8,8.1-41.3-24.1-47.9-56.4c-1.9-16.2-25.4-28.3-43.9-26.3c-19,1.6-32.9,17.3-27.6,49
					c4.3,37.5,42.2,47.4,59.6,60.7c17.2,13-3.7,36,22.4,43.7c22.2,7.1,47.6,8.9,45.6,28.6C184.8,393.5,191.6,406.4,219.7,415.7z"/>
				<g>
					<defs>
						<path id="SVGID_9_" d="M219.7,415.7c12.6-6.3,25.1-12.9,37.4-19.7c0.3,0.1-3.9-25.2-21.9-32.8c-35.5-14.5-25.1-42.6-24.5-57.3
							c1.7-21-9.6-39-31.8-31.4c-24.8,8.1-41.3-24.1-47.9-56.4c-1.9-16.2-25.4-28.3-43.9-26.3c-19,1.6-32.9,17.3-27.6,49
							c4.3,37.5,42.2,47.4,59.6,60.7c17.2,13-3.7,36,22.4,43.7c22.2,7.1,47.6,8.9,45.6,28.6C184.8,393.5,191.6,406.4,219.7,415.7z"
							/>
					</defs>
					<clipPath id="SVGID_10_">
						<use xlink:href="#SVGID_9_"  style="overflow:visible;"/>
					</clipPath>
					<g class="st9">
						<g>
							<path class="st10" d="M238.4,410.6c-0.1-0.2-30.5-45.7-69.6-86.5c-5.8-6.8-11.9-13.6-17.8-20.1
								c-32.8-36.5-63.8-70.9-62-122.2l-0.8,0.1c-1.8,51.5,29.3,86.1,62.1,122.6c5.9,6.5,12,13.3,17.8,20.1
								c39.3,41.1,69.3,86,69.5,86.3L238.4,410.6z"/>
							<path class="st10" d="M121,270.1l0.5-0.6c-19.5-8.3-44.1-21.1-57.3-28.1c-10.7-5.6-10.7-5.6-11.1-5.4l0.2,0.3l-0.1,0.3
								c0.5,0.1,4.9,2.4,10.5,5.4C76.9,248.9,101.5,261.8,121,270.1z"/>
							<path class="st10" d="M110.1,253c-2-12.7-0.2-25.7,5.3-37.3c4.1-8.6,9.1-13.7,9.8-14.1l-0.1-0.2l0.2-0.4
								c-0.2,0-0.4,0.1-0.8,0.3c-4.3,3.6-19.6,22.9-15.2,51.9L110.1,253z"/>
							<path class="st10" d="M192.4,351.6l0.8-0.4c-15.4-29.3-0.5-67.1,6.6-82c0.2-0.4,0.4-0.8,0.5-1.2l-0.8-0.1l0.4,0l-0.4,0
								c0,0.1-0.2,0.5-0.5,1.1c-4.9,10.1-8.7,20.8-11.1,31.8C183.6,320.7,185.1,337.8,192.4,351.6z"/>
							<path class="st10" d="M124.4,333.7l-0.1-0.3v0.3l-0.4-0.2l0.2-0.4l0,0c0.5-0.2,34.2-10.6,57.5,4.9l-0.6,0.6
								C158,323.3,124.8,333.6,124.4,333.7z M124.3,333.4v-0.4V333.4z"/>
							<path class="st10" d="M233.3,403.2c-2.5-6.2-3.6-17.8,5.3-38.3c0.5-1.2,0.5-1.2,0.4-1.3l-0.8,0.4l0.4-0.2h-0.4
								c0,0.1-0.2,0.5-0.4,1c-9.1,20.7-7.9,32.5-5.3,38.8L233.3,403.2z"/>
							<path class="st10" d="M225,392.9l0.7-0.5c-7.9-9.8-29.6-11.2-41.8-11.2h-0.8L183,382h0.8C195.9,382,217.3,383.4,225,392.9z"
								/>
						</g>
					</g>
				</g>
			</g>
		</g>
		
			<linearGradient id="SVGID_11_" gradientUnits="userSpaceOnUse" x1="331.9476" y1="57.3279" x2="215.5642" y2="156.6083" gradientTransform="matrix(1 0 0 -1 -44.85 364.18)">
			<stop  offset="0" style="stop-color:#444B8C"/>
			<stop  offset="1" style="stop-color:#26264F"/>
		</linearGradient>
		<path class="st11" d="M260.6,99.6v241.6c0,3.6-3.1,4.5-6.6,4.7l-122.1,10.4l-1.9,0.1c-3.6,0.3-6.7-2.3-7-5.9c0-0.2,0-0.4,0-0.6
			V95.5c0-3.7,3-6.7,6.7-6.7c0.1,0,0.2,0,0.3,0l2.6,0.1L255,98.2C258.6,98.3,260.6,95.9,260.6,99.6z"/>
		
			<linearGradient id="SVGID_12_" gradientUnits="userSpaceOnUse" x1="-2160.9673" y1="-1101.1174" x2="-1727.8956" y2="-1117.2238" gradientTransform="matrix(6.123234e-17 -1 -1 -6.123234e-17 -910.22 -1817.4601)">
			<stop  offset="0" style="stop-color:#444B8C"/>
			<stop  offset="1" style="stop-color:#26264F"/>
		</linearGradient>
		<path class="st12" d="M264.3,99.6V341c0,3.6-2.8,6.6-6.4,7l-124.1,8.2c-3.6,0.3-6.7-2.3-7-5.9c0-0.2,0-0.4,0-0.6V95.5
			c0-3.7,3-6.7,6.8-6.7c0.1,0,0.2,0,0.3,0l124.1,4C261.5,93,264.3,96,264.3,99.6z"/>
		
			<linearGradient id="SVGID_13_" gradientUnits="userSpaceOnUse" x1="246.7641" y1="275.7368" x2="223.492" y2="-237.6851" gradientTransform="matrix(1 0 0 -1 -44.85 364.18)">
			<stop  offset="0" style="stop-color:#AA80F9"/>
			<stop  offset="1" style="stop-color:#6165D7"/>
		</linearGradient>
		<path class="st13" d="M260.4,112.8v223.8c0,3.4-2.6,6.2-6,6.5l-116.7,7.5c-3.3,0.3-6.2-2.2-6.5-5.5c0-0.2,0-0.3,0-0.5V109.7
			c0-2.3,1.2-4.4,3.2-5.5c1-0.6,2.2-0.8,3.3-0.8l116.7,3.1C257.8,106.7,260.4,109.5,260.4,112.8z"/>
		<path class="st14" d="M199.6,98.4c0,1.3-1,2.3-2.3,2.3c0,0,0,0,0,0c-1.3,0-2.3-1.1-2.3-2.4c0-1.3,1-2.3,2.3-2.3c0,0,0,0,0,0
			C198.6,96,199.6,97.1,199.6,98.4z"/>
		
			<linearGradient id="SVGID_14_" gradientUnits="userSpaceOnUse" x1="246.6152" y1="272.4293" x2="223.6301" y2="-234.5742" gradientTransform="matrix(1 0 0 -1 -44.85 364.18)">
			<stop  offset="0" style="stop-color:#AA80F9"/>
			<stop  offset="1" style="stop-color:#6165D7"/>
		</linearGradient>
		<path class="st15" d="M260.4,319.5v17.1c0,3.4-2.6,6.2-6,6.5l-116.7,7.5c-3.3,0.3-6.2-2.2-6.5-5.5c0-0.2,0-0.3,0-0.5V109.7
			c0-2.3,1.2-4.4,3.2-5.5c9.6,3.2,37.8,18.3,40,87.4C176.7,259.4,245.7,274.4,260.4,319.5z"/>
		
			<linearGradient id="SVGID_15_" gradientUnits="userSpaceOnUse" x1="251.9678" y1="192.1515" x2="512.8318" y2="527.1813" gradientTransform="matrix(1 0 0 -1 -44.85 364.18)">
			<stop  offset="0" style="stop-color:#AB316D"/>
			<stop  offset="1" style="stop-color:#792D3D"/>
		</linearGradient>
		<path class="st16" d="M300.8,58.5l-60.4-3.7c-4.2-0.2-7.8,3-8,7.2c0,0.2,0,0.4,0,0.6V119c0,4.5,3.6,8.2,8,8.2h3.4v13.9
			c0,2.1,2.5,3.1,4.5,0.8l12.6-14.5l39.9,0.1c3.7,0,6.7-3.3,6.7-7.4V66.3C307.5,62.2,304.5,58.7,300.8,58.5z"/>
		
			<linearGradient id="SVGID_16_" gradientUnits="userSpaceOnUse" x1="276.7125" y1="222.9369" x2="323.959" y2="283.6241" gradientTransform="matrix(1 0 0 -1 -44.85 364.18)">
			<stop  offset="0" style="stop-color:#FCB148"/>
			<stop  offset="5.000000e-02" style="stop-color:#FDBA46"/>
			<stop  offset="0.14" style="stop-color:#FFC244"/>
			<stop  offset="0.32" style="stop-color:#FFC444"/>
			<stop  offset="0.48" style="stop-color:#FDB946"/>
			<stop  offset="0.78" style="stop-color:#F99C4D"/>
			<stop  offset="0.87" style="stop-color:#F8924F"/>
			<stop  offset="1" style="stop-color:#F8924F"/>
		</linearGradient>
		<path class="st17" d="M302.7,126.1l-60.4-0.3c-4.5-0.1-8.1-3.8-8-8.2V61.1c-0.1-4.2,3.3-7.7,7.5-7.7c0.2,0,0.4,0,0.5,0l60.4,3.7
			c3.7,0.2,6.7,3.7,6.7,7.8v53.9C309.4,122.8,306.4,126.1,302.7,126.1z"/>
		
			<linearGradient id="SVGID_17_" gradientUnits="userSpaceOnUse" x1="328.2467" y1="244.0729" x2="297.6577" y2="321.8707" gradientTransform="matrix(1 0 0 -1 -44.85 364.18)">
			<stop  offset="0" style="stop-color:#FCB148"/>
			<stop  offset="5.000000e-02" style="stop-color:#FDBA46"/>
			<stop  offset="0.14" style="stop-color:#FFC244"/>
			<stop  offset="0.32" style="stop-color:#FFC444"/>
			<stop  offset="0.48" style="stop-color:#FDB946"/>
			<stop  offset="0.78" style="stop-color:#F99C4D"/>
			<stop  offset="0.87" style="stop-color:#F8924F"/>
			<stop  offset="1" style="stop-color:#F8924F"/>
		</linearGradient>
		<path class="st18" d="M236.5,119.1V59.7c0-2.3,1.8-4.1,4-4.1c0.1,0,0.2,0,0.3,0l63.1,3.7c2.1,0.2,3.7,2,3.6,4.2V120
			c0.1,2.1-1.5,3.8-3.6,3.9l-63.1-0.5C238.4,123.4,236.5,121.4,236.5,119.1z"/>
		
			<linearGradient id="SVGID_18_" gradientUnits="userSpaceOnUse" x1="280.7984" y1="216.1084" x2="347.0206" y2="301.1627" gradientTransform="matrix(1 0 0 -1 -44.85 364.18)">
			<stop  offset="0" style="stop-color:#FCB148"/>
			<stop  offset="5.000000e-02" style="stop-color:#FDBA46"/>
			<stop  offset="0.14" style="stop-color:#FFC244"/>
			<stop  offset="0.32" style="stop-color:#FFC444"/>
			<stop  offset="0.48" style="stop-color:#FDB946"/>
			<stop  offset="0.78" style="stop-color:#F99C4D"/>
			<stop  offset="0.87" style="stop-color:#F8924F"/>
			<stop  offset="1" style="stop-color:#F8924F"/>
		</linearGradient>
		<path class="st19" d="M245.6,139.7v-16.8l19.6,0.2l-15.7,18c-0.8,0.9-2.2,1-3.1,0.2C245.9,141,245.6,140.4,245.6,139.7z"/>
		<path class="st20" d="M261.7,90.5c0,2.5-2.1,4.5-4.6,4.5c0,0-0.1,0-0.1,0c-2.6,0-4.7-2.1-4.8-4.7c0-2.5,2.1-4.5,4.6-4.5
			c0.1,0,0.1,0,0.2,0C259.6,85.8,261.7,87.9,261.7,90.5z"/>
		<path class="st20" d="M277.7,90.9c0,2.5-2,4.4-4.5,4.4c-0.1,0-0.1,0-0.2,0c-2.5,0-4.6-2.1-4.7-4.6c0-2.5,2-4.4,4.5-4.4
			c0.1,0,0.1,0,0.2,0C275.6,86.3,277.7,88.3,277.7,90.9z"/>
		<path class="st20" d="M293.3,91.3c0,2.4-2,4.4-4.4,4.4c0,0-0.1,0-0.1,0c-2.5-0.1-4.5-2.1-4.5-4.6c0-2.4,2-4.4,4.4-4.4
			c0.1,0,0.1,0,0.2,0C291.3,86.8,293.3,88.8,293.3,91.3z"/>
		
			<linearGradient id="SVGID_19_" gradientUnits="userSpaceOnUse" x1="-3096.3792" y1="-13369.6279" x2="-3144.0559" y2="-13414.5869" gradientTransform="matrix(-1 0 0 1 -3337.2 14158.9893)">
			<stop  offset="0" style="stop-color:#311944"/>
			<stop  offset="1" style="stop-color:#893976"/>
		</linearGradient>
		<path class="st21" d="M275.8,281.8c0-11.9,10.4-21.6,22.9-21.6c12.1,0,21.7,9.2,21.7,20.5c0,11.3-9.6,21-21.7,21.6
			C286.2,302.8,275.8,293.7,275.8,281.8z"/>
		
			<linearGradient id="SVGID_20_" gradientUnits="userSpaceOnUse" x1="329.1506" y1="70.8017" x2="367.3586" y2="105.4759" gradientTransform="matrix(1 0 0 -1 -44.85 364.18)">
			<stop  offset="0" style="stop-color:#FF9085"/>
			<stop  offset="1" style="stop-color:#FB6FBB"/>
		</linearGradient>
		<path class="st22" d="M277.1,280.8c0-11.9,10.1-21.6,22.2-21.6c11.8,0,21.1,9.2,21.1,20.5s-9.3,21-21.1,21.6
			C287.3,301.9,277.1,292.7,277.1,280.8z"/>
		<g class="st23">
			<path class="st20" d="M280.6,280.7c0-10,8.5-18.1,18.7-18.1c9.9,0,17.7,7.7,17.7,17.2s-7.8,17.6-17.7,18.1
				C289.1,298.4,280.6,290.7,280.6,280.7z"/>
		</g>
		<path class="st24" d="M298.6,264.1c9.9,0,17.7,7.7,17.7,17.2c0,2.2-0.4,4.4-1.3,6.5c1.3-2.5,1.9-5.2,2-8c0-9.5-7.8-17.2-17.7-17.2
			c-7.6,0-14.5,4.6-17.4,11.6C285.1,268,291.6,264.1,298.6,264.1z"/>
		<path class="st20" d="M289,289c-0.6,0-1.2-0.2-1.6-0.6c-0.4-0.4-0.7-1-0.7-1.6v-12.3c0-1.3,1.1-2.3,2.4-2.3l20.4-0.3
			c0.6,0,1.2,0.2,1.6,0.6c0.4,0.4,0.7,1,0.7,1.6v12c0,1.2-1,2.3-2.3,2.3L289,289L289,289z M309.5,273.1l-20.4,0.3c-0.5,0-1,0.4-1,1
			v12.3c0,0.2,0.1,0.5,0.3,0.6c0.2,0.2,0.5,0.3,0.7,0.3l20.4-0.8c0.5,0,0.9-0.4,0.9-0.9v-12c0-0.2-0.1-0.4-0.3-0.6
			C309.9,273.2,309.7,273.1,309.5,273.1L309.5,273.1z"/>
		<path class="st20" d="M299.3,281.3c-0.6,0-1.2-0.2-1.7-0.6l-9.1-7.4c-0.3-0.2-0.3-0.6-0.1-0.9c0,0,0,0,0,0c0.2-0.3,0.7-0.3,1-0.1
			c0,0,0,0,0,0l9.1,7.4c0.5,0.4,1.3,0.4,1.8-0.1l8.8-7.7c0.3-0.2,0.7-0.2,1,0.1s0.2,0.7-0.1,1l-8.8,7.7
			C300.7,281.1,300,281.3,299.3,281.3z"/>
		
			<linearGradient id="SVGID_21_" gradientUnits="userSpaceOnUse" x1="247.5449" y1="322.0788" x2="176.4146" y2="255.0034" gradientTransform="matrix(1 0 0 -1 -44.85 364.18)">
			<stop  offset="0" style="stop-color:#311944"/>
			<stop  offset="1" style="stop-color:#893976"/>
		</linearGradient>
		<path class="st25" d="M196.2,48.1c6.3,6.3,6.3,16.6,0,22.9c-6.6,6.3-17,6.2-23.4-0.2c-6.5-6.2-6.7-16.4-0.5-22.9
			c0.2-0.2,0.3-0.3,0.5-0.5C179.5,41.3,189.9,41.6,196.2,48.1z"/>
		
			<linearGradient id="SVGID_22_" gradientUnits="userSpaceOnUse" x1="221.3103" y1="320.2732" x2="244.0992" y2="285.0025" gradientTransform="matrix(1 0 0 -1 -44.85 364.18)">
			<stop  offset="0" style="stop-color:#FF9085"/>
			<stop  offset="1" style="stop-color:#FB6FBB"/>
		</linearGradient>
		<path class="st26" d="M197.4,46.7c6.3,6.3,6.3,16.6,0,22.9c-6.6,6.3-17,6.2-23.5-0.2c-6.5-6.2-6.7-16.4-0.5-22.9
			c0.2-0.2,0.3-0.3,0.5-0.5C180.6,39.9,191.1,40.2,197.4,46.7z"/>
		<g class="st23">
			<path class="st20" d="M195.1,48.9c5.1,5.1,5.1,13.4,0,18.5c-5.3,5.1-13.7,5-18.9-0.2c-5.2-5-5.4-13.2-0.4-18.4
				c0.1-0.1,0.3-0.3,0.4-0.4C181.6,43.4,190,43.7,195.1,48.9z"/>
		</g>
		<path class="st24" d="M195.1,48.9c-5.1-5.3-13.5-5.5-18.9-0.5c-0.1,0-0.1,0.1-0.1,0.1c5.4-3.5,12.5-2.6,17,2
			c5.1,5.1,5.1,13.4,0,18.5l0,0c6-3.9,7.7-11.9,3.8-17.9C196.3,50.3,195.8,49.6,195.1,48.9L195.1,48.9z"/>
		<polygon class="st20" points="191.2,65.5 193.6,65.6 193.6,52 191.2,51.9 		"/>
		<polygon class="st20" points="186.7,65.5 189.2,65.5 189.2,58.7 186.7,58.7 		"/>
		<polygon class="st20" points="182.3,65.4 184.8,65.4 184.8,50.5 182.3,50.4 		"/>
		<polygon class="st20" points="177.8,65.4 180.4,65.4 180.4,52.6 177.8,52.6 		"/>
		
			<linearGradient id="SVGID_23_" gradientUnits="userSpaceOnUse" x1="-2995.7766" y1="-13357.8203" x2="-3053.7004" y2="-13412.4365" gradientTransform="matrix(-1 0 0 1 -3337.2 14158.9893)">
			<stop  offset="0" style="stop-color:#444B8C"/>
			<stop  offset="1" style="stop-color:#26264F"/>
		</linearGradient>
		<path class="st27" d="M286.2,184.6c0-14.5,12.6-26.3,27.8-26.2c14.7,0,26.4,11.1,26.4,24.9c0,13.7-11.6,25.5-26.4,26.2
			C298.8,210.2,286.2,199.1,286.2,184.6z"/>
		
			<linearGradient id="SVGID_24_" gradientUnits="userSpaceOnUse" x1="341.3737" y1="165.5083" x2="387.7821" y2="207.6278" gradientTransform="matrix(1 0 0 -1 -44.85 364.18)">
			<stop  offset="0" style="stop-color:#AA80F9"/>
			<stop  offset="1" style="stop-color:#6165D7"/>
		</linearGradient>
		<path class="st28" d="M287.8,183.4c0-14.5,12.3-26.3,27-26.2c14.3,0,25.6,11.1,25.6,24.9s-11.3,25.5-25.6,26.2
			C300.1,209,287.8,197.9,287.8,183.4z"/>
		<g class="st23">
			<path class="st20" d="M292,183.3c0-12.2,10.3-22.1,22.7-22c12,0,21.5,9.3,21.5,20.9c0,11.5-9.5,21.4-21.5,22
				C302.3,204.8,292,195.5,292,183.3z"/>
		</g>
		<path class="st24" d="M313.9,163.1c12,0,21.5,9.4,21.5,20.9c0,2.7-0.5,5.3-1.5,7.8c1.6-3,2.4-6.3,2.4-9.7
			c0-11.5-9.5-20.9-21.5-20.9c-9.3,0-17.6,5.6-21.1,14.1C297.5,167.8,305.4,163.1,313.9,163.1z"/>
		<path class="st20" d="M310.9,187.9v-1.5c0-1.2,0.3-2.4,0.9-3.5c0.8-1.3,1.9-2.3,3.1-3.2c1.1-0.7,2.1-1.6,2.9-2.6
			c0.5-0.6,0.7-1.4,0.7-2.2c0-0.8-0.3-1.6-1-2.1c-0.8-0.5-1.8-0.8-2.8-0.7c-2.5,0.1-5,0.8-7.2,2.1l-2.3-4.6c3-1.7,6.4-2.6,9.9-2.6
			c2.9,0,5.2,0.7,6.8,2.1c1.7,1.3,2.6,3.4,2.5,5.5c0,1.4-0.3,2.8-1,4c-1.1,1.5-2.4,2.8-4,3.8c-1,0.6-1.8,1.4-2.5,2.3
			c-0.4,0.6-0.6,1.3-0.5,2v1.2H310.9z M310.2,195.1c-0.1-1,0.3-1.9,0.9-2.7c0.8-0.6,1.7-1,2.7-0.9c1-0.1,1.9,0.3,2.7,0.9
			c1.3,1.5,1.3,3.7,0,5.2c-0.7,0.7-1.7,1-2.7,1c-1,0.1-2-0.3-2.7-0.9C310.5,197,310.2,196,310.2,195.1L310.2,195.1z"/>
		<g>
			
				<linearGradient id="SVGID_25_" gradientUnits="userSpaceOnUse" x1="189.1688" y1="169.2602" x2="298.7563" y2="169.2602" gradientTransform="matrix(1 0 0 -1 -44.85 364.18)">
				<stop  offset="0" style="stop-color:#444B8C"/>
				<stop  offset="1" style="stop-color:#26264F"/>
			</linearGradient>
			<path class="st29" d="M250.6,183.2L250.6,183.2c-0.8,0-1.4,0.4-1.9,1l0,0c-5.9-16.6-25.4-29-48.7-29.2c-4.6,0-9.2,0.4-13.8,1.3
				l0,0c-17.5,3.6-31.3,14.1-36.3,27.7c-0.5-0.6-1.3-1-2.1-1c-1.9,0-3.5,2.5-3.5,5.5v16.1c0,3.1,1.6,5.5,3.5,5.5h0.1
				c1.1,0,2.2-0.9,2.8-2.3c7,16,26.5,27.3,49.3,27c6.1-0.1,12.2-1,18-2.8c14.1-4.3,25.2-13.4,30-24.7l0,0c0.6,1.3,1.6,2.2,2.6,2.2
				l0,0c1.8,0,3.3-2.4,3.3-5.4v-15.6C253.9,185.6,252.4,183.2,250.6,183.2z"/>
			
				<linearGradient id="SVGID_26_" gradientUnits="userSpaceOnUse" x1="207.7054" y1="88.782" x2="281.2709" y2="88.782" gradientTransform="matrix(1 0 0 -1 -44.85 364.18)">
				<stop  offset="0" style="stop-color:#444B8C"/>
				<stop  offset="1" style="stop-color:#26264F"/>
			</linearGradient>
			<path class="st30" d="M215.1,240.8l-30.3,0.4c-3.8,0.1-7.6,1.1-10.9,3.1c-8.9,5.3-13,16-10,25.9c0,0.1,0.1,0.3,0.1,0.4l0.8,2.6
				l4.8,15.5c3.9,13,16.2,21.8,29.8,21.3c4.2-0.1,8.4-1.1,12.2-2.8c9.1-4.1,15.9-11.8,18.7-21.3c1.4-4.7,2.8-9.5,4.3-14.2l0.8-2.5
				c0-0.1,0.1-0.3,0.1-0.4c2-6.6,0.8-13.7-3.2-19.3C228.3,243.9,221.9,240.7,215.1,240.8z"/>
		</g>
		<path class="st20" d="M251.5,192.3c0,4.2-0.9,8.4-2.5,12.3c-4.7,11-15.5,19.9-29.3,24.1c-5.7,1.7-11.7,2.7-17.6,2.7
			c-22.2,0.3-41.3-10.8-48.2-26.4c-3.3-7.4-3.5-15.7-0.8-23.3c4.8-13.3,18.4-23.6,35.5-27.1c4.4-0.9,8.9-1.3,13.4-1.3
			c22.8,0.2,41.9,12.3,47.6,28.5C250.8,185.2,251.5,188.8,251.5,192.3z"/>
		<path class="st31" d="M225.2,213.3l-45.1,0.3c-9.2,0-16.7-7.4-16.8-16.6c0,0,0-0.1,0-0.1v-9.9c0-4.2,3.3-7.6,7.5-7.6
			c0,0,0.1,0,0.1,0l63.2,0.1c4.1,0.1,7.3,3.4,7.3,7.5v9.7C241.5,205.7,234.3,213.1,225.2,213.3z"/>
		<path class="st31" d="M205.2,221.7l-6.4,0.1c-8.9,0-16.1-7.2-16.2-16.1c0-0.1,0-0.1,0-0.2l0,0c-0.1-9,7.2-16.3,16.2-16.4h6.4
			c8.9,0.1,16,7.3,16,16.2c0,0,0,0,0,0.1l0,0C221.2,214.2,214.1,221.5,205.2,221.7z"/>
		
			<linearGradient id="SVGID_27_" gradientUnits="userSpaceOnUse" x1="211.3233" y1="170.2386" x2="282.7714" y2="170.2386" gradientTransform="matrix(1 0 0 -1 -44.85 364.18)">
			<stop  offset="0" style="stop-color:#444B8C"/>
			<stop  offset="1" style="stop-color:#26264F"/>
		</linearGradient>
		<path class="st32" d="M226.4,205.7l-48,0.2c-6.6,0-11.9-5.3-11.9-11.9c0,0,0-0.1,0-0.1v-4.4c0-4.2,3.4-7.6,7.6-7.6c0,0,0,0,0,0
			l56.6,0.1c4.1,0.1,7.4,3.4,7.3,7.5v4.3C238,200.3,232.9,205.5,226.4,205.7z"/>
		<path class="st31" d="M192.5,195.3c0.5-0.6,0.7-1.4,0.8-2.2c0-2.6-2.7-4.7-6.1-4.7s-6.1,2.1-6.1,4.7c0,0.8,0.3,1.6,0.8,2.2
			L192.5,195.3z"/>
		<path class="st31" d="M223,195.2c0.5-0.6,0.7-1.4,0.8-2.2c0-2.6-2.7-4.7-6-4.7c-3.4,0-6,2.1-6,4.7c0,0.8,0.3,1.6,0.8,2.2
			L223,195.2z"/>
		
			<linearGradient id="SVGID_28_" gradientUnits="userSpaceOnUse" x1="192.6952" y1="170.1896" x2="199.0002" y2="170.1896" gradientTransform="matrix(1 0 0 -1 -44.85 364.18)">
			<stop  offset="0" style="stop-color:#444B8C"/>
			<stop  offset="1" style="stop-color:#26264F"/>
		</linearGradient>
		<path class="st33" d="M154.2,186.1v15.7c0.1,1.1-0.1,2.2-0.5,3.2c-0.6,1.3-1.5,2.2-2.6,2.2c-1.9,0-3.2-2.4-3.2-5.4v-15.7
			c0-3,1.5-5.4,3.3-5.4c0.8,0,1.5,0.4,1.9,1c0.2,0.2,0.1,0.4,0.2,0.6C154,183.5,154.2,184.8,154.2,186.1z"/>
		
			<linearGradient id="SVGID_29_" gradientUnits="userSpaceOnUse" x1="293.1686" y1="170.3821" x2="299.5265" y2="170.3821" gradientTransform="matrix(1 0 0 -1 -44.85 364.18)">
			<stop  offset="0" style="stop-color:#444B8C"/>
			<stop  offset="1" style="stop-color:#26264F"/>
		</linearGradient>
		<path class="st34" d="M251.5,206.7L251.5,206.7c-1.8,0-3.2-2.3-3.2-5.2v-15.3c0-2.9,1.4-5.3,3.2-5.3l0,0c1.8,0,3.2,2.4,3.2,5.3
			v15.3C254.7,204.3,253.3,206.7,251.5,206.7z"/>
		<path class="st20" d="M236.7,264.5c0,0.1-0.1,0.3-0.1,0.4l-0.8,2.5c-1.4,4.6-2.8,9.2-4.2,13.9c-2.8,9.3-9.5,16.9-18.3,20.9
			c-3.8,1.7-7.8,2.6-12,2.7c-13.3,0.5-25.3-8.1-29.1-20.8l-4.7-15.1l-0.8-2.5c0-0.1-0.1-0.3-0.1-0.4c-2.9-9.7,1.1-20.1,9.8-25.3
			c3.2-1.9,6.9-3,10.7-3l29.7-0.4c6.6-0.1,12.9,3,16.8,8.4C237.5,251.1,238.6,258.1,236.7,264.5z"/>
		<polygon class="st31" points="236.6,264.9 235.8,267.4 167.6,268.9 166.8,266.4 		"/>
		<path class="st35" d="M205.6,221.6c4.4,2.9,9.1,5.2,14,7.1c-5.7,1.7-11.7,2.7-17.6,2.7c-22.2,0.3-41.3-10.8-48.2-26.4
			c-0.6,1.3-1.6,2.2-2.7,2.2c-1.9,0-3.3-2.4-3.3-5.4v-15.7c0-3,1.5-5.4,3.3-5.4c0.8,0,1.5,0.4,1.9,1c4.8-13.3,18.4-23.6,35.5-27.1
			c1.6,5.8,1.6,12.9-1.4,21.8c-0.3,1-0.6,1.9-0.9,2.9c-0.2,0.9-0.4,1.8-0.6,2.6c-0.4,2.2-0.6,4.4-0.6,6.7c0,2.2,0.2,4.5,0.6,6.7
			l0.1,0.4c0.8,3.6,2.1,7,4,10.2c1.6,2.8,3.6,5.3,5.8,7.6C198.6,216.6,202,219.3,205.6,221.6z"/>
		<path class="st35" d="M213.3,302.1c-3.8,1.7-7.8,2.6-12,2.7c-13.3,0.5-25.3-8.1-29.1-20.8l-4.7-15.1l-0.8-2.5
			c0-0.1-0.1-0.3-0.1-0.4c-2.9-9.7,1.1-20.1,9.8-25.3c0.1,7.4-1.2,15.7,8.9,25.3c0.8,0.8,1.8,1.6,2.8,2.4c2.9,2.3,5.9,4.4,9.1,6.2
			C214.7,284.8,219,294.9,213.3,302.1z"/>
		
			<linearGradient id="SVGID_30_" gradientUnits="userSpaceOnUse" x1="407.554" y1="18.5094" x2="359.6052" y2="46.6142" gradientTransform="matrix(1 3.000000e-02 3.000000e-02 -1 -239.5343 350.0445)">
			<stop  offset="0" style="stop-color:#311944"/>
			<stop  offset="1" style="stop-color:#893976"/>
		</linearGradient>
		<path class="st36" d="M146.4,339.1c2.7,1.7,6.3,1,8.1-1.7c0.1-0.2,0.2-0.4,0.3-0.6c1.7-3.1,0.8-7.1-2.1-9.2
			c-0.2-0.1-0.3-0.2-0.5-0.3c0.6-1.8,1.1-3.6,1.4-5.5l0.5,0c3.4,0,6.2-2.9,6.2-6.6s-2.7-6.7-6-6.8c-0.2,0-0.4,0-0.5,0
			c-0.3-1.9-0.7-3.7-1.3-5.5c0.2-0.1,0.3-0.2,0.5-0.3c3-2,4-5.9,2.3-9.1c-1.4-2.9-4.8-4.2-7.8-2.8c-0.2,0.1-0.4,0.2-0.6,0.3
			l-0.4,0.3c-1.1-1.4-2.3-2.8-3.6-4c0.1-0.2,0.2-0.3,0.3-0.5c1.7-3.2,3.9-6.6,1-8.4c-6.8-4.2-9.8-1.5-11.5,1.7
			c-0.1,0.2-0.2,0.3-0.2,0.5c-1.6-0.6-3.3-1.1-5-1.5c0-0.2,0-0.4,0-0.6c0-3.7,1.1-5.6-2.2-6c-7.3-0.9-9.8,2.3-9.9,5.9
			c0,0.2,0,0.4,0,0.6c-1.7,0.3-3.3,0.8-5,1.4c-0.1-0.2-0.1-0.3-0.2-0.5c-1.3-2.9-4.7-4.1-7.6-2.8c-0.2,0.1-0.4,0.2-0.6,0.3
			c-2.9,2-3.9,5.9-2.3,9.1c0.1,0.2,0.2,0.3,0.3,0.5c-1.3,1.2-2.5,2.5-3.6,3.9c-0.1-0.1-0.3-0.2-0.4-0.3c-2.8-1.8-6.5-0.8-8.2,2.4
			c-1.7,3.1-0.8,7,2.1,9.1c0.1,0.1,0.3,0.2,0.4,0.3c-0.6,1.8-1,3.6-1.4,5.4c-0.2,0-0.3,0-0.5,0c-3.3,0-6,2.9-6,6.5
			c0,3.6,2.6,6.6,5.9,6.7c0.2,0,0.3,0,0.5,0c0.3,1.8,0.7,3.7,1.3,5.4c-0.2,0.1-0.3,0.2-0.5,0.2c-2.9,1.8-3.9,5.8-2.3,9
			c1.6,3.2,7.2,5.2,10.1,3.4c0.2-0.1-1.7-1.1-1.5-1.2c1.1,1.4,2.2,2.8,3.5,4c-0.1,0.2-0.2,0.3-0.3,0.5c-1.7,3.1-0.8,7,2.1,9.1
			c2.6,1.7,6.2,1,7.9-1.6c0.1-0.2,0.3-0.4,0.4-0.6c0.1-0.2,0.2-0.3,0.2-0.5c1.6,0.7,3.2,1.2,4.9,1.6c0,0.2,0,0.4,0,0.6
			c0,3.7,2.6,6.7,6,6.8s6.1-2.9,6.1-6.5c0-0.2,0-0.4,0-0.6c1.7-0.3,3.4-0.8,5-1.4c0.1,0.2,0.2,0.3,0.2,0.5c1.6,3.2,5.4,4.4,8.3,2.6
			c3-2,4-5.9,2.3-9.1c-0.1-0.2-0.2-0.3-0.3-0.5c1.3-1.2,2.6-2.5,3.7-3.9C146.1,338.9,146.3,339,146.4,339.1z M109.8,335.6
			c-10.4-6.8-13.8-21.6-7.6-33c6.1-11.4,19.6-15.3,30.1-8.6c10.4,6.7,14,21.7,7.7,33.2C133.8,338.8,120.3,342.4,109.8,335.6
			L109.8,335.6z"/>
		
			<linearGradient id="SVGID_31_" gradientUnits="userSpaceOnUse" x1="348.7049" y1="51.123" x2="359.3895" y2="46.313" gradientTransform="matrix(1 3.000000e-02 3.000000e-02 -1 -239.5343 350.0445)">
			<stop  offset="0" style="stop-color:#311944"/>
			<stop  offset="1" style="stop-color:#893976"/>
		</linearGradient>
		<path class="st37" d="M154.1,321.9c3.4,0,6.2-2.9,6.2-6.6s-2.7-6.7-6-6.8c-0.2,0-0.4,0-0.5,0c-0.3-1.9-0.7-3.7-1.3-5.5
			c0.2-0.1,0.3-0.2,0.5-0.3c3-1.8,6.7-6.6,4.7-9.6c-3.7-5.8-7.8-3.8-10.7-2l-0.4,0.3c-1.1-1.4-2.3-2.8-3.6-4
			c0.1-0.2,0.2-0.3,0.3-0.5c0.9-1.7,1.1-3.7,0.5-5.5c-2.9,4.8-5.8,9.7-8.7,14.6c8.3,7.4,10.7,20.6,5,31.1
			c-4.8,8.8-13.9,13.1-22.6,11.5c-0.4,1-0.8,2-1.3,3c-1.2,2.7-2.6,5.4-3.9,8c0.8,0.2,1.6,0.5,2.4,0.6c0,0.2,0,0.4,0,0.6
			c0,3.7,2,7,8,7.4c3.4,0.2,4-3.5,4.1-7.2c0-0.2,0-0.4,0-0.6c1.7-0.3,3.4-0.8,5-1.4c0.1,0.2,0.2,0.3,0.2,0.5
			c1.6,3.2,7.6,5.2,10.6,3.4c2.9-1.8,1.7-6.7,0.1-9.9c-0.1-0.2-0.2-0.3-0.3-0.5c1.3-1.2,2.6-2.5,3.7-3.9c0.1,0.1,0.3,0.2,0.4,0.3
			c2.7,1.7,6.3,1,8.1-1.7c0.1-0.2,0.2-0.4,0.3-0.6c1.7-3.2,0.7-7-2.2-9.1c-0.2-0.1-0.3-0.2-0.5-0.3c0.6-1.8,1.1-3.6,1.4-5.5H154.1z"
			/>
		
			<linearGradient id="SVGID_32_" gradientUnits="userSpaceOnUse" x1="346.7314" y1="67.2851" x2="398.1234" y2="-2.8711" gradientTransform="matrix(1 3.000000e-02 3.000000e-02 -1 -239.5343 350.0445)">
			<stop  offset="0" style="stop-color:#FF9085"/>
			<stop  offset="1" style="stop-color:#FB6FBB"/>
		</linearGradient>
		<path class="st38" d="M149.6,339.8c2.7,1.7,6.3,1,8.1-1.7c0.1-0.2,0.2-0.4,0.3-0.6c1.7-3.2,0.8-7.1-2.2-9.2
			c-0.2-0.1-0.3-0.2-0.5-0.3c0.6-1.8,1.1-3.6,1.4-5.5l0.5,0c3.4,0,6.2-2.9,6.2-6.6c0-3.7-2.7-6.7-6-6.8H157
			c-0.3-1.9-0.7-3.7-1.3-5.5c0.2-0.1,0.3-0.2,0.5-0.3c3-2,4-5.9,2.3-9.1c-1.4-2.9-4.8-4.2-7.8-2.8c-0.2,0.1-0.4,0.2-0.6,0.3
			c-0.2,0.1-0.3,0.2-0.4,0.3c-1.1-1.4-2.3-2.8-3.6-4c0.1-0.2,0.2-0.3,0.3-0.5c1.7-3.1,0.8-7.1-2.1-9.1c-2.9-1.9-6.6-0.8-8.4,2.4
			c-0.1,0.2-0.2,0.3-0.2,0.5c-1.6-0.6-3.3-1.1-5-1.5c0-0.2,0-0.4,0-0.6c0-3.7-2.6-6.7-6-6.7c-3.4,0-6.1,3-6.1,6.6c0,0.2,0,0.4,0,0.6
			c-1.7,0.3-3.4,0.8-5,1.4c-0.1-0.2-0.1-0.3-0.2-0.5c-1.3-2.9-4.7-4.1-7.6-2.8c-0.2,0.1-0.4,0.2-0.6,0.3c-2.9,2-3.9,5.9-2.3,9.1
			c0.1,0.2,0.2,0.3,0.3,0.5c-1.3,1.2-2.5,2.5-3.6,4c-0.1-0.1-0.3-0.2-0.4-0.3c-2.8-1.9-6.5-0.8-8.2,2.4c-1.7,3.1-0.8,7,2.1,9.1
			c0.1,0.1,0.3,0.2,0.4,0.3c-0.6,1.8-1,3.6-1.4,5.4c-0.2,0-0.3,0-0.5,0c-3.3,0-6,2.9-6,6.5s2.6,6.6,5.9,6.7c0.2,0,0.3,0,0.5,0
			c0.3,1.8,0.7,3.7,1.3,5.4c-0.2,0.1-0.3,0.2-0.5,0.2c-2.9,2-3.9,5.9-2.3,9c1.6,3.2,5.3,4.3,8.2,2.6c0.2-0.1,0.3-0.2,0.4-0.3
			c1.1,1.4,2.3,2.8,3.6,4c-0.1,0.2-0.2,0.3-0.3,0.5c-1.7,3.1-0.8,7,2.1,9.1c2.6,1.7,6.2,1,7.9-1.6c0.1-0.2,0.3-0.4,0.4-0.6
			c0.1-0.2,0.2-0.3,0.2-0.5c1.6,0.7,3.2,1.2,4.9,1.6c0,0.2,0,0.4,0,0.6c0,3.7,2.6,6.7,6,6.8c3.3,0.1,6.1-2.9,6.1-6.5
			c0-0.2,0-0.4,0-0.6c1.7-0.3,3.4-0.8,5-1.4c0.1,0.2,0.2,0.3,0.2,0.5c1.6,3.2,5.4,4.4,8.3,2.6c3-2,4-5.9,2.3-9.1
			c-0.1-0.2-0.2-0.3-0.3-0.5c1.3-1.2,2.6-2.5,3.7-4C149.3,339.6,149.4,339.7,149.6,339.8z M113,336.3c-10.4-6.8-13.8-21.6-7.6-33
			c6.2-11.5,19.6-15.3,30.1-8.6c10.5,6.8,14,21.7,7.7,33.2S123.4,343.1,113,336.3L113,336.3z"/>
		
			<linearGradient id="SVGID_33_" gradientUnits="userSpaceOnUse" x1="2138.636" y1="-13143.1943" x2="2098.0344" y2="-13214.498" gradientTransform="matrix(-0.7071 -0.7071 -0.7071 0.7071 -7732.2461 10974.875)">
			<stop  offset="0" style="stop-color:#444B8C"/>
			<stop  offset="1" style="stop-color:#26264F"/>
		</linearGradient>
		<path class="st39" d="M64.7,143.7c9.6-8.3,24.6-7.4,33.6,1.6c8.8,8.8,8.8,22.5,0,30.9c-9,8.6-24,8.6-33.6-0.2
			C54.8,166.8,54.8,152.2,64.7,143.7z"/>
		
			<linearGradient id="SVGID_34_" gradientUnits="userSpaceOnUse" x1="2138.7134" y1="-13144.7051" x2="2098.1118" y2="-13216.0098" gradientTransform="matrix(-0.7071 -0.7071 -0.7071 0.7071 -7732.2461 10974.875)">
			<stop  offset="0" style="stop-color:#AA80F9"/>
			<stop  offset="1" style="stop-color:#6165D7"/>
		</linearGradient>
		<path class="st40" d="M65.7,142.5c9.6-8.3,24.6-7.4,33.6,1.6c8.8,8.8,8.8,22.5,0,30.8c-9,8.6-24,8.6-33.6-0.2
			C55.9,165.7,55.9,151.1,65.7,142.5z"/>
		<g class="st23">
			<path class="st20" d="M68.1,145c8.2-7.1,21-6.4,28.7,1.4c7.5,7.6,7.5,19.2,0,26.3c-7.7,7.3-20.5,7.4-28.7-0.2
				C59.7,164.7,59.7,152.2,68.1,145z"/>
		</g>
		<path class="st41" d="M67.1,146.6c8.2-7.1,21-6.4,28.7,1.4c6,6.1,7.2,14.9,3.5,21.8c4.9-7.1,4.1-16.8-2.5-23.4
			c-7.7-7.7-20.5-8.5-28.7-1.4c-1.7,1.5-3.1,3.2-4.2,5.2C64.8,148.9,65.9,147.7,67.1,146.6z"/>
		<path class="st20" d="M94.3,157.8c0,1.3-0.2,2.7-0.7,3.9c-0.4,1.1-1.1,2.1-1.9,2.8c-0.8,0.7-1.8,1-2.9,1c-0.7,0-1.4-0.2-1.9-0.5
			c-0.5-0.3-1-0.8-1.2-1.4h-0.2c-1,1.2-2.5,2-4.1,1.9c-1.5,0.1-3.1-0.5-4.2-1.6c-1.1-1.2-1.6-2.8-1.5-4.3c-0.1-1.9,0.6-3.7,2-5.1
			c1.4-1.3,3.3-2,5.2-1.9c0.9,0,1.9,0.1,2.8,0.2c0.9,0.1,1.7,0.3,2.5,0.6l-0.3,7.3c0,1.4,0.4,2.1,1.1,2.1c0.6,0,1.1-0.5,1.5-1.4
			c0.4-1.2,0.6-2.4,0.6-3.6c0-1.5-0.3-2.9-1-4.2c-0.6-1.2-1.6-2.2-2.8-2.8c-1.3-0.7-2.7-1-4.1-1c-1.8,0-3.6,0.4-5.2,1.2
			c-1.5,0.8-2.7,2.1-3.4,3.6c-0.8,1.7-1.2,3.5-1.2,5.4c0,2.7,0.7,4.8,2.2,6.3s3.6,2.2,6.4,2.2c1.2,0,2.3-0.1,3.5-0.4
			c1.3-0.2,2.5-0.6,3.7-1v2.9c-2.2,0.9-4.6,1.4-7.1,1.4c-3.8,0-6.7-1-8.8-3c-2.1-2-3.2-4.8-3.2-8.3c0-2.3,0.5-4.6,1.6-6.7
			c1-1.9,2.6-3.6,4.6-4.6c2.1-1.2,4.5-1.8,6.9-1.7c2,0,4,0.4,5.9,1.3c1.7,0.9,3,2.2,4,3.8C93.8,153.8,94.3,155.8,94.3,157.8z
			 M79,159.6c0,2.1,0.9,3.1,2.6,3.1c0.8,0,1.6-0.3,2-0.9c0.6-0.9,0.8-2,0.8-3.1l0.2-3.3c-0.6-0.1-1.1-0.2-1.7-0.2
			c-1.1-0.1-2.1,0.4-2.9,1.2C79.3,157.4,79,158.5,79,159.6L79,159.6z"/>
	</g>
</g>
</svg>
