<svg xmlns="http://www.w3.org/2000/svg" width="50.955" height="53.391" viewBox="0 0 50.955 53.391">
  <g id="setting" transform="translate(-0.548)">
    <path id="Path_11985" data-name="Path 11985" d="M29.724,53.391h-7.4a3.814,3.814,0,0,1-3.74-3l-.939-4.167A20.435,20.435,0,0,1,13.3,43.7L9.247,44.98a3.865,3.865,0,0,1-4.5-1.753l-3.688-6.38a3.89,3.89,0,0,1,.716-4.75l3.141-2.888a22.092,22.092,0,0,1,0-5.028L1.785,21.307a3.883,3.883,0,0,1-.741-4.741l3.711-6.418A3.851,3.851,0,0,1,9.242,8.411L13.3,9.69a20.49,20.49,0,0,1,4.347-2.523L18.586,3a3.815,3.815,0,0,1,3.74-3h7.4a3.814,3.814,0,0,1,3.74,3L34.4,7.168A20.435,20.435,0,0,1,38.749,9.69L42.8,8.411a3.86,3.86,0,0,1,4.5,1.753l3.688,6.38a3.89,3.89,0,0,1-.716,4.75l-3.141,2.888a22.263,22.263,0,0,1,0,5.028l3.128,2.874.013.013A3.877,3.877,0,0,1,51,36.824l-3.711,6.418a3.853,3.853,0,0,1-4.487,1.737L38.747,43.7A20.49,20.49,0,0,1,34.4,46.221l-.939,4.169a3.81,3.81,0,0,1-3.737,3ZM13.642,40.174a1.679,1.679,0,0,1,1.063.38,17.117,17.117,0,0,0,4.956,2.876,1.672,1.672,0,0,1,1.05,1.2l1.132,5.028a.5.5,0,0,0,.485.4h7.4a.507.507,0,0,0,.485-.394l1.132-5.028a1.667,1.667,0,0,1,1.05-1.2,17.168,17.168,0,0,0,4.956-2.876,1.662,1.662,0,0,1,1.564-.3l4.9,1.546a.5.5,0,0,0,.59-.207l3.711-6.416A.541.541,0,0,0,48,34.533L44.249,31.08A1.659,1.659,0,0,1,43.73,29.6a19.683,19.683,0,0,0,.222-2.908,19.408,19.408,0,0,0-.222-2.908,1.671,1.671,0,0,1,.518-1.477l3.764-3.462A.541.541,0,0,0,48.1,18.2l-3.688-6.378a.507.507,0,0,0-.605-.222l-4.89,1.544a1.662,1.662,0,0,1-1.564-.3A17.118,17.118,0,0,0,32.4,9.957a1.672,1.672,0,0,1-1.05-1.2L30.216,3.731a.521.521,0,0,0-.492-.394h-7.4a.507.507,0,0,0-.485.394l-1.132,5.03a1.668,1.668,0,0,1-1.048,1.2A17.118,17.118,0,0,0,14.7,12.836a1.668,1.668,0,0,1-1.564.3l-4.9-1.546a.5.5,0,0,0-.59.207L3.943,18.215a.542.542,0,0,0,.113.647l3.753,3.448a1.659,1.659,0,0,1,.518,1.477A19.683,19.683,0,0,0,8.105,26.7,19.408,19.408,0,0,0,8.328,29.6a1.671,1.671,0,0,1-.518,1.477L4.045,34.542a.541.541,0,0,0-.089.654l3.688,6.378a.5.5,0,0,0,.605.222l4.89-1.544a1.624,1.624,0,0,1,.5-.078Z" transform="translate(0 0)" fill="#1ab2a9"/>
    <path id="Path_11986" data-name="Path 11986" d="M12.171,25.8a1.666,1.666,0,0,1-1.628-2.042L13.88,9.294a1.668,1.668,0,1,1,3.25.747L13.793,24.5A1.665,1.665,0,0,1,12.171,25.8Z" transform="translate(12.187 9.797)" fill="#1ab2a9"/>
    <path id="Path_11987" data-name="Path 11987" d="M16.169,22.347a1.669,1.669,0,0,1-1.117-2.91l4.185-3.764-4.185-3.764a1.67,1.67,0,1,1,2.234-2.483l5.562,5.005a1.672,1.672,0,0,1,0,2.483L17.286,21.92a1.666,1.666,0,0,1-1.117.427Z" transform="translate(17.086 11.022)" fill="#1ab2a9"/>
    <path id="Path_11988" data-name="Path 11988" d="M12.73,22.348a1.666,1.666,0,0,1-1.117-.427L6.052,16.916a1.672,1.672,0,0,1,0-2.483l5.562-5.005a1.67,1.67,0,1,1,2.234,2.483L9.662,15.674l4.185,3.764a1.669,1.669,0,0,1-1.117,2.91Z" transform="translate(6.065 11.021)" fill="#1ab2a9"/>
  </g>
</svg>
