<?xml version="1.0" encoding="utf-8"?>
<!-- Generator: Adobe Illustrator 24.2.3, SVG Export Plug-In . SVG Version: 6.00 Build 0)  -->
<svg version="1.1" id="Layer_1" xmlns="http://www.w3.org/2000/svg" xmlns:xlink="http://www.w3.org/1999/xlink" x="0px" y="0px"
	 viewBox="0 0 400 400" style="enable-background:new 0 0 400 400;" xml:space="preserve">
<style type="text/css">
	.st0{fill:#75D8CC;}
	.st1{fill:#FFFFFF;}
	.st2{fill:#BDD0FB;}
	.st3{fill:url(#SVGID_1_);}
	.st4{fill:url(#SVGID_2_);}
	.st5{fill:url(#SVGID_3_);}
	.st6{fill:url(#SVGID_4_);}
	.st7{fill:url(#SVGID_5_);}
	.st8{fill:url(#SVGID_6_);}
	.st9{fill:url(#SVGID_7_);}
	.st10{fill:url(#SVGID_8_);}
	.st11{fill:url(#SVGID_9_);}
	.st12{fill:url(#SVGID_10_);}
	.st13{fill:url(#SVGID_11_);}
	.st14{fill:url(#SVGID_12_);}
	.st15{fill:url(#SVGID_13_);}
	.st16{fill:url(#SVGID_14_);}
	.st17{fill:url(#SVGID_15_);}
	.st18{fill:url(#SVGID_16_);}
	.st19{fill:url(#SVGID_17_);}
	.st20{fill:url(#SVGID_18_);}
	.st21{fill:url(#SVGID_19_);}
	.st22{fill:url(#SVGID_20_);}
	.st23{fill:url(#SVGID_21_);}
	.st24{fill:url(#SVGID_22_);}
	.st25{fill:url(#SVGID_23_);}
	.st26{fill:url(#SVGID_24_);}
</style>
<g>
	<path class="st0" d="M335.8,251.2c-28.1,66.2-103,103.3-168,93.3c-10.6-1.6-39.6-6.5-65.2-29.4c-49.4-44.1-60-131.3-20.1-192.8
		c29-44.7,81-70.1,130.4-68.9c10.6,0.3,51.4,2,87.3,31.5c10.7,8.9,19.9,19.3,27.3,31C352,154.5,354.1,208,335.8,251.2z"/>
	<path class="st1" d="M160.7,150c-0.2,0-0.4-0.1-0.5-0.3c-0.4-0.7-0.8-1.4-1.2-2c-0.2-0.3-0.1-0.7,0.2-0.8s0.7-0.1,0.8,0.2
		c0.4,0.7,0.9,1.4,1.3,2.1c0.2,0.3,0.1,0.7-0.2,0.8C160.9,150,160.8,150,160.7,150z"/>
	<path class="st1" d="M112.6,226c-0.9-0.1-1.9-0.2-2.8-0.3c-0.3,0-0.6-0.3-0.5-0.7c0-0.3,0.3-0.6,0.7-0.5c0.9,0.1,1.8,0.2,2.7,0.3
		c0.7,0,1.4,0.1,2,0.1c0.3,0,0.6,0.3,0.6,0.6c0,0,0,0,0,0c0,0.3-0.3,0.6-0.6,0.6c0,0,0,0,0,0C114,226.1,113.3,226,112.6,226z
		 M122.4,225.8c-0.3,0-0.6-0.3-0.6-0.6c0-0.3,0.3-0.6,0.6-0.6c1.5-0.2,3-0.4,4.5-0.8h0.1c0.3-0.1,0.6,0.1,0.7,0.5
		c0.1,0.3-0.1,0.6-0.5,0.7l0,0h-0.1c-1.5,0.3-3.1,0.6-4.6,0.8L122.4,225.8z M134.6,222.8c-0.3,0-0.6-0.3-0.6-0.6
		c0-0.2,0.2-0.4,0.4-0.5c1.5-0.6,2.9-1.2,4.3-1.9c0.3-0.1,0.7,0,0.8,0.3c0.1,0.3,0,0.7-0.3,0.8l0,0c-1.4,0.7-2.9,1.4-4.4,1.9
		C134.7,222.8,134.6,222.8,134.6,222.8L134.6,222.8z M145.6,216.9c-0.2,0-0.3-0.1-0.4-0.3c-0.2-0.3-0.1-0.7,0.1-0.8
		c1.3-0.9,2.5-1.9,3.7-2.9c0.3-0.2,0.6-0.2,0.9,0.1c0.2,0.3,0.2,0.6-0.1,0.9c0,0,0,0,0,0c-1.2,1-2.5,2-3.8,3
		C145.9,216.9,145.7,217,145.6,216.9L145.6,216.9z M154.9,208.6c-0.1,0-0.3-0.1-0.4-0.1c-0.3-0.2-0.3-0.6-0.1-0.9
		c1-1.2,2-2.4,2.9-3.7c0.1-0.3,0.5-0.4,0.8-0.3c0.3,0.1,0.4,0.5,0.3,0.8c0,0.1-0.1,0.1-0.1,0.1c-0.9,1.3-1.9,2.6-3,3.8
		C155.3,208.5,155.1,208.6,154.9,208.6L154.9,208.6z M161.9,198.2c-0.1,0-0.2,0-0.2-0.1c-0.3-0.2-0.4-0.5-0.3-0.8
		c0.7-1.4,1.4-2.8,1.9-4.3c0.1-0.3,0.5-0.5,0.8-0.3c0.3,0.1,0.5,0.5,0.3,0.8c-0.6,1.5-1.3,3-2,4.4
		C162.3,198.1,162.1,198.2,161.9,198.2L161.9,198.2z M166.1,186.4L166.1,186.4c-0.4-0.1-0.6-0.4-0.5-0.7c0,0,0,0,0,0
		c0.3-1.5,0.6-3.1,0.8-4.6c0-0.3,0.3-0.6,0.7-0.5c0,0,0,0,0,0c0.3,0,0.6,0.3,0.5,0.7c-0.2,1.6-0.5,3.2-0.8,4.7
		C166.7,186.2,166.4,186.5,166.1,186.4L166.1,186.4z M167.3,174c-0.3,0-0.6-0.3-0.6-0.6c0-1.6-0.2-3.2-0.3-4.7
		c0-0.3,0.2-0.6,0.5-0.7c0.3,0,0.6,0.2,0.7,0.5c0.2,1.6,0.3,3.2,0.4,4.8C168,173.7,167.7,174,167.3,174
		C167.4,174,167.4,174,167.3,174L167.3,174z M165.5,161.6c-0.3,0-0.5-0.2-0.5-0.4c-0.4-1.5-0.9-3-1.5-4.5c-0.1-0.3,0-0.7,0.4-0.8
		c0.3-0.1,0.7,0,0.8,0.4c0.6,1.5,1.1,3,1.5,4.6c0.1,0.3-0.1,0.7-0.4,0.7C165.6,161.6,165.6,161.6,165.5,161.6L165.5,161.6z"/>
	<path class="st1" d="M102.3,224.1h-0.1c-0.8-0.2-1.6-0.5-2.3-0.7c-0.3-0.1-0.5-0.4-0.4-0.8c0,0,0,0,0,0c0.1-0.3,0.5-0.5,0.8-0.4
		c0.8,0.3,1.5,0.5,2.3,0.7c0.3,0.1,0.5,0.4,0.4,0.7C102.8,224,102.6,224.2,102.3,224.1L102.3,224.1z"/>
	<path class="st1" d="M71.2,198.7c-0.2,0-0.4-0.1-0.5-0.3c-0.4-0.7-0.7-1.5-1.1-2.2c-0.1-0.3,0-0.7,0.3-0.8c0.3-0.1,0.7,0,0.8,0.3
		l0,0c0.3,0.7,0.7,1.5,1.1,2.1c0.2,0.3,0.1,0.7-0.2,0.8C71.4,198.6,71.3,198.7,71.2,198.7L71.2,198.7z"/>
	<path class="st1" d="M67.5,189.3c-0.3,0-0.5-0.2-0.5-0.4c-0.3-1.2-0.7-2.4-0.9-3.6c-0.1-0.3-0.1-0.7-0.2-1
		c-0.1-0.3,0.2-0.6,0.5-0.7c0.3-0.1,0.6,0.2,0.7,0.5c0.1,0.3,0.1,0.7,0.2,1c0.3,1.2,0.5,2.4,0.9,3.5c0.1,0.3-0.1,0.7-0.4,0.8
		C67.6,189.3,67.5,189.3,67.5,189.3z M65.5,177.2c-0.3,0-0.5-0.3-0.6-0.6c-0.1-1.6-0.1-3.2,0-4.7c0-0.3,0.3-0.6,0.6-0.6c0,0,0,0,0,0
		c0.3,0,0.6,0.3,0.6,0.6c-0.1,1.5-0.1,3.1,0,4.6C66.1,176.9,65.9,177.2,65.5,177.2C65.5,177.2,65.5,177.2,65.5,177.2L65.5,177.2z
		 M66.5,164.9L66.5,164.9c-0.4-0.1-0.6-0.4-0.5-0.7c0.3-1.5,0.7-3.1,1.2-4.6c0.1-0.3,0.4-0.5,0.8-0.4c0.3,0.1,0.5,0.4,0.4,0.8
		c-0.4,1.5-0.8,3-1.1,4.5C67,164.7,66.8,164.9,66.5,164.9L66.5,164.9z M70.4,153.3c-0.1,0-0.1,0-0.2-0.1c-0.3-0.1-0.4-0.5-0.3-0.8
		c0.7-1.4,1.4-2.8,2.2-4.2c0.2-0.3,0.5-0.4,0.8-0.2c0.3,0.2,0.4,0.5,0.2,0.8l0,0c-0.8,1.4-1.5,2.7-2.2,4.1
		C70.9,153.1,70.7,153.3,70.4,153.3L70.4,153.3z M77,142.9c-0.1,0-0.2-0.1-0.3-0.1c-0.3-0.2-0.3-0.6-0.1-0.8c0,0,0,0,0,0
		c1-1.2,2-2.4,3.2-3.5c0.2-0.2,0.6-0.2,0.9,0c0.2,0.2,0.2,0.6,0,0.9c-1.1,1.1-2.1,2.3-3.1,3.5C77.4,142.8,77.2,142.9,77,142.9z
		 M85.9,134.4c-0.3,0-0.6-0.3-0.6-0.7c0-0.2,0.1-0.3,0.2-0.4c1.3-0.9,2.6-1.8,3.9-2.7c0.3-0.2,0.7-0.1,0.8,0.2
		c0.2,0.3,0.1,0.7-0.2,0.8c-1.3,0.8-2.6,1.7-3.8,2.6C86.2,134.3,86,134.4,85.9,134.4L85.9,134.4z M96.6,128.3
		c-0.3,0-0.6-0.3-0.6-0.7c0-0.2,0.2-0.4,0.4-0.5c1.5-0.6,3-1.2,4.5-1.6c0.3-0.1,0.7,0,0.8,0.3c0.1,0.3,0,0.7-0.3,0.8
		c0,0-0.1,0-0.1,0c-1.5,0.5-2.9,1-4.4,1.6C96.8,128.2,96.7,128.3,96.6,128.3L96.6,128.3z M108.4,124.9c-0.3,0-0.6-0.3-0.5-0.7
		c0-0.3,0.2-0.5,0.5-0.5c1.6-0.2,3.1-0.4,4.7-0.5c0.3,0,0.6,0.2,0.6,0.6c0,0.3-0.2,0.6-0.6,0.6c-1.5,0.1-3.1,0.3-4.6,0.5
		L108.4,124.9z M125.3,125L125.3,125c-1.6-0.3-3.1-0.5-4.7-0.6c-0.3,0-0.6-0.3-0.6-0.7c0,0,0,0,0,0c0-0.3,0.3-0.6,0.7-0.6
		c0,0,0,0,0,0l0,0c1.6,0.1,3.2,0.3,4.7,0.6c0.3,0.1,0.5,0.4,0.5,0.7C126,124.8,125.7,125,125.3,125L125.3,125z"/>
	<path class="st1" d="M135,127.8l-0.2,0c-0.7-0.3-1.5-0.6-2.2-0.8c-0.3-0.1-0.5-0.4-0.4-0.8c0.1-0.3,0.4-0.5,0.8-0.4l0,0
		c0.8,0.3,1.5,0.5,2.3,0.8c0.3,0.1,0.5,0.5,0.3,0.8c0,0,0,0,0,0C135.6,127.6,135.3,127.8,135,127.8z"/>
	<path class="st1" d="M135.2,140.3c-0.2-0.2-0.5-0.2-0.7,0l-6,4.4c-3.3-1.3-6.7-2.1-10.3-2.2l-3.6-6.5c-0.1-0.2-0.4-0.4-0.6-0.3
		l-8.8,1.6c-0.3,0-0.5,0.3-0.5,0.5l-1.1,7.3c-3.2,1.4-6.2,3.3-8.8,5.7l-7.2-2c-0.3-0.1-0.5,0-0.7,0.2l-5.1,7.3
		c-0.1,0.2-0.1,0.5,0,0.7l4.4,6c-1.3,3.3-2.1,6.8-2.3,10.3l-6.5,3.6c-0.2,0.1-0.3,0.4-0.3,0.6l1.6,8.8c0,0.3,0.3,0.5,0.5,0.5
		l7.3,1.1c1.4,3.2,3.3,6.2,5.7,8.8l-2,7.2c-0.1,0.3,0,0.5,0.2,0.7l7.3,5.1c0.2,0.1,0.5,0.1,0.7,0l6-4.4c3.3,1.3,6.7,2.1,10.3,2.2
		l3.6,6.5c0.1,0.2,0.4,0.4,0.6,0.3l8.8-1.6c0.3,0,0.5-0.3,0.5-0.5l1.1-7.3c3.2-1.4,6.2-3.3,8.8-5.7l7.2,2c0.3,0.1,0.5,0,0.7-0.2
		l5.1-7.3c0.1-0.2,0.1-0.5,0-0.7l-4.4-6c1.3-3.3,2.1-6.7,2.3-10.3l6.5-3.6c0.2-0.1,0.3-0.4,0.3-0.6l-1.6-8.8c0-0.3-0.2-0.5-0.5-0.5
		l-7.3-1.1c-1.4-3.2-3.3-6.2-5.7-8.8l2-7.2c0.1-0.3,0-0.5-0.2-0.7L135.2,140.3z"/>
	<path class="st2" d="M115.9,183.8c-4.9-0.4-8.5-4.6-8.1-9.4c0.4-4.9,4.6-8.5,9.4-8.1c4.9,0.4,8.5,4.6,8.1,9.4
		c-0.2,3.2-2.2,6-5.2,7.4C118.8,183.6,117.3,183.9,115.9,183.8z M117,168c-1.2-0.1-2.3,0.1-3.4,0.6c-3.5,1.6-5.1,5.7-3.5,9.3
		c1.6,3.5,5.7,5.1,9.3,3.5c3.5-1.6,5.1-5.7,3.5-9.3c-0.8-1.7-2.2-3-3.9-3.7C118.4,168.2,117.7,168,117,168z"/>
	<path class="st2" d="M114.7,197.5c-10.2-0.8-18.6-8.4-20.4-18.4c-2.2-12.2,5.9-23.9,18.1-26c0,0,0,0,0,0l0.5-0.1
		c1.3-0.2,2.5-0.3,3.8-0.3h0.5l-0.1,1.8c-1.5,0-2.9,0.1-4.4,0.3l0,0c-5.1,0.9-9.7,3.7-12.8,7.8c-0.2,0.2-0.3,0.5-0.5,0.7
		c-2.1,3-3.4,6.5-3.6,10.2c-0.1,1.7,0,3.5,0.3,5.2c2,11.2,12.7,18.7,24,16.6c11.2-2,18.7-12.7,16.6-24c-0.7-3.7-2.3-7.1-4.7-9.9
		l1.4-1.2c8.1,9.4,7.1,23.6-2.2,31.7C126.6,196,120.7,197.9,114.7,197.5L114.7,197.5z"/>
	<path class="st1" d="M226.5,126.6c-0.3,0-0.5-0.2-0.7-0.4c-0.5-0.9-1-1.9-1.6-2.7c-0.3-0.4-0.2-0.9,0.1-1.1
		c0.4-0.3,0.9-0.2,1.1,0.1c0,0,0.1,0.1,0.1,0.1c0.6,0.9,1.1,1.9,1.6,2.9c0.2,0.4,0.1,0.9-0.3,1.1c0,0,0,0,0,0
		C226.8,126.5,226.6,126.6,226.5,126.6z"/>
	<path class="st1" d="M197.9,177.1c-0.4,0-0.8-0.4-0.8-0.8s0.4-0.8,0.8-0.8c1.6-0.1,3.1-0.3,4.7-0.7c0.5-0.1,1.1-0.3,1.6-0.4
		c0.4-0.1,0.9,0.1,1,0.5c0.1,0.4-0.1,0.9-0.5,1c0,0-0.1,0-0.1,0c-0.6,0.1-1.1,0.3-1.7,0.4c-1.6,0.3-3.3,0.6-4.9,0.7L197.9,177.1z
		 M214,171.9c-0.4,0-0.8-0.4-0.7-0.9c0-0.3,0.2-0.5,0.4-0.6c1.8-1.2,3.5-2.5,5-3.9c0.3-0.3,0.8-0.4,1.1-0.1c0.3,0.3,0.4,0.8,0.1,1.1
		c0,0-0.1,0.1-0.1,0.1c-1.6,1.5-3.4,2.9-5.3,4.1C214.4,171.8,214.2,171.9,214,171.9z M225.8,159.6c-0.1,0-0.2,0-0.3-0.1
		c-0.4-0.2-0.5-0.7-0.3-1.1c1.1-1.9,1.9-3.8,2.6-5.8c0.1-0.4,0.6-0.7,1-0.6c0.4,0.1,0.7,0.6,0.6,1c0,0,0,0.1,0,0.1
		c-0.7,2.1-1.6,4.2-2.7,6.1C226.4,159.4,226.1,159.6,225.8,159.6L225.8,159.6z M230.3,143.2c-0.4,0-0.8-0.4-0.7-0.8
		c0-2.1-0.1-4.3-0.5-6.4c-0.1-0.4,0.2-0.9,0.6-1c0.4-0.1,0.9,0.2,1,0.6c0,0,0,0.1,0,0.1c0.4,2.2,0.5,4.4,0.5,6.7
		C231.1,142.8,230.8,143.2,230.3,143.2C230.3,143.2,230.3,143.2,230.3,143.2L230.3,143.2z"/>
	<path class="st1" d="M187.3,176.3c0,0-0.1,0-0.1,0c-1.1-0.3-2.1-0.6-3.2-0.9c-0.4-0.2-0.6-0.6-0.5-1c0.2-0.4,0.6-0.6,1-0.5
		c1,0.3,2,0.6,3,0.9c0.4,0.1,0.7,0.6,0.6,1C188,176,187.7,176.3,187.3,176.3L187.3,176.3z"/>
	<path class="st1" d="M164.5,158.4c-0.3,0-0.5-0.2-0.7-0.4c-0.5-1-1-2-1.4-3c-0.2-0.4,0-0.9,0.4-1.1s0.9,0,1.1,0.4c0,0,0,0.1,0,0.1
		c0.4,1,0.8,1.9,1.3,2.9c0.2,0.4,0.1,0.9-0.3,1.1c0,0,0,0,0,0C164.8,158.4,164.7,158.4,164.5,158.4z"/>
	<path class="st1" d="M160.7,145.4c-0.4,0-0.7-0.3-0.7-0.7c-0.2-1.9-0.2-3.8,0-5.7c0-0.3,0-0.6,0.1-0.8c0.1-0.4,0.4-0.8,0.9-0.7
		c0.4,0,0.8,0.4,0.7,0.9c0,0.3,0,0.5-0.1,0.8c-0.1,1.8-0.1,3.7,0,5.5C161.6,144.9,161.3,145.3,160.7,145.4L160.7,145.4z
		 M163.3,128.9c-0.1,0-0.2,0-0.3-0.1c-0.4-0.2-0.6-0.6-0.4-1.1c0.9-2,1.9-4,3.1-5.8c0.2-0.4,0.7-0.5,1.1-0.2
		c0.4,0.2,0.5,0.7,0.2,1.1c-1.2,1.8-2.1,3.6-3,5.5C164,128.7,163.7,128.9,163.3,128.9L163.3,128.9z M173.3,115.4
		c-0.2,0-0.4-0.1-0.6-0.3c-0.3-0.3-0.2-0.8,0.1-1.1c0,0,0,0,0,0c1.7-1.4,3.5-2.6,5.4-3.7c0.4-0.2,0.9,0,1.1,0.4c0.2,0.4,0,0.8-0.3,1
		c-1.8,1-3.6,2.2-5.2,3.5C173.7,115.4,173.5,115.5,173.3,115.4L173.3,115.4z M188.4,108.2c-0.4,0-0.7-0.3-0.7-0.6
		c-0.1-0.4,0.2-0.9,0.6-1c2.2-0.4,4.3-0.7,6.5-0.7c0.4,0,0.8,0.3,0.8,0.8c0,0,0,0,0,0c0,0.4-0.3,0.8-0.8,0.8c0,0,0,0,0,0
		c-2.1,0-4.2,0.3-6.2,0.7C188.6,108.2,188.5,108.2,188.4,108.2L188.4,108.2z"/>
	<path class="st1" d="M208.2,109.9c-0.1,0-0.2,0-0.2-0.1c-1-0.4-2-0.7-3-1c-0.4-0.1-0.7-0.5-0.6-1c0.1-0.4,0.5-0.7,1-0.6
		c0,0,0.1,0,0.1,0c1.1,0.3,2.1,0.7,3.1,1.1c0.4,0.2,0.6,0.6,0.4,1.1C208.9,109.8,208.5,110,208.2,109.9L208.2,109.9z"/>
	<path class="st1" d="M208.4,118.1c-0.1-0.1-0.3-0.1-0.5,0l-4.1,3c-2.2-0.9-4.6-1.4-7-1.5l-2.5-4.4c-0.1-0.2-0.3-0.2-0.4-0.2l-6,1.1
		c-0.2,0-0.3,0.2-0.3,0.3l-0.8,5c-2.2,1-4.3,2.3-6.1,3.9l-4.9-1.4c-0.2,0-0.4,0-0.5,0.2l-3.5,5c-0.1,0.1-0.1,0.3,0,0.5l3,4.1
		c-0.9,2.2-1.4,4.6-1.5,7l-4.4,2.5c-0.2,0.1-0.2,0.3-0.2,0.4l1.1,6c0,0.2,0.2,0.3,0.4,0.3l5,0.8c1,2.2,2.3,4.3,3.9,6.1l-1.4,4.9
		c-0.1,0.2,0,0.4,0.2,0.5l5,3.5c0.1,0.1,0.3,0.1,0.5,0l4.1-3c2.2,0.9,4.6,1.4,7,1.5l2.5,4.4c0.1,0.2,0.3,0.2,0.4,0.2l6-1.1
		c0.2,0,0.3-0.2,0.3-0.4l0.8-5c2.2-1,4.3-2.3,6-3.9l4.9,1.4c0.2,0.1,0.4,0,0.5-0.2l3.5-5c0.1-0.1,0.1-0.3,0-0.5l-3-4.1
		c0.9-2.2,1.4-4.6,1.5-7l4.4-2.5c0.2-0.1,0.2-0.3,0.2-0.4l-1.1-6c0-0.2-0.2-0.3-0.3-0.3l-5-0.8c-1-2.2-2.3-4.3-3.9-6l1.4-4.9
		c0-0.2,0-0.4-0.2-0.5L208.4,118.1z"/>
	<path class="st2" d="M195.1,148.4c-3.7-0.3-6.4-3.4-6.1-7.1c0.2-2.4,1.7-4.6,3.9-5.6l0,0c3.3-1.5,7.3,0,8.8,3.3
		c1.5,3.3,0,7.3-3.3,8.8C197.3,148.3,196.2,148.5,195.1,148.4z M193.8,138c-2.1,1-3.1,3.5-2.1,5.6c1,2.1,3.5,3.1,5.6,2.1
		c2.1-1,3.1-3.5,2.1-5.6C198.4,138,195.9,137,193.8,138z"/>
	<path class="st2" d="M194.3,157.9c-7.2-0.6-13.2-5.9-14.5-13.1c-0.2-1.3-0.3-2.7-0.2-4c0.6-7.2,5.9-13.2,13.1-14.5
		c1.1-0.2,2.3-0.3,3.4-0.2l-0.1,2.4c-1,0-1.9,0-2.9,0.2c-3.4,0.6-6.4,2.5-8.4,5.2l-0.1,0.1l-0.2,0.3c-4.3,6.1-2.7,14.6,3.4,18.8
		c6.1,4.3,14.6,2.7,18.8-3.4c3.5-5.1,3.2-11.9-0.9-16.6l1.8-1.6c1.9,2.2,3.2,4.8,3.7,7.7c0.2,1.3,0.3,2.7,0.2,4
		c-0.6,7.2-5.9,13.2-13.1,14.5C197,157.9,195.6,158,194.3,157.9z"/>
	
		<linearGradient id="SVGID_1_" gradientUnits="userSpaceOnUse" x1="483.7133" y1="1325.0375" x2="443.8924" y2="1387.3615" gradientTransform="matrix(0.96 0.27 0.27 -0.96 -631.7122 1534.7112)">
		<stop  offset="0" style="stop-color:#4F52FF"/>
		<stop  offset="1" style="stop-color:#4042E2"/>
	</linearGradient>
	<path class="st3" d="M173.7,288.3c-21-4.6-5.2-35.7-4.4-36.9l-37.6,13.2c0,0-3.4,18.1,20,34.7c5.1,3.7,11.2,6,17.5,6.4
		C168.9,299.6,170.4,293.5,173.7,288.3z"/>
	
		<linearGradient id="SVGID_2_" gradientUnits="userSpaceOnUse" x1="435.2207" y1="1419.1482" x2="491.6816" y2="1419.1482" gradientTransform="matrix(0.96 0.27 0.27 -0.96 -631.7122 1534.7112)">
		<stop  offset="0" style="stop-color:#FEBBBA"/>
		<stop  offset="1" style="stop-color:#FF928E"/>
	</linearGradient>
	<path class="st4" d="M216.3,289.8c-6.2-7.5-16.4-4.7-16.4-4.7c-12.2,3.8-20.6,4.5-26.3,3.2c-3.2,5.2-4.8,11.3-4.4,17.4
		c12.2,0.8,22.8-5.2,27.6-8.4c1.7-1.2,4.1-0.8,5.3,0.9c1.2,1.7,2.3,3.9,1.5,5.6c-1.6,3.4,2.3,5.8,2.9,4.5c0.7-1.2,1.1-9.4,1.1-9.4
		s5.9,10.7,8.3,14.9c2.3,4.2,7.3,2.1,7.3,2.1S222.5,297.3,216.3,289.8z"/>
	
		<linearGradient id="SVGID_3_" gradientUnits="userSpaceOnUse" x1="-461.2074" y1="-1224.41" x2="-588.1666" y2="-1316.7402" gradientTransform="matrix(0.9593 -0.2825 -0.2825 -0.9593 262.5904 -1094.818)">
		<stop  offset="0" style="stop-color:#4F52FF"/>
		<stop  offset="1" style="stop-color:#4042E2"/>
	</linearGradient>
	<path class="st5" d="M90.1,209.4c0,0,26.4-20.8,95.5,8.8c0,0,7.5,8.2,4.9,18.3s-38.6,66-38.4,91.1c0,0-26,17.8-62.3,4.4
		C89.9,332,73.5,266.8,90.1,209.4z"/>
	
		<linearGradient id="SVGID_4_" gradientUnits="userSpaceOnUse" x1="152.8268" y1="107.1147" x2="198.1379" y2="167.29" gradientTransform="matrix(1 0 0 -1 -39.3 357.2)">
		<stop  offset="0" style="stop-color:#FEBBBA"/>
		<stop  offset="1" style="stop-color:#FF928E"/>
	</linearGradient>
	<path class="st6" d="M146,181.3l-9.5,22.2c-0.9,2.2-0.5,4.7,1.1,6.5c3.3,3.6,9.9,8.2,20.4,4.2c3.1-1.2,5.4-4,5.9-7.3l4-24.3
		L146,181.3z"/>
	
		<linearGradient id="SVGID_5_" gradientUnits="userSpaceOnUse" x1="-479.4188" y1="-1199.3711" x2="-606.3779" y2="-1291.7013" gradientTransform="matrix(0.9593 -0.2825 -0.2825 -0.9593 262.5904 -1094.818)">
		<stop  offset="0" style="stop-color:#4F52FF"/>
		<stop  offset="1" style="stop-color:#4042E2"/>
	</linearGradient>
	<path class="st7" d="M89.4,292.6c-7.6-13.1,18.2-55,18.2-55l-17.6-28.2c0,0-61,72.9-29.7,107.8c4.5,5,9.4,8,14.4,9.5
		C76.1,308.4,83.6,298,89.4,292.6z"/>
	
		<linearGradient id="SVGID_6_" gradientUnits="userSpaceOnUse" x1="189.7451" y1="123.3494" x2="139.0048" y2="94.0887" gradientTransform="matrix(1 0 0 -1 -39.3 357.2)">
		<stop  offset="0" style="stop-color:#09005D"/>
		<stop  offset="1" style="stop-color:#1A0F91"/>
	</linearGradient>
	<path class="st8" d="M88.8,292.6c-0.4,0.1-0.8-0.1-1-0.4c-7.8-13.4,17.2-54.1,18.2-55.9c0.3-0.4,0.8-0.5,1.2-0.2
		c0.4,0.3,0.5,0.8,0.3,1.2c-0.3,0.4-25.5,41.6-18.2,54.1c0.2,0.4,0.1,0.9-0.3,1.2C88.9,292.5,88.9,292.6,88.8,292.6z"/>
	
		<linearGradient id="SVGID_7_" gradientUnits="userSpaceOnUse" x1="12.8992" y1="-256.2483" x2="-130.517" y2="-505.4627" gradientTransform="matrix(0.9977 -6.818942e-02 -6.818942e-02 -0.9977 107.308 48.2486)">
		<stop  offset="0" style="stop-color:#FEBBBA"/>
		<stop  offset="1" style="stop-color:#FF928E"/>
	</linearGradient>
	<path class="st9" d="M150.8,291.2c-4.7,1.3-9,3.6-13.7,4.8c-5.2,1.4-10.4,2.9-15.7,4.1c-8.2,1.8-19,4-26.1-1.7
		c-0.6-0.5-5.5-6-5.8-5.8c-13,7.5-15.6,25.2-15.6,33.7c23.8,13,61.2-12.3,71.3-19.7c1.7-1.2,3.7-1.7,5.7-1.5
		c4.1,0.6,11.2,1.3,15,0.5c5.5-1.2,14.8,17.8,23.3,11.1C189.2,316.7,179.2,283.3,150.8,291.2z"/>
	
		<linearGradient id="SVGID_8_" gradientUnits="userSpaceOnUse" x1="356.3479" y1="241.3962" x2="310.1354" y2="206.042" gradientTransform="matrix(0.9938 0.1109 0.1109 -0.9938 -204.3741 366.7499)">
		<stop  offset="0" style="stop-color:#FEBBBA"/>
		<stop  offset="1" style="stop-color:#FF928E"/>
	</linearGradient>
	<path class="st10" d="M176.7,150c0,0,6,19.4,5.4,29.1c-0.6,9.7,0.8,16.3-10.6,16.9s-20.2-5.9-24.3-16.1c0,0-6.4-15.8-3.9-21.6
		C145.9,152.3,176.7,150,176.7,150z"/>
	
		<linearGradient id="SVGID_9_" gradientUnits="userSpaceOnUse" x1="323.8983" y1="269.2828" x2="365.7458" y2="215.4043" gradientTransform="matrix(0.9938 0.1109 0.1109 -0.9938 -204.3741 366.7499)">
		<stop  offset="0" style="stop-color:#09005D"/>
		<stop  offset="1" style="stop-color:#1A0F91"/>
	</linearGradient>
	<path class="st11" d="M151.9,173.4l1.4,0.2c0,0-4.5-12.6,0.9-14.1c5.4-1.5,26.1-3.4,31.3-10.1c5-6.5,2.2-15.9-3.1-19
		c-0.3-0.2-0.8-0.1-1,0.3l-0.6,0.8c-0.2,0.4-0.7,0.4-1.1,0.2c-0.2-0.1-0.3-0.3-0.3-0.5l0,0c-0.1-0.4-0.4-0.7-0.9-0.7
		c-0.2,0-0.4,0.1-0.5,0.3c-1.6,2-5.6,5.1-15.5,5.8c-14.1,1-23.9,5.6-25.2,15.1c-0.1,0.4-0.4,0.7-0.9,0.7c-0.1,0-0.3-0.1-0.4-0.2
		c-1-0.7-2.6-1.2-4.9,0.4c-4.1,2.8-3.5,11.2,4.1,19c0.3,0.3,0.3,0.8,0,1.1c-0.1,0.1-0.1,0.1-0.2,0.1c-1.6,0.8-4.1,2.9,1.4,6.7
		c5.6,3.8,9.2,3.9,10.5,3.7c0.4,0,0.7-0.3,0.7-0.7l0.4-8.5c0-0.4,0.4-0.7,0.8-0.7c0,0,0,0,0.1,0L151.9,173.4z"/>
	
		<linearGradient id="SVGID_10_" gradientUnits="userSpaceOnUse" x1="350.6371" y1="248.8554" x2="304.4312" y2="213.5012" gradientTransform="matrix(0.9938 0.1109 0.1109 -0.9938 -204.3741 366.7499)">
		<stop  offset="0" style="stop-color:#FEBBBA"/>
		<stop  offset="1" style="stop-color:#FF928E"/>
	</linearGradient>
	<path class="st12" d="M152,175.2c0,0-1.7-12.1-7.4-9.4c-5.7,2.7,1.3,13.5,5.5,14.4L152,175.2z"/>
	
		<linearGradient id="SVGID_11_" gradientUnits="userSpaceOnUse" x1="10405.5576" y1="-658.6111" x2="10332.1172" y2="-678.7419" gradientTransform="matrix(-1.05 -3.000000e-02 3.000000e-02 -1 11092.7607 -33.3954)">
		<stop  offset="0" style="stop-color:#09005D"/>
		<stop  offset="1" style="stop-color:#1A0F91"/>
	</linearGradient>
	<path class="st13" d="M133.5,327.9h0.2l96-1.5c2.2,0,4-1.9,4-4.2c0-2.2-1.9-4-4.2-4l-96,1.5c-2.2,0-4.1,1.8-4.1,4
		C129.4,326.1,131.2,327.9,133.5,327.9L133.5,327.9z"/>
	
		<linearGradient id="SVGID_12_" gradientUnits="userSpaceOnUse" x1="208.489" y1="196.167" x2="172.3824" y2="147.555" gradientTransform="matrix(1 0 0 -1 -39.3 357.2)">
		<stop  offset="0" style="stop-color:#4F52FF"/>
		<stop  offset="1" style="stop-color:#4042E2"/>
	</linearGradient>
	<path class="st14" d="M170.9,187.3c-17.1,1.5-31.1-11.9-31.2-12.1v-3c0.1,0.2,14.8,15.1,31.1,13.7L170.9,187.3z"/>
	
		<linearGradient id="SVGID_13_" gradientUnits="userSpaceOnUse" x1="222.6029" y1="183.3329" x2="201.1233" y2="155.2516" gradientTransform="matrix(1 0 0 -1 -39.3 357.2)">
		<stop  offset="0" style="stop-color:#4F52FF"/>
		<stop  offset="1" style="stop-color:#4042E2"/>
	</linearGradient>
	<path class="st15" d="M177.8,186.6c0,1.1-0.8,2-1.8,2h-4.9c-1.1-0.1-1.9-1-1.8-2l0,0c0-1.1,0.8-2,1.8-2h4.9
		C177.1,184.6,177.9,185.5,177.8,186.6z"/>
	
		<linearGradient id="SVGID_14_" gradientUnits="userSpaceOnUse" x1="220.466" y1="31.1141" x2="60.4436" y2="4.6798" gradientTransform="matrix(0.9856 -0.1692 -0.1692 -0.9856 -4.6949 194.9125)">
		<stop  offset="0" style="stop-color:#4F52FF"/>
		<stop  offset="1" style="stop-color:#4042E2"/>
	</linearGradient>
	<path class="st16" d="M148.4,157c0,0-3.9-20.8,20.2-21c0.2,0,0.3-0.1,0.3-0.3c0-0.1-0.1-0.2-0.2-0.3c-6.6-1.5-25.8-3.8-26.1,21.2
		C146.3,158,148.4,157,148.4,157z"/>
	
		<linearGradient id="SVGID_15_" gradientUnits="userSpaceOnUse" x1="200.6544" y1="214.0943" x2="182.957" y2="186.2435" gradientTransform="matrix(1 0 0 -1 -39.3 357.2)">
		<stop  offset="0" style="stop-color:#4F52FF"/>
		<stop  offset="1" style="stop-color:#4042E2"/>
	</linearGradient>
	<path class="st17" d="M144,154.5c-9.4,1.9-8.2,13.8-8.2,13.8c-0.7,8.6,1.8,12.9,5.1,14.9c3.5,2.2,8.1,1.1,10.3-2.4
		c0.6-1,1-2.2,1.1-3.4c0.2-2.3,0.4-4.6,0.5-5.4C153.1,170.2,153.4,152.5,144,154.5z"/>
	
		<linearGradient id="SVGID_16_" gradientUnits="userSpaceOnUse" x1="184.0487" y1="186.6111" x2="152.4292" y2="250.0873" gradientTransform="matrix(1 0 0 -1 -39.3 357.2)">
		<stop  offset="0" style="stop-color:#4F52FF"/>
		<stop  offset="1" style="stop-color:#4042E2"/>
	</linearGradient>
	<path class="st18" d="M144.9,157.5c-2-0.3-3.9,0.7-4.7,2.5c-5.6,13,1.3,21.5,4.7,21.7c3.6,0.2,3.5-17,2.7-21.4
		C147.4,158.8,146.3,157.6,144.9,157.5z"/>
	
		<linearGradient id="SVGID_17_" gradientUnits="userSpaceOnUse" x1="239.5649" y1="-18.3117" x2="243.6589" y2="71.7818" gradientTransform="matrix(1 0 0 -1 -39.3 357.2)">
		<stop  offset="0" style="stop-color:#09005D"/>
		<stop  offset="1" style="stop-color:#1A0F91"/>
	</linearGradient>
	<path class="st19" d="M56.5,331.2c-0.2-1.1,0-2.3,0.6-3.3c0.4-0.9,1.2-1.4,2.2-1.5H345c1.1,0,2.1,0.8,2.7,2.1
		c0.6,1.4,0.7,3,0.2,4.5l-3.1,9.6c-0.7,2.2-2.2,3.6-3.9,3.6H61.2c-1.6,0-2.9-1.6-3.2-3.8L56.5,331.2z"/>
	<path class="st1" d="M340.9,346.5H61.2c-1.7,0-3.3-1.7-3.6-4.1l-1.5-11.2c-0.2-1.2,0-2.5,0.6-3.6c0.5-1,1.4-1.6,2.5-1.7H345
		c1.3,0,2.4,0.9,3.1,2.4c0.6,1.5,0.7,3.2,0.2,4.7l-3.1,9.6C344.4,345,342.7,346.5,340.9,346.5z M56.8,331.2l1.5,11.2
		c0.3,2,1.5,3.5,2.9,3.5h279.7c1.5,0,2.9-1.3,3.6-3.4l3.1-9.6c0.4-1.4,0.4-2.9-0.2-4.2c-0.5-1.2-1.4-1.9-2.4-1.9H59.2
		c-0.8,0.1-1.5,0.6-1.9,1.3C56.9,329,56.7,330.1,56.8,331.2L56.8,331.2z"/>
	
		<linearGradient id="SVGID_18_" gradientUnits="userSpaceOnUse" x1="297.6941" y1="135.094" x2="328.5138" y2="56.2792" gradientTransform="matrix(1 0 0 -1 -39.3 357.2)">
		<stop  offset="0" style="stop-color:#09005D"/>
		<stop  offset="1" style="stop-color:#1A0F91"/>
	</linearGradient>
	<path class="st20" d="M207.6,217.3c-1.6,13.2-8.9,66.8-11,82.1c-0.3,1.9,1.1,3.7,3,4c0.2,0,0.4,0,0.6,0l123.2-3.5
		c1.6,0,3-1.2,3.3-2.8l19.2-86.3c0.4-1.9-0.8-3.8-2.7-4.2c-0.3-0.1-0.6-0.1-1-0.1l-131.4,7.7C209.1,214.4,207.8,215.7,207.6,217.3z"
		/>
	
		<linearGradient id="SVGID_19_" gradientUnits="userSpaceOnUse" x1="293.9828" y1="103.76" x2="311.5989" y2="-4.5528" gradientTransform="matrix(1 0 0 -1 -39.3 357.2)">
		<stop  offset="0" style="stop-color:#09005D"/>
		<stop  offset="1" style="stop-color:#1A0F91"/>
	</linearGradient>
	<path class="st21" d="M257.1,271.4l-18.2,51.7l42.3,0.9l3.5-52.2c0.2-2.2-1.5-4.2-3.8-4.3c-0.2,0-0.4,0-0.5,0l-19.8,1.3
		C259,268.9,257.6,269.9,257.1,271.4z"/>
	<path class="st1" d="M281.5,324.4h-0.3l-42.8-0.9l18.4-52.1c0.6-1.7,2.1-2.8,3.9-2.9l19.7-1.3c2.4-0.2,4.5,1.7,4.7,4.1
		c0,0.2,0,0.4,0,0.6L281.5,324.4z M239.4,322.8l41.5,0.9l3.5-51.9c0.1-2-1.4-3.8-3.5-3.9c-0.2,0-0.3,0-0.5,0l-19.7,1.3
		c-1.5,0.1-2.8,1.1-3.3,2.5L239.4,322.8z"/>
	
		<linearGradient id="SVGID_20_" gradientUnits="userSpaceOnUse" x1="286.0597" y1="40.7612" x2="338.0133" y2="6.7084" gradientTransform="matrix(1 0 0 -1 -39.3 357.2)">
		<stop  offset="0" style="stop-color:#09005D"/>
		<stop  offset="1" style="stop-color:#1A0F91"/>
	</linearGradient>
	<path class="st22" d="M221.7,323.9L221.7,323.9c-0.4,1.2,0.2,2.4,1.4,2.8c0.2,0.1,0.5,0.1,0.7,0.1h66.3c1.2,0,2.2-1,2.2-2.2
		c0,0,0,0,0,0v-2.9c0-1.2-1-2.2-2.2-2.2c0,0-0.1,0-0.1,0l-66.3,2.9C222.8,322.4,222,323,221.7,323.9z"/>
	<path class="st1" d="M290.1,327.1h-66.3c-1.4,0-2.6-1.1-2.6-2.5c0-0.3,0-0.6,0.1-0.9c0.3-1,1.3-1.7,2.3-1.7l66.3-2.8
		c1.4-0.1,2.6,1,2.7,2.4c0,0,0,0.1,0,0.1v2.8C292.7,325.9,291.5,327.1,290.1,327.1C290.1,327.1,290.1,327.1,290.1,327.1z
		 M290.1,319.9L290.1,319.9l-66.4,2.8c-0.8,0-1.4,0.5-1.7,1.3l0,0c-0.3,1,0.2,2,1.2,2.3c0.2,0.1,0.4,0.1,0.6,0.1h66.3
		c1,0,1.8-0.8,1.8-1.8l0,0v-2.9c0-0.5-0.2-1-0.6-1.4C291,320,290.5,319.8,290.1,319.9L290.1,319.9z"/>
	<path class="st1" d="M205.7,271.8l-0.9-0.1l6.1-47.7c0.4-3,2.8-5.2,5.8-5.4l113.5-6.9l0.1,0.9l-113.5,6.9c-2.6,0.2-4.6,2.1-5,4.6
		L205.7,271.8z"/>
	
		<rect x="197.7" y="290.1" transform="matrix(0.125 -0.9922 0.9922 0.125 -110.7456 455.4939)" class="st1" width="10.4" height="0.9"/>
	
		<linearGradient id="SVGID_21_" gradientUnits="userSpaceOnUse" x1="320.2616" y1="277.6593" x2="70.6812" y2="-188.5807" gradientTransform="matrix(1 0 0 -1 -39.3 357.2)">
		<stop  offset="0" style="stop-color:#FF928E"/>
		<stop  offset="1" style="stop-color:#FE7062"/>
	</linearGradient>
	<path class="st23" d="M245,90.6v26.6c0,3.2,2.5,5.8,5.6,5.9l33.2,1.6c3.3,0.2,6-2.4,6.2-5.6c0-0.1,0-0.2,0-0.3V90.6
		c0-3.3-2.6-5.9-5.9-5.9c0,0,0,0,0,0h-33.2C247.7,84.7,245,87.3,245,90.6C245,90.6,245,90.6,245,90.6z"/>
	<path class="st1" d="M257.7,97.7l-1.3-4.8l-3.8-2l-0.5,0.9l3.4,1.8l4.1,14.8l0.1,0.4h16.5c1.6,0,3.1-0.8,4-2.1l0.7-1
		c0.8-1.2,1.3-2.6,1.3-4.1v-3.9L257.7,97.7z M280.9,101.7c0,1.3-0.4,2.5-1.1,3.5l-0.7,1.1c-0.7,1.1-1.8,1.7-3.1,1.8h-15.6l-0.9-3.2
		l-1.6-6h23V101.7z"/>
	<path class="st1" d="M279.9,114.3c0,0.3-0.2,0.6-0.5,0.6H260c-0.3,0-0.6-0.5-0.6-0.8V105c0-0.1,0.1-0.1,0.1-0.2l0.9,3.3h0.2v5.6
		h18.7C279.7,113.7,279.9,114,279.9,114.3z"/>
	<rect x="269.2" y="98.3" class="st1" width="0.7" height="9.9"/>
	<rect x="262.9" y="98.3" class="st1" width="0.7" height="9.9"/>
	<rect x="275.3" y="98.3" class="st1" width="0.7" height="9.9"/>
	<rect x="258.2" y="101.2" class="st1" width="22.9" height="0.6"/>
	<rect x="259.2" y="104.6" class="st1" width="21.4" height="0.6"/>
	<path class="st1" d="M262.5,115.5c-1.3,0-2.3,1-2.3,2.3c0,1.3,1,2.3,2.3,2.3c1.3,0,2.3-1,2.3-2.3v0
		C264.8,116.5,263.8,115.5,262.5,115.5C262.5,115.5,262.5,115.5,262.5,115.5z M262.5,119.2c-0.7,0-1.4-0.6-1.4-1.4s0.6-1.4,1.4-1.4
		s1.4,0.6,1.4,1.4S263.3,119.2,262.5,119.2z"/>
	<path class="st1" d="M276.7,115.5c-1.3,0-2.3,1-2.3,2.3c0,1.3,1,2.3,2.3,2.3c1.3,0,2.3-1,2.3-2.3v0
		C279,116.5,278,115.5,276.7,115.5C276.7,115.5,276.7,115.5,276.7,115.5z M276.7,119.2c-0.7,0-1.4-0.6-1.4-1.4s0.6-1.4,1.4-1.4
		s1.4,0.6,1.4,1.4S277.4,119.2,276.7,119.2z"/>
	<path class="st1" d="M254.9,91.8c0,0.6-0.5,1.1-1.1,1.1h-3.6c-0.6,0-1.1-0.5-1.1-1.1l0,0c0-0.6,0.5-1.1,1.1-1.1h3.6
		C254.5,90.7,255,91.2,254.9,91.8L254.9,91.8z"/>
	
		<linearGradient id="SVGID_22_" gradientUnits="userSpaceOnUse" x1="253.201" y1="313.5582" x2="3.6206" y2="-152.6817" gradientTransform="matrix(1 0 0 -1 -39.3 357.2)">
		<stop  offset="0" style="stop-color:#FF928E"/>
		<stop  offset="1" style="stop-color:#FE7062"/>
	</linearGradient>
	<path class="st24" d="M173,59.9v28.5c0,3.4,2.7,6.2,6,6.3l35.6,1.7c3.5,0.2,6.5-2.5,6.6-6c0-0.1,0-0.2,0-0.3V59.9
		c0-3.5-2.8-6.3-6.3-6.3h-35.6C175.8,53.5,173,56.3,173,59.9C173,59.9,173,59.9,173,59.9z"/>
	<path class="st1" d="M209.5,87.8h-24.6c-1.8,0-3.3-1.5-3.3-3.3V66.6c0-1.8,1.5-3.3,3.3-3.3h24.6c1.8,0,3.3,1.5,3.3,3.3v18
		C212.8,86.4,211.3,87.8,209.5,87.8z M184.9,65.4c-0.6,0-1.1,0.5-1.1,1.1v18c0,0.6,0.5,1.1,1.1,1.1h24.6c0.6,0,1.1-0.5,1.1-1.1v-18
		c0-0.6-0.5-1.1-1.1-1.1H184.9z"/>
	<path class="st1" d="M197.2,75.9c-0.2,0-0.4-0.1-0.6-0.2L182.8,66c-0.5-0.4-0.6-1-0.3-1.5c0.4-0.5,1-0.6,1.5-0.3l0,0l13.1,9.3
		l13-9.2c0.5-0.4,1.2-0.2,1.5,0.3c0.4,0.5,0.2,1.2-0.3,1.5l-13.6,9.7C197.7,75.9,197.4,75.9,197.2,75.9z"/>
	<path class="st1" d="M183.6,87.1l-0.3-2.2l0.1,1.1l-0.9-0.6c0.3-0.4,5.2-9.1,8.5-14.8c0.3-0.5,1-0.7,1.5-0.4c0.5,0.3,0.7,1,0.4,1.5
		l0,0l-4.2,7.5c-1.1,1.9-2.1,3.7-2.9,5.1C184.2,87,184.2,87,183.6,87.1z"/>
	<path class="st1" d="M210.7,87.1c-0.5-0.1-0.5-0.1-2.1-2.9c-0.8-1.4-1.9-3.3-2.9-5.1l-4.2-7.5c-0.3-0.5-0.1-1.2,0.4-1.5
		c0.5-0.3,1.2-0.1,1.5,0.4c3.3,5.7,8.2,14.4,8.5,14.8l-0.9,0.6L210.7,87.1z"/>
	
		<linearGradient id="SVGID_23_" gradientUnits="userSpaceOnUse" x1="375.0397" y1="248.3349" x2="125.4526" y2="-217.9051" gradientTransform="matrix(1 0 0 -1 -39.3 357.2)">
		<stop  offset="0" style="stop-color:#FF928E"/>
		<stop  offset="1" style="stop-color:#FE7062"/>
	</linearGradient>
	<path class="st25" d="M286.3,148.3v25.1c0,3,2.3,5.4,5.3,5.6l31.3,1.5c3.1,0.1,5.7-2.2,5.8-5.3c0-0.1,0-0.2,0-0.3v-26.5
		c0-3.1-2.5-5.6-5.6-5.6c0,0,0,0,0,0h-31.3C288.8,142.7,286.3,145.2,286.3,148.3C286.3,148.3,286.3,148.3,286.3,148.3z"/>
	<path class="st1" d="M294.3,178.4c-0.4,0-0.9-0.1-1.2-0.4l-0.9-0.8c-0.5-0.5-0.7-1.1-0.5-1.7c0.1-0.7,0.5-1.4,1-2l0.6-0.7l0.1-0.1
		l11.3-11.3c0.1-0.1,0.3-0.1,0.4,0s0.1,0.3,0,0.4l-11.3,11.3l-0.1,0.1l-0.6,0.7c-0.4,0.5-0.7,1-0.9,1.7c-0.1,0.4,0,0.9,0.3,1.2
		l0.9,0.8c0.6,0.6,2,0.2,2.9-0.8l0.6-0.7l0.1-0.1l9-10.7c0.1-0.1,0.3-0.1,0.4,0c0.1,0.1,0.1,0.3,0,0.4l0,0l-9,10.7l-0.1,0.1
		l-0.6,0.7C296.1,178,295.2,178.4,294.3,178.4z M294.5,176.7c-0.3,0-0.6-0.1-0.8-0.3c-0.6-0.6-0.4-1.8,0.5-2.8
		c0.4-0.4,0.9-0.7,1.4-0.9c0.6-0.3,1.3,0,1.6,0.6c0.1,0.3,0.2,0.6,0,0.9c-0.1,0.6-0.4,1.1-0.8,1.5
		C296,176.2,295.3,176.6,294.5,176.7L294.5,176.7z M296.2,173.2c-0.1,0-0.3,0-0.4,0.1c-0.4,0.1-0.8,0.4-1.1,0.8
		c-0.7,0.7-0.9,1.6-0.5,2s1.2,0.1,1.9-0.7l0,0c0.3-0.3,0.6-0.8,0.7-1.2c0.1-0.3,0-0.6-0.1-0.8C296.5,173.2,296.3,173.2,296.2,173.2
		L296.2,173.2z M310.2,161.1c-0.1,0-0.1,0-0.2-0.1c-0.1-0.1-0.1-0.3,0-0.4l3.3-3.9l0.2,0.1c2.4,1.6,5.6,1.1,7.6-1.1
		c1.3-1.4,1.9-3.3,1.7-5.1c0-0.2-0.2-0.4-0.4-0.5c-0.2-0.1-0.5,0-0.7,0.2l-3.5,3.8c-0.3,0.3-0.8,0.5-1.2,0.5l-1.9-0.2
		c-0.7-0.1-1.2-0.6-1.3-1.2l-0.3-1.9c-0.1-0.4,0.1-0.9,0.4-1.2l3.5-3.8c0.2-0.2,0.2-0.4,0.1-0.7c-0.1-0.2-0.3-0.4-0.6-0.4
		c-1.9,0-3.7,0.8-5,2.2c-2,2.1-2.2,5.3-0.4,7.6l0.1,0.2l-4.2,4.2c-0.1,0.1-0.3,0.1-0.4,0c-0.1-0.1-0.1-0.3,0-0.4l3.9-3.9
		c-1.8-2.5-1.5-5.9,0.6-8.1c1.4-1.5,3.3-2.4,5.4-2.3c0.5,0,0.9,0.3,1.1,0.7c0.2,0.4,0.1,0.9-0.2,1.3l-3.5,3.8
		c-0.2,0.2-0.3,0.5-0.2,0.8l0.3,1.9c0.1,0.4,0.4,0.7,0.8,0.8l1.9,0.2c0.3,0,0.6-0.1,0.8-0.3l3.5-3.8c0.4-0.5,1.2-0.5,1.7-0.1
		c0.2,0.2,0.3,0.5,0.4,0.7c0.2,2-0.5,4.1-1.9,5.6c-2,2.3-5.4,2.8-8.1,1.3l-3,3.5C310.4,161.1,310.3,161.1,310.2,161.1L310.2,161.1z"
		/>
	<path class="st1" d="M318.7,178.6h-0.2c-0.7-0.1-1.3-0.4-1.8-0.9l-10.5-12.8c-0.5-0.5-0.4-1.4,0.1-1.8l2.1-1.8
		c0.5-0.5,1.3-0.4,1.8,0.1l11.3,12.1c1,1,0.9,2.7-0.1,3.7c0,0,0,0-0.1,0.1l-1,0.9C319.9,178.4,319.3,178.6,318.7,178.6z
		 M308.9,161.7l-2.1,1.8c-0.2,0.2-0.3,0.6-0.1,0.8l10.5,12.9c0.6,0.8,1.8,0.9,2.6,0.3c0,0,0,0,0,0l1-0.9c0.4-0.3,0.6-0.8,0.6-1.3
		c0-0.5-0.1-1-0.5-1.4l-11.3-12.1C309.5,161.5,309.2,161.5,308.9,161.7L308.9,161.7z"/>
	<path class="st1" d="M306.9,163.2l-9.1-10.6c-0.1,0-0.3-0.1-0.4-0.1l-2.7-2.1c-0.1-0.1-0.1-0.1-0.2-0.2l-1.2-2.4
		c-0.1-0.3-0.1-0.7,0.2-0.9l0.7-0.6c0.3-0.2,0.6-0.3,0.9-0.1l2.2,1.5c0.1,0.1,0.1,0.1,0.2,0.2l1.8,2.9c0.1,0.2,0.1,0.3,0.1,0.5
		l9.4,10.5L306.9,163.2z M298,152l9,10.5l0.9-0.7l-9.2-10.4l0.1-0.2c0-0.1,0-0.1,0-0.2l-1.8-2.9l0,0l-2.2-1.5c-0.1,0-0.2,0-0.3,0.1
		l-0.7,0.6c-0.1,0.1-0.1,0.1-0.1,0.2l1.2,2.4l0,0l2.7,2.1c0,0,0.1,0,0.1,0L298,152z"/>
	
		<linearGradient id="SVGID_24_" gradientUnits="userSpaceOnUse" x1="202.5017" y1="340.6941" x2="-47.0787" y2="-125.5459" gradientTransform="matrix(1 0 0 -1 -39.3 357.2)">
		<stop  offset="0" style="stop-color:#FF928E"/>
		<stop  offset="1" style="stop-color:#FE7062"/>
	</linearGradient>
	<path class="st26" d="M96.4,77.9v30c0,3.6,2.8,6.5,6.4,6.7l37.5,1.8c3.7,0.2,6.8-2.7,7-6.4c0-0.1,0-0.2,0-0.3V77.9
		c0-3.7-3-6.7-6.7-6.7h-37.5C99.4,71.3,96.4,74.2,96.4,77.9L96.4,77.9z"/>
	<path class="st1" d="M123.2,96.4c0,2.7-0.2,5.3-0.7,8c-0.1,0.7-0.3,1.3-0.4,2c-0.2,0.6-0.4,1.3-0.6,1.9c-0.2,0.6-0.5,1.2-0.9,1.8
		c-0.2,0.3-0.4,0.5-0.7,0.8c-0.1,0.1-0.3,0.2-0.4,0.3c-0.2,0.1-0.3,0.1-0.5,0.1c-0.2,0-0.3,0-0.5-0.1c-0.2-0.1-0.3-0.2-0.4-0.3
		c-0.3-0.2-0.5-0.5-0.7-0.8c-0.4-0.6-0.7-1.2-0.9-1.8c-0.2-0.6-0.4-1.3-0.6-1.9c-0.2-0.7-0.3-1.3-0.4-2c-0.2-1.3-0.4-2.6-0.5-4
		s-0.2-2.7-0.2-4c0-0.7,0-1.4,0-2s0.1-1.4,0.1-2c0.1-1.4,0.2-2.7,0.5-4c0.1-0.7,0.2-1.3,0.4-2c0.2-0.7,0.3-1.3,0.6-1.9
		c0.1-0.3,0.2-0.6,0.4-0.9c0.1-0.3,0.3-0.6,0.5-0.9c0.2-0.3,0.4-0.5,0.7-0.8c0.1-0.1,0.3-0.2,0.4-0.3c0.2-0.1,0.3-0.1,0.5-0.1
		c0.2,0,0.3,0,0.5,0.1c0.2,0.1,0.3,0.2,0.4,0.3c0.3,0.2,0.5,0.5,0.7,0.7c0.4,0.6,0.7,1.2,0.9,1.8c0.2,0.6,0.5,1.3,0.6,1.9
		c0.2,0.7,0.3,1.3,0.5,1.9C122.9,91.1,123.2,93.7,123.2,96.4z M123,96.4c0-1.4,0-2.7-0.2-4c-0.1-1.3-0.3-2.6-0.5-4
		c-0.1-0.7-0.3-1.3-0.4-1.9c-0.2-0.6-0.4-1.3-0.6-1.9c-0.2-0.6-0.5-1.2-0.9-1.8c-0.2-0.3-0.4-0.5-0.6-0.7c-0.1-0.1-0.3-0.2-0.4-0.3
		c-0.1-0.1-0.3-0.1-0.5-0.1c-0.2,0-0.3,0-0.5,0.1c-0.2,0.1-0.3,0.2-0.4,0.3c-0.2,0.2-0.5,0.5-0.6,0.7c-0.2,0.3-0.3,0.6-0.5,0.9
		c-0.1,0.3-0.3,0.6-0.4,0.9c-0.2,0.6-0.4,1.3-0.5,1.9c-0.1,0.7-0.3,1.3-0.4,2c-0.2,1.3-0.3,2.6-0.4,4c-0.1,1.3-0.1,2.7-0.1,4
		s0,2.7,0.1,4c0.1,1.3,0.3,2.6,0.5,3.9c0.1,0.7,0.2,1.3,0.4,2c0.2,0.6,0.3,1.3,0.6,1.9c0.2,0.6,0.5,1.2,0.9,1.8
		c0.2,0.3,0.4,0.5,0.6,0.7c0.1,0.1,0.3,0.2,0.4,0.3c0.1,0.1,0.3,0.1,0.5,0.1c0.2,0,0.3,0,0.5-0.1c0.1-0.1,0.3-0.2,0.4-0.3
		c0.2-0.2,0.5-0.5,0.6-0.7c0.3-0.6,0.6-1.2,0.8-1.8c0.2-0.6,0.4-1.3,0.6-1.9c0.2-0.7,0.3-1.3,0.4-2c0.2-1.3,0.4-2.6,0.5-4
		C123,99.1,123,97.8,123,96.4L123,96.4z"/>
	<path class="st1" d="M119.1,111.6c-0.2,0-0.4,0-0.6-0.1c-0.2-0.1-0.4-0.2-0.5-0.3c-0.3-0.2-0.5-0.5-0.8-0.8
		c-0.4-0.6-0.7-1.2-0.9-1.9c-0.2-0.6-0.4-1.2-0.6-2c-0.2-0.6-0.3-1.3-0.4-2c-0.2-1.3-0.4-2.7-0.5-4c-0.1-1.3-0.2-2.7-0.2-4
		c0-0.7,0-1.4,0-2c0-0.6,0.1-1.4,0.1-2c0.1-1.4,0.3-2.8,0.5-4c0.1-0.7,0.2-1.4,0.4-2c0.2-0.7,0.3-1.3,0.6-2c0.1-0.4,0.3-0.7,0.4-1
		c0.1-0.3,0.3-0.6,0.5-0.9c0.2-0.3,0.4-0.6,0.7-0.9c0.2-0.1,0.3-0.2,0.5-0.3c0.4-0.2,0.9-0.2,1.3,0c0.2,0.1,0.4,0.2,0.5,0.3
		c0.3,0.2,0.5,0.5,0.7,0.8c0.4,0.6,0.7,1.2,1,1.9c0.3,0.6,0.5,1.3,0.7,1.9c0.2,0.6,0.3,1.3,0.5,2c0.5,2.6,0.8,5.3,0.7,8l0,0
		c0,2.7-0.2,5.4-0.7,8c-0.1,0.7-0.3,1.4-0.4,2c-0.2,0.7-0.4,1.3-0.6,2c-0.2,0.7-0.5,1.3-0.9,1.9c-0.2,0.3-0.4,0.6-0.7,0.9
		c-0.2,0.1-0.3,0.2-0.5,0.3C119.5,111.6,119.3,111.6,119.1,111.6L119.1,111.6z M118.9,82.2c-0.1,0-0.2,0-0.3,0.1
		c-0.1,0-0.2,0.1-0.3,0.2c-0.2,0.2-0.4,0.4-0.6,0.7c-0.2,0.3-0.3,0.5-0.4,0.8c-0.1,0.3-0.2,0.6-0.3,0.9c-0.2,0.6-0.4,1.2-0.5,1.9
		c-0.1,0.6-0.3,1.2-0.4,1.9c-0.2,1.2-0.3,2.5-0.4,3.9c-0.1,1.2-0.1,2.5-0.1,4c0,1.4,0,2.7,0.1,4c0.1,1.4,0.3,2.7,0.5,3.9
		c0.1,0.7,0.3,1.3,0.4,1.9c0.2,0.6,0.3,1.2,0.6,1.9c0.2,0.6,0.5,1.2,0.8,1.7c0.2,0.3,0.3,0.5,0.6,0.7c0.1,0.1,0.2,0.1,0.3,0.2
		c0.1,0,0.2,0.1,0.3,0.1c0.1,0,0.2,0,0.3-0.1c0.1-0.1,0.2-0.1,0.3-0.2c0.2-0.2,0.4-0.4,0.6-0.7c0.3-0.5,0.6-1.1,0.8-1.7
		c0.2-0.6,0.4-1.2,0.6-1.9c0.2-0.7,0.3-1.2,0.4-1.9c0.2-1.2,0.4-2.5,0.5-3.9c0.1-1.3,0.1-2.6,0.1-4l0,0c0-1.4,0-2.7-0.2-3.9
		c-0.1-1.3-0.3-2.6-0.5-3.9c-0.1-0.7-0.3-1.3-0.4-1.9c-0.2-0.6-0.4-1.2-0.6-1.9c-0.2-0.6-0.5-1.2-0.8-1.7c-0.2-0.3-0.4-0.5-0.6-0.7
		c-0.1-0.1-0.2-0.2-0.3-0.2C119.1,82.2,119,82.2,118.9,82.2L118.9,82.2z"/>
	<path class="st1" d="M129.9,96.4c0,1.7-0.2,3.4-0.7,5.1c-0.5,1.7-1.2,3.2-2.1,4.7c-0.5,0.7-1,1.4-1.6,2c-0.6,0.6-1.3,1.2-2,1.6
		c-0.7,0.5-1.5,0.8-2.3,1.1c-1.6,0.5-3.4,0.5-5.1,0c-0.8-0.3-1.6-0.6-2.3-1.1c-0.7-0.5-1.4-1-2-1.6c-0.6-0.6-1.1-1.3-1.6-2
		c-0.9-1.4-1.7-3-2.1-4.7c-0.2-0.8-0.4-1.7-0.5-2.5c-0.2-1.7-0.2-3.4,0-5.1c0.1-0.9,0.3-1.7,0.5-2.5c0.5-1.7,1.2-3.2,2.1-4.7
		c0.5-0.7,1-1.4,1.6-2c0.6-0.6,1.2-1.2,2-1.6c0.7-0.5,1.5-0.8,2.3-1.1c0.8-0.3,1.7-0.4,2.5-0.4c0.9,0,1.7,0.1,2.5,0.4
		c0.8,0.3,1.6,0.6,2.3,1.1c0.7,0.5,1.4,1,2,1.6c0.6,0.6,1.1,1.3,1.6,2c0.9,1.4,1.7,3,2.1,4.7C129.7,93,129.9,94.7,129.9,96.4z
		 M129.7,96.4c0-1.7-0.2-3.4-0.7-5c-0.4-1.6-1.1-3.2-2-4.6c-0.5-0.7-1-1.4-1.6-2c-0.6-0.6-1.2-1.1-2-1.6c-0.7-0.5-1.5-0.8-2.3-1.1
		c-0.8-0.2-1.6-0.4-2.5-0.4c-0.8,0-1.7,0.1-2.5,0.4c-0.8,0.2-1.6,0.6-2.3,1.1c-0.7,0.5-1.4,1-2,1.6c-0.6,0.6-1.1,1.3-1.6,2
		c-0.9,1.4-1.6,3-2,4.6c-0.2,0.8-0.4,1.6-0.5,2.5c-0.2,1.7-0.2,3.4,0,5.1c0.1,0.8,0.3,1.7,0.5,2.5c0.4,1.6,1.1,3.2,2,4.6
		c0.5,0.7,1,1.4,1.6,2c0.6,0.6,1.2,1.1,2,1.6c0.7,0.5,1.5,0.8,2.3,1.1c0.8,0.3,1.6,0.4,2.5,0.4c0.8,0,1.7-0.1,2.5-0.4
		c0.8-0.3,1.6-0.6,2.3-1.1c0.7-0.5,1.4-1,2-1.6c0.6-0.6,1.1-1.3,1.6-2c0.9-1.4,1.6-3,2-4.6C129.4,99.8,129.7,98.1,129.7,96.4
		L129.7,96.4z"/>
	<path class="st1" d="M118.6,111.6c-0.9,0-1.8-0.1-2.6-0.4c-0.9-0.3-1.7-0.6-2.4-1.1c-0.7-0.5-1.4-1-2-1.7c-0.6-0.6-1.2-1.3-1.7-2
		c-1-1.5-1.7-3.1-2.2-4.7c-0.2-0.8-0.4-1.7-0.5-2.6c-0.2-1.7-0.2-3.5,0-5.2c0.1-0.9,0.3-1.7,0.5-2.6c0.5-1.7,1.2-3.3,2.2-4.7
		c0.5-0.7,1.1-1.4,1.7-2c0.6-0.6,1.3-1.2,2-1.7c0.8-0.5,1.6-0.8,2.4-1.1c1.7-0.5,3.6-0.5,5.3,0c0.8,0.3,1.7,0.6,2.4,1.1
		c0.7,0.5,1.4,1,2,1.7c0.6,0.6,1.2,1.3,1.7,2c1,1.5,1.7,3.1,2.2,4.7c0.5,1.7,0.7,3.4,0.7,5.2l0,0c0,1.8-0.2,3.5-0.7,5.2
		c-0.5,1.7-1.2,3.3-2.2,4.8c-0.5,0.7-1,1.4-1.7,2c-0.6,0.6-1.3,1.2-2,1.7c-0.8,0.5-1.6,0.8-2.4,1.1
		C120.4,111.5,119.5,111.6,118.6,111.6z M118.6,82.1c-0.8,0-1.6,0.1-2.4,0.4c-0.8,0.2-1.5,0.6-2.2,1c-0.7,0.4-1.3,1-1.9,1.6
		c-0.6,0.6-1.1,1.2-1.5,1.9c-0.9,1.4-1.6,2.9-2,4.5c-0.2,0.8-0.4,1.6-0.5,2.4c-0.1,0.8-0.2,1.7-0.2,2.5c0,0.8,0.1,1.7,0.2,2.5
		c0.1,0.8,0.3,1.6,0.5,2.4c0.4,1.6,1.1,3.1,2,4.5c0.4,0.7,1,1.3,1.5,1.9c0.6,0.6,1.2,1.1,1.9,1.6c0.7,0.4,1.4,0.8,2.2,1
		c1.5,0.5,3.2,0.5,4.7,0c0.8-0.2,1.5-0.6,2.2-1c0.7-0.4,1.3-1,1.9-1.6c0.6-0.6,1.1-1.2,1.5-1.9c0.9-1.4,1.6-2.9,2-4.5
		c0.9-3.2,0.9-6.6,0-9.9c-0.4-1.6-1.1-3.1-2-4.5c-0.5-0.7-1-1.3-1.6-1.9c-0.6-0.6-1.2-1.1-1.9-1.6c-0.7-0.4-1.4-0.8-2.2-1
		C120.3,82.2,119.5,82.1,118.6,82.1z"/>
	<path class="st1" d="M105.5,90.6h3.4h3.4h6.8h6.8h3.4h3.4l0,0l0,0h-3.4h-3.4H119h-6.8h-3.4H105.5L105.5,90.6L105.5,90.6z"/>
	<polygon class="st1" points="119,91.1 108.9,91 105.3,91 105.1,90.8 105.1,90.6 105.1,90.2 105.5,90.2 112.2,90.2 119,90.1 
		129.2,90.2 132.9,90.2 133,91 132.6,91 125.8,91 	"/>
	<path class="st1" d="M109.4,84.9h2.4h2.4h2.4h2.4h4.8h2.4h2.4l0,0l0,0h-2.4h-2.4H119h-4.8h-2.4H109.4L109.4,84.9
		C109.4,84.9,109.4,84.9,109.4,84.9z"/>
	<path class="st1" d="M119,85.4h-4.8H111h-1.6H109v-0.8h0.4h1.6h3.3h4.8l8.1,0h1.5h0.4v0.8h-0.4h-1.6h-3.2L119,85.4z"/>
	<path class="st1" d="M104.3,96.3h3.7h3.7h7.4h7.4h3.7h3.7l0,0l0,0h-3.7h-3.7H119h-7.4H108H104.3C104.3,96.3,104.3,96.3,104.3,96.3z
		"/>
	<polygon class="st1" points="119,96.8 108,96.7 103.9,96.7 103.9,95.9 104.3,95.9 111.7,95.8 119,95.8 130.1,95.9 133.9,95.9 
		134.1,96.1 134.1,96.7 133.7,96.7 126.4,96.7 	"/>
	<path class="st1" d="M105.5,102h3.4h3.4h6.8h6.8h3.4h3.4l0,0l0,0h-3.4h-3.4H119h-6.8h-3.4H105.5L105.5,102z"/>
	<polygon class="st1" points="119,102.4 108.9,102.4 105.3,102.4 105.1,102.1 105.1,102 105.1,101.6 105.5,101.6 112.2,101.5 
		119,101.5 129.2,101.6 132.9,101.6 133,102.4 132.6,102.4 125.8,102.4 	"/>
	<path class="st1" d="M129.1,107.7h-19.2c0,0-0.1,0-0.1,0c0,0,0-0.1,0.1-0.1l0,0h19.2C129.1,107.6,129.2,107.6,129.1,107.7
		C129.2,107.7,129.2,107.7,129.1,107.7C129.2,107.7,129.2,107.7,129.1,107.7C129.1,107.7,129.1,107.7,129.1,107.7z"/>
	<path class="st1" d="M129.1,108.1h-19.2c-0.2,0-0.4-0.2-0.4-0.4c0-0.2,0.2-0.4,0.4-0.4l0,0h19.2c0.2,0,0.4,0.2,0.4,0.4
		C129.6,107.9,129.4,108.1,129.1,108.1z"/>
	<path class="st1" d="M119,111.9c-8.6-0.1-15.6-7.2-15.5-15.8c0.1-8.6,7.2-15.6,15.8-15.5c8.6,0.1,15.5,7.1,15.5,15.6
		C134.8,105,127.7,112,119,111.9z M119,82c-7.9,0.1-14.2,6.6-14,14.4c0.1,7.9,6.6,14.2,14.4,14c7.8-0.1,14.1-6.4,14.1-14.2
		C133.4,88.4,126.9,82,119,82z"/>
	<path class="st1" d="M134.2,83.6h-4.5v-1.2l1.5-2.1c0.3-0.4,0.6-0.9,0.8-1.3c0.1-0.3,0.3-0.5,0.3-0.8c0.1-0.3,0.1-0.5,0.1-0.8
		c0-0.3-0.1-0.5-0.2-0.7c-0.1-0.2-0.3-0.2-0.6-0.2c-0.2,0-0.4,0.1-0.6,0.2c-0.3,0.2-0.5,0.4-0.7,0.6l-0.9-0.9
		c0.3-0.4,0.7-0.7,1.1-0.9c0.4-0.2,0.7-0.3,1.1-0.3c0.6,0,1.2,0.2,1.6,0.6c0.4,0.5,0.6,1.1,0.6,1.7c0,0.6-0.1,1.2-0.4,1.8
		c-0.1,0.3-0.3,0.6-0.5,0.9c-0.2,0.3-0.8,1-1.6,2.2v0h2.8L134.2,83.6z"/>
	<path class="st1" d="M140,81.9h-0.9v1.8h-1.5v-1.8h-2.8v-1.3l2.6-5.4h1.7v5.4h0.9V81.9z M137.7,80.6v-1.8V78l0-0.8h0
		c-0.1,0.4-0.3,0.8-0.4,1.1l-1,2.2H137.7z"/>
</g>
</svg>
