<?xml version="1.0" encoding="utf-8"?>
<!-- Generator: Adobe Illustrator 24.2.3, SVG Export Plug-In . SVG Version: 6.00 Build 0)  -->
<svg version="1.1" id="Layer_1" xmlns="http://www.w3.org/2000/svg" xmlns:xlink="http://www.w3.org/1999/xlink" x="0px" y="0px"
	 viewBox="0 0 400 400" style="enable-background:new 0 0 400 400;" xml:space="preserve">
<style type="text/css">
	.st0{fill:#75D8CC;}
	.st1{fill:#FFFFFF;}
	.st2{fill:#BDD0FB;}
	.st3{fill:url(#SVGID_1_);}
	.st4{fill:url(#SVGID_2_);}
	.st5{fill:url(#SVGID_3_);}
	.st6{fill:url(#SVGID_4_);}
	.st7{fill:url(#SVGID_5_);}
	.st8{fill:url(#SVGID_6_);}
	.st9{fill:url(#SVGID_7_);}
	.st10{fill:url(#SVGID_8_);}
	.st11{fill:url(#SVGID_9_);}
	.st12{fill:url(#SVGID_10_);}
	.st13{fill:url(#SVGID_11_);}
	.st14{fill:url(#SVGID_12_);}
	.st15{fill:url(#SVGID_13_);}
	.st16{fill:url(#SVGID_14_);}
	.st17{fill:url(#SVGID_15_);}
	.st18{fill:url(#SVGID_16_);}
	.st19{fill:url(#SVGID_17_);}
	.st20{fill:url(#SVGID_18_);}
	.st21{fill:url(#SVGID_19_);}
	.st22{fill:url(#SVGID_20_);}
	.st23{fill:url(#SVGID_21_);}
	.st24{fill:url(#SVGID_22_);}
	.st25{fill:url(#SVGID_23_);}
	.st26{fill:url(#SVGID_24_);}
	.st27{fill:url(#SVGID_25_);}
	.st28{fill:url(#SVGID_26_);}
	.st29{fill:#7D97F4;}
	.st30{fill:url(#SVGID_27_);}
	.st31{fill:url(#SVGID_28_);}
	.st32{fill:url(#SVGID_29_);}
	.st33{fill:url(#SVGID_30_);}
	.st34{fill:url(#SVGID_31_);}
	.st35{fill:url(#SVGID_32_);}
	.st36{fill:url(#SVGID_33_);}
	.st37{fill:url(#SVGID_34_);}
	.st38{fill:url(#SVGID_35_);}
	.st39{fill:url(#SVGID_36_);}
	.st40{fill:url(#SVGID_37_);}
	.st41{fill:url(#SVGID_38_);}
	.st42{fill:url(#SVGID_39_);}
	.st43{fill:url(#SVGID_40_);}
	.st44{fill:url(#SVGID_41_);}
	.st45{fill:url(#SVGID_42_);}
	.st46{fill:url(#SVGID_43_);}
	.st47{fill:url(#SVGID_44_);}
	.st48{fill:url(#SVGID_45_);}
	.st49{fill:url(#SVGID_46_);}
	.st50{fill:url(#SVGID_47_);}
	.st51{fill:url(#SVGID_48_);}
	.st52{fill:url(#SVGID_49_);}
	.st53{fill:url(#SVGID_50_);}
	.st54{fill:url(#SVGID_51_);}
	.st55{fill:url(#SVGID_52_);}
	.st56{fill:url(#SVGID_53_);}
	.st57{fill:url(#SVGID_54_);}
	.st58{fill:url(#SVGID_55_);}
	.st59{fill:url(#SVGID_56_);}
	.st60{fill:url(#SVGID_57_);}
	.st61{fill:url(#SVGID_58_);}
	.st62{fill:url(#SVGID_59_);}
	.st63{fill:url(#SVGID_60_);}
	.st64{fill:url(#SVGID_61_);}
	.st65{fill:url(#SVGID_62_);}
	.st66{fill:url(#SVGID_63_);}
	.st67{fill:url(#SVGID_64_);}
	.st68{fill:url(#SVGID_65_);}
	.st69{fill:url(#SVGID_66_);}
	.st70{fill:url(#SVGID_67_);}
	.st71{fill:url(#SVGID_68_);}
	.st72{fill:url(#SVGID_69_);}
	.st73{fill:url(#SVGID_70_);}
	.st74{fill:url(#SVGID_71_);}
	.st75{fill:url(#SVGID_72_);}
	.st76{fill:url(#SVGID_73_);}
	.st77{fill:url(#SVGID_74_);}
</style>
<g>
	<path class="st0" d="M325.8,319.1c-6.8,7.2-13.2,11.8-18.3,15.4C247.7,377.4,177,364.9,162,361.8c-22.2-4.5-65.1-13.2-96.1-49.7
		C18.9,257,26.2,170,62.6,112.7c6.7-10.5,41.8-68.8,113.3-78.1c43.2-5.7,93.7,5.7,130.2,36.3C382.8,135.1,377.3,264.8,325.8,319.1z"
		/>
	<path class="st1" d="M38.9,146.1c-0.3-0.1-0.6-0.5-0.6-0.9c0-1.2,0-2.5,0.1-3.7c0-0.5,0.4-0.9,0.9-0.9c0,0,0,0,0,0
		c1.3,0.1,0.8,1.3,0.8,4.6c0,0.5-0.4,0.9-0.9,0.9c0,0,0,0,0,0C39.1,146.2,39,146.1,38.9,146.1z"/>
	<path class="st1" d="M39.6,129.9c0.4-2.4,0.9-4.7,1.5-7c0.1-0.5,0.6-0.8,1.1-0.7c0,0,0,0,0,0c1.4,0.4,0.4,1.1-0.8,8
		c-0.1,0.5-0.6,0.9-1.1,0.8C39.9,130.9,39.5,130.4,39.6,129.9L39.6,129.9L39.6,129.9z M44.6,111.8c0.9-2.2,1.9-4.5,2.9-6.6
		c0.3-0.4,0.8-0.6,1.3-0.3c0.4,0.2,0.6,0.7,0.4,1.2c-1,2.1-2,4.2-2.8,6.4c-0.2,0.5-0.7,0.7-1.2,0.5c0,0,0,0,0,0
		C44.7,112.8,44.5,112.3,44.6,111.8C44.6,111.8,44.6,111.8,44.6,111.8z M53.3,95.1c1.3-2,2.7-3.9,4.2-5.8c0.3-0.4,0.9-0.5,1.3-0.2
		c0.4,0.3,0.5,0.9,0.2,1.3c-1.4,1.8-2.8,3.8-4.1,5.7c-0.3,0.4-0.9,0.6-1.3,0.3C53.2,96.2,53,95.6,53.3,95.1L53.3,95.1L53.3,95.1z
		 M65.3,81.9c-0.4-0.4-0.4-0.9,0-1.3c0,0,0,0,0,0c1.7-1.7,3.5-3.3,5.3-4.8c0.4-0.3,1-0.3,1.3,0.1c0.3,0.4,0.3,1-0.1,1.3l0,0
		c-1.8,1.5-3.6,3.1-5.2,4.7C66.2,82.3,65.7,82.3,65.3,81.9C65.3,82,65.3,82,65.3,81.9L65.3,81.9z M79.8,70.2c-0.3-0.4-0.2-1,0.2-1.3
		c0,0,0,0,0,0c2-1.3,4.1-2.5,6.2-3.6c0.5-0.2,1,0,1.3,0.4c0.2,0.4,0.1,0.9-0.3,1.2c-2.1,1.1-4.1,2.3-6.1,3.6
		C80.7,70.7,80.1,70.6,79.8,70.2L79.8,70.2z M96.9,62.1c-0.2-0.1-0.4-0.3-0.5-0.5c-0.2-0.5,0-1,0.5-1.2c0,0,0,0,0,0
		c2.3-0.9,4.6-1.6,6.9-2.3c0.5-0.1,1,0.1,1.2,0.6c0.2,0.5-0.1,1-0.6,1.1c0,0,0,0,0,0c-2.3,0.7-4.6,1.4-6.7,2.3
		C97.4,62.3,97.2,62.3,96.9,62.1z M115.1,57.3c-0.3-0.1-0.5-0.4-0.5-0.7c-0.1-0.5,0.2-1,0.7-1.1c0,0,0,0,0,0
		c2.4-0.4,4.8-0.7,7.2-0.9c0.5,0,1,0.3,1,0.8c0.1,0.5-0.3,0.9-0.8,1c0,0,0,0,0,0c-2.4,0.2-4.7,0.5-7.1,0.9
		C115.5,57.4,115.3,57.4,115.1,57.3L115.1,57.3z M133.5,55.3c0-0.5,0.4-0.9,0.9-0.9c0,0,0,0,0,0c2.4,0.1,4.9,0.3,7.3,0.6
		c0.5,0.1,0.9,0.5,0.8,1c-0.1,0.5-0.5,0.9-1,0.8c-2.4-0.3-4.8-0.5-7.1-0.6C133.9,56.3,133.5,55.8,133.5,55.3L133.5,55.3z
		 M192.3,79.7c-5.3-4.7-6.6-4.7-5.7-5.8c0.3-0.4,0.9-0.5,1.3-0.2c1.9,1.5,3.9,3,5.7,4.6c0.4,0.3,0.4,0.9,0.1,1.3
		C193.3,80,192.7,80,192.3,79.7L192.3,79.7z M152.3,57.9c0.1-0.5,0.6-0.8,1.1-0.7c0,0,0,0,0,0c2.4,0.6,4.7,1.3,7,2.1
		c0.5,0.2,0.8,0.7,0.6,1.2c-0.2,0.5-0.7,0.8-1.2,0.6c-2.3-0.8-4.6-1.4-6.9-2C152.5,58.9,152.1,58.4,152.3,57.9z M177,68.7
		c-6.2-3.5-7.4-3.3-6.8-4.6c0.2-0.5,0.8-0.6,1.3-0.4c2.2,1,4.4,2.2,6.5,3.4c0.4,0.3,0.6,0.8,0.4,1.3C178,68.9,177.5,69,177,68.7z"/>
	<path class="st1" d="M203,90.8c-2-2.5-3.3-3.3-2.3-4.2c0.4-0.3,1-0.3,1.3,0.1c2.2,2.5,3.3,3.5,2.3,4.2
		C203.9,91.2,203.3,91.1,203,90.8z"/>
	<path class="st1" d="M223.4,160c-0.4-0.2-0.6-0.6-0.5-1c0.2-1.2,0.3-2.4,0.4-3.6c0-0.5,0.5-0.9,1-0.8c0,0,0,0,0,0
		c0.5,0,0.9,0.5,0.9,1c-0.1,1.2-0.2,2.5-0.4,3.7c-0.1,0.5-0.5,0.8-1,0.8C223.6,160,223.5,160,223.4,160z"/>
	<path class="st1" d="M91,228.7c-2.4-1.2-4.7-2.4-6.9-3.8c-0.4-0.3-0.6-0.8-0.3-1.3c0,0,0,0,0,0c0.8-1.2,1.2,0,8.1,3.4
		c0.5,0.2,0.7,0.8,0.4,1.2c0,0,0,0,0,0C92,228.7,91.5,228.9,91,228.7z M102.2,232.4c0.5-1.4,1.2-0.2,8.6,1.6
		c0.5,0.1,0.8,0.6,0.7,1.1c-0.1,0.5-0.6,0.8-1.1,0.7c0,0,0,0,0,0c-2.5-0.6-5.1-1.4-7.6-2.2C102.3,233.4,102.1,232.9,102.2,232.4
		L102.2,232.4z M73.6,217.6c-2-1.6-4-3.4-5.9-5.2c-0.4-0.4-0.4-0.9,0-1.3c0,0,0,0,0,0c1-1,1.2,0.3,7.1,5.1c0.4,0.3,0.4,0.9,0.1,1.3
		c0,0,0,0,0,0C74.5,217.8,74,217.9,73.6,217.6L73.6,217.6z M122.6,238c-0.4-0.2-0.6-0.5-0.5-0.9c0-0.5,0.5-0.9,1-0.8c0,0,0,0,0,0
		c2.5,0.3,5.1,0.5,7.7,0.5c0.5,0,0.9,0.4,0.9,1c0,0.5-0.4,0.9-0.9,0.9c0,0,0,0,0,0c-2.6-0.1-5.2-0.3-7.8-0.5
		C122.8,238.1,122.7,238,122.6,238z M143,238c-0.3-0.1-0.5-0.4-0.5-0.8c-0.1-0.5,0.3-1,0.8-1c0,0,0,0,0,0c2.5-0.3,5.1-0.7,7.6-1.1
		c0.5-0.1,1,0.2,1.1,0.8c0.1,0.5-0.2,1-0.7,1.1c0,0,0,0,0,0c-2.6,0.5-5.2,0.9-7.7,1.2C143.3,238.1,143.2,238.1,143,238L143,238z
		 M162.8,233.7c-0.2-0.1-0.4-0.3-0.5-0.5c-0.2-0.5,0.1-1,0.5-1.2c0,0,0,0,0,0c2.4-0.8,4.8-1.7,7.1-2.7c0.5-0.2,1,0,1.2,0.5
		c0.2,0.4,0,1-0.4,1.2c0,0,0,0,0,0c-2.4,1-4.8,2-7.3,2.8C163.3,233.8,163.1,233.8,162.8,233.7z M181.1,225.1
		c-0.2-0.1-0.3-0.2-0.4-0.4c-0.3-0.4-0.1-1,0.3-1.3c0,0,0,0,0,0c2.2-1.3,4.3-2.7,6.3-4.2c0.4-0.3,1-0.2,1.3,0.2
		c0.3,0.4,0.2,1-0.2,1.3c0,0,0,0,0,0c-2.1,1.5-4.2,3-6.4,4.3C181.8,225.2,181.4,225.3,181.1,225.1L181.1,225.1z M196.8,212.6
		c-1-1,0.3-1.1,5.2-6.8c0.8-0.9,2.3,0.3,1.4,1.2c-1.7,1.9-3.5,3.8-5.3,5.6C197.7,213,197.1,213,196.8,212.6L196.8,212.6z
		 M209.7,197.3c-1.2-0.8,0-1.2,3.5-7.8c0.2-0.5,0.8-0.6,1.3-0.4c0.5,0.2,0.6,0.8,0.4,1.3l0,0c-1.2,2.3-2.5,4.5-3.9,6.7
		C210.7,197.5,210.1,197.6,209.7,197.3L209.7,197.3z M218.7,179.4c-0.4-0.2-0.7-0.7-0.5-1.2c0.9-2.4,1.6-4.8,2.3-7.2
		c0.1-0.5,0.6-0.8,1.1-0.6c0,0,0,0,0,0c0.5,0.1,0.8,0.6,0.7,1.1c-0.7,2.5-1.4,4.9-2.3,7.4C219.8,179.4,219.2,179.6,218.7,179.4
		C218.7,179.5,218.7,179.5,218.7,179.4L218.7,179.4z"/>
	<path class="st1" d="M58.9,202.9c-2.1-2.6-3.1-3.6-2.1-4.3c1-0.7,1.5,0.5,3.6,3.2c0.3,0.4,0.3,1-0.1,1.3c0,0,0,0,0,0
		C59.9,203.4,59.3,203.3,58.9,202.9z"/>
	<path class="st1" d="M70.9,180.3l13.5-0.7c3.8,5.2,8.4,9.7,13.7,13.4c-0.4,12.9-1.3,13.8,0,14.4l15,6.2c0.4,0.2,0.9,0.1,1.3-0.3
		l8.9-9.9c6.3,1.1,12.8,1.1,19.1,0.1l9.1,10c0.3,0.3,0.8,0.5,1.3,0.3l14.9-6c0.4-0.2,0.7-0.6,0.7-1.1l-1-13.3
		c5.1-3.6,9.7-8.1,13.3-13.2l13.5,0.9c0.5,0,0.9-0.2,1.1-0.7l6.1-14.7c0.2-0.4,0.1-0.9-0.3-1.2l-10.2-8.9c1-6.2,0.9-12.6-0.2-18.8
		c9.6-8.8,10.9-8.7,10.3-10c-6.5-14.4-6-15.6-7.5-15.5l-13.5,0.7c-3.8-5.2-8.4-9.7-13.7-13.4c0.4-12.9,1.3-13.8,0-14.4
		c-15.1-5.9-15.3-7-16.3-5.9l-8.8,9.9c-6.3-1.1-12.8-1.1-19.1-0.1c-8.9-9.5-9-10.9-10.3-10.3C97,84,96,83.4,96.1,84.9l1,13.3
		c-5.2,3.6-9.7,8.1-13.4,13.2c-12.9-0.6-14-1.6-14.6-0.2c-5.7,14.7-6.8,15-5.7,15.9l10.2,8.9c-1,6.2-0.9,12.6,0.2,18.8
		c-9.6,8.7-10.9,8.7-10.3,10C69.9,179.2,69.4,180.4,70.9,180.3z"/>
	<path class="st2" d="M116.4,143.5c1.2-8.5,9.1-14.3,17.6-13.1c0.1,0,0.2,0,0.2,0c8.6,1.2,14.6,9.1,13.5,17.8
		c-1.2,8.5-9.1,14.3-17.6,13.1c-0.1,0-0.2,0-0.2,0l0,0C121.4,160,115.4,152.1,116.4,143.5z M130.2,159.8L130.2,159.8z M133.9,133.2
		c-6.9-1.1-13.4,3.6-14.6,10.5c0,0.1,0,0.2,0,0.2c-0.9,7.1,4.1,13.6,11.1,14.6c6.9,1.1,13.5-3.6,14.6-10.5c0-0.1,0-0.1,0-0.2
		C145.9,140.7,140.9,134.2,133.9,133.2L133.9,133.2z"/>
	<path class="st2" d="M115.8,181.8L115.8,181.8c-2.1-1-4.1-2.1-6.1-3.5c-0.6-0.4-0.8-1.1-0.5-1.7c0-0.1,0.1-0.1,0.1-0.2
		c0.5-0.6,1.3-0.8,2-0.3c2.2,1.5,4.6,2.8,7.1,3.8l0,0c18.8,7.8,40.2-0.5,48.5-18.4c0.2-0.5,0.4-0.9,0.6-1.4
		c7.8-19-1.6-40.7-20.9-48.7s-41.3,0.8-49.1,19.8c-4.6,11.3-1.8,19.3-2.4,20.4c-0.3,0.7-1.2,1-1.9,0.6c-0.4-0.2-0.7-0.6-0.8-1
		c-1.2-7.7-0.2-15.5,3.1-22.6c14.5-31.4,60.5-30.1,74.3,2c4.2,9.7,4.4,20.8,0.3,30.6c-0.2,0.5-0.4,1-0.7,1.5
		c-4.2,9.1-11.7,16.3-21.1,20c-10,4-21.1,3.9-31-0.2C116.8,182.3,116.3,182,115.8,181.8z"/>
	<path class="st1" d="M233.2,122.8c2.3,2.7,5,5.1,8.1,6.9l0.2,7.5c0,0.8,0.8,0.5,9,3.4c0.8,0.2,0.7-0.5,5.2-6.2
		c3.6,0.3,7.1,0,10.6-0.9l5.4,5.2c0.6,0.6,0.9-0.2,8.8-4c0.2-0.1,0.4-0.4,0.3-0.6l-1.1-7.5c2.7-2.3,5.1-5.1,6.9-8.1
		c7.2-0.3,7.9,0.2,8.1-0.6c2.6-8.6,3.2-8.8,2.6-9.3l-6.1-4.6c0.3-3.6,0-7.1-0.9-10.6l5.2-5.4c0.6-0.6-0.2-0.9-4-8.8
		c-0.4-0.7-0.8-0.2-8.1,0.8c-2.3-2.7-5-5.1-8.1-6.9l-0.2-7.6c0-0.8-0.8-0.5-9-3.4c-0.8-0.3-0.7,0.4-5.2,6.2c-3.6-0.3-7.1,0-10.6,0.9
		L245,64c-0.2-0.2-0.5-0.2-0.7-0.1l-8.1,4.1c-0.2,0.1-0.4,0.4-0.3,0.6l1.1,7.5c-2.7,2.3-5.1,5.1-6.9,8.1c-7.2,0.3-7.9-0.2-8.1,0.6
		c-2.6,8.6-3.2,8.8-2.6,9.3l6.1,4.6c-0.3,3.6,0,7.1,0.9,10.6c-4.9,5.3-5.7,5.4-5.3,6.2l4.1,8.1C225.5,124.3,225.9,123.7,233.2,122.8
		z"/>
	<path class="st2" d="M249,100.8c0.3-5.2,4.8-9.1,10-8.8c5.2,0.3,9.1,4.8,8.8,10c-0.3,5.2-4.8,9.1-10,8.8l0,0
		C252.6,110.5,248.6,106,249,100.8z M257.9,109.4L257.9,109.4z M251.8,101c-0.2,3.7,2.5,6.8,6.2,7l0,0c3.7,0.2,6.8-2.5,7-6.2
		c0.2-3.7-2.5-6.8-6.2-7C255.2,94.6,252.1,97.3,251.8,101z"/>
	<path class="st1" d="M211,115.5c-0.4-1.2-0.7-2.5-0.9-3.7c-0.1-0.5,0.2-1,0.7-1.1c1.3-0.3,1.1,1.2,2,4.3c0.1,0.5-0.2,1-0.7,1.1
		C211.6,116.2,211.2,116,211,115.5L211,115.5z"/>
	<path class="st1" d="M209,99.3c0.1-2.6,0.4-5.1,0.9-7.7c0.1-0.5,0.6-0.8,1.1-0.7c0.5,0.1,0.8,0.6,0.7,1.1c-1.3,6.7-0.3,8.3-1.9,8.3
		C209.4,100.3,209,99.9,209,99.3C209,99.3,209,99.3,209,99.3z M214.3,81c-0.5-0.2-0.7-0.8-0.4-1.3c1.1-2.3,2.4-4.5,3.9-6.7
		c0.3-0.4,0.9-0.5,1.3-0.1c0.4,0.3,0.4,0.8,0.2,1.2c-1.4,2-2.7,4.2-3.8,6.4C215.3,81,214.8,81.2,214.3,81L214.3,81z M226.5,65.4
		c-0.1-0.1-0.2-0.1-0.3-0.2c-0.3-0.4-0.3-1,0.1-1.3c0,0,0,0,0,0c2-1.7,4.1-3.2,6.2-4.6c0.5-0.3,1-0.1,1.3,0.4c0.2,0.4,0.1,1-0.3,1.2
		c-2.1,1.3-4.1,2.8-6,4.4C227.2,65.5,226.8,65.5,226.5,65.4L226.5,65.4z M243.8,55.8c-0.5-0.2-0.7-0.8-0.5-1.2
		c0.1-0.2,0.3-0.4,0.6-0.5c2.5-0.8,5-1.3,7.5-1.7c0.5-0.1,1,0.3,1.1,0.8c0,0,0,0,0,0c0.1,0.5-0.3,1-0.8,1.1
		c-2.5,0.3-4.9,0.9-7.3,1.6C244.3,56,244,56,243.8,55.8L243.8,55.8z M262.9,53.1c0.1-0.5,0.5-0.9,1-0.8c2.6,0.3,5.1,0.8,7.6,1.5
		c0.5,0.1,0.8,0.7,0.6,1.2c-0.1,0.5-0.6,0.8-1.1,0.6c-2.4-0.7-4.8-1.1-7.3-1.4C263.3,54.1,262.9,53.6,262.9,53.1
		C262.9,53.1,262.9,53.1,262.9,53.1z"/>
	<path class="st1" d="M285.4,62.2c-2.8-2-4.1-2.2-3.5-3.3c0.3-0.4,0.8-0.6,1.3-0.3c0,0,0,0,0,0c1.1,0.6,2.2,1.3,3.2,2
		c0.4,0.4,0.4,1,0,1.3C286.2,62.3,285.7,62.3,285.4,62.2L285.4,62.2z"/>
	<path class="st1" d="M305.6,95.3c-0.4-3.4-1.1-4.5,0.1-4.7c0.5-0.1,1,0.2,1.1,0.7c0,0,0,0,0,0c0.3,1.2,0.5,2.5,0.6,3.8
		c0.1,0.5-0.3,1-0.8,1.1C306.2,96.3,305.7,95.9,305.6,95.3L305.6,95.3L305.6,95.3z"/>
	<path class="st1" d="M242.2,147.2c0.5-1.5,1.6,0,8.3,1.2c0.5,0.1,0.8,0.6,0.7,1.1c-0.1,0.5-0.5,0.8-1,0.7c-2.5-0.4-5-1-7.4-1.8
		C242.3,148.2,242.1,147.7,242.2,147.2z M261.5,149.8c0-0.5,0.3-1,0.9-1c0,0,0,0,0,0c6.8-0.6,8-2,8.3-0.5c0.1,0.5-0.2,1-0.7,1.1
		c-2.5,0.6-5,1-7.5,1.2C262,150.7,261.6,150.4,261.5,149.8L261.5,149.8z M280.3,144.7c-0.8-1.4,1.1-1.1,6.6-5.2
		c0.4-0.3,1-0.2,1.3,0.2c0.3,0.4,0.2,1-0.2,1.3c-2,1.5-4.2,2.9-6.4,4.1C281.1,145.4,280.5,145.2,280.3,144.7
		C280.3,144.7,280.3,144.7,280.3,144.7z M295.6,132.6c-1.2-1,0.6-1.5,4-7.3c0.3-0.4,0.9-0.5,1.3-0.2c0.4,0.3,0.5,0.8,0.3,1.2
		c-1.3,2.2-2.7,4.3-4.3,6.3C296.5,132.9,296,133,295.6,132.6z M304.2,114.4c1.9-6.6,0.9-8.2,2.5-8c0.5,0.1,0.9,0.5,0.8,1
		c-0.3,2.5-0.8,5-1.5,7.5c-0.1,0.5-0.7,0.8-1.2,0.7C304.3,115.4,304.1,114.9,304.2,114.4z"/>
	<path class="st1" d="M231.7,143c-1.1-0.7-2.1-1.4-3.1-2.2c-0.4-0.3-0.5-0.9-0.2-1.3c0.8-1,1.6,0.2,4.3,1.9c0.5,0.3,0.6,0.8,0.4,1.3
		c-0.3,0.5-0.8,0.6-1.3,0.4C231.7,143.1,231.7,143,231.7,143z"/>
	<path class="st2" d="M247,121.5c-0.7-0.3-1-1.2-0.7-1.9c0.3-0.7,1.2-1,1.9-0.7c0.1,0,0.1,0.1,0.2,0.1c1.3,0.7,2.6,1.3,4,1.8
		c5.2,1.7,10.8,1.2,15.6-1.3c16.1-8.3,14.2-32.1-3-37.6c-9.8-3.2-20.5,1.5-24.8,10.9c-4.3,9.3,0.6,14.2-2.4,14.9
		c-0.8,0.2-1.5-0.3-1.7-1.1c0,0,0,0,0,0c-2.9-12.5,4.9-25,17.4-27.9c12.5-2.9,25,4.9,27.9,17.4s-4.9,25-17.4,27.9
		c-4.1,0.9-8.4,0.8-12.4-0.5l0,0C249.9,122.9,248.4,122.3,247,121.5z"/>
	
		<linearGradient id="SVGID_1_" gradientUnits="userSpaceOnUse" x1="269.4486" y1="210.8382" x2="265.3687" y2="183.9092" gradientTransform="matrix(1 0 0 -1 -35.77 363.89)">
		<stop  offset="0" style="stop-color:#005B5B"/>
		<stop  offset="1" style="stop-color:#11438C"/>
	</linearGradient>
	<path class="st3" d="M243.1,155.1c0-0.4-0.5-0.8-1.2-1.1c0.8-0.5,1.3-0.9,1.2-1.4c-0.1-1.4-4.7-2.3-10.3-1.8
		c-5.5,0.5-9.9,2-9.9,3.4c0,0.4,0.5,0.8,1.3,1.1c-0.8,0.5-1.3,0.9-1.3,1.4s0.5,0.8,1.3,1.1c-0.8,0.5-1.3,0.9-1.3,1.4
		c0,0.5,0.5,0.8,1.3,1.1c-0.8,0.5-1.3,0.9-1.3,1.4c0.1,0.6,1,1.2,2.5,1.5c0,0.5,0,1,0,1.6c0.2,2.7,3.2,4.8,7.2,4.8s7.4-2.9,7.5-5.5
		c0-0.6,0-1.2-0.1-1.8c1.9-0.6,3-1.4,3-2.2c0-0.4-0.5-0.8-1.2-1.1c0.8-0.5,1.3-0.9,1.2-1.4c0-0.5-0.5-0.8-1.2-1.1
		C242.7,156.1,243.1,155.6,243.1,155.1z"/>
	
		<linearGradient id="SVGID_2_" gradientUnits="userSpaceOnUse" x1="270.3642" y1="221.999" x2="263.3115" y2="144.291" gradientTransform="matrix(1 0 0 -1 -35.77 363.89)">
		<stop  offset="0" style="stop-color:#53D8FF"/>
		<stop  offset="1" style="stop-color:#0A1F26"/>
	</linearGradient>
	<path class="st4" d="M230.3,163.9c-1.5,0-3-0.1-4.4-0.4c-0.1,0-0.1-0.1-0.1-0.2c0-0.1,0.1-0.1,0.2-0.1c2.4,0.4,4.9,0.5,7.3,0.2
		c2.1-0.2,4.1-0.5,6.2-1.1c0.1,0,0.1,0,0.2,0.1c0,0,0,0,0,0c0,0.1,0,0.1-0.1,0.2c-2,0.6-4.1,0.9-6.2,1.1
		C232.3,163.9,231.2,163.9,230.3,163.9z"/>
	
		<linearGradient id="SVGID_3_" gradientUnits="userSpaceOnUse" x1="270.5919" y1="221.9817" x2="263.5468" y2="144.2661" gradientTransform="matrix(1 0 0 -1 -35.77 363.89)">
		<stop  offset="0" style="stop-color:#53D8FF"/>
		<stop  offset="1" style="stop-color:#0A1F26"/>
	</linearGradient>
	<path class="st5" d="M230.3,161.4c-1.8,0-3.6-0.2-5.4-0.6c-0.1,0-0.1-0.1-0.1-0.2c0-0.1,0.1-0.1,0.2-0.1c5.5,1,11.1,0.6,16.3-1.3
		c0.1,0,0.1,0,0.2,0c0,0,0,0,0,0c0,0.1,0,0.1-0.1,0.2c0,0,0,0,0,0c-2.6,1-5.4,1.6-8.1,1.8C232.3,161.3,231.3,161.4,230.3,161.4z"/>
	
		<linearGradient id="SVGID_4_" gradientUnits="userSpaceOnUse" x1="270.1768" y1="222.0215" x2="263.1318" y2="144.306" gradientTransform="matrix(1 0 0 -1 -35.77 363.89)">
		<stop  offset="0" style="stop-color:#53D8FF"/>
		<stop  offset="1" style="stop-color:#0A1F26"/>
	</linearGradient>
	<path class="st6" d="M230.3,158.8c-1.9,0.1-3.8-0.2-5.7-0.7c-0.1,0-0.1-0.1-0.1-0.2c0,0,0,0,0,0c0-0.1,0.1-0.1,0.2-0.1
		c1.9,0.6,5.1,0.8,8.6,0.5c2.8-0.1,5.5-0.7,8.1-1.8c0.1,0,0.1,0,0.2,0.1c0,0,0,0,0,0c0,0.1,0,0.1-0.1,0.2c0,0,0,0,0,0
		c-2.6,1-5.4,1.6-8.1,1.8C232.3,158.8,231.2,158.8,230.3,158.8z"/>
	
		<linearGradient id="SVGID_5_" gradientUnits="userSpaceOnUse" x1="270.4192" y1="221.996" x2="263.3741" y2="144.2805" gradientTransform="matrix(1 0 0 -1 -35.77 363.89)">
		<stop  offset="0" style="stop-color:#53D8FF"/>
		<stop  offset="1" style="stop-color:#0A1F26"/>
	</linearGradient>
	<path class="st7" d="M230.3,156.3c-1.6,0-3.2-0.1-4.8-0.4c-0.1,0-0.1-0.1-0.1-0.2c0-0.1,0.1-0.1,0.2-0.1l0,0
		c2.5,0.5,5.1,0.6,7.7,0.3c2.7-0.2,5.5-0.7,8-1.7c0.1,0,0.1,0,0.2,0.1c0,0.1,0,0.1-0.1,0.2c0,0,0,0,0,0c-2.6,1-5.3,1.6-8.1,1.8
		C232.3,156.2,231.3,156.3,230.3,156.3z"/>
	
		<linearGradient id="SVGID_6_" gradientUnits="userSpaceOnUse" x1="272.5116" y1="277.2696" x2="261.6445" y2="203.5808" gradientTransform="matrix(1 0 0 -1 -35.77 363.89)">
		<stop  offset="0" style="stop-color:#FF928E"/>
		<stop  offset="1" style="stop-color:#FE7062"/>
	</linearGradient>
	<path class="st8" d="M219.3,142.2c-0.7-2.4-1.8-4.6-3.4-6.6c-5.5-6.9-8.8-15.4-9.4-24.2c-1-16.8,13.9-25.2,27.5-24.1
		c13.6,1.1,27,11.3,25.5,26.9c-0.9,9.6-6.3,16.9-10.3,21.1c-2.5,2.7-4.3,5.9-5.3,9.5c-1.2,4.3-4.1,9.8-10.9,10.1
		C224.4,155.4,220.7,147.2,219.3,142.2z"/>
	
		<linearGradient id="SVGID_7_" gradientUnits="userSpaceOnUse" x1="372.7383" y1="365.8427" x2="323.8173" y2="297.5913" gradientTransform="matrix(1 0 0 -1 -35.77 363.89)">
		<stop  offset="0" style="stop-color:#E1473D"/>
		<stop  offset="1" style="stop-color:#E9605A"/>
	</linearGradient>
	<path class="st9" d="M235.4,151.6l4.8-30.9c0.1-0.6,0.4-1.1,0.7-1c0.3,0.1,0.4,0.8,0.3,1.4v0l-5.4,30.7c0,0.2-0.2,0.4-0.3,0.3
		C235.5,152.1,235.4,151.9,235.4,151.6z"/>
	
		<linearGradient id="SVGID_8_" gradientUnits="userSpaceOnUse" x1="365.9312" y1="370.7255" x2="317.0102" y2="302.4742" gradientTransform="matrix(1 0 0 -1 -35.77 363.89)">
		<stop  offset="0" style="stop-color:#E1473D"/>
		<stop  offset="1" style="stop-color:#E9605A"/>
	</linearGradient>
	<path class="st10" d="M230.5,151.9l-4.8-30.9c-0.1-0.6-0.4-1.1-0.7-1s-0.4,0.7-0.3,1.4c0,0,0,0,0,0.1l5.4,30.7
		c0,0.2,0.2,0.4,0.3,0.3C230.4,152.3,230.5,152.1,230.5,151.9z"/>
	<path class="st1" d="M240.1,118c-0.1-0.2-0.4-0.3-0.6-0.2l-2.7,1.2l-0.9-2.6c-0.1-0.1-0.2-0.3-0.3-0.3c-0.3-0.1-0.6,0-0.8,0.3l0,0
		l-2.2,4l-2-5.7l0,0c-0.1-0.2-0.2-0.3-0.3-0.3c-0.3-0.2-0.8-0.1-1,0.2l-3,4.2c-0.1,0.2-0.1,0.4,0.1,0.5c0,0,0,0,0,0
		c0.2,0.1,0.5,0.1,0.7-0.1l2.7-3l2.4,5.4l0,0c0,0.1,0.1,0.2,0.2,0.2c0.2,0.1,0.5,0,0.6-0.2l2.3-3.7l0.9,1.9l0,0v0
		c0.1,0.2,0.4,0.3,0.6,0.2l3.1-1.5C240.1,118.4,240.2,118.2,240.1,118C240.1,118,240.1,118,240.1,118z"/>
	<path class="st1" d="M249.5,131.5c-0.1,0-0.3,0-0.4-0.1c-0.3-0.2-0.3-0.6-0.1-0.8c0,0,0,0,0,0c0.8-1.1,1.5-2.2,2.2-3.4
		c0.1-0.3,0.5-0.4,0.8-0.3c0.3,0.1,0.4,0.5,0.3,0.8c0,0,0,0.1,0,0.1c-0.7,1.2-1.4,2.4-2.3,3.5C249.9,131.4,249.7,131.5,249.5,131.5z
		"/>
	<path class="st1" d="M253.4,124.7c-0.1,0-0.2,0-0.2-0.1c-0.3-0.1-0.5-0.5-0.3-0.8c3-6.8,3.3-14.5,0.7-21.4c-0.1-0.3,0-0.6,0.3-0.8
		c0,0,0,0,0,0c0.3-0.1,0.7,0,0.8,0.3c0,0,0,0,0,0c0.2,0.4,4.6,10.3-0.6,22.4C253.8,124.6,253.6,124.7,253.4,124.7z"/>
	
		<linearGradient id="SVGID_9_" gradientUnits="userSpaceOnUse" x1="5206.4268" y1="26.3924" x2="5134.52" y2="-51.8162" gradientTransform="matrix(1 9.424639e-03 9.424639e-03 -1 -5030.7661 316.4987)">
		<stop  offset="0" style="stop-color:#005B5B"/>
		<stop  offset="1" style="stop-color:#11438C"/>
	</linearGradient>
	<path class="st11" d="M152.8,344.9c0,0-0.8,4.2-1.2,8.4c-0.1,1.6,1,3,2.6,3.1c0,0,0.1,0,0.1,0c5.6,0.3,17.4,0.8,21.7,0.7
		c0.5,0,0.9-0.5,0.9-1c0-0.1,0-0.2-0.1-0.3l0,0c-0.2-0.5-0.6-0.9-1.1-1.1l-19.6-9.2L152.8,344.9z"/>
	
		<linearGradient id="SVGID_10_" gradientUnits="userSpaceOnUse" x1="5182.8472" y1="20.4924" x2="5189.2329" y2="20.4924" gradientTransform="matrix(1 9.424639e-03 9.424639e-03 -1 -5030.7661 316.4987)">
		<stop  offset="0" style="stop-color:#FEBBBA"/>
		<stop  offset="1" style="stop-color:#FF928E"/>
	</linearGradient>
	<path class="st12" d="M152.2,342.4l0.5,5.1c0,0,3.4,1.6,5.8-0.1l-1.4-5.6L152.2,342.4z"/>
	
		<linearGradient id="SVGID_11_" gradientUnits="userSpaceOnUse" x1="5212.0967" y1="114.8779" x2="5150.9131" y2="31.9525" gradientTransform="matrix(1 9.424639e-03 9.424639e-03 -1 -5030.7661 316.4987)">
		<stop  offset="0" style="stop-color:#005B5B"/>
		<stop  offset="1" style="stop-color:#11438C"/>
	</linearGradient>
	<path class="st13" d="M153.6,247.6c-0.3,1.3-2,65.7,4.6,94.6c0.1,0.5-0.1,0.9-0.6,1.1c-1.8,0.7-3.7,1-5.6,1.1
		c-0.8,0-1.5-0.5-1.7-1.2c-1.9-6.7-11-40.3-11.9-72.4c-1-35.8,0-1.2,0-1.2l1-22.1L153.6,247.6z"/>
	
		<linearGradient id="SVGID_12_" gradientUnits="userSpaceOnUse" x1="5190.3047" y1="41.2105" x2="5118.3979" y2="-36.998" gradientTransform="matrix(1 9.424639e-03 9.424639e-03 -1 -5030.7661 316.4987)">
		<stop  offset="0" style="stop-color:#005B5B"/>
		<stop  offset="1" style="stop-color:#11438C"/>
	</linearGradient>
	<path class="st14" d="M130.2,346.9c0,0-1.2,2.1-2.4,7.8c-0.2,1,0.4,1.9,1.4,2.1c0.1,0,0.1,0,0.2,0c1.8,0.2,4.7,0.5,6.9,0.5
		c1,0,1.8-0.8,1.8-1.7c0-0.1,0-0.1,0-0.2c-0.3-3-1.5-5.8-3.4-8.2L130.2,346.9z"/>
	
		<linearGradient id="SVGID_13_" gradientUnits="userSpaceOnUse" x1="5159.8315" y1="20.8233" x2="5165.3442" y2="20.8233" gradientTransform="matrix(1 9.424639e-03 9.424639e-03 -1 -5030.7661 316.4987)">
		<stop  offset="0" style="stop-color:#FEBBBA"/>
		<stop  offset="1" style="stop-color:#FF928E"/>
	</linearGradient>
	<path class="st15" d="M129.2,340.4l1.3,7.6c0,0,1.4,1,4.1,0.3l-0.6-8.2L129.2,340.4z"/>
	
		<linearGradient id="SVGID_14_" gradientUnits="userSpaceOnUse" x1="5201.1807" y1="122.932" x2="5139.9971" y2="40.0065" gradientTransform="matrix(1 9.424639e-03 9.424639e-03 -1 -5030.7661 316.4987)">
		<stop  offset="0" style="stop-color:#005B5B"/>
		<stop  offset="1" style="stop-color:#11438C"/>
	</linearGradient>
	<path class="st16" d="M126.3,249.3c-6,33.9,0.4,84,2.6,93.8c0.1,0.6,0.6,1.1,1.2,1.2c1.5,0.3,3,0.2,4.4-0.1c0.6-0.2,1-0.7,1-1.3
		c0.4-7.9,0.3-56.5,5.7-75.6c0.3-1,0.9-1.8,1.7-2.4l10.2-7.1l0.9-11.7L126.3,249.3z"/>
	
		<linearGradient id="SVGID_15_" gradientUnits="userSpaceOnUse" x1="4237.8809" y1="578.474" x2="4181.5127" y2="480.7608" gradientTransform="matrix(-1 0 0 -1 4141.4399 363.89)">
		<stop  offset="0" style="stop-color:#FF928E"/>
		<stop  offset="1" style="stop-color:#FE7062"/>
	</linearGradient>
	<path class="st17" d="M162.8,185.3c-16.9-0.5-35.5,4.1-35.5,4.1c-5.3,29.3-1.5,63.2-1.5,63.2c13,3.5,27.8-1.8,27.8-1.8
		c2.3-12.2,12.7-46.7,12.7-46.7c7.3-0.7,14.3-2.9,20.7-6.3c-4.2-5-6.2-11.3-7-15C174.4,184.4,168.6,185.3,162.8,185.3z"/>
	
		<linearGradient id="SVGID_16_" gradientUnits="userSpaceOnUse" x1="5209.1392" y1="187.1405" x2="5241.771" y2="187.1405" gradientTransform="matrix(1 9.424639e-03 9.424639e-03 -1 -5030.7661 316.4987)">
		<stop  offset="0" style="stop-color:#FEBBBA"/>
		<stop  offset="1" style="stop-color:#FF928E"/>
	</linearGradient>
	<path class="st18" d="M212.9,160.9c-0.9-1.2-2.4-1.6-3.8-1.1c-2.6,10.5-15.7,18.8-29.1,22.9c0.8,3.7,2.8,10,7,15
		C209.4,185.4,212.9,160.9,212.9,160.9z"/>
	
		<linearGradient id="SVGID_17_" gradientUnits="userSpaceOnUse" x1="1819.375" y1="193.5964" x2="1841.2761" y2="143.7805" gradientTransform="matrix(-1 -1.000000e-02 1.000000e-02 -1 2023.1511 384.4277)">
		<stop  offset="0" style="stop-color:#FEBBBA"/>
		<stop  offset="1" style="stop-color:#FF928E"/>
	</linearGradient>
	<path class="st19" d="M212.5,161.4c0.2,0.6-1.8,1.4-3-0.9c0-1.1-0.6-5.7,0-6.6c3.5-4.7,10.2-10.5,10.2-10.5
		c0.6,0.6,0.7,1.5,0.2,2.2l-3.3,3.3c0.7,1.2,1.5,2.3,1.9,3.7c0.3,1.1,0.1,2.3-0.5,3.3c-0.6,1-1.4,2.3-2.1,3.4
		C215,160.6,213.8,161.3,212.5,161.4z"/>
	
		<linearGradient id="SVGID_18_" gradientUnits="userSpaceOnUse" x1="5241.8848" y1="209.3089" x2="5251.0225" y2="223.3535" gradientTransform="matrix(1 9.424639e-03 9.424639e-03 -1 -5030.7661 316.4987)">
		<stop  offset="0" style="stop-color:#FEBBBA"/>
		<stop  offset="1" style="stop-color:#FF928E"/>
	</linearGradient>
	<path class="st20" d="M215.2,151.2l-3,2.5l-0.9,2.5l2.6,2.9c0,0,0.9-4.9,1.6-6C216.1,152,215.8,151.5,215.2,151.2z"/>
	
		<linearGradient id="SVGID_19_" gradientUnits="userSpaceOnUse" x1="4257.0918" y1="567.3965" x2="4200.7163" y2="469.6833" gradientTransform="matrix(-1 0 0 -1 4141.4399 363.89)">
		<stop  offset="0" style="stop-color:#FF928E"/>
		<stop  offset="1" style="stop-color:#FE7062"/>
	</linearGradient>
	<path class="st21" d="M133.6,205.8l-6.3-16.4c0,0-15.9,10.6-18.6,24.1c4.7,0.4,9.4,1.7,13.7,3.8
		C123.6,210.9,133.6,205.8,133.6,205.8z"/>
	
		<linearGradient id="SVGID_20_" gradientUnits="userSpaceOnUse" x1="5137.7334" y1="140.8881" x2="5179.0356" y2="140.8881" gradientTransform="matrix(1 9.424639e-03 9.424639e-03 -1 -5030.7661 316.4987)">
		<stop  offset="0" style="stop-color:#FEBBBA"/>
		<stop  offset="1" style="stop-color:#FF928E"/>
	</linearGradient>
	<path class="st22" d="M147.2,221.3c0,0-17.8,9.9-23.7,1.2c-1.1-1.5-1.5-3.4-1.2-5.2c-4.3-2.1-8.9-3.4-13.7-3.8
		c-0.9,4.4-0.2,9,1.9,12.9c10.3,19.2,38.9-0.7,38.9-0.7L147.2,221.3z"/>
	
		<linearGradient id="SVGID_21_" gradientUnits="userSpaceOnUse" x1="5169.4473" y1="185.0541" x2="5185.7837" y2="185.0541" gradientTransform="matrix(1 9.424639e-03 9.424639e-03 -1 -5030.7661 316.4987)">
		<stop  offset="0" style="stop-color:#FEBBBA"/>
		<stop  offset="1" style="stop-color:#FF928E"/>
	</linearGradient>
	<path class="st23" d="M145.8,171.4l-5.5,15.5c-0.1,0.3,0,0.5,0.2,0.7c1.5,0.8,6.7,3.2,13.1-0.8c0.7-0.4,1.1-1.1,1.2-1.9l1.9-13.4
		L145.8,171.4z"/>
	
		<linearGradient id="SVGID_22_" gradientUnits="userSpaceOnUse" x1="-2271.0127" y1="-1061.7281" x2="-2277.1099" y2="-1041.6016" gradientTransform="matrix(0.75 -0.66 -0.66 -0.75 1166.5144 -2123.1521)">
		<stop  offset="0" style="stop-color:#FEBBBA"/>
		<stop  offset="1" style="stop-color:#FF928E"/>
	</linearGradient>
	<path class="st24" d="M157.7,157.2c0,0,5.8,11.2,5,15.6c-0.8,4.5-8.1,4.1-14.4,0.4l-4.4-12L157.7,157.2z"/>
	
		<linearGradient id="SVGID_23_" gradientUnits="userSpaceOnUse" x1="-2277.0415" y1="-1026.3781" x2="-2271.938" y2="-1055.4834" gradientTransform="matrix(0.75 -0.66 -0.66 -0.75 1166.5144 -2123.1521)">
		<stop  offset="0" style="stop-color:#005B5B"/>
		<stop  offset="1" style="stop-color:#11438C"/>
	</linearGradient>
	<path class="st25" d="M148.5,167.3c0.2-0.1,0.3-0.4,0.2-0.6c0,0,0,0,0-0.1c-0.7-1.1-1.3-2.3-1.6-3.5c0,0-1-0.7,2.7-1.5
		s9.4-2.2,10.6-5.4s-1.8-11-6.6-4.8c-0.1,0.2-0.4,0.3-0.6,0.1c-0.1,0-0.1-0.1-0.1-0.1c-0.8-1-2.8-3.2-5.7-1.9c-2.7,1.2-3,3.2-3,4.2
		c0,0.3-0.2,0.5-0.4,0.5c0,0-0.1,0-0.1,0c-1.4-0.3-4.6-0.5-6.2,2.8c-1.3,2.8-0.5,4.3,0.3,5.1c0.2,0.2,0.2,0.5,0,0.6
		c-0.1,0.1-0.1,0.1-0.2,0.1c-0.9,0.3-2.1,1-2,3.1c0.1,2.9,3.4,2.7,4.3,2.6c0.1,0,0.3,0,0.4,0.1c0.8,0.9,4.3,4.6,8.2,5.1
		c0.3,0,0.5-0.2,0.5-0.4c0-0.1,0-0.1,0-0.2l-1.6-4.9c-0.1-0.2,0-0.5,0.3-0.6L148.5,167.3z"/>
	
		<linearGradient id="SVGID_24_" gradientUnits="userSpaceOnUse" x1="-2277.2598" y1="-1061.6348" x2="-2282.7502" y2="-1043.533" gradientTransform="matrix(0.75 -0.66 -0.66 -0.75 1166.5144 -2123.1521)">
		<stop  offset="0" style="stop-color:#FEBBBA"/>
		<stop  offset="1" style="stop-color:#FF928E"/>
	</linearGradient>
	<path class="st26" d="M149.2,168c0,0-4.2-2.9-4.5-0.5c-0.3,2.4,3.7,3.5,5.8,2.7L149.2,168z"/>
	
		<linearGradient id="SVGID_25_" gradientUnits="userSpaceOnUse" x1="4902.0254" y1="166.1081" x2="4924.8062" y2="71.1704" gradientTransform="matrix(1 0 0 -1 -4741.4302 363.89)">
		<stop  offset="0" style="stop-color:#005B5B"/>
		<stop  offset="1" style="stop-color:#11438C"/>
	</linearGradient>
	<path class="st27" d="M143.6,236.8l9.7-33.8c0.1-0.4,0.4-0.7,0.8-0.7c1.8-0.2,6.8-0.8,12.7-1.3c7.1-0.6,15.3-1.1,20.2-0.7
		c0.5,0,1,0.5,0.9,1.1c0,0.1,0,0.2-0.1,0.4c-2.8,5.6-14.3,28.6-20,36.2c-0.2,0.2-0.5,0.4-0.8,0.4l-22.5-0.2c-0.5,0-1-0.5-1-1
		C143.5,237,143.5,236.9,143.6,236.8z"/>
	
		<linearGradient id="SVGID_26_" gradientUnits="userSpaceOnUse" x1="4886.4111" y1="140.9962" x2="4899.3193" y2="140.9962" gradientTransform="matrix(1 0 0 -1 -4741.4302 363.89)">
		<stop  offset="0" style="stop-color:#FEBBBA"/>
		<stop  offset="1" style="stop-color:#FF928E"/>
	</linearGradient>
	<path class="st28" d="M145.9,228.6c0,0-1.3-5.6-0.8-7.5c0.5-2,1.6-4.5,5.1-3.9c2.6,0.5,5.2,1.2,7.7,2c0,0-0.2,2.6-2.9,1.7l1.7,1.3
		c0,0-0.2,2.1-2.5,1l1.5,1.7c-0.5,0.9-1.6,1.2-2.4,0.7c-0.1,0-0.1-0.1-0.2-0.1C151.4,224.4,150.6,229.3,145.9,228.6z"/>
	<path class="st1" d="M166.2,211.1c0,1.6,1.3,2.8,2.8,2.8c1.6,0,2.8-1.3,2.8-2.8c0-1.6-1.3-2.8-2.8-2.8l0,0
		C167.4,208.2,166.2,209.5,166.2,211.1z"/>
	<path class="st1" d="M154.4,213l-0.8-0.2l2-6.7c0.3-1.1,1.2-1.9,2.3-2.1c6.2-1.3,22.8-1.6,23.4-1.6v0.8c-0.2,0-17.1,0.3-23.3,1.6
		c-0.8,0.2-1.5,0.8-1.7,1.6L154.4,213z"/>
	<path class="st29" d="M39.7,307.7c-1,1.5-5.1,36.1-5.8,48.9c0,0.8,0.6,1.5,1.4,1.6c0,0,0,0,0.1,0l0,0c0.8,0,1.4-0.5,1.5-1.3
		l7.5-48.1L39.7,307.7z"/>
	<path class="st29" d="M72.7,307.7c1,1.5,5.1,36.1,5.8,48.9c0,0.8-0.6,1.5-1.4,1.6c0,0,0,0-0.1,0l0,0c-0.8,0-1.4-0.5-1.5-1.3
		l-7.5-48.1L72.7,307.7z"/>
	<path class="st29" d="M33.5,305v0.4c0.1,2.8,2.4,5,5.2,5l34.7,0.6c2.8,0.1,5.2-1.9,5.4-4.7v-0.3c0-2.8-2.2-5.2-5.1-5.2
		c-0.1,0-0.1,0-0.2,0l-34.7-0.6C36,299.9,33.6,302.1,33.5,305z"/>
	<path class="st1" d="M106.6,355.3c-6.2,0-8.9-0.5-10.1-1c0.2,1.1,1.2,1.8,2.3,1.8h21.8c0.6,0,1.1-0.5,1.1-1c0-0.1,0-0.2,0-0.3
		C119.1,355,113.8,355.3,106.6,355.3z"/>
	
		<linearGradient id="SVGID_27_" gradientUnits="userSpaceOnUse" x1="141.9818" y1="78.1405" x2="144.6663" y2="12.3689" gradientTransform="matrix(1 0 0 -1 -35.77 363.89)">
		<stop  offset="0" style="stop-color:#4F52FF"/>
		<stop  offset="1" style="stop-color:#4042E2"/>
	</linearGradient>
	<path class="st30" d="M121.6,354.8c0-0.1-0.1-0.3-0.2-0.4c-1.7-2.1-5-5.5-9.5-5.4c-6.7,0.1-9,0.8-14.2,0l-1.2,4
		c-0.1,0.4-0.1,0.8,0,1.2c1.2,0.5,4,1,10.1,1C113.8,355.3,119.1,355,121.6,354.8z"/>
	
		<linearGradient id="SVGID_28_" gradientUnits="userSpaceOnUse" x1="133.492" y1="16.26" x2="140.302" y2="16.26" gradientTransform="matrix(1 0 0 -1 -35.77 363.89)">
		<stop  offset="0" style="stop-color:#FEBBBA"/>
		<stop  offset="1" style="stop-color:#FF928E"/>
	</linearGradient>
	<path class="st31" d="M99.2,344.7l-1.5,5.1c0,0,3.3,1.5,6.2,0.3l0.6-4.4L99.2,344.7z"/>
	<path class="st1" d="M144.5,352.1c-4.8,3.9-7.3,5.2-8.5,5.6c0.9,0.7,2.1,0.7,2.9,0l17-13.7c0.5-0.4,0.6-1,0.2-1.5
		c-0.1-0.1-0.1-0.1-0.2-0.2C154,344,150.1,347.6,144.5,352.1z"/>
	
		<linearGradient id="SVGID_29_" gradientUnits="userSpaceOnUse" x1="177.92" y1="79.6035" x2="180.6045" y2="13.8319" gradientTransform="matrix(1 0 0 -1 -35.77 363.89)">
		<stop  offset="0" style="stop-color:#4F52FF"/>
		<stop  offset="1" style="stop-color:#4042E2"/>
	</linearGradient>
	<path class="st32" d="M155.8,342.3c-0.1-0.1-0.2-0.1-0.4-0.2c-2.6-0.6-7.3-1.1-10.8,1.8c-5.1,4.2-6.5,6.3-11,8.9l1.6,3.9
		c0.2,0.4,0.4,0.7,0.8,1c1.3-0.4,3.7-1.7,8.5-5.6C150.1,347.6,154,344,155.8,342.3z"/>
	
		<linearGradient id="SVGID_30_" gradientUnits="userSpaceOnUse" x1="95.84" y1="46.9879" x2="149.7475" y2="46.9879" gradientTransform="matrix(1 0 0 -1 -35.77 363.89)">
		<stop  offset="0" style="stop-color:#005B5B"/>
		<stop  offset="1" style="stop-color:#11438C"/>
	</linearGradient>
	<path class="st33" d="M67.2,286.7c0,0,36.9,3,44.5,6.6s-6.2,53.6-6.2,53.6s-2.1,1-6.7-0.4c0,0,4.7-36.9,1.2-44.9l-40-6.5
		L67.2,286.7z"/>
	
		<linearGradient id="SVGID_31_" gradientUnits="userSpaceOnUse" x1="165.7446" y1="15.6938" x2="173.8741" y2="15.6938" gradientTransform="matrix(1 0 0 -1 -35.77 363.89)">
		<stop  offset="0" style="stop-color:#FEBBBA"/>
		<stop  offset="1" style="stop-color:#FF928E"/>
	</linearGradient>
	<path class="st34" d="M130,345.8c0.3,0.3,3.7,7,3.7,7s3.7-0.8,4.5-3.1l-3.3-6.1L130,345.8z"/>
	
		<linearGradient id="SVGID_32_" gradientUnits="userSpaceOnUse" x1="144.8023" y1="69.4388" x2="85.6284" y2="2.3477" gradientTransform="matrix(1 0 0 -1 -35.77 363.89)">
		<stop  offset="0" style="stop-color:#005B5B"/>
		<stop  offset="1" style="stop-color:#11438C"/>
	</linearGradient>
	<path class="st35" d="M44.9,286.4c-0.8,2.2-1.2,4.4-1.2,6.7c0.1,5.3,4.3,9.7,9.7,9.9l43.7,2c0.9,0,1.7,0.7,1.9,1.6
		c1,4,6.1,16.2,30.6,40.5c0.7,0.6,1.7,0.8,2.4,0.3l3.5-2.2c0.4-0.2,0.5-0.7,0.3-1.1l-25.4-43.4c-1.3-2.2-3.5-3.8-6-4.4l-37.2-9.5
		L44.9,286.4z"/>
	
		<linearGradient id="SVGID_33_" gradientUnits="userSpaceOnUse" x1="120.5875" y1="130.2452" x2="124.5991" y2="140.3539" gradientTransform="matrix(1 0 0 -1 -35.77 363.89)">
		<stop  offset="0" style="stop-color:#FEBBBA"/>
		<stop  offset="1" style="stop-color:#FF928E"/>
	</linearGradient>
	<path class="st36" d="M88,218.5c0,0-4.7,8.3-9.4,12.3l9.9,5.5c0,0,2.2-8.8,7.3-11.3L88,218.5z"/>
	
		<linearGradient id="SVGID_34_" gradientUnits="userSpaceOnUse" x1="228.8498" y1="258.2155" x2="105.8836" y2="70.8352" gradientTransform="matrix(1 0 0 -1 -35.77 363.89)">
		<stop  offset="0" style="stop-color:#4F52FF"/>
		<stop  offset="1" style="stop-color:#4042E2"/>
	</linearGradient>
	<path class="st37" d="M44.1,286.7c0,0,11.8,2.9,23,0c0,0,15.8-21.2,21.8-26.9c0,0,9.7,15.3,31.3,17.5l1.2-2.7
		c0,0-17.2-7.9-22.5-20.1c-5.3-12.2-7.4-17.4-12.3-20.6c-3-2-4.8-3.3-5.7-4.1c-0.5-0.4-1.2-0.4-1.8-0.1
		C74.2,232.8,50.1,249.3,44.1,286.7z"/>
	
		<linearGradient id="SVGID_35_" gradientUnits="userSpaceOnUse" x1="123.1611" y1="113.6457" x2="201.0738" y2="243.4978" gradientTransform="matrix(1 0 0 -1 -35.77 363.89)">
		<stop  offset="0" style="stop-color:#005B5B"/>
		<stop  offset="1" style="stop-color:#11438C"/>
	</linearGradient>
	<path class="st38" d="M88.4,259.4c-0.2,0-0.5-0.1-0.6-0.3c-2.4-3.2-4.4-6.8-5.9-10.5c-0.2-0.4,0-0.8,0.3-1c0.4-0.2,0.8,0,1,0.3
		c0,0,0,0.1,0.1,0.1c1.5,3.6,3.4,7,5.7,10.1c0.3,0.3,0.2,0.8-0.1,1.1C88.7,259.4,88.5,259.4,88.4,259.4z"/>
	
		<linearGradient id="SVGID_36_" gradientUnits="userSpaceOnUse" x1="154.832" y1="90.9374" x2="173.6087" y2="90.9374" gradientTransform="matrix(1 0 0 -1 -35.77 363.89)">
		<stop  offset="0" style="stop-color:#FEBBBA"/>
		<stop  offset="1" style="stop-color:#FF928E"/>
	</linearGradient>
	<path class="st39" d="M119.1,273.1l2.4-0.7l7.4-1.7c0.9-0.2,1.8-0.1,2.6,0.4l6.4,4h-17.5L119.1,273.1z"/>
	
		<linearGradient id="SVGID_37_" gradientUnits="userSpaceOnUse" x1="2019.1288" y1="-418.3353" x2="1999.0022" y2="-433.7374" gradientTransform="matrix(0.9914 -0.1305 -0.1305 -0.9914 -1959.4788 61.9278)">
		<stop  offset="0" style="stop-color:#FEBBBA"/>
		<stop  offset="1" style="stop-color:#FF928E"/>
	</linearGradient>
	<path class="st40" d="M95.4,206.1c0,0,4.6,7.6,5.3,11.7s2.1,6.8-2.7,8.3c-4.8,1.5-9.2-0.4-11.9-4.3c0,0-4.3-6-3.9-8.7
		C82.6,210.4,95.4,206.1,95.4,206.1z"/>
	
		<linearGradient id="SVGID_38_" gradientUnits="userSpaceOnUse" x1="2005.1632" y1="-406.222" x2="2023.3864" y2="-429.6853" gradientTransform="matrix(0.9914 -0.1305 -0.1305 -0.9914 -1959.4788 61.9278)">
		<stop  offset="0" style="stop-color:#005B5B"/>
		<stop  offset="1" style="stop-color:#11438C"/>
	</linearGradient>
	<path class="st41" d="M87.3,218.6l0.6-0.1c0,0-3.2-4.9-1.1-6.1c2.1-1.2,10.7-4.2,12.2-7.6c1.4-3.3-0.7-6.9-3.3-7.7
		c-0.2,0-0.3,0-0.4,0.2l-0.2,0.4c-0.1,0.2-0.3,0.3-0.4,0.2c-0.1,0-0.2-0.1-0.2-0.2l0,0c-0.1-0.2-0.3-0.2-0.4-0.2
		c-0.1,0-0.1,0.1-0.2,0.2c-0.5,1-1.8,2.7-6,4.1c-5.9,1.9-9.5,4.9-9.1,9c0,0.2-0.1,0.3-0.3,0.4c-0.1,0-0.1,0-0.2,0
		c-0.5-0.2-1.2-0.2-2,0.7c-1.5,1.6-0.3,5.1,3.7,7.6c0.2,0.1,0.2,0.3,0.1,0.4c0,0,0,0.1-0.1,0.1c-0.6,0.5-1.4,1.7,1.3,2.7
		c2.7,1,4.3,0.7,4.8,0.5c0.1-0.1,0.2-0.2,0.2-0.4l-0.7-3.6c0-0.2,0.1-0.3,0.2-0.4c0,0,0,0,0,0L87.3,218.6z"/>
	
		<linearGradient id="SVGID_39_" gradientUnits="userSpaceOnUse" x1="2016.641" y1="-415.0837" x2="1996.5143" y2="-430.4782" gradientTransform="matrix(0.9914 -0.1305 -0.1305 -0.9914 -1959.4788 61.9278)">
		<stop  offset="0" style="stop-color:#FEBBBA"/>
		<stop  offset="1" style="stop-color:#FF928E"/>
	</linearGradient>
	<path class="st42" d="M87.6,219.4c0,0-2-4.9-4.1-3.2s1.9,5.6,3.8,5.5L87.6,219.4z"/>
	
		<linearGradient id="SVGID_40_" gradientUnits="userSpaceOnUse" x1="-3444.7781" y1="3459.1055" x2="-3495.0037" y2="3410.5559" gradientTransform="matrix(-1.39 -7.000000e-02 7.000000e-02 -1.39 -8929.7207 535.3433)">
		<stop  offset="0" style="stop-color:#005B5B"/>
		<stop  offset="1" style="stop-color:#11438C"/>
	</linearGradient>
	<path class="st43" d="M112.3,278.7L112.3,278.7l37.6,0c0.9,0,1.7-0.8,1.7-1.7c0-0.9-0.8-1.7-1.7-1.7l0,0l-37.5,0
		c-0.9,0-1.7,0.7-1.7,1.6C110.6,277.9,111.4,278.6,112.3,278.7L112.3,278.7L112.3,278.7z"/>
	
		<linearGradient id="SVGID_41_" gradientUnits="userSpaceOnUse" x1="-5783.189" y1="3333.1353" x2="-5833.4067" y2="3284.5781" gradientTransform="matrix(0.65 -1.23 1.23 0.65 5416.2104 -10851.1035)">
		<stop  offset="0" style="stop-color:#005B5B"/>
		<stop  offset="1" style="stop-color:#11438C"/>
	</linearGradient>
	<path class="st44" d="M164.4,241.9L164.4,241.9L148.5,276c-0.4,0.8-0.1,1.8,0.7,2.3c0.8,0.4,1.8,0.1,2.3-0.7c0-0.1,0.1-0.1,0.1-0.2
		l15.8-34c0.4-0.8,0.1-1.9-0.8-2.3S164.8,241.1,164.4,241.9L164.4,241.9z"/>
	<rect x="258.6" y="312.8" class="st29" width="4" height="42.8"/>
	<path class="st29" d="M277.9,356.5h-34.7c0-1.4,1.1-2.6,2.6-2.6h29.5C276.7,353.9,277.9,355,277.9,356.5L277.9,356.5z"/>
	<path class="st29" d="M243.7,303.3h35.1c2.3,0,4.3,1.9,4.3,4.3v3.9c0,2.3-1.9,4.3-4.3,4.3h-35.1c-2.3,0-4.3-1.9-4.3-4.3v-3.9
		C239.5,305.2,241.4,303.3,243.7,303.3z"/>
	
		<linearGradient id="SVGID_42_" gradientUnits="userSpaceOnUse" x1="223.6247" y1="-119.0674" x2="273.8122" y2="81.6978" gradientTransform="matrix(1 0 0 -1 -35.77 363.89)">
		<stop  offset="0" style="stop-color:#FEBBBA"/>
		<stop  offset="1" style="stop-color:#FF928E"/>
	</linearGradient>
	<path class="st45" d="M231.4,284.3c-4.5,0.9-8.7,2.7-12.5,5.3c-1,0.7-1.6,1.9-1.4,3.2c0.8,6.3,4,26.5,14.8,46.4
		c0.6,1,0.7,2.3,0.5,3.4l-1.9,8.7l-3.5,3.2h8.9l5.9-16l-2.5-0.8c-2-0.6-3.3-2.4-3.4-4.5l-0.3-17.2c0.1-4.7-1.6-9.4-4.7-13l14.2-0.7
		L231.4,284.3z"/>
	
		<linearGradient id="SVGID_43_" gradientUnits="userSpaceOnUse" x1="337.1969" y1="126.8959" x2="289.4816" y2="46.564" gradientTransform="matrix(1 0 0 -1 -35.77 363.89)">
		<stop  offset="0" style="stop-color:#005B5B"/>
		<stop  offset="1" style="stop-color:#11438C"/>
	</linearGradient>
	<path class="st46" d="M223.9,356.1c-0.8,1.1,8.7,2.5,13.6,0.1c0,0,6.7-11.6,6.7-17.6c0,0-0.5-1.2-4.5-0.9c0,0-2.3,13.8-4.6,15.3
		c-2.3,1.5-6.6,0.2-6.6,0.2S225.1,354.5,223.9,356.1z"/>
	
		<linearGradient id="SVGID_44_" gradientUnits="userSpaceOnUse" x1="248.0163" y1="7.9095" x2="258.0568" y2="157.6454" gradientTransform="matrix(1 0 0 -1 -35.77 363.89)">
		<stop  offset="0" style="stop-color:#FEBBBA"/>
		<stop  offset="1" style="stop-color:#FF928E"/>
	</linearGradient>
	<path class="st47" d="M243.7,303.3c-0.1-0.1-15.3-1.8-15.3-1.8c0.2,3.7-0.1,7.4-1.1,11c-1.6,6.4-23.9,34-23.9,34l2.3,7.4
		c-6.9,2.5-14.3,2.9-21.4,1.3l14.5-8.7c0,0,13.6-46.4,21.9-54.6l15.3-5.3L243.7,303.3z"/>
	
		<linearGradient id="SVGID_45_" gradientUnits="userSpaceOnUse" x1="256.7616" y1="73.5292" x2="323.2772" y2="73.5292" gradientTransform="matrix(1 0 0 -1 -35.77 363.89)">
		<stop  offset="0" style="stop-color:#005B5B"/>
		<stop  offset="1" style="stop-color:#11438C"/>
	</linearGradient>
	<path class="st48" d="M277.9,276.3c0,0,8.8,13.1,9.5,19c0.7,6-2.4,8.4-11.6,8.8c-9.2,0.4-33.8,0.4-33.8,0.4l-21-17.9
		c0,0,15.3-5.5,19.3-7S277.9,276.3,277.9,276.3z"/>
	
		<linearGradient id="SVGID_46_" gradientUnits="userSpaceOnUse" x1="309.9408" y1="143.0797" x2="262.2308" y2="62.7591" gradientTransform="matrix(1 0 0 -1 -35.77 363.89)">
		<stop  offset="0" style="stop-color:#005B5B"/>
		<stop  offset="1" style="stop-color:#11438C"/>
	</linearGradient>
	<path class="st49" d="M204.9,351.4c0,0,2.5,2.4,0.8,5.2c0,0-20,3.5-25.4,1.9c0,0,1.1-2.6,7.2-5.5l-0.5,0.3c-0.3,0.3-0.3,0.8,0,1.1
		c0.1,0.1,0.3,0.2,0.5,0.2C191.6,354.4,199.9,353.7,204.9,351.4z"/>
	
		<linearGradient id="SVGID_47_" gradientUnits="userSpaceOnUse" x1="303.623" y1="184.6253" x2="293.8328" y2="133.1714" gradientTransform="matrix(1 0 0 -1 -35.77 363.89)">
		<stop  offset="0" style="stop-color:#005B5B"/>
		<stop  offset="1" style="stop-color:#11438C"/>
	</linearGradient>
	<path class="st50" d="M239.9,193.4c17.9-3,26.4,11.6,25.8,14.7c-0.1,0.3,0.1,0.6,0.4,0.7c0.1,0,0.2,0,0.3,0
		c2.1-0.6,6.6-1.3,9.4,2.3c2.5,3.1,0.6,6.1-0.9,7.7c-0.2,0.2-0.2,0.6,0,0.8c0.1,0.1,0.3,0.2,0.5,0.2c3.8-0.5,12-0.6,13.4,7.1
		c1.3,7.2-3.7,9.2-6.7,9.8c-0.3,0.1-0.5,0.4-0.4,0.7c0,0.2,0.1,0.3,0.3,0.4c1.5,0.9,3.2,2.9,2.5,6.7c-1.1,6-12.9,5.5-14.2,5.4
		c-0.1,0-0.2,0-0.2-0.1L251,238.9c-0.1-0.1-0.2-0.2-0.3-0.4l-3.8-22c0-0.2,0-0.4,0.2-0.5l-12.3-17.4
		C230.3,198.1,239.7,193.5,239.9,193.4z"/>
	
		<linearGradient id="SVGID_48_" gradientUnits="userSpaceOnUse" x1="257.1307" y1="18.0277" x2="294.5779" y2="101.9844" gradientTransform="matrix(1 0 0 -1 -35.77 363.89)">
		<stop  offset="0" style="stop-color:#4F52FF"/>
		<stop  offset="1" style="stop-color:#4042E2"/>
	</linearGradient>
	<path class="st51" d="M254.2,274.5c0,0-10.2-9.7-15.3-16.2c-2.7-3.5-3.6-8.1-2.3-12.3c2.3-7.7,6.4-15.8,6.8-17
		c0.6-1.9,12-1.8,12-1.8s22.6,14.6,31.4,39.4l-10,3.1c0,0-5.9-9.9-11.7-16.2c0,0,10.1,13.3,10.4,18.8L254.2,274.5z"/>
	
		<linearGradient id="SVGID_49_" gradientUnits="userSpaceOnUse" x1="287.4084" y1="120.2514" x2="283.3967" y2="145.967" gradientTransform="matrix(1 0 0 -1 -35.77 363.89)">
		<stop  offset="0" style="stop-color:#FEBBBA"/>
		<stop  offset="1" style="stop-color:#FF928E"/>
	</linearGradient>
	<path class="st52" d="M242,218.3c0.1,0.4,3.1,10.3,3.3,10.5s6.6,0.5,9.5-1.5l-7.4-14.4L242,218.3z"/>
	
		<linearGradient id="SVGID_50_" gradientUnits="userSpaceOnUse" x1="-2078.5911" y1="-3641.2803" x2="-2052.3523" y2="-3659.1016" gradientTransform="matrix(0.6042 -0.7968 -0.7968 -0.6042 -1415.7054 -3639.9849)">
		<stop  offset="0" style="stop-color:#FEBBBA"/>
		<stop  offset="1" style="stop-color:#FF928E"/>
	</linearGradient>
	<path class="st53" d="M230,205.6c0,0-1.4,5.7,2.6,13.3c4,7.6,8.5,7.6,11,5.2c2.5-2.4,5.5-6.6,4.8-14
		C247.6,202.7,232,198.4,230,205.6z"/>
	
		<linearGradient id="SVGID_51_" gradientUnits="userSpaceOnUse" x1="-2061.2627" y1="-3619.9978" x2="-2071.0605" y2="-3671.4517" gradientTransform="matrix(0.6042 -0.7968 -0.7968 -0.6042 -1415.7054 -3639.9849)">
		<stop  offset="0" style="stop-color:#005B5B"/>
		<stop  offset="1" style="stop-color:#11438C"/>
	</linearGradient>
	<path class="st54" d="M242.8,210.5c0,0-6.6-10.1-12.9-2.2l-0.1,2.9c0,0-7.3-0.9-6-7.5c1.3-6.7,7.6-10.9,15.7-8
		c8.1,2.9,12.8,5.9,13.3,11.7c0.5,5.8-4.1,4.6-4.1,4.6s-1.5-4.1-3.7-4.6c-2.1-0.5-1.6,2.8-1.6,2.8L242.8,210.5z"/>
	
		<linearGradient id="SVGID_52_" gradientUnits="userSpaceOnUse" x1="-2077.0132" y1="-3638.9666" x2="-2050.7817" y2="-3656.7878" gradientTransform="matrix(0.6042 -0.7968 -0.7968 -0.6042 -1415.7054 -3639.9849)">
		<stop  offset="0" style="stop-color:#FEBBBA"/>
		<stop  offset="1" style="stop-color:#FF928E"/>
	</linearGradient>
	<path class="st55" d="M244.5,210.4c0,0-3.4-5.2,0.1-6c3.5-0.8,3,5.1,2.6,7.2L244.5,210.4z"/>
	
		<linearGradient id="SVGID_53_" gradientUnits="userSpaceOnUse" x1="303.8626" y1="91.0533" x2="359.6365" y2="91.0533" gradientTransform="matrix(1 0 0 -1 -35.77 363.89)">
		<stop  offset="0" style="stop-color:#FEBBBA"/>
		<stop  offset="1" style="stop-color:#FF928E"/>
	</linearGradient>
	<path class="st56" d="M233.4,275.3l7.5-7.2l10.4,4.4c0,0,10.3,1.6,16.3,0l5.9-1.6l13.4-4.2l2.1,5.9c0.5,1.5,0,3.2-1.3,4.1
		c-1.1,0.8-2.2,1.5-3.4,2.1c-1.8,0.8-43.4-0.5-43.4-0.5L233.4,275.3z"/>
	
		<linearGradient id="SVGID_54_" gradientUnits="userSpaceOnUse" x1="236.2775" y1="-56.4518" x2="201.166" y2="-66.0753" gradientTransform="matrix(0.9988 -4.937274e-02 -4.937274e-02 -0.9988 30.3667 222.3925)">
		<stop  offset="0" style="stop-color:#005B5B"/>
		<stop  offset="1" style="stop-color:#11438C"/>
	</linearGradient>
	<path class="st57" d="M261.8,278.7L261.8,278.7l-43.7,0c-1.1,0-1.9-0.9-1.9-1.9s0.9-1.9,1.9-1.9l43.6,0c1.1,0,2,0.8,2,1.9
		C263.7,277.8,262.8,278.6,261.8,278.7L261.8,278.7z"/>
	
		<linearGradient id="SVGID_55_" gradientUnits="userSpaceOnUse" x1="257.3932" y1="119.4827" x2="232.4815" y2="93.1528" gradientTransform="matrix(1 0 0 -1 -35.77 363.89)">
		<stop  offset="0" style="stop-color:#005B5B"/>
		<stop  offset="1" style="stop-color:#11438C"/>
	</linearGradient>
	<path class="st58" d="M178.9,239.1h36.3c2.7,0,5.1,1.5,6.3,4l16.8,35.6h-45.1c-1.7,0-3.3-1.1-3.9-2.7l-13-32.9
		c-0.6-1.5,0.1-3.2,1.6-3.8C178.2,239.2,178.5,239.1,178.9,239.1z"/>
	<path class="st29" d="M204.5,257.3c0.8,2.4,0.2,4.8-1.3,5.3c-1.5,0.5-3.4-1.1-4.1-3.5c-0.8-2.4-0.2-4.8,1.3-5.3
		S203.7,254.9,204.5,257.3z"/>
	
		<linearGradient id="SVGID_56_" gradientUnits="userSpaceOnUse" x1="-10447.1543" y1="-33.1632" x2="-10446.79" y2="-72.1575" gradientTransform="matrix(-1 0 0 -1 -10147.5 363.89)">
		<stop  offset="0" style="stop-color:#005B5B"/>
		<stop  offset="1" style="stop-color:#11438C"/>
	</linearGradient>
	<path class="st59" d="M311.5,351.1c0.3,1.8,0.5,3.7,0.6,5.6c0.1,1.3-0.9,2.4-2.2,2.5c-4.5,0.4-14.6,1.2-21.1,0.3
		c-0.6-0.1-1-0.6-0.9-1.2c0-0.2,0.2-0.5,0.3-0.6c2.7-2.5,9.1-7.3,19.8-8.4L311.5,351.1z"/>
	
		<linearGradient id="SVGID_57_" gradientUnits="userSpaceOnUse" x1="-10456.5156" y1="10.3802" x2="-10458.541" y2="26.1994" gradientTransform="matrix(-1 0 0 -1 -10147.5 363.89)">
		<stop  offset="0" style="stop-color:#FEBBBA"/>
		<stop  offset="1" style="stop-color:#FF928E"/>
	</linearGradient>
	<path class="st60" d="M313.7,345.3l-2.3,5.5c-0.3,0.8-1.1,1.2-1.9,1.1c-0.6-0.1-1.2-0.2-1.8-0.3c-1.3-0.4-2-1.7-1.6-3c0,0,0,0,0,0
		l1.7-5.7L313.7,345.3z"/>
	
		<linearGradient id="SVGID_58_" gradientUnits="userSpaceOnUse" x1="-10499.7881" y1="-33.6557" x2="-10499.4248" y2="-72.65" gradientTransform="matrix(-1 0 0 -1 -10147.5 363.89)">
		<stop  offset="0" style="stop-color:#005B5B"/>
		<stop  offset="1" style="stop-color:#11438C"/>
	</linearGradient>
	<path class="st61" d="M352.2,355.5c0,0-4.6,3.8-6.3,8.6c-0.4,1.1,0.2,2.3,1.3,2.6c0.2,0.1,0.5,0.1,0.7,0.1h9.3c1.2,0,2.2-1,2.2-2.2
		c0-0.1,0-0.3,0-0.4C358.8,360.9,357.1,355.5,352.2,355.5z"/>
	
		<linearGradient id="SVGID_59_" gradientUnits="userSpaceOnUse" x1="-10500.7285" y1="4.9675" x2="-10502.7002" y2="20.3772" gradientTransform="matrix(-1 0 0 -1 -10147.5 363.89)">
		<stop  offset="0" style="stop-color:#FEBBBA"/>
		<stop  offset="1" style="stop-color:#FF928E"/>
	</linearGradient>
	<path class="st62" d="M357.8,350.6c0,0-0.9,4-1.6,6.7c-0.1,0.5-0.6,0.7-1.1,0.6c0,0,0,0-0.1,0c-1.1-0.5-2.2-0.7-3.4-0.6
		c-0.4,0-0.7-0.2-0.7-0.6c0,0,0,0,0-0.1l-0.1-6.7L357.8,350.6z"/>
	
		<linearGradient id="SVGID_60_" gradientUnits="userSpaceOnUse" x1="357.9627" y1="129.4103" x2="376.2161" y2="40.5546" gradientTransform="matrix(1 0 0 -1 -35.77 363.89)">
		<stop  offset="0" style="stop-color:#005B5B"/>
		<stop  offset="1" style="stop-color:#11438C"/>
	</linearGradient>
	<path class="st63" d="M333.8,259.7l-27.5,83.8c0,0,5.3,3.5,7.8,3.3l32.6-67.3c0,0,5.7,41.5,2.9,71.3l9.3,0.7
		c0,0,15.2-76.1,3.7-102.2L333.8,259.7z"/>
	
		<linearGradient id="SVGID_61_" gradientUnits="userSpaceOnUse" x1="-10501.8955" y1="72.8329" x2="-10499.6885" y2="77.2465" gradientTransform="matrix(-1 0 0 -1 -10147.5 363.89)">
		<stop  offset="0" style="stop-color:#4F52FF"/>
		<stop  offset="1" style="stop-color:#4042E2"/>
	</linearGradient>
	<path class="st64" d="M346.6,278.7L346.6,278.7c0.1,0,0.3-0.2,0.2-0.3l-1.1-8.5c0-0.1-0.2-0.2-0.3-0.2c-0.1,0-0.2,0.2-0.2,0.3
		c0,0,0,0,0,0l1.1,8.5C346.3,278.6,346.4,278.8,346.6,278.7C346.5,278.7,346.6,278.7,346.6,278.7z"/>
	
		<linearGradient id="SVGID_62_" gradientUnits="userSpaceOnUse" x1="-10465.5957" y1="165.5692" x2="-10503.4912" y2="53" gradientTransform="matrix(-1 0 0 -1 -10147.5 363.89)">
		<stop  offset="0" style="stop-color:#4F52FF"/>
		<stop  offset="1" style="stop-color:#4042E2"/>
	</linearGradient>
	<path class="st65" d="M328.6,186c0,0,22.3,2,19.1,17.8c0,0,12.3,23.2,18,50.4c0.2,0.9-0.4,1.7-1.2,1.9c0,0,0,0-0.1,0l-37.1,6.3
		c-1,0.2-2-0.5-2.3-1.5l-8.9-34.2l-3.5,15.9l-11-2.9l9.2-46.8C311.1,193.1,312.4,186.3,328.6,186z"/>
	<path class="st1" d="M316.1,225.2L316.1,225.2c0.2,0,0.3-0.2,0.3-0.3l-3.1-14.2c0-0.1-0.2-0.2-0.3-0.2c0,0,0,0,0,0
		c-0.1,0-0.2,0.2-0.2,0.3c0,0,0,0,0,0l3.1,14.2C315.9,225.2,316,225.2,316.1,225.2z"/>
	
		<linearGradient id="SVGID_63_" gradientUnits="userSpaceOnUse" x1="-10485.8311" y1="106.1724" x2="-10458.2197" y2="106.1724" gradientTransform="matrix(-1 0 0 -1 -10147.5 363.89)">
		<stop  offset="0" style="stop-color:#FEBBBA"/>
		<stop  offset="1" style="stop-color:#FF928E"/>
	</linearGradient>
	<path class="st66" d="M318.4,267.5c1.2-0.6,2.5-0.8,3.8-0.5l2.6,0.6c0.5,0.1,1-0.2,1.1-0.7c0,0,0-0.1,0-0.1l2.7-23.8
		c3.3,1.6,8.1,1.4,9.7,1.3l-6.1,28h-21.5L318.4,267.5z"/>
	
		<linearGradient id="SVGID_64_" gradientUnits="userSpaceOnUse" x1="-10460.3662" y1="140.8481" x2="-10408.7598" y2="140.8481" gradientTransform="matrix(-1 0 0 -1 -10147.5 363.89)">
		<stop  offset="0" style="stop-color:#FEBBBA"/>
		<stop  offset="1" style="stop-color:#FF928E"/>
	</linearGradient>
	<path class="st67" d="M261.3,215.9l0.7-2.2c0.4-1.2,1.3-2.2,2.5-2.7l11.7-4.7c0,0,0.2-1.5-2.5-2.5c-2.7-1-2-4-2-4s3.6,1.7,9,4.3
		c2.5,1.3,4.5,3.5,5.6,6.2l26.6,32.5l-3.1,2.1c-3.8,2.6-9,1.7-11.6-2.1c-0.2-0.3-0.4-0.6-0.5-0.9l-14.4-27.6
		C276.1,216.3,268.6,216.9,261.3,215.9z"/>
	
		<linearGradient id="SVGID_65_" gradientUnits="userSpaceOnUse" x1="-10478.9434" y1="169.7846" x2="-10460.9775" y2="188.2048" gradientTransform="matrix(-1 0 0 -1 -10147.5 363.89)">
		<stop  offset="0" style="stop-color:#FEBBBA"/>
		<stop  offset="1" style="stop-color:#FF928E"/>
	</linearGradient>
	<path class="st68" d="M321.4,170.8l6.8,19.2c0,0-6.1,4.7-10.5,3.1l-3.5-11C314.3,182.1,317,168.7,321.4,170.8z"/>
	
		<linearGradient id="SVGID_66_" gradientUnits="userSpaceOnUse" x1="-10452.8965" y1="199.8178" x2="-10475.291" y2="170.1967" gradientTransform="matrix(-1 0 0 -1 -10147.5 363.89)">
		<stop  offset="0" style="stop-color:#FEBBBA"/>
		<stop  offset="1" style="stop-color:#FF928E"/>
	</linearGradient>
	<path class="st69" d="M301,163.9c0,0.3,6.6,18.7,6.6,18.7l10.4-4l-3.7-18.3C314.3,160.3,301,159,301,163.9z"/>
	
		<linearGradient id="SVGID_67_" gradientUnits="userSpaceOnUse" x1="375.3053" y1="284.0598" x2="351.6828" y2="215.6037" gradientTransform="matrix(1 0 0 -1 -35.77 363.89)">
		<stop  offset="0" style="stop-color:#E1473D"/>
		<stop  offset="1" style="stop-color:#E9605A"/>
	</linearGradient>
	<path class="st70" d="M312.5,164.7l2.7,9.5c0,0.1,0.1,0.2,0.1,0.4c0,0.8-0.2,3.4-2.9,3.1c-2.5-0.3-4.7-0.6-6.2,0.1
		c-0.6,0.3-0.9,1-0.7,1.7c1,2.9,2.3,5.7,3.8,8.5c0.4,0.6,1.1,0.9,1.8,0.6c3.2-1.4,6.1-3.1,8.9-5.2c0.4-0.3,0.6-0.8,0.5-1.3
		c-0.5-2.4-1.8-9.9-1.9-11.9c-0.1-2,2.2-3.5,3.2-4.1c0.3-0.2,0.6-0.5,0.6-0.9c0.3-1.3,0.6-4.2-3.1-4.8c-0.8-0.1-1.3-0.8-1.1-1.6
		c0,0,0,0,0,0c0.3-1.5,0.2-3.8-2.7-4.6s-4.8,0.9-5.8,2.3c-0.4,0.5-1.1,0.7-1.7,0.5c-0.4-0.2-0.9-0.1-1.2,0.2
		c-0.6,0.5-1.4,0.4-1.9-0.2c0,0-0.1-0.1-0.1-0.1c-1.1-1.7-3.2-2.4-5.1-1.7c-4.7,1.5-4.5,6.9-2.8,9.9c1.7,2.9,6.7,1,9.1-0.9
		c1.8-1.5,4.6-0.6,5.8-0.1C312.1,164,312.4,164.3,312.5,164.7z"/>
	
		<linearGradient id="SVGID_68_" gradientUnits="userSpaceOnUse" x1="-10485.6982" y1="176.3725" x2="-10467.7412" y2="194.8003" gradientTransform="matrix(-1 0 0 -1 -10147.5 363.89)">
		<stop  offset="0" style="stop-color:#FEBBBA"/>
		<stop  offset="1" style="stop-color:#FF928E"/>
	</linearGradient>
	<path class="st71" d="M319.5,173.5c0,0-2.8-5.3-0.9-6.9s5-1.4,4.9,2.7C323.3,174.4,319.5,173.5,319.5,173.5z"/>
	<path class="st1" d="M336.2,244.7c0.9,0,1.8,0,2.7-0.1h0.2l8.1-37.8c0-0.1-0.1-0.3-0.2-0.3c0,0,0,0,0,0c-0.1,0-0.3,0.1-0.3,0.2
		c0,0,0,0,0,0l-8,37.4c-1.2,0.1-7.7,0.5-11-1.9l7-32.8l-1.5-2.8c-0.1-0.1-0.3-0.2-0.4-0.1c-0.1,0.1-0.1,0.2-0.1,0.3l1.4,2.6l-7.1,33
		l0.1,0.1C329.6,244.3,333.5,244.7,336.2,244.7z"/>
	
		<linearGradient id="SVGID_69_" gradientUnits="userSpaceOnUse" x1="85.7739" y1="-163.7356" x2="152.2886" y2="73.4379" gradientTransform="matrix(1 0 0 -1 -35.77 363.89)">
		<stop  offset="0" style="stop-color:#4F52FF"/>
		<stop  offset="1" style="stop-color:#4042E2"/>
	</linearGradient>
	<path class="st72" d="M93.2,359.9c-0.2,0-0.4,0-0.6-0.1c-0.7-0.4-1.1-1.3-0.8-2l29.6-75.1c0.2-0.7,1-1.1,1.7-0.8c0,0,0.1,0,0.1,0
		c0.7,0.4,1.1,1.3,0.8,2l-29.6,75.1C94.3,359.5,93.8,359.9,93.2,359.9z"/>
	
		<linearGradient id="SVGID_70_" gradientUnits="userSpaceOnUse" x1="89.2615" y1="-164.7104" x2="155.7763" y2="72.4632" gradientTransform="matrix(1 0 0 -1 -35.77 363.89)">
		<stop  offset="0" style="stop-color:#4F52FF"/>
		<stop  offset="1" style="stop-color:#4042E2"/>
	</linearGradient>
	<path class="st73" d="M126.6,359.9c-0.6,0-1.1-0.4-1.3-0.9l-29.6-75.1c-0.3-0.8,0-1.6,0.8-2c0.7-0.3,1.5,0,1.8,0.7c0,0,0,0.1,0,0.1
		l29.6,75.1c0.3,0.8,0,1.6-0.8,2C127,359.8,126.8,359.9,126.6,359.9z"/>
	
		<linearGradient id="SVGID_71_" gradientUnits="userSpaceOnUse" x1="272.0928" y1="-215.9784" x2="338.6" y2="21.1952" gradientTransform="matrix(1 0 0 -1 -35.77 363.89)">
		<stop  offset="0" style="stop-color:#4F52FF"/>
		<stop  offset="1" style="stop-color:#4042E2"/>
	</linearGradient>
	<path class="st74" d="M294.2,359.9c-0.2,0-0.4,0-0.6-0.1c-0.7-0.4-1.1-1.3-0.8-2l29.6-75.1c0.2-0.7,1-1.1,1.7-0.8c0,0,0.1,0,0.1,0
		c0.7,0.4,1.1,1.3,0.8,2l-29.6,75.1C295.3,359.5,294.8,359.8,294.2,359.9z"/>
	
		<linearGradient id="SVGID_72_" gradientUnits="userSpaceOnUse" x1="275.6149" y1="-216.9703" x2="342.1221" y2="20.2108" gradientTransform="matrix(1 0 0 -1 -35.77 363.89)">
		<stop  offset="0" style="stop-color:#4F52FF"/>
		<stop  offset="1" style="stop-color:#4042E2"/>
	</linearGradient>
	<path class="st75" d="M327.6,359.9c-0.6,0-1.1-0.4-1.3-0.9l-29.6-75.1c-0.3-0.8,0-1.7,0.8-2c0.7-0.3,1.5,0,1.8,0.7c0,0,0,0.1,0,0.1
		l29.6,75.1c0.3,0.8,0,1.6-0.8,2C327.9,359.8,327.8,359.9,327.6,359.9z"/>
	<path class="st1" d="M289.9,277.3h42.9v-4.4h-42.9C290.8,272.9,290.8,277.3,289.9,277.3z"/>
	
		<linearGradient id="SVGID_73_" gradientUnits="userSpaceOnUse" x1="365.9633" y1="162.1843" x2="355.2706" y2="117.2977" gradientTransform="matrix(1 0 0 -1 -35.77 363.89)">
		<stop  offset="0" style="stop-color:#005B5B"/>
		<stop  offset="1" style="stop-color:#11438C"/>
	</linearGradient>
	<path class="st76" d="M332.4,277.3c0.2,0,0.4-0.2,0.4-0.4c0,0,0,0,0,0v-3.6c0-0.2-0.2-0.4-0.4-0.4H289c-0.2,0-0.4-0.2-0.4-0.4v-0.2
		c0-0.2,0.2-0.4,0.4-0.4h46.3c1,0,1.9,0.8,1.9,1.9v2.8c0,1-0.8,1.8-1.8,1.8H289c-0.2,0-0.4-0.2-0.4-0.4v-0.2c0-0.2,0.2-0.4,0.4-0.4
		H332.4z"/>
	
		<linearGradient id="SVGID_74_" gradientUnits="userSpaceOnUse" x1="167.7263" y1="-186.7118" x2="234.241" y2="50.4618" gradientTransform="matrix(1 0 0 -1 -35.77 363.89)">
		<stop  offset="0" style="stop-color:#4F52FF"/>
		<stop  offset="1" style="stop-color:#4042E2"/>
	</linearGradient>
	<path class="st77" d="M339,280.3c0.1-0.5-0.1-1.1-0.5-1.4c-0.6-0.4-1.3-0.6-2-0.6h-257c-0.9,0-1.8,0.3-2.5,0.9
		c-0.5,0.5-0.6,1.3-0.2,1.9l2.8,4c0.9,1,2.2,1.6,3.5,1.5h251.6c1.4,0,2.6-0.7,2.9-1.6L339,280.3z"/>
</g>
</svg>
