<?xml version="1.0" encoding="utf-8"?>
<!-- Generator: Adobe Illustrator 24.2.3, SVG Export Plug-In . SVG Version: 6.00 Build 0)  -->
<svg version="1.1" id="Layer_1" xmlns="http://www.w3.org/2000/svg" xmlns:xlink="http://www.w3.org/1999/xlink" x="0px" y="0px"
	 viewBox="0 0 400 400" style="enable-background:new 0 0 400 400;" xml:space="preserve">
<style type="text/css">
	.st0{fill:#75D8CC;}
	.st1{opacity:0.98;}
	.st2{fill:url(#SVGID_1_);}
	.st3{opacity:0.86;fill:#FFFFFF;enable-background:new    ;}
	.st4{opacity:0.93;}
	.st5{fill:url(#SVGID_2_);}
	.st6{opacity:0.89;}
	.st7{fill:url(#SVGID_3_);}
	.st8{fill:url(#SVGID_4_);}
	.st9{fill:url(#SVGID_5_);}
	.st10{opacity:0.5;fill:#3F67F9;enable-background:new    ;}
	.st11{fill:url(#SVGID_6_);}
	.st12{fill:url(#SVGID_7_);}
	.st13{fill:url(#SVGID_8_);}
	.st14{fill:url(#SVGID_9_);}
	.st15{fill:url(#SVGID_10_);}
	.st16{fill:url(#SVGID_11_);}
	.st17{fill:url(#SVGID_12_);}
	.st18{fill:url(#SVGID_13_);}
	.st19{fill:url(#SVGID_14_);}
	.st20{fill:url(#SVGID_15_);}
	.st21{fill:url(#SVGID_16_);}
	.st22{fill:url(#SVGID_17_);}
	.st23{fill:url(#SVGID_18_);}
	.st24{fill:url(#SVGID_19_);}
	.st25{fill:url(#SVGID_20_);}
	.st26{fill:url(#SVGID_21_);}
	.st27{fill:url(#SVGID_22_);}
	.st28{fill:url(#SVGID_23_);}
	.st29{fill:url(#SVGID_24_);}
	.st30{fill:url(#SVGID_25_);}
	.st31{fill:url(#SVGID_26_);}
	.st32{fill:url(#SVGID_27_);}
	.st33{fill:url(#SVGID_28_);}
	.st34{fill:url(#SVGID_29_);}
	.st35{fill:url(#SVGID_30_);}
	.st36{fill:url(#SVGID_31_);}
	.st37{fill:url(#SVGID_32_);}
	.st38{fill:url(#SVGID_33_);}
	.st39{fill:url(#SVGID_34_);}
	.st40{fill:url(#SVGID_35_);}
	.st41{fill:url(#SVGID_36_);}
	.st42{fill:url(#SVGID_37_);}
	.st43{opacity:0.74;fill:#FFFFFF;enable-background:new    ;}
	.st44{fill:url(#SVGID_38_);}
	.st45{fill:#FFFFFF;}
	.st46{fill:url(#SVGID_39_);}
	.st47{fill:url(#SVGID_40_);}
	.st48{fill:url(#SVGID_41_);}
	.st49{fill:url(#SVGID_42_);}
	.st50{fill:url(#SVGID_43_);}
	.st51{fill:url(#SVGID_44_);}
	.st52{fill:url(#SVGID_45_);}
	.st53{fill:url(#SVGID_46_);}
	.st54{fill:url(#SVGID_47_);}
	.st55{fill:url(#SVGID_48_);}
	.st56{fill:url(#SVGID_49_);}
	.st57{fill:url(#SVGID_50_);}
	.st58{fill:url(#SVGID_51_);}
	.st59{fill:url(#SVGID_52_);}
	.st60{fill:url(#SVGID_53_);}
	.st61{fill:url(#SVGID_54_);}
	.st62{fill:url(#SVGID_55_);}
	.st63{fill:url(#SVGID_56_);}
	.st64{opacity:0.5;fill:#FFFFFF;enable-background:new    ;}
	.st65{fill:url(#SVGID_57_);}
	.st66{fill:url(#SVGID_58_);}
	.st67{fill:url(#SVGID_59_);}
	.st68{fill:url(#SVGID_60_);}
	.st69{fill:url(#SVGID_61_);}
	.st70{fill:url(#SVGID_62_);}
	.st71{fill:url(#SVGID_63_);}
	.st72{fill:url(#SVGID_64_);}
	.st73{fill:url(#SVGID_65_);}
	.st74{fill:url(#SVGID_66_);}
	.st75{fill:url(#SVGID_67_);}
	.st76{fill:url(#SVGID_68_);}
	.st77{fill:url(#SVGID_69_);}
	.st78{fill:url(#SVGID_70_);}
	.st79{fill:url(#SVGID_71_);}
	.st80{fill:url(#SVGID_72_);}
	.st81{fill:url(#SVGID_73_);}
	.st82{fill:#E78456;}
</style>
<g>
	<path class="st0" d="M207.7,71.1C139.8,69.1,81,118.4,72.1,183c-9.7,70.7,43.8,134.3,109.6,144.5c81.8,12.7,161.2-60.6,154.1-140.1
		C330.4,127.5,276.7,73.2,207.7,71.1z"/>
	<g id="Layer_1_1_">
		<g class="st1">
			
				<linearGradient id="SVGID_1_" gradientUnits="userSpaceOnUse" x1="232.6664" y1="-647.7061" x2="238.8694" y2="-732.2507" gradientTransform="matrix(0.9792 -0.2028 -0.2028 -0.9792 -221.5138 -491.2981)">
				<stop  offset="0" style="stop-color:#CB236D"/>
				<stop  offset="1" style="stop-color:#4C246D"/>
			</linearGradient>
			<path class="st2" d="M141.8,99.7c-5.1,13.6-31.6,93.8,39.2,132.1c0,0,31-48.4-37.2-132.5c-0.4-0.5-1.3-0.6-1.7-0.2
				C142.1,99.3,141.9,99.5,141.8,99.7z"/>
			<path class="st3" d="M146.4,113.6c0.4,9.2,1.3,18.5,2.1,27.7c0.9,9.2,2.1,18.4,3.5,27.5c1.4,9.1,3.1,18.2,5.3,27.3
				c1.1,4.5,2.3,8.9,3.8,13.3c1.3,4.4,3,8.7,4.9,12.9l0,0c0.2,0.4,0,0.8-0.4,1l0,0c-0.4,0.2-0.8,0-1-0.4l0,0l0,0
				c-1.9-4.3-3.5-8.7-4.9-13c-1.3-4.5-2.6-8.9-3.7-13.4c-2.1-9-3.8-18.1-5.1-27.4c-1.3-9.3-2.4-18.4-3.3-27.6
				c-0.9-9.2-1.5-18.5-1.9-27.7c0-0.2,0.1-0.3,0.3-0.3l0,0C146.2,113.3,146.4,113.5,146.4,113.6S146.4,113.7,146.4,113.6
				L146.4,113.6z"/>
		</g>
		<g class="st4">
			
				<linearGradient id="SVGID_2_" gradientUnits="userSpaceOnUse" x1="853.7813" y1="2562.4089" x2="976.2681" y2="2562.4089" gradientTransform="matrix(0.24 -0.97 -0.97 -0.24 2402.5078 1715.3975)">
				<stop  offset="0" style="stop-color:#A737D5"/>
				<stop  offset="1" style="stop-color:#EF497A"/>
			</linearGradient>
			<path class="st5" d="M73.4,143.9C74,164.5,82.6,284,196.3,296.2c0,0,14.7-80.2-120.3-153.8c-0.9-0.4-2-0.1-2.4,0.8
				C73.5,143.4,73.4,143.6,73.4,143.9z"/>
			<path class="st3" d="M86.8,159.9c2.6,6.4,5.5,12.7,8.5,18.9c2.9,6.3,6.2,12.4,9.5,18.5c6.5,12.2,13.9,24,21.7,35.3
				c7.9,11.4,16.6,22.1,26.4,31.9c2.4,2.4,4.9,4.8,7.5,7.1c2.6,2.2,5.3,4.5,8,6.6c5.5,4.2,11.3,7.9,17.4,11l0,0
				c0.4,0.2,0.5,0.6,0.3,1s-0.6,0.5-1,0.4l0,0l0,0c-6.2-3.2-12.1-7-17.6-11.3c-2.8-2.1-5.5-4.4-8-6.7c-2.6-2.3-5.1-4.7-7.5-7.2
				c-9.7-9.9-18.5-20.7-26.4-32.2c-7.9-11.4-15-23.3-21.5-35.6c-3.3-6.1-6.3-12.3-9.4-18.6c-2.9-6.3-5.8-12.6-8.4-19
				c-0.1-0.2,0-0.4,0.2-0.4C86.5,159.6,86.7,159.7,86.8,159.9L86.8,159.9z"/>
		</g>
		<g class="st6">
			
				<linearGradient id="SVGID_3_" gradientUnits="userSpaceOnUse" x1="643.0673" y1="4104.3774" x2="753.9166" y2="4104.3774" gradientTransform="matrix(-0.16 -0.99 -0.99 0.16 4307.4126 306.6616)">
				<stop  offset="0" style="stop-color:#53D8FF"/>
				<stop  offset="1" style="stop-color:#3840F7"/>
			</linearGradient>
			<path class="st7" d="M53.1,220.3c7.7,17,56.5,113.9,155.6,84.5c0,0-15.6-72-154.1-86.7c-0.9-0.1-1.6,0.5-1.7,1.4
				C52.9,219.9,52.9,220.1,53.1,220.3z"/>
			<path class="st3" d="M69.8,229.1c4.4,4.3,8.8,8.4,13.5,12.5s9.3,8,14,11.9c4.7,3.9,9.6,7.5,14.6,11.2c5,3.7,9.9,7.2,15.1,10.5
				c10.2,6.8,20.8,12.8,31.9,18.1l1.1,0.4l1.1,0.4l2.1,0.9l2.1,0.9c0.7,0.4,1.4,0.5,2.1,0.9c1.4,0.5,2.9,1.2,4.3,1.7l4.3,1.5
				c5.8,2,11.6,3.6,17.6,4.8l0,0c0.4,0.1,0.6,0.4,0.5,0.8s-0.4,0.6-0.8,0.5l0,0l0,0c-6.1-1.3-12-2.9-17.8-4.9l-4.4-1.6
				c-1.4-0.5-2.9-1.2-4.3-1.8c-0.7-0.3-1.4-0.5-2.1-0.9l-2.1-1l-2.1-0.9l-1.1-0.4l-1.1-0.5c-11.1-5.4-21.7-11.4-32-18.3
				c-5.1-3.4-10.1-7-15-10.6c-4.9-3.7-9.7-7.4-14.6-11.3c-4.7-3.8-9.5-7.9-14-12s-9.1-8.3-13.4-12.6c-0.1-0.1-0.1-0.4,0-0.4
				C69.5,228.9,69.7,228.9,69.8,229.1L69.8,229.1z"/>
		</g>
		
			<linearGradient id="SVGID_4_" gradientUnits="userSpaceOnUse" x1="179.5091" y1="-484.0709" x2="331.6599" y2="-484.0709" gradientTransform="matrix(1 0 0 -1 -31.55 -284.26)">
			<stop  offset="0" style="stop-color:#2B3582"/>
			<stop  offset="1" style="stop-color:#150E42"/>
		</linearGradient>
		<path class="st8" d="M150.8,97.9c-0.9,36.2-3.9,161-2.4,205.3c0.2,4.6,3.9,8.5,8.6,8.6c23.1,0.8,89.9,2.7,127.8,1.1
			c7.9-0.4,14.1-6.8,14.3-14.7c0.8-38,2.5-144.9-1.6-193.9c-0.5-5.8-5.1-10.5-10.9-11.1c-25.3-2.5-92.3-8.7-125-6.6
			C155.6,87.1,151,92,150.8,97.9z"/>
		
			<linearGradient id="SVGID_5_" gradientUnits="userSpaceOnUse" x1="201.5557" y1="-385.2283" x2="413.4048" y2="-753.618" gradientTransform="matrix(1 0 0 -1 -31.55 -284.26)">
			<stop  offset="1.000000e-02" style="stop-color:#6AFFFF"/>
			<stop  offset="7.000000e-02" style="stop-color:#7CFAFF"/>
			<stop  offset="0.17" style="stop-color:#96F2FF"/>
			<stop  offset="0.23" style="stop-color:#9FEFFF"/>
			<stop  offset="0.28" style="stop-color:#98EDFF"/>
			<stop  offset="0.35" style="stop-color:#85E7FF"/>
			<stop  offset="0.43" style="stop-color:#65DDFF"/>
			<stop  offset="0.47" style="stop-color:#53D8FF"/>
			<stop  offset="0.96" style="stop-color:#3840F7"/>
		</linearGradient>
		<path class="st9" d="M160.2,109.2c-1.3,29.7-5.3,128.3-4,164.7c0.2,5.4,4.4,9.7,9.7,9.9c21.9,1.3,78.2,4.1,110.3,1.5
			c5.8-0.4,10.4-5.2,10.6-11c1.6-30.2,6.3-122,5.1-158.1c-0.2-5.7-4.6-10.5-10.4-11c-23.7-2.1-84.6-7.2-112-5.7
			C164.4,99.9,160.4,104,160.2,109.2z"/>
		<path class="st10" d="M208.1,93.1L208.1,93.1c0,1.1,0.9,2.1,2,2.1c5.5,0.3,20.9,1.1,27.8,1.5c1.2,0.1,2.1-0.8,2.2-2
			c0-0.2,0-0.4,0-0.5v-0.3c-0.2-0.9-0.9-1.6-1.9-1.7c-4.6-0.4-18.7-1.6-28.1-1.3C209,91.1,208.1,92,208.1,93.1z"/>
		
			<linearGradient id="SVGID_6_" gradientUnits="userSpaceOnUse" x1="137.1566" y1="-596.5359" x2="150.3566" y2="-596.5359" gradientTransform="matrix(1 0 0 -1 -31.55 -284.26)">
			<stop  offset="0" style="stop-color:#53D8FF"/>
			<stop  offset="1" style="stop-color:#3840F7"/>
		</linearGradient>
		<path class="st11" d="M118.5,311.7c-2.2,0.2-6.2,0.5-9.3,0.6c-1.2,0.1-2.4,0-3.6-0.4c0,0.1,0,0.1,0,0.2c0,0.4,0.3,0.6,0.6,0.6
			c4,0.3,8.1,0.3,12.2,0c0.3,0,0.4-0.3,0.4-0.4s0-0.2-0.1-0.2C118.7,311.9,118.6,311.8,118.5,311.7z"/>
		
			<linearGradient id="SVGID_7_" gradientUnits="userSpaceOnUse" x1="137.1476" y1="-593.9421" x2="149.9826" y2="-593.9421" gradientTransform="matrix(1 0 0 -1 -31.55 -284.26)">
			<stop  offset="0" style="stop-color:#2B3582"/>
			<stop  offset="1" style="stop-color:#150E42"/>
		</linearGradient>
		<path class="st12" d="M109.2,312.3c3.1-0.1,7.1-0.4,9.3-0.6c-2.2-2.8-9.3-4.6-9.3-4.6h-2c-1,1.4-1.5,3.1-1.5,4.9
			C106.8,312.3,108,312.4,109.2,312.3z"/>
		
			<linearGradient id="SVGID_8_" gradientUnits="userSpaceOnUse" x1="138.3721" y1="-590.2941" x2="142.0904" y2="-590.2941" gradientTransform="matrix(1 0 0 -1 -31.55 -284.26)">
			<stop  offset="0" style="stop-color:#F9B776"/>
			<stop  offset="1" style="stop-color:#F47960"/>
		</linearGradient>
		<path class="st13" d="M106.9,303.8l0.2,3.7c0,0.4,0.4,0.7,0.7,0.8c0.5,0.1,1,0,1.5-0.1c0.4-0.1,0.6-0.4,0.7-0.8l0.6-3.6H106.9z"/>
		
			<linearGradient id="SVGID_9_" gradientUnits="userSpaceOnUse" x1="110.8162" y1="-596.1234" x2="115.8751" y2="-596.1234" gradientTransform="matrix(1 0 0 -1 -31.55 -284.26)">
			<stop  offset="0" style="stop-color:#53D8FF"/>
			<stop  offset="1" style="stop-color:#3840F7"/>
		</linearGradient>
		<path class="st14" d="M81,312.2c-0.7,0-1.3-0.5-1.6-1.2l0,0c-0.1,0.6,0.3,1.3,0.9,1.4c0.7,0.3,1.6,0.4,2.4,0.4
			c0.7,0,1.3-0.3,1.8-0.8l0,0C83.3,312.5,82.1,312.6,81,312.2z"/>
		
			<linearGradient id="SVGID_10_" gradientUnits="userSpaceOnUse" x1="110.852" y1="-592.3107" x2="118.2794" y2="-592.3107" gradientTransform="matrix(1 0 0 -1 -31.55 -284.26)">
			<stop  offset="0" style="stop-color:#2B3582"/>
			<stop  offset="1" style="stop-color:#150E42"/>
		</linearGradient>
		<path class="st15" d="M85.6,303.8H84c-2.5,0-4.1,5.3-4.6,7.2c0.3,0.7,0.9,1.2,1.6,1.2c1.2,0.3,2.3,0.2,3.4-0.2
			c1.2-1.8,2-3.8,2.3-5.9C87,305.2,86.5,304.2,85.6,303.8z"/>
		
			<linearGradient id="SVGID_11_" gradientUnits="userSpaceOnUse" x1="114.7132" y1="-587.1915" x2="119.1574" y2="-587.1915" gradientTransform="matrix(1 0 0 -1 -31.55 -284.26)">
			<stop  offset="0" style="stop-color:#F9B776"/>
			<stop  offset="1" style="stop-color:#F47960"/>
		</linearGradient>
		<path class="st16" d="M84.1,300.3l-0.9,3.7c-0.1,0.4,0.1,0.9,0.5,1.2c0.5,0.4,1.3,0.5,1.9,0.4c0.3,0,0.5-0.3,0.7-0.5l1.3-3.8
			L84.1,300.3z"/>
		
			<linearGradient id="SVGID_12_" gradientUnits="userSpaceOnUse" x1="104.3995" y1="-600.1808" x2="162.8184" y2="-534.084" gradientTransform="matrix(1 0 0 -1 -31.55 -284.26)">
			<stop  offset="0" style="stop-color:#2B3582"/>
			<stop  offset="1" style="stop-color:#150E42"/>
		</linearGradient>
		<path class="st17" d="M83,301.4c1.2,1,4.8,1.2,4.8,1.2c13.3-32,18.8-36.5,18.8-36.5c-1.9,12.1-0.3,38.8-0.3,38.8c2.2,1,5,0,5,0
			c0.2-17.1,2.4-34.1,6.8-50.5c-9-0.2-13.8-3.3-15.4-4.6C95.3,261.9,83,301.4,83,301.4z"/>
		
			<linearGradient id="SVGID_13_" gradientUnits="userSpaceOnUse" x1="170.6597" y1="-494.3774" x2="68.7126" y2="-583.0427" gradientTransform="matrix(1 0 0 -1 -31.55 -284.26)">
			<stop  offset="0" style="stop-color:#FDF53F"/>
			<stop  offset="1" style="stop-color:#D93C65"/>
		</linearGradient>
		<path class="st18" d="M105.1,213c-1.7,8.5-1.1,23.7-0.7,30.7c0.1,2-1.3,4.6-2.3,6.5c-0.2,0.3-0.1,0.6,0.2,0.8l0,0
			c4.7,2.4,9.9,3.8,15.3,4.3c0.4,0,0.9-0.3,1.1-0.8c5.4-20,11.6-32.8,11.6-32.8C123.3,210.6,105.1,213,105.1,213z"/>
		
			<linearGradient id="SVGID_14_" gradientUnits="userSpaceOnUse" x1="129.522" y1="-570.6246" x2="131.6582" y2="-566.3701" gradientTransform="matrix(1 0 0 -1 -31.55 -284.26)">
			<stop  offset="0" style="stop-color:#53D8FF"/>
			<stop  offset="1" style="stop-color:#3840F7"/>
		</linearGradient>
		<path class="st19" d="M107.5,265.3c-0.1,0-0.2,0-0.3-0.1c-0.2-0.1-0.3-0.4-0.2-0.5l0,0c1.3-2,3.1-3.6,5.3-4.6
			c0.3-0.1,0.4,0.1,0.5,0.3c0.1,0.2,0,0.4-0.2,0.5c-2,1-3.7,2.4-4.9,4.2C107.9,265.2,107.7,265.3,107.5,265.3z"/>
		
			<linearGradient id="SVGID_15_" gradientUnits="userSpaceOnUse" x1="135.0651" y1="-522.3445" x2="119.2358" y2="-536.3593" gradientTransform="matrix(1 0 0 -1 -31.55 -284.26)">
			<stop  offset="0" style="stop-color:#F9B776"/>
			<stop  offset="1" style="stop-color:#F47960"/>
		</linearGradient>
		<path class="st20" d="M94.4,237.3c0.7,4.6,2.6,9,5.4,12.9l1.3-1c-0.9-4-1.1-8.2-0.6-12.3C98.4,236.7,96.3,236.8,94.4,237.3z"/>
		
			<linearGradient id="SVGID_16_" gradientUnits="userSpaceOnUse" x1="162.0713" y1="-484.8819" x2="60.58" y2="-573.145" gradientTransform="matrix(1 0 0 -1 -31.55 -284.26)">
			<stop  offset="0" style="stop-color:#FDF53F"/>
			<stop  offset="1" style="stop-color:#D93C65"/>
		</linearGradient>
		<path class="st21" d="M107,223.4l-1.9-10.5c0,0-12.8,9.7-10.7,24.3c2-0.5,4-0.7,6-0.4C101,232.2,102.8,227.1,107,223.4z"/>
		
			<linearGradient id="SVGID_17_" gradientUnits="userSpaceOnUse" x1="-1212.6346" y1="-835.581" x2="-1318.6664" y2="-927.7947" gradientTransform="matrix(0.8771 -0.4804 -0.4804 -0.8771 804.063 -1106.6754)">
			<stop  offset="0" style="stop-color:#FDF53F"/>
			<stop  offset="1" style="stop-color:#D93C65"/>
		</linearGradient>
		<path class="st22" d="M128.8,219.5l-4.5,10.8c3.8,5.2,13.3,6.8,17.1,6c-1-2.1-1.6-4.5-1.9-6.8
			C133.1,227.5,128.8,219.5,128.8,219.5z"/>
		
			<linearGradient id="SVGID_18_" gradientUnits="userSpaceOnUse" x1="190.6252" y1="-498.9261" x2="170.613" y2="-521.611" gradientTransform="matrix(1 0 0 -1 -31.55 -284.26)">
			<stop  offset="0" style="stop-color:#F9B776"/>
			<stop  offset="1" style="stop-color:#F47960"/>
		</linearGradient>
		<path class="st23" d="M139.6,229.5c0.3,2.3,0.9,4.6,1.9,6.8c10.5-1.3,10.3-8.6,10.3-8.6l-1.3-0.6
			C147.1,229.4,142.4,230.3,139.6,229.5z"/>
		
			<linearGradient id="SVGID_19_" gradientUnits="userSpaceOnUse" x1="152.6663" y1="-490.3805" x2="152.5233" y2="-513.6552" gradientTransform="matrix(1 0 0 -1 -31.55 -284.26)">
			<stop  offset="0" style="stop-color:#F9B776"/>
			<stop  offset="1" style="stop-color:#F47960"/>
		</linearGradient>
		<path class="st24" d="M125.7,208.5l-2.3,8.7c-0.3,0.9-1.2,1.4-2.1,1.2c-0.1,0-0.1,0-0.2-0.1c-1.2-0.4-2.3-1-3.4-1.6
			s-1.5-2-0.9-3.1c0-0.1,0.1-0.1,0.1-0.2l4.9-7.3L125.7,208.5z"/>
		
			<linearGradient id="SVGID_20_" gradientUnits="userSpaceOnUse" x1="-1396.5854" y1="-2567.6384" x2="-1408.0439" y2="-2582.7974" gradientTransform="matrix(0.7818 -0.6235 -0.6235 -0.7818 -385.1743 -2677.9775)">
			<stop  offset="0" style="stop-color:#F9B776"/>
			<stop  offset="1" style="stop-color:#F47960"/>
		</linearGradient>
		<path class="st25" d="M125.7,198.8c0.1,0.1,3.3,9.6,3.3,9.6l-5.5,1.7l-4.4-8.5C119.3,201.5,124.2,196.7,125.7,198.8z"/>
		
			<linearGradient id="SVGID_21_" gradientUnits="userSpaceOnUse" x1="-1405.2283" y1="-2571.4841" x2="-1391.5426" y2="-2571.4841" gradientTransform="matrix(0.7818 -0.6235 -0.6235 -0.7818 -385.1743 -2677.9775)">
			<stop  offset="0" style="stop-color:#2B3582"/>
			<stop  offset="1" style="stop-color:#150E42"/>
		</linearGradient>
		<path class="st26" d="M121.5,202.7l2,4.6c0,0.1,0.1,0.1,0.1,0.2c0.3,0.4,1.2,1.3,2.1,0.4c0.6-0.8,1.5-1.5,2.5-2
			c0.4-0.1,0.7,0.1,0.8,0.4c0.5,1.5,0.9,3,1.3,4.6c0.1,0.4-0.2,0.7-0.5,0.8c-1.7,0.4-3.5,0.7-5.3,0.7c-0.3,0-0.4-0.2-0.6-0.4
			c-0.6-1.2-2.4-4.5-3-5.4s-2-0.7-2.6-0.6c-0.2,0-0.4,0-0.5-0.1c-0.9-0.5-1.2-1.6-0.6-2.5c0.1-0.2,0.2-0.3,0.4-0.4
			c0.3-0.3,0.3-0.7-0.1-1l0,0c-0.8-0.5-1.1-1.6-0.5-2.5c0.1-0.1,0.1-0.2,0.2-0.2c0.7-1,2-1.3,3-0.9c0.4,0.1,0.7-0.1,0.8-0.4
			c0.1-0.2,0.4-0.4,0.5-0.3c0.4,0,0.7-0.3,0.7-0.7v0.1c-0.1-1.1,0.5-2,1.5-2.3c2.4-0.9,4,1.3,4.3,3.1c0.3,1.8-2.4,2.6-3.9,2.5
			c-1.2,0-2.1,1.3-2.3,1.8C121.4,202.4,121.4,202.5,121.5,202.7z"/>
		
			<linearGradient id="SVGID_22_" gradientUnits="userSpaceOnUse" x1="-1413.1967" y1="-2579.7798" x2="-1404.0083" y2="-2570.3503" gradientTransform="matrix(0.7818 -0.6235 -0.6235 -0.7818 -385.1743 -2677.9775)">
			<stop  offset="0" style="stop-color:#F9B776"/>
			<stop  offset="1" style="stop-color:#F47960"/>
		</linearGradient>
		<path class="st27" d="M121.5,208.4c0,0-0.5-3-1.8-3c-1.3-0.1-2.4,1-1.1,2.7C120.2,210,121.5,208.4,121.5,208.4z"/>
		
			<linearGradient id="SVGID_23_" gradientUnits="userSpaceOnUse" x1="141.3468" y1="-529.434" x2="125.5176" y2="-543.4488" gradientTransform="matrix(1 0 0 -1 -31.55 -284.26)">
			<stop  offset="0" style="stop-color:#F9B776"/>
			<stop  offset="1" style="stop-color:#F47960"/>
		</linearGradient>
		<path class="st28" d="M100.5,249.1l5.7-0.4l2.4,2.3c0,0-0.6,0.8-2.4,0.4c-1.4-0.4-2.9-0.5-4.4-0.5c0,0-2.5,1.2-2.6-1L100.5,249.1z
			"/>
		
			<linearGradient id="SVGID_24_" gradientUnits="userSpaceOnUse" x1="192.5861" y1="-501.5549" x2="173.0565" y2="-523.6854" gradientTransform="matrix(1 0 0 -1 -31.55 -284.26)">
			<stop  offset="0" style="stop-color:#F9B776"/>
			<stop  offset="1" style="stop-color:#F47960"/>
		</linearGradient>
		<path class="st29" d="M151.6,228.7c-0.1,0.4-1.5,0.4-1.6-1.3c0.3-0.7,1.2-3.8,1.8-4.1c2.9-1.5,5.9-2.8,9-3.8
			c0.3,0.5,0,1.2-0.4,1.4l-2.9,1.3c0.2,0.9,0.3,1.9,0.2,2.8c-0.1,0.8-0.5,1.4-1.2,2c-0.7,0.5-1.4,1.1-2.2,1.5
			C153.5,228.9,152.5,229.1,151.6,228.7z"/>
		
			<linearGradient id="SVGID_25_" gradientUnits="userSpaceOnUse" x1="183.9391" y1="-508.5416" x2="187.0495" y2="-509.9091" gradientTransform="matrix(1 0 0 -1 -31.55 -284.26)">
			<stop  offset="0" style="stop-color:#F9B776"/>
			<stop  offset="1" style="stop-color:#F47960"/>
		</linearGradient>
		<path class="st30" d="M153.3,227.7l-0.3-0.2c0.8-1.2,1.6-2.3,2.6-3.3c0.3-0.2,0.4-0.4,0.4-0.5s0-0.3-0.1-0.4l-2.3,0.7l-1.3,1.3
			L152,225l1.3-1.3l2.7-0.8l0.1,0.1c0.2,0.2,0.3,0.4,0.3,0.7c-0.1,0.4-0.3,0.6-0.6,0.8C154.8,225.5,154,226.6,153.3,227.7z"/>
		
			<linearGradient id="SVGID_26_" gradientUnits="userSpaceOnUse" x1="-171.7894" y1="-621.3326" x2="-162.2435" y2="-509.6967" gradientTransform="matrix(-1 0 0 -1 -21.93 -284.26)">
			<stop  offset="0" style="stop-color:#F9B776"/>
			<stop  offset="1" style="stop-color:#F47960"/>
		</linearGradient>
		<path class="st31" d="M148.9,273l0.5,3.4c0,0-2,19.8-2.3,27.6c-0.1,1.3,0.3,2.4,0.9,3.5l3.4,5.5l-8.6-5l-0.2-1.1l1.4-2l-1.9-22.1
			c-0.1-1.3,0.2-2.6,0.8-3.8l1.8-3.3L148.9,273z"/>
		
			<linearGradient id="SVGID_27_" gradientUnits="userSpaceOnUse" x1="-174.6489" y1="-594.0734" x2="-163.9143" y2="-594.0734" gradientTransform="matrix(-1 0 0 -1 -21.93 -284.26)">
			<stop  offset="0" style="stop-color:#A737D5"/>
			<stop  offset="1" style="stop-color:#EF497A"/>
		</linearGradient>
		<path class="st32" d="M152,313.8h-2.8c-0.5,0-1-0.3-1.3-0.6c-0.9-1.1-2.6-3.3-3.5-3.3c-1.2-0.1-1,4-1,4h-0.6l-0.8-5
			c-0.2-1.3,0.4-2.5,1.5-3.1l0,0c0.2,1.1,0.8,2.1,1.7,2.8c1.4,0.9,5.7,3.9,5.7,3.9c0.4-0.1,0.7-0.1,1.2,0c0.4,0,0.7,0.4,0.7,0.8
			C152.7,313.5,152.5,313.8,152,313.8z"/>
		
			<linearGradient id="SVGID_28_" gradientUnits="userSpaceOnUse" x1="-164.3931" y1="-621.3329" x2="-154.8383" y2="-509.6971" gradientTransform="matrix(-1 0 0 -1 -21.93 -284.26)">
			<stop  offset="0" style="stop-color:#F9B776"/>
			<stop  offset="1" style="stop-color:#F47960"/>
		</linearGradient>
		<path class="st33" d="M141.5,273l0.5,3.4c0,0-2,19.8-2.3,27.6c-0.1,1.3,0.3,2.4,0.9,3.5l3.4,5.5l-8.6-5l-0.2-1.1l1.4-2l-1.9-22.1
			c-0.1-1.3,0.2-2.6,0.8-3.8l1.8-3.3L141.5,273z"/>
		
			<linearGradient id="SVGID_29_" gradientUnits="userSpaceOnUse" x1="-36.8583" y1="251.2518" x2="-60.7317" y2="213.0506" gradientTransform="matrix(-0.98 0.2 -0.2 -0.98 129.188 487.2852)">
			<stop  offset="0" style="stop-color:#2B3582"/>
			<stop  offset="1" style="stop-color:#150E42"/>
		</linearGradient>
		<path class="st34" d="M131.6,250.4c0.4-3.8,5.2-7.3,5.2-7.3c3.4,1.3,7.2,0.9,10.2-1c1.2,2.4,1.8,5,1.9,7.7
			c0,3.8,0.3,28.9,0.3,28.9c-4.5,1.7-9.3,2.2-14,1.4C135.7,271,131.2,254.1,131.6,250.4z"/>
		
			<linearGradient id="SVGID_30_" gradientUnits="userSpaceOnUse" x1="-168.2153" y1="-475.6715" x2="-159.9387" y2="-496.4436" gradientTransform="matrix(-1 0 0 -1 -21.93 -284.26)">
			<stop  offset="0" style="stop-color:#2B3582"/>
			<stop  offset="1" style="stop-color:#150E42"/>
		</linearGradient>
		<path class="st35" d="M145.3,204.3c0,0-5-3.5-7.7,2.8c-0.5,1.2-3.3,1.3-3.6,3.7c-0.1,1.2-1.1,2.1-2.2,2.3c-2.9,0.4-7.6,2-8.3,7.2
			c-0.5,3.9,1.4,5.5,3.6,6c1.5,0.4,2.6,1.9,2.2,3.5c-0.3,1.5,0.2,3.2,2.8,4.6c5.8,3,11.6-7.3,11.6-7.3l1.2-18.1L145.3,204.3z"/>
		
			<linearGradient id="SVGID_31_" gradientUnits="userSpaceOnUse" x1="-167.2572" y1="-594.0734" x2="-156.5226" y2="-594.0734" gradientTransform="matrix(-1 0 0 -1 -21.93 -284.26)">
			<stop  offset="0" style="stop-color:#A737D5"/>
			<stop  offset="1" style="stop-color:#EF497A"/>
		</linearGradient>
		<path class="st36" d="M144.6,313.8h-2.8c-0.5,0-1-0.3-1.3-0.6c-0.9-1.1-2.6-3.3-3.5-3.3c-1.2-0.1-1,4-1,4h-0.6l-0.8-5
			c-0.2-1.3,0.4-2.5,1.6-3.1l0,0c0.2,1.1,0.8,2.1,1.7,2.8c1.4,0.9,5.7,3.9,5.7,3.9c0.4-0.1,0.7-0.1,1.2,0c0.4,0,0.7,0.4,0.6,0.8
			C145.4,313.5,145.1,313.8,144.6,313.8z"/>
		
			<linearGradient id="SVGID_32_" gradientUnits="userSpaceOnUse" x1="1535.5229" y1="-514.2269" x2="1539.8756" y2="-554.6447" gradientTransform="matrix(-1 0 0 -1 1678.0701 -284.26)">
			<stop  offset="0" style="stop-color:#CB236D"/>
			<stop  offset="1" style="stop-color:#4C246D"/>
		</linearGradient>
		<path class="st37" d="M136.9,243.2c1.8-7.8-0.4-13.4-2.3-16.6c-1.1-1.8-0.4-4,1.3-5.1c0.2-0.1,0.4-0.2,0.6-0.3
			c3-1.1,6.2-1.6,9.4-1.6c0.9,0,1.7,0.4,2.2,1.1c1.4,2,4.2,6.3,3.5,9.7c-0.5,2.8-4.4,13.7-4.4,13.7
			C143.8,245.5,140,245.2,136.9,243.2z"/>
		
			<linearGradient id="SVGID_33_" gradientUnits="userSpaceOnUse" x1="-167.7776" y1="-516.5471" x2="-166.0347" y2="-503.8283" gradientTransform="matrix(-1 0 0 -1 -21.93 -284.26)">
			<stop  offset="0" style="stop-color:#F9B776"/>
			<stop  offset="1" style="stop-color:#F47960"/>
		</linearGradient>
		<path class="st38" d="M142.4,210.8l-1.9,9.5c-0.3,1,1.2,1.2,2.1,1.3c1.7,0.2,2.6-0.3,3.2-1.4c0.1-0.1,0.1-0.3,0.1-0.4l1-7.4
			c0.1-0.6-0.3-1.2-0.8-1.4l-2-0.9c-0.7-0.3-1.4,0-1.8,0.7C142.4,210.8,142.4,210.8,142.4,210.8z"/>
		
			<linearGradient id="SVGID_34_" gradientUnits="userSpaceOnUse" x1="-1747.2898" y1="-3631.1702" x2="-1733.0516" y2="-3605.8308" gradientTransform="matrix(-0.98 -0.18 0.18 -0.98 -913.7432 -3664.115)">
			<stop  offset="0" style="stop-color:#F9B776"/>
			<stop  offset="1" style="stop-color:#F47960"/>
		</linearGradient>
		<path class="st39" d="M146.4,204c0,0,2.3,1.5,3.4,5.5c1.1,4-0.5,5.5-2.2,5.4c-2.5-0.1-4.8-1.3-6.2-3.4
			C139.2,208.6,143.3,202,146.4,204z"/>
		
			<linearGradient id="SVGID_35_" gradientUnits="userSpaceOnUse" x1="-1753.8999" y1="-3606.1992" x2="-1746.7761" y2="-3624.0574" gradientTransform="matrix(-0.98 -0.18 0.18 -0.98 -913.7432 -3664.115)">
			<stop  offset="0" style="stop-color:#2B3582"/>
			<stop  offset="1" style="stop-color:#150E42"/>
		</linearGradient>
		<path class="st40" d="M143.4,209.8c0,0-0.9-5.7,3.8-4.9l1,1c0,0,2.3-2.7-0.3-4.6c-2.6-1.9-6.2-1.4-8,2.2s-2.6,6.2-1,8.4
			c1.6,2.2,2.9,0.3,2.9,0.3s-0.8-2-0.2-2.8s1.4,0.4,1.4,0.4L143.4,209.8z"/>
		
			<linearGradient id="SVGID_36_" gradientUnits="userSpaceOnUse" x1="-1744.1315" y1="-3632.948" x2="-1729.8933" y2="-3607.6001" gradientTransform="matrix(-0.98 -0.18 0.18 -0.98 -913.7432 -3664.115)">
			<stop  offset="0" style="stop-color:#F9B776"/>
			<stop  offset="1" style="stop-color:#F47960"/>
		</linearGradient>
		<path class="st41" d="M142.7,210.3c0,0-0.4-2.9-2-2.1c-1.5,0.9,0.5,2.8,1.4,3.4L142.7,210.3z"/>
		
			<linearGradient id="SVGID_37_" gradientUnits="userSpaceOnUse" x1="-437.7579" y1="146.6616" x2="-428.1405" y2="113.3048" gradientTransform="matrix(-0.88 -0.47 0.47 -0.88 -291.3378 135.5312)">
			<stop  offset="0" style="stop-color:#F9B776"/>
			<stop  offset="1" style="stop-color:#F47960"/>
		</linearGradient>
		<path class="st42" d="M168.5,223c0-0.3-0.2-0.4-0.4-0.4c-0.1,0-0.2,0-0.3,0.1c-1.1,0.9-3.2,2.3-5.3,1.9l-0.3-0.1
			c0.1-0.3,0.3-0.5,0.6-0.6c1-0.4,0.8-2.1,0.8-2.1c-0.4,0.5-1.1,0.8-1.8,0.9c-1.1,0.2-2,1.1-2.1,2.1c-1.4,3.9-3.2,9.2-10.5,8.9
			c-5.4-0.2-8-6.4-9.1-9.7c-0.4-1.3-1.6-2.1-2.9-2c-1.5,0-2.9,1.1-3.3,2.5c-0.2,0.8-0.1,1.6,0.3,2.3c1.6,3.2,7.3,13.3,15.9,12.2
			c10.1-1.2,11.6-12.2,11.6-12.2S167.8,228.5,168.5,223z"/>
		<path class="st43" d="M174.3,207.6v13.2c0,1.1,0.9,2,2,2h81.2c0.9,0,1.7,0.6,1.9,1.4l1.2,4.6c0.1,0.4,0.4,0.5,0.8,0.4
			c0.2-0.1,0.4-0.2,0.4-0.4l1.4-3.8c0.3-0.7,1-1.3,1.8-1.3h2.8c1.1,0,2-0.9,2-2v-13.6c0-1.1-0.9-2-2-2l-91.4-0.6
			C175.2,205.7,174.3,206.6,174.3,207.6z"/>
		<path class="st43" d="M269.6,232.7v13.2c0,1.1-0.9,2-2,2h-81.2c-0.9,0-1.7,0.6-1.9,1.4l-1.2,4.6c-0.1,0.4-0.4,0.5-0.8,0.4
			c-0.2-0.1-0.4-0.2-0.4-0.4l-1.4-3.8c-0.3-0.7-1-1.3-1.8-1.3h-2.8c-1.1,0-2-0.9-2-2l0,0v-13.6c0-1.1,0.9-2,1.9-2l91.4-0.6
			C268.8,230.9,269.6,231.7,269.6,232.7z"/>
		
			<linearGradient id="SVGID_38_" gradientUnits="userSpaceOnUse" x1="189.7643" y1="-370.4142" x2="175.5707" y2="-391.4185" gradientTransform="matrix(1 0 0 -1 0 -166.41)">
			<stop  offset="0" style="stop-color:#53D8FF"/>
			<stop  offset="1" style="stop-color:#3840F7"/>
		</linearGradient>
		<ellipse class="st44" cx="183.4" cy="213.5" rx="6.3" ry="6.5"/>
		<path class="st45" d="M181.4,216.3c1.4,0.4,3,0.4,4.5,0c0.1,0,0.1,0,0.1,0.1l0,0v0.2c0,0,0,0.1-0.1,0.1c-1.4,0.6-3.1,0.6-4.6-0.2
			C181.4,216.4,181.4,216.4,181.4,216.3L181.4,216.3L181.4,216.3z"/>
		<circle class="st45" cx="179.3" cy="210" r="0.3"/>
		<path class="st45" d="M179.3,211.9c0.4,0,0.8-0.3,0.9-0.6l-0.2-0.4c-0.1-0.1-0.2-0.2-0.3-0.1l-0.4,0.2c-0.1,0-0.1,0.1-0.1,0.2v0.7
			H179.3z"/>
		<path class="st45" d="M179.3,210l0.2,1.2l0.3-0.2L179.3,210C179.4,210,179.3,210,179.3,210z"/>
		<circle class="st45" cx="187.9" cy="210" r="0.3"/>
		<path class="st45" d="M187.9,211.9c0,0-0.5,0.1-0.9-0.6l0.2-0.4c0.1-0.1,0.2-0.2,0.3-0.1l0.4,0.2c0.1,0,0.1,0.1,0.1,0.2v0.7H187.9
			z"/>
		<path class="st45" d="M187.9,210l-0.2,1.2l-0.3-0.2L187.9,210C187.8,210,187.9,210,187.9,210z"/>
		<path class="st45" d="M183.7,210.3c-2.6,0-5.1,1.4-5.1,3.1c0,1.7,2.5,3,5.1,3s4.6-1.3,4.6-3C188.3,211.7,186.3,210.3,183.7,210.3z
			 M182.1,215.2c-0.1,0-0.2-0.1-0.2-0.2c0-0.1,0.1-0.2,0.2-0.2c0.1,0,0.2,0.1,0.2,0.2S182.2,215.2,182.1,215.2L182.1,215.2z
			 M182.6,215.3c-0.1,0-0.2-0.1-0.2-0.2c0-0.1,0.1-0.2,0.2-0.2s0.2,0.1,0.2,0.2S182.7,215.3,182.6,215.3L182.6,215.3z M183.1,215.4
			c-0.1,0-0.2-0.1-0.2-0.2c0-0.1,0.1-0.2,0.2-0.2c0.1,0,0.2,0.1,0.2,0.2C183.2,215.3,183.2,215.4,183.1,215.4L183.1,215.4z
			 M183.6,215.4c-0.1,0-0.2-0.1-0.2-0.2c0-0.1,0.1-0.2,0.2-0.2c0.1,0,0.2,0.1,0.2,0.2l0,0C183.8,215.3,183.7,215.4,183.6,215.4
			L183.6,215.4L183.6,215.4z M184,215.4c-0.1,0-0.2-0.1-0.2-0.2c0-0.1,0.1-0.2,0.2-0.2c0.1,0,0.2,0.1,0.2,0.2l0,0
			C184.2,215.3,184.1,215.4,184,215.4L184,215.4L184,215.4z M184.6,215.3c-0.1,0-0.2-0.1-0.2-0.2c0-0.1,0.1-0.2,0.2-0.2
			c0.1,0,0.2,0.1,0.2,0.2C184.6,215.2,184.6,215.3,184.6,215.3L184.6,215.3L184.6,215.3z M185,215.2c-0.1,0-0.2-0.1-0.2-0.2
			c0-0.1,0.1-0.2,0.2-0.2c0.1,0,0.2,0.1,0.2,0.2S185.1,215.2,185,215.2L185,215.2z"/>
		<path class="st43" d="M174.3,257.9v13.2c0,1.1,0.9,2,2,2l0,0h81.2c0.9,0,1.7,0.6,1.9,1.4l1.2,4.6c0.1,0.4,0.4,0.5,0.8,0.4
			c0.2-0.1,0.4-0.2,0.4-0.4l1.4-3.8c0.3-0.7,1-1.3,1.8-1.3h2.8c1.1,0,2-0.9,2-2v-13.6c0-1.1-0.9-2-2-2l-91.4-0.5
			C175.2,256,174.3,256.9,174.3,257.9z"/>
		
			<linearGradient id="SVGID_39_" gradientUnits="userSpaceOnUse" x1="189.7734" y1="-420.6967" x2="175.5797" y2="-441.71" gradientTransform="matrix(1 0 0 -1 0 -166.41)">
			<stop  offset="0" style="stop-color:#53D8FF"/>
			<stop  offset="1" style="stop-color:#3840F7"/>
		</linearGradient>
		<ellipse class="st46" cx="183.4" cy="263.8" rx="6.3" ry="6.5"/>
		<path class="st45" d="M181.4,266.6c1.4,0.4,3,0.4,4.5,0c0.1,0,0.1,0,0.1,0.1l0,0v0.2c0,0,0,0.1-0.1,0.1c-1.4,0.6-3.1,0.6-4.6-0.2
			L181.4,266.6L181.4,266.6L181.4,266.6L181.4,266.6z"/>
		<path class="st45" d="M179.6,260.2c0,0.1-0.1,0.3-0.2,0.3c-0.1,0-0.3-0.1-0.3-0.2v-0.1c0-0.1,0.2-0.2,0.3-0.2
			S179.6,260.1,179.6,260.2z"/>
		<path class="st45" d="M179.3,262.1c0,0,0.5,0.1,0.9-0.7L180,261c-0.1-0.1-0.2-0.2-0.3-0.1l-0.4,0.2c-0.1,0-0.1,0.1-0.1,0.2v0.8
			H179.3z"/>
		<path class="st45" d="M179.3,260.4l0.2,1.2l0.3-0.2L179.3,260.4L179.3,260.4z"/>
		<path class="st45" d="M187.6,260.2c0,0.1,0.1,0.3,0.3,0.3s0.3-0.1,0.3-0.3c0-0.2-0.1-0.3-0.3-0.3l0,0
			C187.7,260,187.6,260.1,187.6,260.2z"/>
		<path class="st45" d="M187.9,262.1c0,0-0.5,0.1-0.9-0.7l0.2-0.4c0.1-0.1,0.2-0.2,0.3-0.1l0.4,0.2c0.1,0,0.1,0.1,0.1,0.2v0.8H187.9
			z"/>
		<path class="st45" d="M187.9,260.4l-0.2,1.2l-0.3-0.2L187.9,260.4L187.9,260.4z"/>
		<path class="st45" d="M183.7,260.5c-2.6,0-5.1,1.4-5.1,3.1c0,1.7,2.5,3,5.1,3s4.6-1.3,4.6-3C188.3,262,186.3,260.5,183.7,260.5z
			 M182.1,265.5c-0.1,0-0.2-0.1-0.2-0.2s0.1-0.2,0.2-0.2c0.1,0,0.2,0.1,0.2,0.2C182.3,265.5,182.2,265.5,182.1,265.5z M182.6,265.5
			c-0.1,0-0.2-0.1-0.2-0.2s0.1-0.2,0.2-0.2s0.2,0.1,0.2,0.2C182.8,265.5,182.7,265.5,182.6,265.5z M183.1,265.6
			c-0.1,0-0.2-0.1-0.2-0.2s0.1-0.2,0.2-0.2c0.1,0,0.2,0.1,0.2,0.2C183.2,265.5,183.2,265.6,183.1,265.6z M183.6,265.6
			c-0.1,0-0.2-0.1-0.2-0.2c0-0.1,0.1-0.2,0.2-0.2c0.1,0,0.2,0.1,0.2,0.2l0,0C183.8,265.5,183.7,265.6,183.6,265.6
			C183.6,265.6,183.6,265.7,183.6,265.6L183.6,265.6z M184,265.6c-0.1,0-0.2-0.1-0.2-0.2c0-0.1,0.1-0.2,0.2-0.2
			c0.1,0,0.2,0.1,0.2,0.2l0,0C184.2,265.5,184.1,265.6,184,265.6C184,265.6,184,265.7,184,265.6L184,265.6z M184.6,265.5
			c-0.1,0-0.2-0.1-0.2-0.2c0-0.1,0.1-0.2,0.2-0.2c0.1,0,0.2,0.1,0.2,0.2l0,0C184.7,265.5,184.6,265.5,184.6,265.5
			C184.6,265.6,184.6,265.6,184.6,265.5L184.6,265.5z M185,265.5c-0.1,0-0.2-0.1-0.2-0.2s0.1-0.2,0.2-0.2c0.1,0,0.2,0.1,0.2,0.2
			C185.2,265.5,185.1,265.5,185,265.5z"/>
		
			<linearGradient id="SVGID_40_" gradientUnits="userSpaceOnUse" x1="-2474.7407" y1="-513.3797" x2="-2488.9346" y2="-534.3841" gradientTransform="matrix(-1 0 0 -1 -2220.55 -284.26)">
			<stop  offset="0" style="stop-color:#53D8FF"/>
			<stop  offset="1" style="stop-color:#3840F7"/>
		</linearGradient>
		<ellipse class="st47" cx="260.6" cy="238.6" rx="6.3" ry="6.5"/>
		<path class="st45" d="M262.9,236c0.2,1.2-0.6,2.2-1.8,2.4c-1.2,0.2-2.2-0.6-2.4-1.8c0-0.2,0-0.4,0-0.6c0.1-1.2,1.1-2.1,2.2-2
			C262,234.1,262.9,235,262.9,236z"/>
		<path class="st45" d="M258.1,243h5.2c0.5,0,1.1-0.4,1.2-0.9l0.3-0.9c0.2-0.6-0.1-1.3-0.8-1.5c-2.1-0.7-4.5-0.7-6.5,0.1
			c-0.6,0.2-1,0.9-0.8,1.5l0.2,0.8C257,242.6,257.6,243,258.1,243z"/>
		<path class="st45" d="M151,202.3l0.9-0.6c0.1-0.1,0.3-0.1,0.4,0.1c0.1,0.1,0.1,0.3-0.1,0.4l0,0l-0.9,0.6l0,0
			c-0.1,0.1-0.3,0.1-0.4-0.1C150.9,202.5,150.9,202.4,151,202.3z"/>
		<path class="st45" d="M154,200.3l0.9-0.5c0.1-0.1,0.3,0,0.4,0.1c0.1,0.1,0,0.3-0.1,0.4l0,0l0,0l-0.9,0.5l0,0
			c-0.1,0.1-0.3,0-0.4-0.1C153.8,200.5,153.9,200.4,154,200.3z"/>
		<path class="st45" d="M157.1,198.5l1-0.4c0.2-0.1,0.3,0,0.4,0.1l0,0c0.1,0.2,0,0.3-0.1,0.4l0,0l0,0l-1,0.4l0,0
			c-0.1,0.1-0.3,0.1-0.4,0l0,0C156.9,198.8,156.9,198.6,157.1,198.5L157.1,198.5z"/>
		<path class="st45" d="M160.3,196.9l1-0.4c0.2-0.1,0.4,0,0.4,0.2l0,0c0.1,0.2,0,0.4-0.2,0.4l0,0l0,0l-1,0.4l0,0
			c-0.2,0.1-0.4,0-0.4-0.2C160.2,197.2,160.2,197,160.3,196.9L160.3,196.9z"/>
		<path class="st45" d="M163.7,195.6l1-0.4c0.2-0.1,0.4,0,0.4,0.2c0.1,0.2,0,0.4-0.2,0.4l0,0l0,0l-1,0.4l0,0c-0.2,0.1-0.4,0-0.4-0.2
			S163.6,195.6,163.7,195.6L163.7,195.6z"/>
		<path class="st45" d="M167.1,194.4l1.1-0.3c0.2-0.1,0.4,0,0.4,0.2c0.1,0.2,0,0.4-0.2,0.4c0,0,0,0-0.1,0l0,0l-1,0.3l0,0
			c-0.2,0.1-0.4-0.1-0.4-0.2S166.9,194.5,167.1,194.4z"/>
		<path class="st45" d="M170.6,193.5l1.1-0.3c0.2,0,0.4,0.1,0.4,0.3s-0.1,0.4-0.3,0.4l0,0l-1.1,0.3l0,0c-0.2,0-0.4-0.1-0.4-0.3
			C170.3,193.8,170.4,193.6,170.6,193.5z"/>
		<path class="st45" d="M174.1,192.8l1.1-0.2c0.2,0,0.4,0.1,0.4,0.3s-0.1,0.4-0.3,0.4l0,0l0,0l-1.1,0.2l0,0c-0.2,0-0.4-0.1-0.4-0.3
			l0,0C173.8,193,174,192.8,174.1,192.8L174.1,192.8z"/>
		<path class="st45" d="M177.7,192.3l1.1-0.1c0.2,0,0.4,0.1,0.4,0.3s-0.1,0.4-0.3,0.4l0,0l-1.1,0.1l0,0c-0.2,0-0.4-0.1-0.4-0.3
			S177.5,192.3,177.7,192.3z"/>
		<path class="st45" d="M181.3,191.9l1.1-0.1c0.2,0,0.4,0.1,0.4,0.3s-0.1,0.4-0.3,0.4l0,0l-1.1,0.1l0,0c-0.2,0-0.4-0.1-0.4-0.3l0,0
			C181,192.1,181.1,191.9,181.3,191.9z"/>
		<path class="st45" d="M184.9,191.7h1.1c0.2,0,0.4,0.2,0.4,0.4s-0.2,0.4-0.4,0.4h-1.1c-0.2,0-0.4-0.2-0.4-0.4
			S184.6,191.7,184.9,191.7C184.8,191.7,184.8,191.7,184.9,191.7z"/>
		<path class="st45" d="M188.5,191.7h1.1c0.2,0,0.4,0.1,0.4,0.3s-0.1,0.4-0.3,0.4h-0.1l0,0h-1.1l0,0c-0.2,0-0.4-0.2-0.4-0.4
			C188.2,191.9,188.3,191.8,188.5,191.7z"/>
		<path class="st45" d="M192.1,191.9l1.1,0.1c0.2,0,0.4,0.2,0.4,0.4s-0.2,0.4-0.4,0.3l0,0l0,0l-1.1-0.1l0,0c-0.2,0-0.4-0.2-0.4-0.4
			C191.7,192.1,191.9,191.9,192.1,191.9z"/>
		<path class="st45" d="M195.6,192.3l1.1,0.2c0.2,0,0.4,0.2,0.3,0.4c0,0.2-0.2,0.4-0.4,0.3l0,0l0,0l-1.1-0.2l0,0
			c-0.2,0-0.4-0.2-0.3-0.4S195.5,192.3,195.6,192.3z"/>
		<path class="st45" d="M199.2,192.9l1.1,0.2c0.2,0,0.4,0.2,0.4,0.4s-0.2,0.4-0.4,0.4h-0.1l0,0l-1.1-0.2l0,0
			c-0.2-0.1-0.3-0.3-0.3-0.4C198.9,193,199,192.8,199.2,192.9L199.2,192.9z"/>
		<path class="st45" d="M202.8,193.5l1.1,0.3c0.2,0,0.4,0.2,0.3,0.4c0,0.2-0.2,0.4-0.4,0.3c0,0,0,0-0.1,0l0,0l-1.1-0.3l0,0
			c-0.2,0-0.4-0.3-0.3-0.4C202.3,193.6,202.6,193.5,202.8,193.5z"/>
		<path class="st45" d="M206.3,194.3l1.1,0.3c0.2,0.1,0.3,0.3,0.3,0.4c0,0.2-0.3,0.4-0.4,0.3l0,0l0,0l-1.1-0.3l0,0
			c-0.2,0-0.4-0.3-0.3-0.4l0,0C205.8,194.4,206.1,194.2,206.3,194.3L206.3,194.3z"/>
		<path class="st45" d="M209.7,195.2l1.1,0.3c0.2,0.1,0.4,0.3,0.3,0.4c-0.1,0.2-0.3,0.4-0.4,0.3l0,0l-1.1-0.3l0,0
			c-0.2-0.1-0.3-0.3-0.3-0.4S209.5,195.1,209.7,195.2z"/>
		<path class="st45" d="M213.2,196.2l1,0.4c0.2,0.1,0.4,0.3,0.3,0.4c-0.1,0.2-0.3,0.4-0.4,0.3c0,0,0,0-0.1,0l0,0l-1-0.4l0,0
			c-0.2-0.1-0.3-0.3-0.3-0.4S213,196.1,213.2,196.2L213.2,196.2z"/>
		<path class="st45" d="M216.6,197.3l1,0.4c0.2,0.1,0.3,0.3,0.3,0.4l0,0c-0.1,0.2-0.3,0.3-0.4,0.3l0,0l0,0l-1-0.4l0,0
			c-0.2-0.1-0.3-0.4-0.2-0.5C216.3,197.3,216.5,197.3,216.6,197.3L216.6,197.3z"/>
		<path class="st45" d="M220,198.4l1,0.4c0.2,0.1,0.3,0.3,0.3,0.4l0,0c-0.1,0.2-0.3,0.3-0.4,0.3l0,0l0,0l-1-0.4l0,0
			c-0.2-0.1-0.3-0.3-0.3-0.5C219.6,198.5,219.9,198.3,220,198.4z"/>
		<path class="st45" d="M223.4,199.7l1,0.4c0.2,0.1,0.4,0.3,0.3,0.4c-0.1,0.2-0.3,0.4-0.4,0.3c0,0,0,0-0.1,0l0,0l-1-0.4l0,0
			c-0.2-0.1-0.3-0.4-0.2-0.5C223.1,199.7,223.3,199.6,223.4,199.7L223.4,199.7z"/>
		<path class="st45" d="M226.7,200.9l1,0.4c0.2,0.1,0.3,0.3,0.3,0.5l0,0c-0.1,0.2-0.4,0.3-0.5,0.3l0,0l-1-0.4
			c-0.2-0.1-0.3-0.3-0.3-0.5C226.3,201,226.6,200.8,226.7,200.9z"/>
		<path class="st45" d="M230.1,202.3l1,0.4c0.2,0.1,0.3,0.4,0.2,0.5l0,0c-0.1,0.2-0.3,0.3-0.5,0.3l0,0l0,0l-1-0.4
			c-0.2-0.1-0.3-0.4-0.3-0.5C229.7,202.3,229.9,202.2,230.1,202.3L230.1,202.3z"/>
		<path class="st45" d="M233.4,203.7l1,0.4c0.2,0.1,0.3,0.4,0.2,0.5c-0.1,0.2-0.4,0.3-0.5,0.2l0,0l0,0l-1-0.4
			c-0.2-0.1-0.3-0.4-0.3-0.5C233,203.7,233.2,203.6,233.4,203.7L233.4,203.7z"/>
		<path class="st45" d="M236.8,205l1,0.4c0.2,0.1,0.3,0.4,0.3,0.5c-0.1,0.2-0.4,0.4-0.5,0.3l0,0l0,0l-1-0.4
			c-0.2-0.1-0.3-0.4-0.2-0.5C236.3,205,236.5,204.9,236.8,205L236.8,205z"/>
		<path class="st45" d="M240,206.5l1,0.4c0.2,0.1,0.3,0.4,0.2,0.5l0,0c-0.1,0.2-0.4,0.4-0.5,0.3l0,0l0,0l-1-0.4
			c-0.2-0.1-0.4-0.4-0.3-0.5S239.8,206.4,240,206.5L240,206.5L240,206.5z"/>
		<path class="st45" d="M243.3,207.9l1,0.4c0.2,0.1,0.3,0.4,0.2,0.5c-0.1,0.2-0.4,0.3-0.5,0.2l0,0l-1-0.4c-0.2-0.1-0.3-0.4-0.2-0.5
			C242.8,207.9,243.1,207.8,243.3,207.9L243.3,207.9z"/>
		<path class="st45" d="M246.6,209.3l1,0.4c0.2,0.1,0.3,0.4,0.2,0.6c-0.1,0.2-0.4,0.3-0.5,0.2l0,0l-1-0.4c-0.2-0.1-0.4-0.4-0.3-0.5
			l0,0C246.1,209.3,246.4,209.2,246.6,209.3z"/>
		<path class="st45" d="M249.9,210.8l1,0.4c0.2,0.1,0.3,0.4,0.2,0.6c-0.1,0.2-0.3,0.3-0.5,0.2l0,0l-1-0.4c-0.2-0.1-0.4-0.4-0.3-0.5
			C249.4,210.8,249.7,210.7,249.9,210.8L249.9,210.8z"/>
		<path class="st45" d="M253.2,212.1l1,0.4c0.3,0.1,0.4,0.4,0.3,0.5l0,0c-0.1,0.3-0.4,0.4-0.6,0.3l0,0l-1-0.4
			c-0.3-0.1-0.4-0.4-0.3-0.5C252.7,212.2,252.9,212.1,253.2,212.1z"/>
		<path class="st45" d="M256.5,213.5l1,0.4c0.3,0.1,0.4,0.3,0.4,0.5s-0.3,0.4-0.5,0.4c0,0-0.1,0-0.1-0.1l0,0l-1-0.4
			c-0.3-0.1-0.4-0.4-0.3-0.6S256.2,213.4,256.5,213.5L256.5,213.5L256.5,213.5z"/>
		<path class="st45" d="M259.8,214.9l1,0.4l0,0c0.3,0.1,0.4,0.4,0.3,0.6l0,0c-0.1,0.3-0.4,0.4-0.6,0.3l0,0l-1-0.4
			c-0.3-0.1-0.4-0.4-0.3-0.6C259.4,214.9,259.5,214.8,259.8,214.9L259.8,214.9L259.8,214.9z"/>
		<path class="st45" d="M263.2,216.1l1,0.4l0,0c0.3,0.1,0.4,0.4,0.3,0.6l0,0c-0.1,0.3-0.4,0.4-0.6,0.3l0,0l-1-0.4
			c-0.3-0.1-0.4-0.4-0.3-0.6C262.7,216.2,262.9,216,263.2,216.1L263.2,216.1z"/>
		<path class="st45" d="M266.5,217.3l1,0.4l0,0c0.3,0.1,0.4,0.4,0.3,0.6c-0.1,0.2-0.4,0.4-0.6,0.3l0,0l0,0l-1-0.4
			c-0.3-0.1-0.4-0.4-0.3-0.6C266,217.4,266.3,217.2,266.5,217.3L266.5,217.3z"/>
		<path class="st45" d="M269.9,218.4l1,0.4l0,0c0.3,0.1,0.4,0.4,0.3,0.6c-0.1,0.2-0.4,0.4-0.6,0.3l0,0l0,0l-1-0.4
			c-0.3-0.1-0.4-0.4-0.3-0.6C269.4,218.5,269.6,218.4,269.9,218.4L269.9,218.4L269.9,218.4z"/>
		<path class="st45" d="M273.3,219.5l1,0.3l0,0c0.3,0,0.4,0.3,0.4,0.5s-0.3,0.4-0.5,0.4c-0.1,0-0.2,0-0.3-0.1l0,0l-1-0.4
			c-0.3-0.1-0.4-0.4-0.4-0.6l0,0C272.9,219.5,273.1,219.4,273.3,219.5L273.3,219.5L273.3,219.5z"/>
		<path class="st45" d="M276.8,220.5l1.1,0.3l0,0c0.3,0,0.4,0.2,0.4,0.4s-0.2,0.4-0.4,0.4c-0.1,0-0.2,0-0.3-0.1l0,0l-1.1-0.3
			c-0.3,0-0.4-0.2-0.4-0.4s0.2-0.4,0.4-0.4C276.6,220.4,276.7,220.5,276.8,220.5z"/>
		<path class="st45" d="M280.3,221.4l1.1,0.3l0,0c0.3,0,0.4,0.3,0.4,0.5s-0.3,0.4-0.5,0.4h-0.1l0,0l-1.1-0.3
			c-0.3-0.1-0.4-0.3-0.4-0.5C279.7,221.5,279.9,221.3,280.3,221.4C280.2,221.4,280.2,221.4,280.3,221.4L280.3,221.4z"/>
		<path class="st45" d="M283.8,222.1l1.1,0.2l0,0c0.3,0.1,0.4,0.4,0.4,0.6s-0.4,0.4-0.6,0.4l0,0l-1.1-0.2c-0.3-0.1-0.4-0.4-0.4-0.6
			l0,0C283.2,222.3,283.4,222.1,283.8,222.1L283.8,222.1z"/>
		<path class="st45" d="M294.3,223.7l1.1,0.1l0,0c0.3,0,0.5,0.2,0.5,0.5s-0.2,0.5-0.5,0.5h-0.1l0,0l-1.1-0.1c-0.3,0-0.5-0.3-0.4-0.5
			l0,0C293.8,223.9,294,223.7,294.3,223.7L294.3,223.7z"/>
		<path class="st45" d="M297.9,223.9h1.1l0,0c0.3,0,0.5,0.3,0.4,0.6c0,0.3-0.2,0.4-0.4,0.4l0,0h-1.1c-0.3,0-0.5-0.3-0.5-0.5l0,0
			C297.4,224.1,297.6,223.9,297.9,223.9L297.9,223.9z"/>
		<path class="st45" d="M153.9,215.2l1.1-0.1c0.2,0,0.4,0.1,0.4,0.3s-0.1,0.4-0.3,0.4l0,0l0,0l-1.1,0.1l0,0c-0.2,0-0.4-0.1-0.4-0.3
			S153.8,215.2,153.9,215.2L153.9,215.2L153.9,215.2z"/>
		<path class="st45" d="M157.6,214.9h1.1c0.2,0,0.4,0.1,0.4,0.4c0,0.2-0.2,0.4-0.4,0.4l0,0h-1.1l0,0c-0.2,0-0.3-0.2-0.3-0.4
			C157.3,215,157.4,215,157.6,214.9L157.6,214.9z"/>
		<path class="st45" d="M161.1,214.9h1.1c0.2,0,0.4,0.2,0.4,0.4s-0.2,0.4-0.4,0.4l0,0l0,0h-1.1l0,0c-0.2,0-0.4-0.2-0.4-0.4l0,0
			C160.8,215,161,214.9,161.1,214.9z"/>
		<path class="st45" d="M164.7,215l1.1,0.1c0.2,0,0.4,0.2,0.4,0.4l0,0c0,0.2-0.2,0.4-0.4,0.4l0,0l-1.1-0.1l0,0
			c-0.2,0-0.4-0.2-0.4-0.4l0,0C164.4,215.2,164.5,215,164.7,215z"/>
		<path class="st45" d="M168.3,215.5l1.1,0.2c0.2,0,0.4,0.2,0.3,0.4c0,0.2-0.2,0.4-0.4,0.3l0,0l-1.1-0.2l0,0
			c-0.2-0.1-0.3-0.3-0.3-0.4C168,215.6,168.2,215.5,168.3,215.5L168.3,215.5z"/>
		<path class="st45" d="M171.9,216.1l1.1,0.3c0.2,0.1,0.4,0.3,0.3,0.4c0,0.2-0.3,0.4-0.4,0.3l0,0l0,0l-1.1-0.3l0,0
			c-0.2,0-0.4-0.3-0.3-0.4l0,0C171.5,216.2,171.7,216,171.9,216.1z"/>
		<path class="st45" d="M175.4,216.9l1.1,0.3c0.2,0.1,0.3,0.3,0.3,0.4c-0.1,0.2-0.3,0.4-0.4,0.3l0,0l-1-0.3l0,0
			c-0.2-0.1-0.4-0.3-0.3-0.4l0,0C175,217,175.2,216.8,175.4,216.9z"/>
		<path class="st45" d="M178.8,217.9l1.1,0.4c0.2,0.1,0.3,0.3,0.3,0.4c-0.1,0.2-0.3,0.4-0.4,0.3l0,0l0,0l-1-0.4l0,0
			c-0.2-0.1-0.3-0.3-0.3-0.4C178.4,218,178.7,217.8,178.8,217.9z"/>
		<path class="st45" d="M182.2,219.1l1,0.4c0.2,0.1,0.3,0.3,0.3,0.5c-0.1,0.2-0.3,0.3-0.5,0.3l0,0l0,0l-1-0.4l0,0
			c-0.2-0.1-0.3-0.3-0.3-0.5C181.8,219.1,182.1,219,182.2,219.1L182.2,219.1z"/>
		<path class="st45" d="M185.5,220.3l1,0.4c0.2,0.1,0.3,0.4,0.2,0.5l0,0c-0.1,0.2-0.4,0.3-0.5,0.3l0,0l-1-0.4l0,0
			c-0.2-0.1-0.3-0.4-0.3-0.5C185.2,220.4,185.4,220.3,185.5,220.3z"/>
		<path class="st45" d="M188.9,221.8l1,0.4c0.2,0.1,0.3,0.4,0.2,0.5l0,0c-0.1,0.2-0.4,0.3-0.5,0.2l0,0l0,0l-1-0.4l0,0
			c-0.2-0.1-0.3-0.4-0.2-0.5l0,0C188.5,221.8,188.7,221.7,188.9,221.8z"/>
		<path class="st45" d="M192.2,223.4l1,0.5c0.2,0.1,0.3,0.4,0.2,0.5c-0.1,0.2-0.4,0.3-0.5,0.2l0,0l-1-0.5l0,0
			c-0.2-0.1-0.3-0.4-0.2-0.5l0,0C191.7,223.4,192,223.3,192.2,223.4z"/>
		<path class="st45" d="M195.3,225.1l0.9,0.5c0.2,0.1,0.3,0.4,0.2,0.6l0,0c-0.1,0.2-0.4,0.3-0.6,0.2l0,0l0,0l-0.9-0.5l0,0
			c-0.2-0.1-0.3-0.4-0.2-0.6C194.8,225.1,195.1,225,195.3,225.1L195.3,225.1z"/>
		<path class="st45" d="M198.4,226.8l0.9,0.5c0.2,0.1,0.3,0.4,0.2,0.6l0,0c-0.1,0.2-0.4,0.3-0.6,0.2l0,0l0,0l-0.9-0.5l0,0
			c-0.2-0.1-0.3-0.4-0.2-0.6l0,0C198,226.8,198.2,226.8,198.4,226.8z"/>
		<path class="st45" d="M201.5,228.8l0.9,0.6c0.2,0.1,0.3,0.4,0.2,0.6s-0.4,0.3-0.6,0.2c0,0,0,0-0.1,0l0,0l-0.9-0.6l0,0
			c-0.2-0.2-0.3-0.4-0.1-0.6C201,228.7,201.3,228.6,201.5,228.8z"/>
		<path class="st45" d="M204.5,230.8l0.9,0.6c0.2,0.2,0.3,0.4,0.1,0.6s-0.4,0.3-0.6,0.1l0,0l0,0l-0.9-0.6l0,0
			c-0.2-0.2-0.3-0.4-0.1-0.6C204,230.7,204.2,230.7,204.5,230.8L204.5,230.8z"/>
		<path class="st45" d="M207.4,232.8l0.9,0.6c0.2,0.2,0.3,0.4,0.1,0.7c-0.2,0.2-0.4,0.3-0.6,0.1l0,0l-0.9-0.6l0,0
			c-0.2-0.2-0.3-0.4-0.2-0.6S207.2,232.7,207.4,232.8C207.3,232.8,207.4,232.8,207.4,232.8L207.4,232.8z"/>
		<path class="st45" d="M210.3,235.1l0.9,0.6c0.2,0.2,0.3,0.4,0.1,0.7c-0.2,0.2-0.4,0.3-0.7,0.1l0,0l0,0l-0.8-0.6l0,0
			c-0.2-0.2-0.3-0.4-0.1-0.7C209.9,234.9,210.1,234.9,210.3,235.1L210.3,235.1z"/>
		<path class="st45" d="M213.2,237.2l0.8,0.7c0.2,0.2,0.2,0.5,0,0.7s-0.4,0.2-0.6,0.1l0,0l-0.8-0.7l0,0c-0.2-0.2-0.3-0.4-0.1-0.7
			C212.5,237.1,212.9,237,213.2,237.2C213.1,237.2,213.2,237.2,213.2,237.2z"/>
		<path class="st45" d="M215.9,239.5l0.8,0.7c0.2,0.2,0.3,0.5,0.1,0.7l0,0c-0.2,0.2-0.4,0.3-0.7,0.1l0,0l0,0l-0.8-0.7l0,0
			c-0.2-0.2-0.3-0.4-0.1-0.7C215.4,239.4,215.7,239.4,215.9,239.5L215.9,239.5L215.9,239.5z"/>
		<path class="st45" d="M218.6,241.8l0.8,0.7c0.2,0.2,0.2,0.5,0,0.7s-0.4,0.2-0.7,0.1l0,0l-0.8-0.7c-0.2-0.2-0.3-0.5-0.1-0.7
			C218.1,241.7,218.4,241.6,218.6,241.8z"/>
		<path class="st45" d="M221.5,244.1l0.8,0.7c0.2,0.2,0.3,0.5,0.1,0.7s-0.5,0.3-0.7,0.1l0,0l-0.8-0.7c-0.2-0.2-0.3-0.5-0.1-0.7l0,0
			C220.8,244,221.2,243.9,221.5,244.1z"/>
		<path class="st45" d="M224.2,246.5l0.8,0.7c0.3,0.2,0.3,0.5,0.1,0.7c-0.2,0.3-0.5,0.3-0.7,0.1l0,0l0,0l-0.8-0.7
			c-0.2-0.2-0.2-0.5,0-0.7C223.7,246.3,224,246.3,224.2,246.5L224.2,246.5z"/>
		<path class="st45" d="M226.8,248.8l0.8,0.7c0.3,0.2,0.3,0.5,0.1,0.8s-0.5,0.3-0.8,0.1l0,0l-0.8-0.7c-0.3-0.2-0.3-0.5-0.1-0.7l0,0
			C226.3,248.7,226.7,248.7,226.8,248.8z"/>
		<path class="st45" d="M229.6,251.2l0.8,0.7c0.3,0.2,0.3,0.5,0.1,0.8s-0.5,0.3-0.8,0.1l0,0l-0.8-0.7c-0.3-0.2-0.3-0.5-0.1-0.8l0,0
			C229,251,229.3,251,229.6,251.2z"/>
		<path class="st45" d="M232.3,253.5l0.8,0.7c0.3,0.2,0.3,0.5,0.1,0.8l0,0c-0.2,0.3-0.5,0.3-0.8,0.1l0,0l0,0l-0.8-0.7
			c-0.3-0.2-0.3-0.5-0.1-0.8l0,0C231.7,253.3,232,253.3,232.3,253.5L232.3,253.5z"/>
		<path class="st45" d="M235,255.8l0.8,0.7c0.3,0.2,0.3,0.5,0.1,0.8c-0.2,0.3-0.5,0.3-0.8,0.1l0,0l-0.8-0.7
			c-0.3-0.2-0.3-0.5-0.1-0.8C234.4,255.7,234.8,255.6,235,255.8z"/>
		<path class="st45" d="M237.7,258.1l0.8,0.7l0,0c0.3,0.2,0.4,0.5,0.2,0.8c-0.2,0.3-0.5,0.4-0.8,0.2c-0.1,0-0.1-0.1-0.1-0.1l0,0
			L237,259c-0.3-0.2-0.3-0.5-0.1-0.8C237.1,257.9,237.5,257.9,237.7,258.1L237.7,258.1z"/>
		<path class="st45" d="M240.5,260.5l0.8,0.7l0,0c0.3,0.2,0.4,0.5,0.2,0.8c-0.2,0.3-0.5,0.4-0.8,0.2c-0.1,0-0.1-0.1-0.2-0.1l0,0
			l-0.8-0.7c-0.2-0.3-0.2-0.6,0.1-0.8C240,260.3,240.3,260.3,240.5,260.5L240.5,260.5z"/>
		<path class="st45" d="M243.3,262.7l0.9,0.6l0,0c0.3,0.2,0.4,0.5,0.2,0.8c-0.2,0.3-0.5,0.4-0.8,0.2c0,0-0.1,0-0.1-0.1l0,0l-0.9-0.7
			c-0.3-0.2-0.3-0.6-0.1-0.9C242.7,262.5,243,262.4,243.3,262.7L243.3,262.7z"/>
		<path class="st45" d="M246.1,264.8l0.9,0.6l0,0c0.3,0.2,0.4,0.5,0.2,0.8c0,0,0,0,0,0.1c-0.2,0.3-0.6,0.4-0.9,0.2l0,0l0,0l-0.9-0.6
			c-0.3-0.2-0.4-0.5-0.2-0.8C245.4,264.8,245.8,264.7,246.1,264.8L246.1,264.8L246.1,264.8z"/>
		<path class="st45" d="M249,267l0.9,0.6l0,0c0.3,0.2,0.4,0.5,0.2,0.9l0,0c-0.2,0.3-0.6,0.4-0.9,0.2l0,0l0,0l-0.9-0.6
			c-0.3-0.2-0.4-0.6-0.2-0.9S248.7,266.8,249,267L249,267L249,267z"/>
		<path class="st45" d="M251.9,269l0.9,0.6l0,0c0.3,0.2,0.4,0.6,0.2,0.9s-0.6,0.4-0.9,0.2l0,0l-0.9-0.6c-0.3-0.2-0.4-0.5-0.2-0.9
			l0,0C251.2,268.9,251.6,268.8,251.9,269L251.9,269L251.9,269z"/>
		<path class="st45" d="M258,272.9l0.9,0.5l0,0c0.4,0.2,0.4,0.5,0.3,0.9c-0.2,0.4-0.5,0.4-0.9,0.3l0,0l0,0l-0.9-0.5
			c-0.3-0.2-0.4-0.5-0.3-0.9l0,0C257.2,272.8,257.7,272.6,258,272.9C257.9,272.8,257.9,272.8,258,272.9L258,272.9z"/>
		<path class="st45" d="M261.1,274.6l1,0.4l0,0c0.4,0.2,0.4,0.5,0.3,0.9c-0.1,0.4-0.5,0.4-0.9,0.3l0,0l0,0l-1-0.4
			c-0.4-0.2-0.5-0.5-0.4-0.9C260.3,274.5,260.6,274.3,261.1,274.6C261,274.5,261,274.5,261.1,274.6L261.1,274.6z"/>
		<path class="st45" d="M264.3,276l1,0.4l0,0c0.4,0.2,0.4,0.5,0.3,0.9c-0.2,0.3-0.5,0.4-0.8,0.4l0,0l-1-0.4
			c-0.4-0.2-0.5-0.5-0.4-0.9l0,0C263.5,276,263.8,275.9,264.3,276C264.2,276,264.2,276,264.3,276L264.3,276z"/>
		<path class="st45" d="M267.6,277.3l1,0.4l0,0c0.4,0.2,0.5,0.5,0.4,0.9c-0.1,0.3-0.4,0.4-0.8,0.4l0,0l-1.1-0.4
			c-0.4-0.1-0.5-0.5-0.4-0.9l0,0C266.8,277.3,267.1,277.2,267.6,277.3C267.5,277.3,267.6,277.3,267.6,277.3L267.6,277.3z"/>
		<path class="st45" d="M270.9,278.3l1,0.3l0,0c0.4,0.1,0.6,0.4,0.5,0.8c-0.1,0.4-0.4,0.6-0.8,0.5l0,0l-1.1-0.3
			c-0.4-0.1-0.6-0.4-0.5-0.8C270.2,278.4,270.5,278.2,270.9,278.3L270.9,278.3L270.9,278.3z"/>
		<path class="st45" d="M274.4,279c0.4,0,0.7,0.1,1.1,0.1c0.4,0.1,0.6,0.4,0.6,0.8c-0.1,0.4-0.4,0.6-0.7,0.6l0,0l-1.1-0.1
			c-0.4-0.1-0.6-0.4-0.5-0.8C273.8,279.1,274,279,274.4,279L274.4,279z"/>
		<path class="st45" d="M277.9,279.2h1.1l0,0c0.4,0,0.7,0.3,0.7,0.7l0,0c0,0.4-0.3,0.7-0.7,0.7l0,0h-1.1c-0.4,0-0.7-0.4-0.6-0.8
			C277.2,279.5,277.5,279.2,277.9,279.2L277.9,279.2z"/>
		<path class="st45" d="M281.4,279l1.1-0.2l0,0c0.4-0.1,0.8,0.2,0.8,0.6c0.1,0.4-0.2,0.8-0.6,0.8l0,0l0,0l-1.1,0.2
			c-0.4,0.1-0.8-0.2-0.9-0.5c-0.1-0.3,0.2-0.8,0.5-0.9C281.3,279,281.3,279,281.4,279L281.4,279z"/>
		<path class="st45" d="M284.8,278.3l1-0.3l0,0c0.4-0.1,0.8,0.1,0.9,0.5s-0.1,0.8-0.5,0.9l0,0l-1.1,0.3c-0.4,0.1-0.8-0.1-0.9-0.5
			C284.1,278.9,284.3,278.5,284.8,278.3L284.8,278.3L284.8,278.3z"/>
		<path class="st45" d="M288.1,277.3l1-0.4l0,0c0.4-0.2,0.8,0,1,0.4s0,0.8-0.4,1l0,0l-1,0.4c-0.4,0.2-0.8,0-1-0.4
			S287.7,277.4,288.1,277.3L288.1,277.3z"/>
		<path class="st45" d="M291.2,275.6l0.9-0.5l0,0c0.4-0.2,0.8-0.1,1,0.4c0.2,0.4,0.1,0.7-0.2,1l0,0l-0.9,0.6
			c-0.4,0.3-0.8,0.1-1.1-0.3C290.6,276.4,290.8,276,291.2,275.6L291.2,275.6z"/>
		<path class="st45" d="M294,273.7l0.7-0.7l0,0c0.4-0.3,0.8-0.3,1.1,0.1c0.3,0.3,0.3,0.8,0,1.1l0,0L295,275c-0.3,0.3-0.7,0.3-1.1,0
			l0,0c-0.3-0.3-0.3-0.8,0-1.1L294,273.7z"/>
		<path class="st45" d="M296.3,271.1l0.4-0.5l0,0c0.3-0.4,0.7-0.4,1.1-0.2c0.4,0.3,0.4,0.7,0.2,1.1l0,0l0,0l-0.4,0.6
			c-0.3,0.4-0.7,0.4-1.1,0.2C296.1,272,296,271.5,296.3,271.1L296.3,271.1z"/>
		
			<linearGradient id="SVGID_41_" gradientUnits="userSpaceOnUse" x1="119.7183" y1="-315.795" x2="171.1744" y2="-413.9167" gradientTransform="matrix(0.9989 4.693211e-02 4.693211e-02 -0.9989 72.85 -243.6094)">
			<stop  offset="0" style="stop-color:#2B3582"/>
			<stop  offset="1" style="stop-color:#150E42"/>
		</linearGradient>
		<path class="st48" d="M252.4,179.1l-61.3-2.9c-2.8-0.2-4.8-2.4-4.7-5.2l0,0c0.2-2.8,2.4-4.8,5.2-4.7l61.3,2.9
			c2.8,0.1,4.8,2.4,4.7,5.2l0,0C257.5,177.1,255.2,179.3,252.4,179.1z"/>
		
			<linearGradient id="SVGID_42_" gradientUnits="userSpaceOnUse" x1="142.8899" y1="-353.0037" x2="206.7521" y2="-445.0029" gradientTransform="matrix(0.9989 4.693211e-02 4.693211e-02 -0.9989 72.85 -243.6094)">
			<stop  offset="0" style="stop-color:#53D8FF"/>
			<stop  offset="1" style="stop-color:#3840F7"/>
		</linearGradient>
		<path class="st49" d="M268.1,165.8c-0.4,6.3-5.7,11.4-12.2,11l-67.2-3.1c-6.3-0.4-11.4-5.7-11-12.2l0.7-15.4
			c0.5-11.6,10.5-20.6,22.1-20.1l48.2,2.2c11.6,0.5,20.6,10.5,20.1,22.1L268.1,165.8z"/>
		
			<linearGradient id="SVGID_43_" gradientUnits="userSpaceOnUse" x1="133.8017" y1="-388.7357" x2="201.8136" y2="-388.7357" gradientTransform="matrix(0.9989 4.693211e-02 4.693211e-02 -0.9989 72.85 -243.6094)">
			<stop  offset="0" style="stop-color:#2B3582"/>
			<stop  offset="1" style="stop-color:#150E42"/>
		</linearGradient>
		<path class="st50" d="M256.1,156.2c-0.2,3.4-2.9,6.1-6.2,6.2c-18.8,0.9-37.5-0.1-56.1-2.7c-3.3-0.4-5.8-3.4-5.6-6.8l0.2-3.6
			c0.2-3.3,2.9-6,6.2-6.2c18.8-1.2,37.7-0.3,56.3,2.6c3.3,0.5,5.6,3.4,5.5,6.7L256.1,156.2z"/>
		
			<linearGradient id="SVGID_44_" gradientUnits="userSpaceOnUse" x1="143.795" y1="-357.3464" x2="161.1527" y2="-454.6011" gradientTransform="matrix(0.9989 4.693216e-02 4.693216e-02 -0.9989 72.8505 -243.6089)">
			<stop  offset="0" style="stop-color:#53D8FF"/>
			<stop  offset="1" style="stop-color:#3840F7"/>
		</linearGradient>
		<circle class="st51" cx="203.9" cy="152" r="4.1"/>
		
			<linearGradient id="SVGID_45_" gradientUnits="userSpaceOnUse" x1="179.4857" y1="-350.9367" x2="196.8523" y2="-448.2003" gradientTransform="matrix(0.9989 4.710645e-02 4.710645e-02 -0.9989 72.7365 -243.5535)">
			<stop  offset="0" style="stop-color:#53D8FF"/>
			<stop  offset="1" style="stop-color:#3840F7"/>
		</linearGradient>
		<circle class="st52" cx="240.5" cy="153.7" r="4.1"/>
		
			<linearGradient id="SVGID_46_" gradientUnits="userSpaceOnUse" x1="140.6899" y1="-377.2034" x2="153.7126" y2="-394.7129" gradientTransform="matrix(0.9989 4.693211e-02 4.693211e-02 -0.9989 72.85 -243.6094)">
			<stop  offset="0" style="stop-color:#53D8FF"/>
			<stop  offset="1" style="stop-color:#3840F7"/>
		</linearGradient>
		<path class="st53" d="M203.7,157.8c0-0.2,0.1-0.3,0.3-0.3l0,0c0.2,0,0.3,0.1,0.3,0.3l0,0c0,0.1-0.1,0.3-0.3,0.3l0,0l0,0
			C203.9,158,203.7,157.9,203.7,157.8L203.7,157.8z M202.4,157.8c-0.1,0-0.2-0.2-0.2-0.3l0,0c0-0.1,0.2-0.2,0.3-0.2l0,0
			c0.1,0,0.2,0.2,0.2,0.3l0,0l0,0C202.7,157.8,202.6,157.8,202.4,157.8L202.4,157.8z M205.1,157.7c0-0.1,0-0.3,0.2-0.3l0,0l0,0
			c0.1,0,0.3,0,0.3,0.2l0,0l0,0c0,0.1,0,0.3-0.2,0.3l0,0h-0.1C205.3,157.8,205.1,157.8,205.1,157.7L205.1,157.7z M201.1,157.3
			c-0.1-0.1-0.2-0.2-0.1-0.4l0,0c0.1-0.1,0.2-0.2,0.4-0.1l0,0l0,0c0.1,0.1,0.2,0.2,0.1,0.4l0,0C201.5,157.3,201.3,157.4,201.1,157.3
			L201.1,157.3C201.1,157.4,201.1,157.3,201.1,157.3L201.1,157.3z M206.5,157.1c-0.1-0.1,0-0.3,0.1-0.4l0,0c0.1-0.1,0.3,0,0.4,0.1
			l0,0c0.1,0.1,0,0.3-0.1,0.4l0,0h-0.1l0,0C206.6,157.2,206.5,157.2,206.5,157.1L206.5,157.1z M199.8,156.5c-0.1-0.1-0.1-0.3,0-0.4
			l0,0c0.1-0.1,0.3-0.1,0.4,0l0,0c0.1,0.1,0.1,0.3,0,0.4l0,0c-0.1,0.1-0.1,0.1-0.2,0.1l0,0C199.9,156.6,199.8,156.5,199.8,156.5
			L199.8,156.5z M207.7,156.3c-0.1-0.1-0.1-0.3,0-0.4l0,0c0.1-0.1,0.3-0.1,0.4,0l0,0c0.1,0.1,0.1,0.3,0,0.4l0,0
			c-0.1,0.1-0.1,0.1-0.2,0.1l0,0C207.8,156.4,207.7,156.3,207.7,156.3L207.7,156.3z M198.9,155.3c-0.1-0.1-0.1-0.3,0.1-0.4l0,0l0,0
			c0.1-0.1,0.3-0.1,0.4,0.1l0,0l0,0c0.1,0.1,0.1,0.3-0.1,0.4l0,0l0,0c0,0-0.1,0.1-0.2,0.1l0,0C198.9,155.4,198.9,155.4,198.9,155.3
			L198.9,155.3z M208.6,155.2c-0.1-0.1-0.2-0.2-0.1-0.4l0,0c0.1-0.1,0.2-0.2,0.4-0.1l0,0c0.1,0.1,0.2,0.2,0.1,0.4l0,0
			C208.9,155.2,208.9,155.2,208.6,155.2L208.6,155.2C208.7,155.2,208.7,155.2,208.6,155.2L208.6,155.2z M198.2,154L198.2,154
			c-0.1-0.1,0-0.3,0.1-0.3l0,0l0,0c0.1-0.1,0.3,0,0.3,0.2l0,0l0,0c0.1,0.1,0,0.3-0.2,0.3l0,0l0,0h-0.1l0,0
			C198.3,154.2,198.2,154.1,198.2,154L198.2,154z M209.3,154c-0.1,0-0.2-0.2-0.2-0.3l0,0l0,0c0-0.1,0.2-0.2,0.3-0.2l0,0l0,0
			c0.1,0,0.2,0.2,0.2,0.3l0,0C209.6,153.9,209.4,154,209.3,154L209.3,154L209.3,154z M197.9,152.6c0-0.1,0.1-0.3,0.2-0.3l0,0l0,0
			c0.1,0,0.3,0.1,0.3,0.2l0,0l0,0c0,0.1-0.1,0.3-0.2,0.3l0,0l0,0C198.1,152.8,197.9,152.7,197.9,152.6
			C197.9,152.6,197.9,152.5,197.9,152.6L197.9,152.6z M209.3,152.3L209.3,152.3L209.3,152.3L209.3,152.3c0-0.1,0.1-0.3,0.3-0.3l0,0
			l0,0c0.1,0,0.3,0.1,0.3,0.3l0,0l0,0l0,0l0,0c0,0.1-0.1,0.3-0.3,0.3l0,0l0,0C209.4,152.6,209.3,152.5,209.3,152.3L209.3,152.3
			L209.3,152.3z M198.1,151.4c-0.1,0-0.2-0.2-0.2-0.3l0,0l0,0c0-0.1,0.2-0.2,0.3-0.2l0,0l0,0c0.1,0,0.3,0.2,0.2,0.3l0,0l0,0
			C198.4,151.3,198.3,151.4,198.1,151.4L198.1,151.4L198.1,151.4z M209.2,151c0-0.1,0-0.3,0.2-0.3l0,0l0,0c0.1,0,0.3,0.1,0.3,0.2
			l0,0c0,0.1-0.1,0.3-0.2,0.3l0,0h-0.1C209.3,151.1,209.2,151,209.2,151C209.2,150.9,209.2,150.9,209.2,151L209.2,151z M198.5,150
			c-0.1-0.1-0.2-0.2-0.1-0.4l0,0c0.1-0.1,0.2-0.2,0.4-0.1l0,0l0,0c0.1,0.1,0.2,0.2,0.1,0.4l0,0C198.8,150,198.7,150,198.5,150
			L198.5,150L198.5,150z M208.8,149.5L208.8,149.5c-0.1-0.1,0-0.3,0.1-0.4l0,0c0.1-0.1,0.3,0,0.4,0.1l0,0c0.1,0.1,0,0.3-0.1,0.4l0,0
			h-0.1l0,0C209,149.7,208.9,149.6,208.8,149.5z M199.3,148.6c-0.1-0.1-0.1-0.3-0.1-0.4l0,0l0,0c0.1-0.1,0.3-0.1,0.4,0l0,0l0,0
			c0.1,0.1,0.1,0.3,0,0.4l0,0C199.5,148.7,199.5,148.7,199.3,148.6L199.3,148.6C199.3,148.7,199.2,148.6,199.3,148.6L199.3,148.6z
			 M208.1,148.5L208.1,148.5c-0.1-0.1-0.1-0.3,0-0.4l0,0c0.1-0.1,0.3-0.1,0.4,0l0,0l0,0c0.1,0.1,0.1,0.3,0,0.4l0,0
			c-0.1,0-0.1,0.1-0.2,0.1l0,0C208.2,148.5,208.1,148.5,208.1,148.5L208.1,148.5z M200.3,147.6c-0.1-0.1-0.1-0.3,0-0.4l0,0l0,0
			c0.1-0.1,0.3-0.1,0.4,0l0,0c0.1,0.1,0.1,0.3-0.1,0.4l0,0C200.6,147.6,200.5,147.7,200.3,147.6L200.3,147.6
			C200.4,147.7,200.3,147.7,200.3,147.6L200.3,147.6z M207.1,147.5L207.1,147.5c-0.1-0.1-0.1-0.3-0.1-0.4l0,0l0,0
			c0.1-0.1,0.3-0.2,0.4-0.1l0,0l0,0c0.1,0.1,0.2,0.3,0.1,0.4l0,0c-0.1,0.1-0.1,0.1-0.2,0.1l0,0C207.1,147.6,207.1,147.6,207.1,147.5
			L207.1,147.5z M201.5,146.8c-0.1-0.1,0-0.3,0.1-0.4l0,0c0.1-0.1,0.3,0,0.3,0.1l0,0l0,0c0.1,0.1,0,0.3-0.1,0.4l0,0l0,0h-0.1l0,0
			C201.5,146.9,201.5,146.9,201.5,146.8L201.5,146.8z M205.8,146.8L205.8,146.8c-0.1-0.1-0.2-0.2-0.2-0.3l0,0l0,0
			c0.1-0.1,0.2-0.2,0.3-0.2l0,0l0,0c0.1,0,0.2,0.2,0.2,0.3l0,0l0,0C206.1,146.8,206,146.8,205.8,146.8L205.8,146.8L205.8,146.8z
			 M202.8,146.3c0-0.1,0.1-0.3,0.2-0.3l0,0l0,0c0.1,0,0.3,0.1,0.3,0.2l0,0l0,0c0,0.1-0.1,0.3-0.2,0.3l0,0
			C202.9,146.6,202.8,146.5,202.8,146.3L202.8,146.3z M204.5,146.6L204.5,146.6c-0.1,0-0.3-0.1-0.2-0.3l0,0l0,0
			c0-0.1,0.2-0.3,0.3-0.3l0,0c0.1,0,0.3,0.1,0.2,0.3l0,0l0,0C204.8,146.5,204.7,146.6,204.5,146.6L204.5,146.6L204.5,146.6z"/>
		
			<linearGradient id="SVGID_47_" gradientUnits="userSpaceOnUse" x1="177.3523" y1="-377.2244" x2="190.3661" y2="-394.7341" gradientTransform="matrix(0.9989 4.693211e-02 4.693211e-02 -0.9989 72.85 -243.6094)">
			<stop  offset="0" style="stop-color:#53D8FF"/>
			<stop  offset="1" style="stop-color:#3840F7"/>
		</linearGradient>
		<path class="st54" d="M240.3,159.5c0-0.2,0.1-0.3,0.3-0.3l0,0c0.2,0,0.3,0.1,0.3,0.3l0,0c0,0.1-0.1,0.3-0.3,0.3l0,0
			C240.5,159.7,240.3,159.6,240.3,159.5L240.3,159.5z M239.1,159.5c-0.1,0-0.2-0.2-0.2-0.3l0,0l0,0c0-0.1,0.2-0.2,0.3-0.2l0,0
			c0.1,0,0.2,0.2,0.2,0.3l0,0C239.3,159.5,239.3,159.5,239.1,159.5L239.1,159.5z M241.8,159.4c0-0.1,0-0.3,0.2-0.3l0,0l0,0
			c0.1,0,0.3,0,0.3,0.2l0,0l0,0c0,0.1,0,0.3-0.2,0.3h-0.2C241.9,159.5,241.8,159.5,241.8,159.4L241.8,159.4z M237.7,159
			c-0.1-0.1-0.2-0.2-0.1-0.3l0,0l0,0c0.1-0.1,0.2-0.2,0.3-0.1l0,0l0,0c0.1,0.1,0.2,0.2,0.1,0.3l0,0l0,0
			C238,159,237.9,159.1,237.7,159L237.7,159C237.7,159.1,237.7,159,237.7,159L237.7,159z M243.1,158.8c-0.1-0.1,0-0.3,0.1-0.4l0,0
			c0.1-0.1,0.3,0,0.4,0.1l0,0c0.1,0.1,0,0.3-0.1,0.4l0,0h-0.1l0,0C243.3,158.9,243.2,158.9,243.1,158.8L243.1,158.8z M236.5,158.2
			c-0.1-0.1-0.1-0.3,0-0.4l0,0l0,0c0.1-0.1,0.3-0.1,0.4,0l0,0c0.1,0.1,0.1,0.3,0,0.4l0,0c-0.1,0.1-0.1,0.1-0.2,0.1l0,0
			C236.6,158.2,236.5,158.2,236.5,158.2L236.5,158.2z M244.4,158c-0.1-0.1-0.1-0.3,0-0.4l0,0l0,0c0.1-0.1,0.3-0.1,0.4,0l0,0
			c0.1,0.1,0.1,0.3,0,0.4l0,0l0,0c-0.1,0.1-0.1,0.1-0.2,0.1l0,0C244.4,158.1,244.4,158,244.4,158L244.4,158z M235.5,157
			c-0.1-0.1,0-0.3,0.1-0.4l0,0c0.1-0.1,0.3-0.1,0.4,0.1l0,0l0,0c0.1,0.1,0.1,0.3-0.1,0.4l0,0l0,0c-0.1,0-0.1,0-0.2,0l0,0
			C235.6,157.1,235.6,157,235.5,157L235.5,157z M245.2,156.9c-0.1-0.1-0.2-0.2-0.1-0.4l0,0c0.1-0.1,0.2-0.2,0.4-0.1l0,0
			c0.1,0.1,0.2,0.2,0.1,0.4l0,0c-0.1,0.1-0.1,0.1-0.2,0.1l0,0C245.3,156.9,245.3,156.9,245.2,156.9L245.2,156.9z M234.9,155.7
			L234.9,155.7c0-0.1,0-0.3,0.2-0.3l0,0c0.1-0.1,0.3,0,0.3,0.2l0,0l0,0c0.1,0.1,0,0.3-0.2,0.3l0,0l0,0h-0.1l0,0
			C235,155.8,234.9,155.8,234.9,155.7L234.9,155.7z M245.9,155.7c-0.1,0-0.2-0.2-0.2-0.3l0,0c0-0.1,0.2-0.2,0.3-0.2l0,0
			c0.1,0,0.2,0.2,0.2,0.3l0,0l0,0C246.2,155.6,246.1,155.7,245.9,155.7L245.9,155.7L245.9,155.7z M234.5,154.2
			c0-0.1,0.1-0.3,0.2-0.3l0,0l0,0c0.2,0,0.3,0.1,0.3,0.3l0,0c0,0.2-0.1,0.3-0.3,0.3l0,0C234.7,154.4,234.5,154.4,234.5,154.2z
			 M246,154L246,154L246,154L246,154c0-0.1,0.1-0.3,0.3-0.3l0,0c0.1,0,0.3,0.1,0.3,0.3l0,0l0,0l0,0l0,0c0,0.1-0.1,0.3-0.3,0.3l0,0
			C246.1,154.3,246,154.1,246,154L246,154L246,154z M234.8,153c-0.1,0-0.2-0.2-0.2-0.3l0,0c0-0.1,0.2-0.2,0.3-0.2l0,0l0,0
			c0.1,0,0.2,0.2,0.2,0.3l0,0l0,0C235.1,152.9,235,153,234.8,153L234.8,153L234.8,153z M245.9,152.7c0-0.1,0.1-0.3,0.2-0.3l0,0
			c0.1,0,0.3,0.1,0.3,0.2l0,0c0,0.1-0.1,0.3-0.2,0.3l0,0c0,0,0,0-0.1,0l0,0C246,152.8,245.9,152.7,245.9,152.7L245.9,152.7z
			 M235.1,151.7c-0.1-0.1-0.2-0.2-0.1-0.4l0,0c0.1-0.1,0.2-0.2,0.4-0.1l0,0c0.1,0.1,0.2,0.2,0.1,0.4l0,0
			C235.4,151.6,235.3,151.7,235.1,151.7L235.1,151.7L235.1,151.7z M245.4,151.3L245.4,151.3c-0.1-0.1,0-0.3,0.1-0.4l0,0
			c0.1-0.1,0.3,0,0.4,0.1l0,0l0,0c0.1,0.1,0,0.3-0.1,0.4l0,0l0,0h-0.1l0,0C245.5,151.4,245.5,151.4,245.4,151.3L245.4,151.3z
			 M235.9,150.3c-0.1-0.1-0.1-0.3,0-0.4l0,0c0.1-0.1,0.3-0.1,0.4,0l0,0l0,0c0.1,0.1,0.1,0.3,0.1,0.4l0,0l0,0
			c-0.1,0.1-0.1,0.1-0.2,0.1l0,0C236,150.4,235.9,150.4,235.9,150.3L235.9,150.3z M244.6,150.2L244.6,150.2c-0.1-0.1-0.1-0.3,0-0.4
			l0,0c0.1-0.1,0.3-0.1,0.4,0l0,0l0,0c0.1,0.1,0.1,0.3,0,0.4l0,0l0,0c-0.1,0-0.1,0.1-0.2,0.1l0,0
			C244.8,150.2,244.7,150.2,244.6,150.2L244.6,150.2z M236.8,149.4c-0.1-0.1-0.1-0.3,0-0.4l0,0c0.1-0.1,0.3-0.1,0.4,0l0,0
			c0.1,0.1,0.1,0.3,0,0.4l0,0c-0.1,0-0.1,0.1-0.2,0.1l0,0C236.9,149.4,236.8,149.4,236.8,149.4L236.8,149.4z M243.6,149.3
			L243.6,149.3c-0.1-0.1-0.2-0.3-0.1-0.4l0,0c0.1-0.1,0.3-0.2,0.4-0.1l0,0l0,0c0.1,0.1,0.2,0.3,0.1,0.4l0,0l0,0
			c-0.1,0.1-0.1,0.1-0.2,0.1l0,0C243.7,149.3,243.7,149.3,243.6,149.3L243.6,149.3z M238.1,148.5c-0.1-0.1,0-0.3,0.1-0.4l0,0
			c0.1-0.1,0.3,0,0.4,0.1l0,0c0.1,0.1,0,0.3-0.1,0.4l0,0h-0.1l0,0C238.2,148.7,238.1,148.6,238.1,148.5L238.1,148.5z M242.4,148.6
			L242.4,148.6c-0.1-0.1-0.2-0.2-0.2-0.3l0,0l0,0c0.1-0.1,0.2-0.2,0.3-0.2l0,0l0,0c0.1,0.1,0.2,0.2,0.2,0.3l0,0l0,0
			C242.7,148.5,242.6,148.6,242.4,148.6L242.4,148.6L242.4,148.6z M239.4,148.1c0-0.1,0.1-0.3,0.2-0.3l0,0l0,0
			c0.1,0,0.3,0.1,0.3,0.2l0,0l0,0c0,0.1-0.1,0.3-0.2,0.3l0,0C239.5,148.3,239.4,148.2,239.4,148.1L239.4,148.1z M241,148.3
			L241,148.3c-0.1,0-0.3-0.1-0.2-0.3l0,0l0,0c0-0.2,0.1-0.3,0.3-0.3l0,0c0.2,0,0.3,0.2,0.2,0.3l0,0
			C241.3,148.2,241.2,148.3,241,148.3L241,148.3L241,148.3z"/>
		
			<linearGradient id="SVGID_48_" gradientUnits="userSpaceOnUse" x1="128.8446" y1="-344.1703" x2="125.9308" y2="-370.3319" gradientTransform="matrix(0.9989 4.693211e-02 4.693211e-02 -0.9989 72.85 -243.6094)">
			<stop  offset="0" style="stop-color:#53D8FF"/>
			<stop  offset="1" style="stop-color:#3840F7"/>
		</linearGradient>
		<path class="st55" d="M186.2,115.7c-0.1,1.3-1.2,2.2-2.4,2.1c-1.3-0.1-2.2-1.2-2.1-2.4c0.1-1.3,1.2-2.2,2.4-2.1
			C185.3,113.4,186.3,114.5,186.2,115.7L186.2,115.7z"/>
		
			<linearGradient id="SVGID_49_" gradientUnits="userSpaceOnUse" x1="127.7791" y1="-367.1941" x2="136.2541" y2="-367.1941" gradientTransform="matrix(0.9989 4.693211e-02 4.693211e-02 -0.9989 72.85 -243.6094)">
			<stop  offset="0" style="stop-color:#2B3582"/>
			<stop  offset="1" style="stop-color:#150E42"/>
		</linearGradient>
		<path class="st56" d="M183,134.5c0,0,5.5,1,8.8-6.1l-1.3-3c-0.4-1.1-1.6-1.5-2.7-1.1l0,0l-3.2,1.4c-0.7,0.4-1.2,1-1.3,1.8
			L183,134.5z"/>
		
			<linearGradient id="SVGID_50_" gradientUnits="userSpaceOnUse" x1="131.4986" y1="-344.9508" x2="128.7279" y2="-369.8969" gradientTransform="matrix(0.9989 4.693211e-02 4.693211e-02 -0.9989 72.85 -243.6094)">
			<stop  offset="0" style="stop-color:#53D8FF"/>
			<stop  offset="1" style="stop-color:#3840F7"/>
		</linearGradient>
		<path class="st57" d="M184.3,116.6c0-0.1-0.1-0.1-0.2-0.1c-0.1,0-0.1,0.1-0.1,0.2l1.4,10.2c0,0.3,0.2,0.4,0.4,0.5s0.4,0.1,0.6,0
			l0.6-0.4c0.5-0.3,0.7-0.9,0.5-1.4L184.3,116.6z"/>
		
			<linearGradient id="SVGID_51_" gradientUnits="userSpaceOnUse" x1="210.3385" y1="-353.2222" x2="207.4337" y2="-379.3838" gradientTransform="matrix(0.9989 4.693211e-02 4.693211e-02 -0.9989 72.85 -243.6094)">
			<stop  offset="0" style="stop-color:#53D8FF"/>
			<stop  offset="1" style="stop-color:#3840F7"/>
		</linearGradient>
		<path class="st58" d="M264.1,119.4c-0.1,1.3,0.9,2.3,2.1,2.4c1.3,0.1,2.3-0.9,2.4-2.1c0.1-1.3-0.9-2.3-2.1-2.4
			C265.2,117.2,264.1,118.2,264.1,119.4L264.1,119.4z"/>
		
			<linearGradient id="SVGID_52_" gradientUnits="userSpaceOnUse" x1="201.8415" y1="-367.2703" x2="210.3148" y2="-367.2703" gradientTransform="matrix(0.9989 4.693211e-02 4.693211e-02 -0.9989 72.85 -243.6094)">
			<stop  offset="0" style="stop-color:#2B3582"/>
			<stop  offset="1" style="stop-color:#150E42"/>
		</linearGradient>
		<path class="st59" d="M265.4,138.4c0,0-5.5,0.4-8.1-6.8l1.6-2.9c0.5-1,1.8-1.3,2.8-0.8l0,0l3,1.7c0.7,0.4,1.1,1.1,1.1,1.9
			L265.4,138.4z"/>
		
			<linearGradient id="SVGID_53_" gradientUnits="userSpaceOnUse" x1="208.8065" y1="-353.1057" x2="206.0089" y2="-378.3018" gradientTransform="matrix(0.9989 4.693211e-02 4.693211e-02 -0.9989 72.85 -243.6094)">
			<stop  offset="0" style="stop-color:#53D8FF"/>
			<stop  offset="1" style="stop-color:#3840F7"/>
		</linearGradient>
		<path class="st60" d="M266.1,120.7l-2.3,9.9c-0.1,0.3-0.3,0.4-0.4,0.5c-0.3,0.1-0.4,0.1-0.7-0.1l-0.5-0.4c-0.4-0.4-0.6-1-0.4-1.5
			l4.1-8.5C265.8,120.6,265.9,120.6,266.1,120.7C266.1,120.6,266.1,120.6,266.1,120.7z"/>
		
			<linearGradient id="SVGID_54_" gradientUnits="userSpaceOnUse" x1="152.4259" y1="-358.4459" x2="273.5183" y2="-467.9457" gradientTransform="matrix(0.9989 4.693211e-02 4.693211e-02 -0.9989 72.85 -243.6094)">
			<stop  offset="0" style="stop-color:#53D8FF"/>
			<stop  offset="1" style="stop-color:#3840F7"/>
		</linearGradient>
		<path class="st61" d="M198.5,137.6c-1.3-0.1-2.3-1.3-2.3-2.6c0.1-1.3,1.1-2.2,2.3-2.3c16.4-0.8,33-0.1,49.2,2.1
			c1.3,0.3,2.1,1.5,2,2.9c-0.3,1.3-1.3,2.1-2.6,2c-16-2.1-32.3-2.9-48.4-2.1H198.5z"/>
		
			<linearGradient id="SVGID_55_" gradientUnits="userSpaceOnUse" x1="115.4457" y1="-349.3159" x2="201.4385" y2="-414.4207" gradientTransform="matrix(0.9989 4.693211e-02 4.693211e-02 -0.9989 72.85 -243.6094)">
			<stop  offset="0" style="stop-color:#53D8FF"/>
			<stop  offset="1" style="stop-color:#3840F7"/>
		</linearGradient>
		<path class="st62" d="M222,163.7c-9.8-0.4-19.7-1.4-29.5-2.9c-3.8-0.6-6.3-4-6.1-7.8l0.2-3.9c0.1-3.8,2.9-6.8,6.6-7.2
			c21.3-1.3,40.5-0.4,58.6,2.7c3.7,0.7,6.2,4,5.8,7.7l-0.2,4.1c-0.1,3.8-2.9,6.9-6.7,7.2C241.4,164.2,231.7,164.2,222,163.7z
			 M224.2,142.3c-10.3-0.4-20.6-0.4-30.9,0.3c-3.5,0.3-6.2,3.2-6.3,6.7l-0.1,3.9c-0.3,3.5,2.1,6.7,5.6,7.2
			c19.3,2.9,38.9,3.8,58.4,2.8c3.5-0.3,6.3-3.2,6.3-6.7l0.2-4c0.3-3.5-2.1-6.6-5.5-7.2C242.7,143.7,233.5,142.7,224.2,142.3
			L224.2,142.3z"/>
		<g>
			
				<linearGradient id="SVGID_56_" gradientUnits="userSpaceOnUse" x1="-6518.6875" y1="-530.1734" x2="-6386.7607" y2="-530.1734" gradientTransform="matrix(-1 0 0 -1 -6148.5596 -284.26)">
				<stop  offset="0" style="stop-color:#53D8FF"/>
				<stop  offset="1" style="stop-color:#3840F7"/>
			</linearGradient>
			<path class="st63" d="M369.8,184.4c0.4-0.2,0.4-0.6,0.3-0.9s-0.4-0.4-0.6-0.4c-11.4,1.3-52.6,8.2-83.6,46.3
				c-28.3,34.9-42.5,63.9-47.4,75c-0.7,1.6,0,3.4,1.6,4.1c0.5,0.2,1.1,0.3,1.6,0.3c14-1.4,53.2-7.4,69.5-31.3
				C330.8,249,340.8,202.4,369.8,184.4z"/>
			<path class="st64" d="M336.5,204.1c0,0-37,13.9-95,100.6C241.5,304.8,304.5,220.7,336.5,204.1z"/>
			
				<linearGradient id="SVGID_57_" gradientUnits="userSpaceOnUse" x1="-951.1502" y1="-547.434" x2="-972.0383" y2="-580.6386" gradientTransform="matrix(-1 0 0 -1 -666.14 -284.26)">
				<stop  offset="0" style="stop-color:#CB236D"/>
				<stop  offset="1" style="stop-color:#4C246D"/>
			</linearGradient>
			<path class="st65" d="M324.8,250c0,0,7.9,4.4,8.5,11.7c0.6,7.3,0.1,38.1-15.7,45.6c-15.8,7.5-36.7,5.8-44.8,5
				c-8-0.8-12.4-6.3-13.4-10c-1-3.8-2.6-17.7,5.8-22.2s17.3-11.4,26.1-18.1C300.1,255.3,315.4,244.3,324.8,250z"/>
			
				<linearGradient id="SVGID_58_" gradientUnits="userSpaceOnUse" x1="-931.7205" y1="-571.0499" x2="-924.0068" y2="-579.112" gradientTransform="matrix(-1 0 0 -1 -666.14 -284.26)">
				<stop  offset="0" style="stop-color:#2B3582"/>
				<stop  offset="1" style="stop-color:#150E42"/>
			</linearGradient>
			<path class="st66" d="M267.8,282.6c0,0,2.1,0.1,2.4,4.5c-3.3,2.8-7.3,4.6-11.6,5.5c-0.5,0.1,0.7-3.4,0.9-3.9
				C260.3,286.5,262.9,285,267.8,282.6z"/>
			
				<linearGradient id="SVGID_59_" gradientUnits="userSpaceOnUse" x1="-943.5731" y1="-563.0538" x2="-935.538" y2="-532.7986" gradientTransform="matrix(-1 0 0 -1 -666.14 -284.26)">
				<stop  offset="0" style="stop-color:#53D8FF"/>
				<stop  offset="1" style="stop-color:#3840F7"/>
			</linearGradient>
			<path class="st67" d="M291.7,277.5h-4.5c0,0-13.9-15.2-22.9-16.7c0,0-6.3,8,0.4,23.1c0.4,1.1,1.8,1.6,2.9,1.2
				c0.1,0,0.2-0.1,0.3-0.2c0.4-0.2,0.5-0.5,0.7-0.9l-0.5-12.8c0,0,11.7,10.3,13.8,12.2C283.9,285.4,294.3,284.2,291.7,277.5z"/>
			
				<linearGradient id="SVGID_60_" gradientUnits="userSpaceOnUse" x1="-921.4484" y1="-591.2314" x2="-906.8527" y2="-601.9391" gradientTransform="matrix(-1 0 0 -1 -666.14 -284.26)">
				<stop  offset="0" style="stop-color:#2B3582"/>
				<stop  offset="1" style="stop-color:#150E42"/>
			</linearGradient>
			<path class="st68" d="M248.3,309.4c2.6-2.2,5.8-3.7,9.2-4l1.4,0.9c-0.8,1.1-1.6,2-2.7,2.9c-1.9,1.2-3.8,2-6,2.4
				C248.4,311.8,248.1,310.7,248.3,309.4z"/>
			
				<linearGradient id="SVGID_61_" gradientUnits="userSpaceOnUse" x1="-914.5395" y1="-585.6175" x2="-945.2415" y2="-560.5375" gradientTransform="matrix(-1 0 0 -1 -666.14 -284.26)">
				<stop  offset="0" style="stop-color:#FDF53F"/>
				<stop  offset="0.66" style="stop-color:#E57A58"/>
				<stop  offset="1" style="stop-color:#D93C65"/>
			</linearGradient>
			<path class="st69" d="M259.4,288.7c1.2,0.4,1.7,2.1,4.6,0.9c2.1-0.8,4.2-1.9,6.1-3.2c0,0.2,0,0.4,0.1,0.7c0.1,0.4-5.2,4.9-11.9,6
				c-0.4,0.1-0.7-0.2-0.7-0.5c0-0.1,0-0.2,0-0.4C258,291,258.7,289.9,259.4,288.7z"/>
			
				<linearGradient id="SVGID_62_" gradientUnits="userSpaceOnUse" x1="-906.2028" y1="-603.593" x2="-936.9048" y2="-578.513" gradientTransform="matrix(-1 0 0 -1 -666.14 -284.26)">
				<stop  offset="0" style="stop-color:#FDF53F"/>
				<stop  offset="0.66" style="stop-color:#E57A58"/>
				<stop  offset="1" style="stop-color:#D93C65"/>
			</linearGradient>
			<path class="st70" d="M246.9,310.9c0.4-0.5,0.9-1,1.4-1.4c-0.2,1.2,0.1,2.3,2.1,2.1c2.1-0.4,4.1-1.3,6-2.4
				c-2.4,2.1-5.5,3.4-8.8,3.3c-0.5,0-1-0.4-1-1C246.7,311.3,246.7,311,246.9,310.9z"/>
			
				<linearGradient id="SVGID_63_" gradientUnits="userSpaceOnUse" x1="-921.2548" y1="-570.9481" x2="-951.7783" y2="-582.4602" gradientTransform="matrix(-1 0 0 -1 -666.14 -284.26)">
				<stop  offset="0" style="stop-color:#53D8FF"/>
				<stop  offset="1" style="stop-color:#3840F7"/>
			</linearGradient>
			<path class="st71" d="M291.5,280.7l-21,0.3c0,0-12,9.9-14.2,25.1c0,0-0.4,1.1,1.8,1.3c4.9-3.5,9-8,12-13.1
				c5.8-10.3,17.3-5.6,17.3-5.6c3.8-2.7,9.1-3.3,13.1-4.2L291.5,280.7z"/>
			
				<linearGradient id="SVGID_64_" gradientUnits="userSpaceOnUse" x1="-945.0273" y1="-551.6854" x2="-954.9398" y2="-563.4746" gradientTransform="matrix(-1 0 0 -1 -666.14 -284.26)">
				<stop  offset="0" style="stop-color:#F9B776"/>
				<stop  offset="1" style="stop-color:#F47960"/>
			</linearGradient>
			<path class="st72" d="M291,263.8c0,0-2.2,11.4-13.4,15.8l-3.9-0.4l-0.9,1.5l9.3,0.3c5.3-2.4,9.5-6.5,12.1-11.7
				C294.3,269,296.6,264.2,291,263.8z"/>
			
				<linearGradient id="SVGID_65_" gradientUnits="userSpaceOnUse" x1="-972.8549" y1="-529.8329" x2="-956.981" y2="-585.5168" gradientTransform="matrix(-1 0 0 -1 -666.14 -284.26)">
				<stop  offset="0" style="stop-color:#FDF53F"/>
				<stop  offset="0.66" style="stop-color:#E57A58"/>
				<stop  offset="1" style="stop-color:#D93C65"/>
			</linearGradient>
			<path class="st73" d="M289.8,280.6c1.6-4.5,2.7-9.1,3.1-13.9c-1-0.8-2-1.6-3-2.3c-0.4-0.3-0.5-0.7-0.4-1.1
				c0.9-1.8,6.1-8.8,6.5-8.9c2.1-0.5,10.9-4.7,17,3.8c2.7,3.6-0.5,14.7-12.5,26.3l-2.5,0.4L289.8,280.6z"/>
			
				<linearGradient id="SVGID_66_" gradientUnits="userSpaceOnUse" x1="-956.5616" y1="-562.4263" x2="-936.7549" y2="-535.3353" gradientTransform="matrix(-1 0 0 -1 -666.14 -284.26)">
				<stop  offset="0" style="stop-color:#F9B776"/>
				<stop  offset="1" style="stop-color:#F47960"/>
			</linearGradient>
			<path class="st74" d="M299.8,268.3c0,0-7.2,8.5-16.3,9.7c0,0-2.3-2.1-4.1-1.3c-1.8,0.8-4.2,4.2-4.2,4.2h11.7
				c0,0,11.1-0.4,16.6-7.2C303.1,271.4,301.7,269.9,299.8,268.3z"/>
			
				<linearGradient id="SVGID_67_" gradientUnits="userSpaceOnUse" x1="-968.7697" y1="-539.9413" x2="-968.0457" y2="-533.3809" gradientTransform="matrix(-1 0 0 -1 -666.14 -284.26)">
				<stop  offset="0" style="stop-color:#F9B776"/>
				<stop  offset="1" style="stop-color:#F47960"/>
			</linearGradient>
			<path class="st75" d="M304,248.5l1.6,5.2c0.1,0.3,0,0.5-0.3,0.6c-1.6,1.1-3.7,1.3-5.5,0.5c-0.3-0.1-0.5-0.4-0.5-0.7l-0.4-4.6
				L304,248.5z"/>
			
				<linearGradient id="SVGID_68_" gradientUnits="userSpaceOnUse" x1="-964.8927" y1="-534.241" x2="-968.1104" y2="-523.6406" gradientTransform="matrix(-1 0 0 -1 -666.14 -284.26)">
				<stop  offset="0" style="stop-color:#F9B776"/>
				<stop  offset="1" style="stop-color:#F47960"/>
			</linearGradient>
			<path class="st76" d="M294.8,244.3c0,0,0.8,5.5,2.9,7.1s6.2,0.4,7.5-3.7l-2.7-7L294.8,244.3z"/>
			
				<linearGradient id="SVGID_69_" gradientUnits="userSpaceOnUse" x1="-967.8792" y1="-514.779" x2="-964.885" y2="-531.8239" gradientTransform="matrix(-1 0 0 -1 -666.14 -284.26)">
				<stop  offset="0" style="stop-color:#2B3582"/>
				<stop  offset="1" style="stop-color:#150E42"/>
			</linearGradient>
			<path class="st77" d="M302.7,245.2c-0.2,0.1-0.3,0-0.4-0.2l0,0c-0.1-0.7-0.3-1.5-0.6-2.1c0,0,0.2-0.7-1.8,0.4
				c-2,1.1-5,2.7-6.7,1.7s-3.5-5.5,1.1-4.6c0.2,0,0.3-0.1,0.3-0.2v-0.1c-0.2-1.3,0.5-2.6,1.8-3c1-0.4,2.2-0.2,2.9,0.7
				c0.1,0.1,0.3,0.2,0.4,0l0,0c0.8-1.3,2.4-1.7,3.8-1.2c1.6,0.7,1.9,1.7,1.9,2.3c0,0.2,0.1,0.3,0.3,0.3c0.1,0,0.1,0,0.2,0
				c0.7-0.4,1.6-0.1,2.1,0.6c1.1,1.3-0.4,2.5-0.9,2.8c-0.1,0.1-0.1,0.2-0.1,0.3c0,0.7-0.1,3.7-1.6,5.4c-0.1,0.1-0.3,0.1-0.4,0
				l-0.1-0.1l-1.2-2.8c-0.1-0.1-0.2-0.2-0.4-0.2L302.7,245.2z"/>
			
				<linearGradient id="SVGID_70_" gradientUnits="userSpaceOnUse" x1="-968.1042" y1="-535.2138" x2="-971.3129" y2="-524.6134" gradientTransform="matrix(-1 0 0 -1 -666.14 -284.26)">
				<stop  offset="0" style="stop-color:#F9B776"/>
				<stop  offset="1" style="stop-color:#F47960"/>
			</linearGradient>
			<path class="st78" d="M302.6,245.8c0,0,0.7-2.9,1.8-2c1.1,0.9-0.3,3-1.5,3.4L302.6,245.8z"/>
			
				<linearGradient id="SVGID_71_" gradientUnits="userSpaceOnUse" x1="-941.8671" y1="-556.4234" x2="-926.8066" y2="-556.4234" gradientTransform="matrix(-1 0 0 -1 -666.14 -284.26)">
				<stop  offset="0" style="stop-color:#2B3582"/>
				<stop  offset="1" style="stop-color:#150E42"/>
			</linearGradient>
			<path class="st79" d="M275.7,281.5l-5.3-17.6c-0.2-0.7-0.9-1.3-1.6-1.3l-7.2-0.4c-0.5,0-1.1,0.4-1.1,1c0,0.2,0,0.3,0.1,0.4
				l5.9,16.8c0.2,0.5,0.7,0.9,1.3,1l7,0.8L275.7,281.5z"/>
			
				<linearGradient id="SVGID_72_" gradientUnits="userSpaceOnUse" x1="-929.2913" y1="-549.8255" x2="-938.4617" y2="-559.13" gradientTransform="matrix(-1 0 0 -1 -666.14 -284.26)">
				<stop  offset="0" style="stop-color:#FDF53F"/>
				<stop  offset="1" style="stop-color:#D93C65"/>
			</linearGradient>
			<path class="st80" d="M266.1,269.8c0.4,0.8,1.1,1.3,1.5,1.1c0.4-0.2,0.4-1.1,0.1-1.9s-1.1-1.3-1.5-1.1
				C265.8,268.1,265.6,269,266.1,269.8z"/>
			
				<linearGradient id="SVGID_73_" gradientUnits="userSpaceOnUse" x1="-940.0418" y1="-562.8634" x2="-952.0903" y2="-566.1616" gradientTransform="matrix(-1 0 0 -1 -666.14 -284.26)">
				<stop  offset="0" style="stop-color:#2B3582"/>
				<stop  offset="1" style="stop-color:#150E42"/>
			</linearGradient>
			<path class="st81" d="M274.9,282L274.9,282l14.9-0.8c0.4,0,0.7-0.3,0.7-0.6c0-0.3-0.3-0.7-0.6-0.7c-0.1,0-0.1,0-0.2,0l-14.9,0.7
				c-0.4,0-0.7,0.3-0.7,0.7C274.1,281.7,274.5,282,274.9,282L274.9,282z"/>
			<path class="st82" d="M293,267c-0.1,0-0.2-0.1-0.2-0.2l0,0c0.1-2.5,0.5-5,1.3-7.4c0-0.1,0.1-0.2,0.3-0.1c0.2,0.1,0.2,0.1,0.1,0.3
				l0,0c-0.7,2.4-1.1,4.8-1.3,7.3C293.2,266.9,293.1,267,293,267L293,267L293,267z"/>
			<path class="st82" d="M299.8,268.5L299.8,268.5c-0.2-0.1-0.2-0.2-0.1-0.3c0,0,3.3-4.1,4.4-7c0-0.1,0.2-0.2,0.3-0.1l0,0
				c0.1,0,0.2,0.2,0.1,0.3c-1.2,2.9-4.3,6.9-4.5,7.1C299.9,268.5,299.8,268.5,299.8,268.5z"/>
			<path class="st82" d="M304.3,274.8l-0.6-0.9c-0.1-0.1-0.1-0.2,0-0.3s0.2,0,0.3,0l0,0l0.4,0.6c4.6-2.1,7.3-7.5,7.4-7.5
				c0-0.1,0.2-0.1,0.3-0.1l0,0c0.1,0,0.1,0.2,0.1,0.3l0,0c0,0.1-2.9,5.7-7.7,7.8L304.3,274.8z"/>
		</g>
	</g>
	<g id="Layer_2_1_">
	</g>
</g>
</svg>
