<svg id="web-site" xmlns="http://www.w3.org/2000/svg" width="68.717" height="60.634" viewBox="0 0 68.717 60.634">
  <path id="Path_11947" data-name="Path 11947" d="M60.916,60.634H7.8a7.81,7.81,0,0,1-7.8-7.8V7.8A7.81,7.81,0,0,1,7.8,0H60.916a7.81,7.81,0,0,1,7.8,7.8V52.833A7.81,7.81,0,0,1,60.916,60.634ZM7.8,2.324A5.484,5.484,0,0,0,2.324,7.8V52.833A5.484,5.484,0,0,0,7.8,58.311H60.916a5.484,5.484,0,0,0,5.477-5.477V7.8a5.484,5.484,0,0,0-5.477-5.477Zm0,0" transform="translate(0 0)" fill="#1ab2a9"/>
  <path id="Path_11948" data-name="Path 11948" d="M253.243,246.758H234.986a1.162,1.162,0,1,1,0-2.324h18.257a1.162,1.162,0,1,1,0,2.324Zm0,0" transform="translate(-195.013 -203.862)" fill="#1ab2a9"/>
  <path id="Path_11949" data-name="Path 11949" d="M253.243,297.367H234.986a1.162,1.162,0,0,1,0-2.324h18.257a1.162,1.162,0,0,1,0,2.324Zm0,0" transform="translate(-195.013 -246.071)" fill="#1ab2a9"/>
  <path id="Path_11950" data-name="Path 11950" d="M253.243,145.539H234.986a1.162,1.162,0,1,1,0-2.324h18.257a1.162,1.162,0,1,1,0,2.324Zm0,0" transform="translate(-195.013 -119.444)" fill="#1ab2a9"/>
  <path id="Path_11951" data-name="Path 11951" d="M253.243,196.148H234.986a1.162,1.162,0,1,1,0-2.324h18.257a1.162,1.162,0,1,1,0,2.324Zm0,0" transform="translate(-195.013 -161.653)" fill="#1ab2a9"/>
  <path id="Path_11952" data-name="Path 11952" d="M67.555,82.054H1.162a1.162,1.162,0,0,1,0-2.324H67.555a1.162,1.162,0,0,1,0,2.324Zm0,0" transform="translate(0 -66.497)" fill="#1ab2a9"/>
  <path id="Path_11953" data-name="Path 11953" d="M82.745,32.449a3.615,3.615,0,1,1,3.615-3.615A3.62,3.62,0,0,1,82.745,32.449Zm0-4.907a1.292,1.292,0,1,0,1.292,1.292A1.293,1.293,0,0,0,82.745,27.542Zm0,0" transform="translate(-65.995 -21.033)" fill="#1ab2a9"/>
  <path id="Path_11954" data-name="Path 11954" d="M32.311,32.449a3.615,3.615,0,1,1,3.616-3.615A3.62,3.62,0,0,1,32.311,32.449Zm0-4.907A1.292,1.292,0,1,0,33.6,28.834,1.293,1.293,0,0,0,32.311,27.542Zm0,0" transform="translate(-23.932 -21.033)" fill="#1ab2a9"/>
  <path id="Path_11955" data-name="Path 11955" d="M133.182,32.449a3.615,3.615,0,1,1,3.616-3.615A3.619,3.619,0,0,1,133.182,32.449Zm0-4.907a1.292,1.292,0,1,0,1.292,1.292A1.293,1.293,0,0,0,133.182,27.542Zm0,0" transform="translate(-108.061 -21.033)" fill="#1ab2a9"/>
  <path id="Path_11956" data-name="Path 11956" d="M76.242,170.74H55.162A1.162,1.162,0,0,1,54,169.578v-25.2a1.162,1.162,0,0,1,1.162-1.162h21.08a1.162,1.162,0,0,1,1.162,1.162v25.2A1.162,1.162,0,0,1,76.242,170.74Zm-19.918-2.324H75.08V145.539H56.324Zm0,0" transform="translate(-45.037 -119.444)" fill="#1ab2a9"/>
</svg>
