<?xml version="1.0" encoding="utf-8"?>
<!-- Generator: Adobe Illustrator 24.2.3, SVG Export Plug-In . SVG Version: 6.00 Build 0)  -->
<svg version="1.1" id="Layer_1" xmlns="http://www.w3.org/2000/svg" xmlns:xlink="http://www.w3.org/1999/xlink" x="0px" y="0px"
	 viewBox="0 0 500 500" style="enable-background:new 0 0 500 500;" xml:space="preserve">
<style type="text/css">
	.st0{fill:#EBEBEB;}
	.st1{fill:#E6E6E6;}
	.st2{fill:#F0F0F0;}
	.st3{fill:#FAFAFA;}
	.st4{fill:#FFFFFF;}
	.st5{opacity:0.6;fill:#EBEBEB;enable-background:new    ;}
	.st6{fill:#F5F5F5;}
	.st7{fill:#E0E0E0;}
	.st8{opacity:0.1;fill:#00BFA6;enable-background:new    ;}
	.st9{fill:#00BFA6;}
	.st10{opacity:0.7;fill:#FFFFFF;enable-background:new    ;}
	.st11{opacity:0.9;fill:#FFFFFF;enable-background:new    ;}
	.st12{opacity:0.7;fill:#00BFA6;enable-background:new    ;}
	.st13{opacity:0.3;fill:#00BFA6;enable-background:new    ;}
	.st14{opacity:0.8;fill:#FFFFFF;enable-background:new    ;}
	.st15{fill:#FFB573;}
	.st16{fill:#263238;}
	.st17{opacity:0.2;enable-background:new    ;}
	.st18{fill:#ED893E;}
	.st19{fill:#E44D26;}
	.st20{fill:#F16529;}
</style>
<g id="freepik--background-complete--inject-39">
	<rect y="382.4" class="st0" width="500" height="0.3"/>
	<rect x="372.3" y="398.5" class="st0" width="77.6" height="0.3"/>
	<rect x="278" y="395" class="st0" width="55.3" height="0.3"/>
	<rect x="356.8" y="389.2" class="st0" width="59" height="0.3"/>
	<rect x="52.5" y="390.9" class="st0" width="12.7" height="0.3"/>
	<rect x="74.1" y="390.9" class="st0" width="71.6" height="0.3"/>
	<rect x="173.2" y="395.1" class="st0" width="46.8" height="0.3"/>
	<path class="st0" d="M237,337.8H43.9c-3.1,0-5.7-2.6-5.7-5.7V60.7c0-3.1,2.6-5.7,5.7-5.7H237c3.2,0,5.7,2.6,5.7,5.7c0,0,0,0,0,0
		v271.4C242.7,335.2,240.2,337.8,237,337.8z M43.9,55.2c-3,0-5.5,2.4-5.5,5.5v271.4c0,3,2.4,5.5,5.5,5.5H237c3,0,5.5-2.4,5.5-5.5
		V60.7c0-3-2.4-5.5-5.5-5.5H43.9z"/>
	<path class="st0" d="M453.3,337.8H260.2c-3.2,0-5.7-2.6-5.7-5.7V60.7c0-3.1,2.6-5.7,5.7-5.7h193.1c3.1,0,5.7,2.5,5.7,5.7v271.4
		C459,335.2,456.5,337.8,453.3,337.8z M260.2,55.2c-3,0-5.5,2.4-5.5,5.5v271.4c0,3,2.4,5.5,5.5,5.5h193.1c3,0,5.5-2.4,5.5-5.5V60.7
		c0-3-2.4-5.5-5.5-5.5H260.2z"/>
	<rect x="56.3" y="96.8" class="st1" width="132.6" height="216.4"/>
	<rect x="58.2" y="96.8" class="st2" width="134.8" height="216.4"/>
	<rect x="56.3" y="313.2" class="st1" width="132.6" height="6.1"/>
	<rect x="65" y="313.2" class="st2" width="134.8" height="6.1"/>
	<rect x="63.9" y="102.4" class="st3" width="123.4" height="205.1"/>
	<polygon class="st4" points="91.7,307.5 107.5,102.4 132.1,102.4 116.3,307.5 	"/>
	<path class="st2" d="M66.5,301.9c-0.2,0-0.4-0.2-0.4-0.4c0,0,0,0,0,0V106.1c0-0.2,0.1-0.4,0.3-0.5c0.2,0,0.4,0.1,0.5,0.3
		c0,0,0,0.1,0,0.1v195.3C66.9,301.7,66.7,301.9,66.5,301.9z"/>
	<polygon class="st4" points="121.6,307.5 137.4,102.4 147,102.4 131.2,307.5 	"/>
	<rect x="186.6" y="102.4" class="st1" width="0.7" height="205.1"/>
	<polygon class="st5" points="194.3,111 61.7,111 61.2,104.6 193.8,104.6 	"/>
	<polygon class="st5" points="194.3,121.4 61.7,121.4 61.2,115 193.8,115 	"/>
	<polygon class="st5" points="194.3,131.8 61.7,131.8 61.2,125.4 193.8,125.4 	"/>
	<polygon class="st5" points="194.3,142.2 61.7,142.2 61.2,135.8 193.8,135.8 	"/>
	<polygon class="st5" points="194.3,152.6 61.7,152.6 61.2,146.2 193.8,146.2 	"/>
	<polygon class="st5" points="194.3,163 61.7,163 61.2,156.6 193.8,156.6 	"/>
	<rect x="273.8" y="96.8" class="st2" width="127.1" height="285.6"/>
	<rect x="276.4" y="96.8" class="st6" width="124.4" height="285.6"/>
	<rect x="284" y="103.3" class="st2" width="109.2" height="272.7"/>
	<path class="st3" d="M294.8,154L294.8,154c0-16.4,13.3-29.8,29.8-29.8h28.2c16.4,0,29.8,13.3,29.8,29.8c0,0,0,0,0,0H294.8z"/>
	<rect x="294.8" y="293.8" class="st6" width="87.8" height="65.1"/>
	<rect x="294.7" y="172.3" class="st6" width="38.7" height="113.1"/>
	<rect x="343.8" y="172.3" class="st6" width="38.7" height="113.1"/>
	<path class="st7" d="M368.5,228.4h15.9c1.4,0,2.5-1.1,2.5-2.5l0,0c0-1.4-1.1-2.5-2.5-2.5h-15.9c-1.4,0-2.5,1.1-2.5,2.5l0,0
		C366,227.3,367.1,228.4,368.5,228.4z"/>
	<rect x="391.3" y="103.3" class="st2" width="2" height="272.7"/>
	<polygon class="st0" points="457.2,235.1 412,235.1 416,182.1 453.2,182.1 	"/>
	<polygon class="st6" points="447.3,235.1 439.5,235.1 437.9,182.1 445,182.1 	"/>
	<rect x="432.3" y="235.1" class="st2" width="4.5" height="147.3"/>
	<path class="st2" d="M432.4,301.1h4.5c1.1,0,2,0.9,2,2v4.5c0,1.1-0.9,2-2,2h-4.5c-1.1,0-2-0.9-2-2v-4.5
		C430.4,302,431.3,301.1,432.4,301.1z"/>
	<path class="st2" d="M432.4,314.6h4.5c1.1,0,2,0.9,2,2v4.5c0,1.1-0.9,2-2,2h-4.5c-1.1,0-2-0.9-2-2v-4.5
		C430.4,315.5,431.3,314.6,432.4,314.6z"/>
	<path class="st2" d="M441.8,382.4h-14.3c0-1.7,1.4-3.1,3-3.1h8.2C440.4,379.3,441.8,380.7,441.8,382.4z"/>
	<rect x="432.3" y="235.1" class="st7" width="4.5" height="2.8"/>
	<polygon class="st0" points="260.9,235.1 215.6,235.1 219.6,182.1 256.9,182.1 	"/>
	<polygon class="st6" points="250.9,235.1 243.2,235.1 241.5,182.1 248.7,182.1 	"/>
	<rect x="236" y="235.1" class="st2" width="4.5" height="147.3"/>
	<path class="st2" d="M236,301.1h4.4c1.1,0,2,0.9,2,2v4.5c0,1.1-0.9,2-2,2H236c-1.1,0-2-0.9-2-2v-4.5C234,302,234.9,301.1,236,301.1
		z"/>
	<path class="st2" d="M236,314.6h4.4c1.1,0,2,0.9,2,2v4.5c0,1.1-0.9,2-2,2H236c-1.1,0-2-0.9-2-2v-4.5
		C234,315.5,234.9,314.6,236,314.6z"/>
	<path class="st2" d="M245.4,382.4h-14.3c0-1.7,1.3-3,3-3.1h8.2c1.7,0,3,1.4,3,3.1H245.4z"/>
	<rect x="236" y="235.1" class="st7" width="4.5" height="2.8"/>
</g>
<g id="freepik--Shadow--inject-39">
	<ellipse id="freepik--path--inject-39" class="st6" cx="250" cy="416.2" rx="193.9" ry="11.3"/>
</g>
<g id="freepik--Responsive--inject-39">
	<polygon class="st8" points="286.6,103.8 284.7,161.5 330,158.4 	"/>
	<polygon class="st8" points="254.5,281.4 255.7,238.7 86.1,241 	"/>
	<path class="st9" d="M83.3,108.9h205l0,0v129c0,1.7-1.4,3.1-3.1,3.1l0,0H86.4c-1.7,0-3.1-1.4-3.1-3.1V108.9L83.3,108.9z"/>
	<path class="st10" d="M83.3,108.9h205l0,0v129c0,1.7-1.4,3.1-3.1,3.1l0,0H86.4c-1.7,0-3.1-1.4-3.1-3.1V108.9L83.3,108.9z"/>
	<path class="st11" d="M103.9,117.6h163.8c1.6,0,2.8,1.3,2.8,2.8v46c0,1.6-1.3,2.8-2.8,2.8H103.9c-1.6,0-2.8-1.3-2.8-2.8v-46
		C101.1,118.8,102.3,117.6,103.9,117.6z"/>
	<path class="st12" d="M103.9,177.2h45.7c1.6,0,2.8,1.3,2.8,2.8v9.4c0,1.6-1.3,2.8-2.8,2.8h-45.7c-1.6,0-2.8-1.3-2.8-2.8V180
		C101.1,178.4,102.3,177.2,103.9,177.2z"/>
	<path class="st12" d="M163,177.2h45.6c1.6,0,2.8,1.3,2.8,2.8v9.4c0,1.6-1.3,2.8-2.8,2.8H163c-1.6,0-2.8-1.3-2.8-2.8V180
		C160.1,178.4,161.4,177.2,163,177.2z"/>
	<path class="st12" d="M222,177.2h45.7c1.6,0,2.8,1.3,2.8,2.8v9.4c0,1.6-1.3,2.8-2.8,2.8H222c-1.6,0-2.8-1.3-2.8-2.8V180
		C219.2,178.4,220.4,177.2,222,177.2z"/>
	<path class="st13" d="M103.9,198.4h45.7c1.6,0,2.8,1.3,2.8,2.8l0,0V241l0,0h-51.3l0,0v-39.8C101.1,199.6,102.3,198.4,103.9,198.4
		L103.9,198.4z"/>
	<path class="st13" d="M163,198.4h45.6c1.6,0,2.8,1.3,2.8,2.8l0,0V241l0,0h-51.3l0,0v-39.8C160.1,199.6,161.4,198.4,163,198.4
		C163,198.4,163,198.4,163,198.4z"/>
	<path class="st13" d="M222,198.4h45.6c1.6,0,2.8,1.3,2.8,2.8V241l0,0h-51.3l0,0v-39.8C219.2,199.6,220.4,198.4,222,198.4z"/>
	<rect x="140.8" y="96.6" class="st9" width="5" height="1"/>
	<rect x="124.1" y="96.6" class="st9" width="12.3" height="1"/>
	<path class="st9" d="M279.4,100.1H92.2c-4.9,0-8.9,4-8.9,8.9c0,0,0,0,0,0.1h205C288.3,104.1,284.4,100.1,279.4,100.1
		C279.4,100.1,279.4,100.1,279.4,100.1z"/>
	<path class="st4" d="M95.9,104.5c0,1-0.8,1.8-1.8,1.8s-1.8-0.8-1.8-1.8c0-1,0.8-1.8,1.8-1.8c0,0,0,0,0,0
		C95.1,102.7,95.9,103.5,95.9,104.5z"/>
	<path class="st4" d="M101.6,104.4c0,1-0.8,1.8-1.8,1.8s-1.8-0.8-1.8-1.8s0.8-1.8,1.8-1.8h0C100.8,102.6,101.6,103.4,101.6,104.4z"
		/>
	<path class="st4" d="M107.3,104.4c0,1-0.8,1.8-1.8,1.8s-1.8-0.8-1.8-1.8s0.8-1.8,1.8-1.8h0C106.5,102.6,107.3,103.4,107.3,104.4z"
		/>
	<path class="st9" d="M252.9,168.4h79l0,0v109.9c0,2.2-1.8,4-4,4h-71.1c-2.2,0-4-1.8-4-4L252.9,168.4L252.9,168.4z"/>
	<path class="st14" d="M252.9,168.4h79l0,0v109.9c0,2.2-1.8,4-4,4h-71.1c-2.2,0-4-1.8-4-4L252.9,168.4L252.9,168.4z"/>
	<path class="st11" d="M262,174.3h60.7c1.1,0,2,0.9,2,2v20.8c0,1.1-0.9,2-2,2H262c-1.1,0-2-0.9-2-2v-20.8
		C260.1,175.2,261,174.3,262,174.3z"/>
	<path class="st12" d="M263.6,204h57.5c2,0,3.6,1.6,3.6,3.6v11.9c0,2-1.6,3.6-3.6,3.6h-57.5c-2,0-3.6-1.6-3.6-3.6v-11.9
		C260.1,205.6,261.7,204,263.6,204z"/>
	<path class="st12" d="M263.6,229.2h57.5c2,0,3.6,1.6,3.6,3.6v11.9c0,2-1.6,3.6-3.6,3.6h-57.5c-2,0-3.6-1.6-3.6-3.6v-11.9
		C260.1,230.8,261.7,229.2,263.6,229.2z"/>
	<path class="st12" d="M263.6,254.5h57.5c2,0,3.6,1.6,3.6,3.6v11.8c0,2-1.6,3.6-3.6,3.6h-57.5c-2,0-3.6-1.6-3.6-3.6V258
		C260.1,256.1,261.7,254.5,263.6,254.5z"/>
	<path class="st9" d="M258.1,157.2h68.6c2.9,0,5.2,2.3,5.2,5.2c0,0,0,0,0,0v6l0,0h-79l0,0v-6C252.9,159.5,255.2,157.2,258.1,157.2
		C258.1,157.2,258.1,157.2,258.1,157.2z"/>
</g>
<g id="freepik--Character--inject-39">
	<polygon class="st15" points="363.1,410.2 355.8,410.2 355.8,393.3 363.1,393.3 	"/>
	<polygon class="st15" points="422,396.2 415,398.3 407.3,383 414.3,380.8 	"/>
	<path class="st9" d="M412.3,399.6c-0.5,0.2-1,0.2-1.5,0c-0.3-0.1-0.5-0.4-0.6-0.8c0-0.2,0-0.4,0.2-0.6c0.7-0.6,3.3,0.1,3.6,0.2
		c0.1,0,0.1,0.1,0.1,0.1c0,0.1,0,0.1-0.1,0.2C413.5,399.1,412.9,399.4,412.3,399.6z M410.8,398.5c-0.1,0-0.2,0.1-0.2,0.1
		c-0.1,0.1-0.1,0.1,0,0.2c0,0.2,0.2,0.4,0.4,0.5c0.9,0.1,1.8-0.1,2.5-0.6C412.6,398.5,411.7,398.4,410.8,398.5z"/>
	<path class="st9" d="M414,398.8L414,398.8c-0.9-0.2-2.7-1.3-2.8-2.1c0-0.3,0.2-0.5,0.4-0.6c0.2-0.1,0.5-0.1,0.8,0
		c1,0.4,1.7,2.4,1.7,2.5c0,0.1,0,0.1,0,0.2L414,398.8z M411.9,396.4C411.8,396.4,411.8,396.4,411.9,396.4c-0.3,0.1-0.3,0.2-0.3,0.2
		c0,0.5,1.2,1.4,2.1,1.7c-0.2-0.6-0.8-1.7-1.4-2C412.1,396.3,412,396.3,411.9,396.4L411.9,396.4z"/>
	<path class="st16" d="M414.3,397.7l7.9-2.4c0.3-0.1,0.6,0,0.7,0.3l3,5.9c0.3,0.6,0,1.2-0.5,1.5c-0.1,0-0.1,0-0.2,0.1
		c-2.8,0.8-4.1,1-7.6,2.1c-2.1,0.6-9,4.1-11.9,5s-4.1-1.9-2.9-2.6c5.1-2.8,9.2-7,10.5-9.1C413.5,398.1,413.8,397.8,414.3,397.7z"/>
	<path class="st9" d="M352.8,410.7c-0.6,0.1-1.2-0.1-1.8-0.5c-0.2-0.2-0.3-0.5-0.3-0.8c0-0.2,0.1-0.4,0.3-0.5c0.9-0.5,3.8,1,4.1,1.2
		c0.1,0,0.1,0.1,0.1,0.2c0,0.1-0.1,0.1-0.1,0.1C354.3,410.6,353.6,410.6,352.8,410.7z M351.5,409.1c-0.1,0-0.2,0-0.3,0.1
		c-0.1,0-0.1,0.1-0.1,0.2c0,0.2,0,0.4,0.2,0.6c0.4,0.4,1.6,0.5,3.3,0.2C353.6,409.6,352.6,409.3,351.5,409.1z"/>
	<path class="st9" d="M355.1,410.4L355.1,410.4c-0.9-0.4-2.6-2-2.5-2.8c0-0.2,0.2-0.4,0.7-0.5c0.4-0.1,0.7,0,1,0.3
		c0.9,0.8,1,2.7,1,2.8c0,0.1,0,0.1-0.1,0.1C355.2,410.4,355.1,410.4,355.1,410.4z M353.4,407.4h-0.1c-0.3,0-0.3,0.2-0.4,0.2
		c-0.1,0.5,1,1.7,1.9,2.3c0-0.8-0.3-1.6-0.9-2.3C353.8,407.5,353.6,407.4,353.4,407.4L353.4,407.4z"/>
	<path class="st16" d="M355.9,409.4h8c0.3,0,0.6,0.2,0.6,0.5l1.2,6.5c0.1,0.6-0.3,1.2-0.9,1.3c-0.1,0-0.1,0-0.2,0
		c-2.9,0-7-0.2-10.7-0.2c-4.2,0-7.9,0.2-12.9,0.2c-3,0-3.7-3-2.4-3.3c5.8-1.3,10.5-1.4,15.6-4.5
		C354.6,409.6,355.2,409.4,355.9,409.4z"/>
	<path class="st15" d="M381.9,142.9c-1.3,5.4-2.1,12,1.5,15.6c0,0-2.4,5.4-12.4,5.4c-9.1,0-4.3-5.4-4.3-5.4c6-1.4,6-8.8,5.2-13
		L381.9,142.9z"/>
	<polygon class="st17" points="355.8,393.3 355.8,402 363.1,402 363.1,393.3 	"/>
	<polygon class="st17" points="414.3,380.8 407.3,383 411.2,390.9 418.3,388.8 	"/>
	<path class="st15" d="M398.1,165.2l-9.4,5.4c0,0,9.9,23,8.9,26.7c-1.3,5-2,15.2-4,21.8c0.8,0.9,3.5,2.5,4.6,2.5
		c4-8,10.5-21.6,10.1-26.3C407.5,184.8,398.1,165.2,398.1,165.2z"/>
	<path class="st15" d="M393.5,219.2l-6.4,2.7l6.5,5.4c0,0,5.6-2.5,4.5-7.2L393.5,219.2z"/>
	<polygon class="st15" points="383.5,227.6 389.6,232.1 393.5,227.2 387.1,221.8 	"/>
	<path class="st9" d="M396.5,160.2c6.8,1.4,12.4,25.8,12.4,25.8l-15.4,7.4c0,0-5.3-11.7-7.6-20.4
		C383.5,163.9,389.2,158.7,396.5,160.2z"/>
	<path class="st17" d="M391,168.5c-2.9-3-1.6,8.9-0.8,16.9c0.6,1.6,1.2,3,1.7,4.2C396,183.6,395,172.7,391,168.5z"/>
	<path class="st9" d="M367,160.7c0-2.6-0.4-3.8,0.3-4.8s14.8-2.1,17.2-1c0.8,0.4,1.3,4.1,0.3,5.8C383.3,163.1,367,160.7,367,160.7z"
		/>
	<path class="st17" d="M367,160.7c0-2.6-0.4-3.8,0.3-4.8s14.8-2.1,17.2-1c0.8,0.4,1.3,4.1,0.3,5.8C383.3,163.1,367,160.7,367,160.7z
		"/>
	<path class="st9" d="M355.4,160.5c0,0-9.6,22.1-3.2,63.3h39.2c0.5-6-2-35.4,5.1-63.7c-4.3-0.8-8.7-1.4-13-1.7
		c-5.5-0.3-11.1-0.3-16.7,0C362.9,158.9,359.1,159.6,355.4,160.5z"/>
	<path class="st15" d="M361,170.8l-9.7-3.9c0,0-13.1,22.3-15.9,24.1c-6.4-3.5-8.5-2.1-13.4-5.7c-1.3,0.1-3.2,1.9-3.9,2.8
		c4,7.7,17.3,17.2,23.9,11.4C350.1,192.3,361,170.8,361,170.8z"/>
	<path class="st17" d="M362.2,168.2c-1.5-3.8-4.5-5.3-7.8-4.8c-1.5,4.6-4,14.7-4.4,30l3.8,0.9C353.8,194.3,364.7,174.6,362.2,168.2z
		"/>
	<path class="st9" d="M363.9,165.6c2.2,6.6-11.2,25.9-11.2,25.9l-14.3-8c2.5-6,5.6-11.8,9.2-17.1
		C353.2,158.6,361.5,158.4,363.9,165.6z"/>
	<path class="st15" d="M322.3,185.6l-6.5-3.8l-3.8,7.6c2.6,0.9,5.4,1.3,8.2,1.3L322.3,185.6z"/>
	<polygon class="st15" points="312.5,181.8 307.8,186.2 311.9,189.4 315.7,181.8 	"/>
	<path class="st16" d="M365.7,135.2c-0.1,0.6-0.4,1-0.8,1s-0.6-0.5-0.6-1.1s0.4-1,0.8-1S365.8,134.6,365.7,135.2z"/>
	<path class="st18" d="M366.2,135.3c-0.9,1.8-2,3.4-3.3,4.9c0.8,0.6,1.8,0.9,2.8,0.7L366.2,135.3z"/>
	<path class="st16" d="M365,133.2l-0.1-0.1c-0.2-0.1-0.2-0.3-0.1-0.5c0,0,0,0,0,0c0.6-1,1.7-1.6,2.8-1.6c0.2,0,0.3,0.2,0.3,0.3
		c0,0,0,0,0,0c0,0.2-0.2,0.3-0.4,0.4l0,0c-0.9,0.1-1.7,0.6-2.2,1.3C365.3,133.1,365.1,133.2,365,133.2z"/>
	<path class="st15" d="M385.6,134.7c-1.2,7.2-1.5,11.5-5.5,15c-3.8,3.5-9.8,3.2-13.3-0.7c-1.3-1.5-2.1-3.3-2.4-5.2
		c-0.9-6.6,1.2-17.3,8.6-19.8c4.9-1.8,10.4,0.7,12.2,5.6C385.8,131.3,385.9,133,385.6,134.7z"/>
	<path class="st16" d="M370.6,137.8c-1.5-4.8-3.5-12.1,1.9-14.8s9.5,1.1,15.3,4.6c6.5,3.9,2.5,16.4-5.4,19.4
		C375.8,149.4,369.3,144.4,370.6,137.8z"/>
	<path class="st16" d="M371.1,129c-4.7,1.3-7.9-1.8-5.6-5.2c2.9-4.4,14.5-3.3,18.8,1.5S374.4,132.4,371.1,129z"/>
	<path class="st16" d="M372.9,125.5c-5.7-1.1-8.1-5.7-3.3-8.6c4.5-2.7,17.3,2,19.4,9.5S374.7,130.9,372.9,125.5z"/>
	<path class="st16" d="M388.2,129.1c0.9-0.7,4.3-1.7,4.7,2.2C391.7,130,390,129.2,388.2,129.1z"/>
	<path class="st16" d="M390.7,124.3c0.7,0.9,1.7,4.3-2.2,4.7C389.8,127.7,390.6,126.1,390.7,124.3z"/>
	<path class="st15" d="M374.7,137.5c-0.5,1.6-1.6,2.9-3.1,3.6c-1.9,1-3.3-0.6-3-2.6c0.2-1.8,1.5-4.6,3.5-4.7
		S375.3,135.6,374.7,137.5z"/>
	<path class="st16" d="M366.1,223.9c0,0,5.9,56,9.5,77c4,23,32,89.4,32,89.4l12.9-3.9c0,0-20-61-21.9-83.8
		c-2-24.7-7.1-78.7-7.1-78.7L366.1,223.9z"/>
	<path class="st17" d="M375.1,243.4c-0.6-0.9-1.1-1.2-1.7-1h-0.1c-0.1,0-0.2,0.1-0.3,0.2c-0.1,0.1-0.2,0.2-0.3,0.3
		c-0.1,0.1-0.1,0.1-0.2,0.2s-0.1,0.2-0.2,0.3c-0.2,0.3-0.3,0.6-0.5,0.9c-0.1,0.2-0.2,0.4-0.3,0.6s-0.2,0.5-0.3,0.8s-0.3,0.8-0.4,1.2
		c0,0.1-0.1,0.2-0.1,0.3s-0.1,0.5-0.2,0.7l-0.1,0.6c-0.1,0.4-0.2,0.8-0.3,1.2s-0.2,0.9-0.3,1.4c0,0.2-0.1,0.3-0.1,0.5
		c-0.1,0.6-0.2,1.2-0.4,1.8l0,0c1.6,13.9,3.5,29.9,5.2,41.1c0.1-0.4,0.2-0.7,0.4-1.1c0.5-1.9,0.9-3.7,1.3-5.6
		C378.7,273.4,378.9,249.2,375.1,243.4z"/>
	<path class="st16" d="M352.2,223.9c0,0-3.4,54.8-3.6,77.1c-0.2,23.2,4.6,99.3,4.6,99.3h12.4c0,0,3.8-74.7,5.3-97.6
		c1.7-24.9,7.1-78.9,7.1-78.9L352.2,223.9z"/>
	<path class="st9" d="M366.5,396.5c0,0-0.2,4-0.2,4h-14.3l-0.4-4.5L366.5,396.5z"/>
	<path class="st9" d="M419.4,381.8c0.3,0.6,1.7,4.6,1.7,4.6l-14.1,4.3l-2.3-3.8L419.4,381.8z"/>
</g>
<path class="st19" d="M269.4,176.5l-15.2,170.7l-68.5,19l-68.3-19l-15.2-170.7H269.4z"/>
<path class="st20" d="M185.8,351.7l55.3-15.3l13-145.9h-68.3V351.7z"/>
<path class="st0" d="M156.2,232.4h29.6v-20.9h-52.5l0.5,5.6l5.2,57.7h46.9v-20.9h-27.7L156.2,232.4z M160.9,285.2h-21l2.9,32.9
	l42.8,11.9h0.1v-21.9h-0.1l-23.3-6.3L160.9,285.2z"/>
<path d="M117.7,130.1h10.6v10.5h9.7v-10.5h10.6V162h-10.6v-10.7h-9.7V162h-10.6V130.1z M162.7,140.7h-9.4v-10.6h29.4v10.6h-9.4V162
	h-10.6L162.7,140.7L162.7,140.7L162.7,140.7z M187.4,130.1h11.1l6.8,11.2l6.8-11.2h11.1V162h-10.6v-15.8l-7.3,11.3h-0.2l-7.3-11.3
	V162h-10.4V130.1z M228.5,130.1h10.6v21.3h15V162h-25.6L228.5,130.1L228.5,130.1z"/>
<path class="st4" d="M185.7,274.8h25.8l-2.4,27.2l-23.3,6.3v21.8l42.9-11.9l0.3-3.5l4.9-55.1l0.5-5.6h-48.7V274.8L185.7,274.8z
	 M185.7,232.3L185.7,232.3l50.6,0l0.4-4.7l1-10.6l0.5-5.6h-52.5V232.3L185.7,232.3z"/>
</svg>
