<?xml version="1.0" encoding="utf-8"?>
<!-- Generator: Adobe Illustrator 24.2.3, SVG Export Plug-In . SVG Version: 6.00 Build 0)  -->
<svg version="1.1" id="Layer_1" xmlns="http://www.w3.org/2000/svg" xmlns:xlink="http://www.w3.org/1999/xlink" x="0px" y="0px"
	 viewBox="0 0 500 500" style="enable-background:new 0 0 500 500;" xml:space="preserve">
<style type="text/css">
	.st0{fill:#E2E2E2;}
	.st1{opacity:0.4;fill:#FFFFFF;enable-background:new    ;}
	.st2{fill:#E5E5E5;}
	.st3{opacity:0.7;fill:#E5E5E5;enable-background:new    ;}
	.st4{fill:none;stroke:#263238;stroke-width:1.5711;stroke-linejoin:round;}
	.st5{fill:#263238;}
	.st6{fill:#2BE0C1;}
	.st7{fill:#00BFA6;}
	.st8{opacity:0.2;enable-background:new    ;}
	.st9{fill:none;stroke:#263238;stroke-linejoin:round;}
	.st10{fill:none;stroke:#263238;stroke-width:0.8792;stroke-linecap:round;stroke-linejoin:round;}
	.st11{fill:#FFFFFF;stroke:#263238;stroke-width:0.8792;stroke-linejoin:round;}
	.st12{opacity:0.3;enable-background:new    ;}
	.st13{fill:#FFFFFF;}
	.st14{fill:none;stroke:#263238;stroke-linecap:round;stroke-linejoin:round;}
	.st15{fill:none;stroke:#FFFFFF;stroke-linecap:round;stroke-linejoin:round;}
	.st16{enable-background:new    ;}
</style>
<g id="freepik--background-simple--inject-14">
	<path class="st0" d="M288.4,392c0,0,77.9,3.6,127.1-84.4s-8.7-168.9-98.2-186.4S183.2,38.1,103.4,88.3S67.9,406.3,288.4,392z"/>
	<path class="st1" d="M270.4,410.9c0,0,77.9,3.6,127.1-84.4s-8.7-168.9-98.2-186.4S165.2,57,85.4,107.2S49.9,425.2,270.4,410.9z"/>
</g>
<g id="freepik--Shadow--inject-14">
	<ellipse class="st2" cx="250" cy="419.6" rx="187.6" ry="11.6"/>
	<ellipse class="st3" cx="250" cy="419.6" rx="187.6" ry="11.6"/>
</g>
<g id="freepik--Graphics--inject-14">
	<path class="st4" d="M291.1,113.2l-0.5,4.6l2.5,0.9c0,1.6,0.3,3.1,0.6,4.7l-2.1,1.6l1.8,4.3l2.6-0.5c0.8,1.3,1.8,2.6,2.9,3.7
		l-1.1,2.4l3.7,2.8l2-1.7c1.4,0.8,2.8,1.3,4.4,1.8l0.3,2.6l4.6,0.6l0.9-2.5c1.6,0,3.1-0.3,4.6-0.6l1.6,2.1l4.3-1.8l-0.5-2.6
		c1.3-0.8,2.6-1.8,3.7-2.9l2.4,1.1l2.8-3.7l-1.7-2c0.8-1.4,1.4-2.8,1.8-4.3l2.6-0.3l0.5-4.6l-2.5-0.9c0-1.6-0.2-3.1-0.6-4.6l2.2-1.6
		l-1.8-4.3l-2.6,0.5c-0.8-1.3-1.8-2.6-2.9-3.7l1.1-2.4l-3.7-2.7l-2,1.7c-1.4-0.7-2.8-1.3-4.3-1.8l-0.3-2.7l-4.6-0.5l-0.9,2.5
		c-1.6,0-3.1,0.3-4.6,0.7l-1.6-2.2l-4.3,1.8l0.5,2.6c-1.3,0.8-2.6,1.8-3.7,2.8l-2.4-1.1l-2.8,3.7l1.7,2c-0.8,1.4-1.3,2.8-1.8,4.3
		L291.1,113.2z M301.7,116.9c0.7-6.3,6.4-10.8,12.7-10c6.3,0.7,10.8,6.4,10,12.7c-0.7,6.3-6.4,10.8-12.7,10l0,0l0,0
		C305.4,128.9,301,123.2,301.7,116.9z"/>
	<path class="st5" d="M171.6,225.9l-0.5,4.1l2.3,0.8c0,1.4,0.2,2.8,0.6,4.2l-2,1.4l1.6,3.9l2.4-0.4c0.7,1.2,1.6,2.3,2.6,3.4l-1,2.2
		l3.4,2.5l1.8-1.6c1.2,0.7,2.6,1.2,3.9,1.6l0.3,2.4l4.1,0.5l0.8-2.3c1.4,0,2.8-0.2,4.2-0.6l1.4,1.9l3.8-1.6L201,246
		c1.2-0.7,2.3-1.6,3.4-2.6l2.2,1l2.5-3.3l-1.6-1.8c0.7-1.2,1.2-2.6,1.6-3.9l2.4-0.3l0.5-4.1l-2.3-0.8c0-1.4-0.2-2.8-0.6-4.2l2-1.4
		l-1.6-3.9l-2.4,0.4c-0.7-1.2-1.6-2.3-2.6-3.3l1-2.2l-3.4-2.5l-1.8,1.6c-1.2-0.7-2.6-1.2-3.9-1.6l-0.3-2.4l-4.1-0.5l-0.8,2.3
		c-1.4,0-2.8,0.2-4.2,0.6l-1.4-1.9l-3.9,1.6l0.4,2.4c-1.2,0.7-2.3,1.6-3.4,2.6l-2.2-1L174,220l1.6,1.8c-0.7,1.2-1.2,2.6-1.6,3.9
		L171.6,225.9z M181.2,229.3c0.7-5.7,5.8-9.8,11.5-9.1s9.8,5.8,9.1,11.5s-5.8,9.8-11.5,9.1l0,0C184.6,240.1,180.6,235,181.2,229.3z"
		/>
	<path class="st6" d="M383.1,327.8v-9.4l-5.3-1.2c-0.4-3.2-1.3-6.3-2.4-9.3l4-3.7l-4.7-8.2l-5.2,1.6c-2-2.5-4.2-4.8-6.7-6.8l1.6-5.2
		l-8.2-4.7l-3.6,3.9c-3-1.2-6.1-2-9.2-2.5l-1.2-5.3h-9.4l-1.2,5.3c-3.2,0.4-6.3,1.3-9.3,2.4l-3.7-4l-8.1,4.7l1.6,5.2
		c-2.5,2-4.8,4.2-6.8,6.7l-5.2-1.6l-4.7,8.1l3.9,3.7c-1.2,3-2,6.1-2.5,9.2l-5.3,1.2v9.4l5.3,1.2c0.5,3.2,1.3,6.3,2.4,9.3l-4,3.7
		l4.7,8.2l5.1-1.6c2,2.5,4.2,4.8,6.8,6.8l-1.6,5.2l8.2,4.7l3.6-4c3,1.2,6,2,9.2,2.5l1.2,5.3h9.4l1.2-5.3c3.2-0.5,6.3-1.3,9.3-2.5
		l3.7,4l8.2-4.7l-1.6-5.1c2.5-2,4.8-4.2,6.8-6.7l5.2,1.6l4.7-8.2l-4-3.7c1.2-3,2-6.1,2.5-9.2L383.1,327.8z M366.8,322.9
		c0,16.3-13.2,29.5-29.5,29.5s-29.5-13.2-29.5-29.5s13.2-29.5,29.5-29.5l0,0C353.6,293.4,366.8,306.6,366.8,322.9L366.8,322.9z"/>
	<rect x="195.3" y="94.2" class="st7" width="24.2" height="5.6"/>
	<rect x="195.3" y="102.2" class="st7" width="15.9" height="5.6"/>
	<rect x="195.3" y="110.3" class="st7" width="9.2" height="5.6"/>
	<rect x="195.3" y="94.2" class="st8" width="24.2" height="5.6"/>
	<rect x="195.3" y="102.2" class="st8" width="15.9" height="5.6"/>
	<rect x="195.3" y="110.3" class="st8" width="9.2" height="5.6"/>
	<rect x="153.3" y="156.1" class="st7" width="8.2" height="16.8"/>
	<rect x="165.1" y="161.9" class="st7" width="8.2" height="11.1"/>
	<rect x="177" y="166.6" class="st7" width="8.2" height="6.4"/>
	<rect x="153.3" y="156.1" class="st8" width="8.2" height="16.8"/>
	<rect x="165.1" y="161.9" class="st8" width="8.2" height="11.1"/>
	<rect x="177" y="166.6" class="st8" width="8.2" height="6.4"/>
	<path class="st5" d="M250.9,185.7h-99.5c-5.7,0-10.4-4.6-10.4-10.4l0,0V93.1c0-5.7,4.7-10.4,10.4-10.4h99.5
		c5.7,0,10.4,4.6,10.4,10.4v82.2C261.3,181,256.7,185.7,250.9,185.7z M151.4,83.7c-5.2,0-9.5,4.2-9.5,9.5v82.2
		c0,5.2,4.2,9.5,9.5,9.5h99.5c5.2,0,9.5-4.2,9.5-9.5V93.1c0-5.2-4.2-9.5-9.5-9.5L151.4,83.7z"/>
	<rect x="214.2" y="156.5" class="st5" width="35.5" height="0.9"/>
	<rect x="214.2" y="160.3" class="st5" width="35.5" height="0.9"/>
	<rect x="214.2" y="164.1" class="st5" width="35.5" height="0.9"/>
	<rect x="214.2" y="167.9" class="st5" width="35.5" height="0.9"/>
	<rect x="214.2" y="171.7" class="st5" width="35.5" height="0.9"/>
	<rect x="152.2" y="94.5" class="st5" width="35.5" height="0.9"/>
	<rect x="152.2" y="98.3" class="st5" width="35.5" height="0.9"/>
	<rect x="152.2" y="102.1" class="st5" width="35.5" height="0.9"/>
	<rect x="152.2" y="105.9" class="st5" width="35.5" height="0.9"/>
	<rect x="152.2" y="109.7" class="st5" width="35.5" height="0.9"/>
	<path class="st5" d="M242.6,125.2l6.4,3.3l-0.7-17.9l-15.2,9.6l6.4,3.3l-4.8,9.1l0,0c-0.8,0-1.7,0.3-2.3,0.8l-8.4-3.9v-0.1
		c0.1-2.1-1.6-3.9-3.7-4c-2.1-0.1-3.9,1.5-4,3.6l0,0c0,0.1,0,0.3,0,0.4c0,0.6,0.1,1.1,0.4,1.6l-11,12c-0.4-0.1-0.7-0.2-1.1-0.2
		c-0.2,0-0.4,0-0.6,0.1l-16-20c0.8-2-0.2-4.2-2.2-5c-1.9-0.7-4,0.1-4.9,1.9c-0.2,0.5-0.3,1-0.3,1.5c0,0.4,0.1,0.8,0.2,1.2l-18,18.5
		c-2-0.7-4.2,0.3-5,2.3s0.3,4.2,2.3,5c2,0.7,4.2-0.3,4.9-2.3l0,0c0.2-0.4,0.2-0.9,0.2-1.3c0-0.3,0-0.6-0.1-0.9l18.3-18.7
		c0.4,0.1,0.7,0.2,1.1,0.2c0.2,0,0.5,0,0.7-0.1l15.8,20c-1,1.9-0.3,4.3,1.6,5.3c1.9,1,4.3,0.3,5.3-1.6c0.3-0.5,0.4-1.1,0.5-1.6
		c0-0.1,0-0.3,0-0.4c0-0.4-0.1-0.8-0.2-1.2l11.3-12.3c0.2,0,0.4,0.1,0.6,0.1c0.8,0,1.5-0.2,2.2-0.7l8.6,4c0.1,2.1,1.9,3.8,4,3.7
		s3.8-1.9,3.7-4v-0.1c0-0.7-0.3-1.4-0.7-2L242.6,125.2z"/>
	<g id="freepik--chart-1--inject-2--inject-14">
		<path class="st9" d="M251.2,196.3c-3.3,0-5.9,2.6-5.9,5.9v51.2c0,3.3,2.6,5.9,5.9,5.9h62c3.3,0,5.9-2.6,5.9-5.9v-51.2
			c0-3.3-2.6-5.9-5.9-5.9H251.2z"/>
		<rect x="250.2" y="203.3" class="st5" width="4.7" height="0.6"/>
		<rect x="250.2" y="208.4" class="st5" width="4.7" height="0.6"/>
		<rect x="250.2" y="213.5" class="st5" width="4.7" height="0.6"/>
		<rect x="250.2" y="218.7" class="st5" width="4.7" height="0.6"/>
		<rect x="250" y="208.4" class="st5" width="4.7" height="0.6"/>
		<rect x="250.2" y="223.8" class="st5" width="4.7" height="0.6"/>
	</g>
	<path class="st7" d="M285.8,251.6c12.5,0.3,22.8-9.6,23.1-22.1c0.3-12.5-9.6-22.8-22.1-23.1s-22.8,9.6-23.1,22.1c0,0,0,0,0,0.1
		C263.4,241.1,273.3,251.4,285.8,251.6z M286.6,213.1c8.8,0.2,15.9,7.5,15.7,16.3c-0.2,8.8-7.5,15.9-16.3,15.7s-15.9-7.5-15.7-16.3
		l0,0C270.4,219.9,277.7,212.9,286.6,213.1L286.6,213.1z"/>
	<path class="st8" d="M285.8,251.6c12.5,0.3,22.8-9.6,23.1-22.1c0.3-12.5-9.6-22.8-22.1-23.1s-22.8,9.6-23.1,22.1c0,0,0,0,0,0.1
		C263.4,241.1,273.3,251.4,285.8,251.6z M286.6,213.1c8.8,0.2,15.9,7.5,15.7,16.3c-0.2,8.8-7.5,15.9-16.3,15.7s-15.9-7.5-15.7-16.3
		l0,0C270.4,219.9,277.7,212.9,286.6,213.1L286.6,213.1z"/>
	<path class="st5" d="M270,245.2c8.9,9,23.5,9.1,32.5,0.1l0,0c0.2-0.2,0.2-0.5,0-0.6l-4.7-4.7c-0.1-0.1-0.2-0.1-0.3-0.1
		c-0.1,0-0.2,0.1-0.3,0.1c-3,3-7.1,4.6-11.3,4.5h-1.1c-3.4-0.2-6.6-1.5-9.2-3.7c-0.2-0.2-0.5-0.4-0.7-0.6c-5.4-5.4-6.2-14-1.8-20.3
		v-0.1c0.1-0.1,0.2-0.3,0.3-0.4c3.1-4,8-6.1,13-5.9c0.2,0,0.5-0.2,0.5-0.4l0,0l0,0l0.1-6.6c0-0.3-0.2-0.5-0.4-0.5l0,0
		c-12.7-0.2-23.2,9.9-23.4,22.6C263.2,234.8,265.6,240.8,270,245.2z"/>
	<path class="st5" d="M286.7,206c13,0,23.5,10.6,23.5,23.5c0,13-10.6,23.5-23.5,23.5s-23.5-10.6-23.5-23.5
		C263.2,216.5,273.7,206,286.7,206L286.7,206z M285.8,251.2c12.2,0.3,22.3-9.5,22.6-21.7c0.3-12.2-9.5-22.3-21.7-22.6
		s-22.3,9.5-22.6,21.7l0,0l0,0C263.8,240.8,273.5,250.9,285.8,251.2L285.8,251.2z M286.6,212.6c9.1,0.2,16.3,7.7,16.1,16.8
		c-0.2,9.1-7.7,16.3-16.8,16.1c-9.1-0.2-16.3-7.7-16.1-16.8l0,0C270,219.6,277.5,212.4,286.6,212.6z M285.9,244.5
		c8.6,0.2,15.6-6.6,15.8-15.2c0.2-8.6-6.6-15.6-15.2-15.8s-15.6,6.6-15.8,15.2l0,0l0,0C270.6,237.3,277.4,244.4,285.9,244.5
		L285.9,244.5z"/>
	<line class="st10" x1="169.7" y1="278.1" x2="169.7" y2="338.8"/>
	<rect x="174.3" y="301" class="st5" width="5.1" height="34.7"/>
	<rect x="181.6" y="315.2" class="st7" width="5.1" height="20.5"/>
	<rect x="190.3" y="289.8" class="st11" width="5.1" height="46"/>
	<rect x="204.6" y="283.2" class="st5" width="5.1" height="52.6"/>
	<rect x="212" y="322.7" class="st7" width="5.1" height="13"/>
	<rect x="220.7" y="304.7" class="st11" width="5.1" height="31"/>
	<rect x="241.6" y="309.5" class="st5" width="5.1" height="26.3"/>
	<rect x="249" y="289" class="st7" width="5.1" height="46.7"/>
	<rect x="257.7" y="299.4" class="st11" width="5.1" height="36.4"/>
	<line class="st10" x1="164.1" y1="327.7" x2="167" y2="327.7"/>
	<line class="st10" x1="164.1" y1="320.2" x2="167" y2="320.2"/>
	<line class="st10" x1="164.1" y1="312.7" x2="167" y2="312.7"/>
	<line class="st10" x1="164.1" y1="305.3" x2="167" y2="305.3"/>
	<line class="st10" x1="164.1" y1="297.8" x2="167" y2="297.8"/>
	<line class="st10" x1="164.1" y1="290.3" x2="167" y2="290.3"/>
	<line class="st10" x1="164.1" y1="282.8" x2="167" y2="282.8"/>
	<line class="st10" x1="166.3" y1="335.8" x2="266.4" y2="335.8"/>
	<rect x="181.6" y="315.2" class="st12" width="5.1" height="20.5"/>
	<rect x="212" y="322.7" class="st12" width="5.1" height="13"/>
	<rect x="249" y="289" class="st12" width="5.1" height="46.7"/>
	<path class="st9" d="M160.1,269.7c-3.6,0-6.5,2.9-6.5,6.5v59.5c0,3.6,2.9,6.5,6.5,6.5h110.4c3.6,0,6.5-2.9,6.5-6.5v-59.5
		c0-3.6-2.9-6.5-6.5-6.5H160.1z"/>
</g>
<g id="freepik--character-1--inject-14">
	<path class="st13" d="M72.7,402.7c0,0,2.3,15.4-3.3,17s-9.5-0.5-10.2-2.8s4.3-18.8,4.3-18.8L72.7,402.7z"/>
	<path class="st13" d="M169.9,406.1l24.3,5.8c0,0,1.8,1,1.6,2.6s-11.3,5.9-14.4,6.4s-21.1,2.9-23.6,0.7s2.8-19.6,2.8-19.6
		L169.9,406.1z"/>
	<path class="st13" d="M125.9,124.9c0,0,3.4,5.2,3.5,7.8s-0.3,5.6,1.3,7.1s2.8,3.2,2.2,4s-1.9,2.3-1.9,2.3s1.6,8.8-0.5,10.4
		s-8.6,0-8.6,0v5.7c0,0-9.1-3-15.4-2.4l-1.1-12.2C105.3,147.6,119,121.2,125.9,124.9z"/>
	<path class="st13" d="M182.1,160.9c0,0-0.8-6.2,2.2-10c0,0-3.6-0.6-3.2-1.9s6,0.4,6,0.4l-1.5-3c0,0-5.3-1.7-4.6-3.4
		s8.4,2.4,8.4,2.4s-4.6-3.8-3.9-5.4s5.3-1.6,7.8,6.7l1.3-1.6c0,0,0.4-9.4,1.7-9.9c0,0,2,1.1,2,6.5c0,0,2,2.4,0.7,4.4
		s-4.3,6.6-6.8,8.4s-2.5,8.4-2.5,8.4L182.1,160.9z"/>
	<path class="st13" d="M101.6,109.6l1.2-1.5c0,0,12.9-5.7,12.6-7.5s-7.6,0.7-9-0.3c0,0,1.3-16.9,0-17.5s-2.8,7.9-2.8,7.9
		s-1.9-8.7-3.3-8.5s-0.8,9-0.8,9s-2.8-5.6-3.8-5.1s0.5,7.4,0.5,7.4s-2-2.3-2.8-1.6c0.3,3.5,1.2,7,2.8,10.1l-2.8,4.7L101.6,109.6z"/>
	<path class="st7" d="M180.7,160.9l8.9,1.2c0,0-6.5,55-8.4,61.8s-3.6,11.7-10.1,12s-29.8-19.2-29.8-19.2l-1.1,27l1.5,11.2
		c0,0-28.4,14.9-57.3,1.9l0.7-13.1l-10.4-60.1l-8.2-28.5L92.9,105l9.6,5l-16.9,45.6l4.7,15.2l5.3-2.1l5.8-7.5c0,0,9.9-5.1,22.5,2
		l2,6.3c0,0,14.7,1.1,39.6,35.6L180.7,160.9z"/>
	<path class="st8" d="M117.3,160.9l1.1,7.7c0,0,8.3,5.5,11.6,7.4c0,0,8.1,51.3,2.1,61.4l-6.3,9.9c0,0,6.5,0,9.4-4.5
		c0,0-3.7,12.4-13.3,15.7c0,0,14.8-1.5,19.9-3.5l-1.5-11.2l2.4-62.4c0,0,2.3-4.2-16.8-11.7l-2.8-6.8L117.3,160.9z"/>
	<path class="st14" d="M125.9,125.6c0,0,3.1,4.5,3.5,7.1s-0.7,5.3,1.3,7.1s3,3,2.2,4s-1.9,2.3-1.9,2.3s0.8,8.6-0.5,10.4
		s-8.6,0-8.6,0v5.7"/>
	<path class="st14" d="M121.9,145.7c0,0-2.9-7.5-5.1-5.7s-0.2,11.7,5.1,9.5"/>
	<path class="st5" d="M121.1,144c0,0,3.4-0.3,1.3-8.4s2.5-7,7.6-9.3c5.1-2.3,6.3-6.5,5.2-9.1s-2.9-3.9-9.3-2.7c0,0-7-8.1-13.8,0.8
		c0,0-15.2-0.2-19.3,7c-4.1,7.2,1.3,25.7,9.3,31.9s15.8,1.2,17.4-4.6c0,0-5.4-2.9-2.7-9.7C116.8,140.1,119.3,139.2,121.1,144z"/>
	<path class="st14" d="M73.9,179.1c0,0,36.8-26.7,68.9,0l-2.6,64.6l1.5,11.2c0,0-27.1,12.7-57.3,1.9l0.7-13.1L73.9,179.1z"/>
	<path class="st14" d="M95.1,169.4l6.3-8.1c0,0,12.4-4.3,22.5,2l2,6.3"/>
	<line class="st14" x1="142.8" y1="179.1" x2="174.9" y2="216"/>
	<path class="st14" d="M141.3,216c0,0,21.3,19.8,29.7,20s9.9-10,9.9-10l8.7-63.8l-8.9-1.2l-15.3,44.2"/>
	<path class="st14" d="M189.4,162c0,0,1.1-7.2,4-8.9s6.3-8,5.2-9.8s-4.5,4.1-7.5,5.3s-5.5,6.7-5.9,9.2"/>
	<path class="st14" d="M197.7,143.1c0,0,0-8.3-1.5-7.9s-1.7,10.9-1.7,10.9"/>
	<path class="st14" d="M193.3,147.1c0,0-1-4.7-3.8-6.9s-4.5-1.1-4.2-0.3s5,7,4.9,9.1"/>
	<path class="st14" d="M188.6,144.8c0,0-7.6-3.5-7.6-1.4s4.6,2.9,4.6,2.9l1.5,3c0,0-6.4-2-6-0.4s3.2,1.9,3.2,1.9s-3.1,3.1-2.2,10"/>
	<path class="st5" d="M137.3,255.7l1.9,13.5c0,0,17.8,53.3,20.5,63.7s4.3,34,5,44.8s7,29,7,29s-0.8,7.3-13.9,6.2
		c0,0-5.4-21.6-11.2-34.4s-6.6-32.1-6.6-32.1l-28.2-51.8c0,0-5.8,30.1-9.7,41.3c-4,11.5-31.3,75.6-29.4,71.1c0,0-3.9,2.3-12-3.5
		c0,0,5.8-19.3,7.3-29.7s9.7-34.4,9.7-34.4s1.9-45.2,5-59.1c0,0-2-15.3,2.3-26.1C102,259.8,120.1,260.3,137.3,255.7z"/>
	<polyline class="st15" points="96.3,285.6 109,289.3 110.8,293.8 	"/>
	<path class="st14" d="M158.1,411.3c0,0-1.7,8.6-0.3,10.3c0.7,0.9,2.9,0.8,4,0.8c2.4,0,4.9-0.1,7.3-0.3c4.9-0.3,9.9-0.3,14.6-1.8
		c4-1.2,7.8-2.9,11.3-5.1c1.9-1.3,0-3.4,0-3.4l-23.3-5.2"/>
	<path class="st14" d="M158,418.6c0,0,26.1,4.3,37-6.7"/>
	<path class="st14" d="M61.8,402.7c0,0-3,10.3-2.6,13.5s3.7,4,7.5,3.9c3.8-0.1,5.4-1.8,5.9-4.4s0-10.9,0-10.9"/>
	<line class="st14" x1="59.2" y1="414.7" x2="72.7" y2="415.8"/>
	<path class="st14" d="M94.3,105.3c1.1-2.1,1.8-3.3,1.8-3.3s-3.7-9-2.8-10.1s3.1,2,3.1,2s-2.2-7.1-0.8-7.7s3.9,6,3.9,6
		s-0.7-9.6,0.8-10s3.2,9.1,3.2,9.1s1.9-8.5,3-8.6s0,17.5,0,17.5c2.3,1.1,9.1-1.6,9,0.6s-13,7.4-13,7.4c-0.2,0.3-0.4,0.6-0.6,0.9"/>
	<polyline class="st14" points="73.9,179.1 66.5,155.1 92.9,105 102.5,110 85.6,155.6 90.3,170.9 	"/>
	<path class="st14" d="M74.7,151.3c0,0,9.5-0.1,10.8,4.3c-4.2-0.2-8.3,0.9-11.7,3.2"/>
	<line class="st14" x1="106" y1="160.3" x2="106" y2="153.3"/>
	<path class="st8" d="M142.6,198.4l2.4,15.8c0,0,1.9-10.3,3.1-10.3s0,12.1,0,12.1s19.9,18,28.5,18.1c0,0-4.8,3.4-9.6,0.9
		s-25.8-19-25.8-19L142.6,198.4z"/>
	<path class="st8" d="M100.8,109.2l-18.2,44.2c0,0-6.3-0.1-8.7,5.6l9.7-1.7l3.3,15l3.4-1.3l-4.7-15.2l16.9-45.6L100.8,109.2z"/>
</g>
<g class="st16">
	<path d="M286.7,171.4h-2.2l-6.1-7.7l-3.4,3.4v4.2h-1.8v-15.8h1.8v9.4l9.1-9.4h2.3l-6.8,6.9L286.7,171.4z"/>
	<path d="M290,167.8c0.2,0.5,0.5,0.9,0.9,1.2s0.8,0.6,1.3,0.8c0.5,0.2,1,0.3,1.5,0.3c0.8,0,1.5-0.2,2.1-0.5c0.6-0.3,1.1-0.7,1.6-1.2
		l1.1,1c-0.6,0.7-1.3,1.2-2,1.6c-0.8,0.4-1.7,0.6-2.8,0.6c-0.8,0-1.6-0.1-2.3-0.4c-0.7-0.3-1.3-0.7-1.9-1.2c-0.5-0.5-1-1.2-1.3-1.9
		c-0.3-0.8-0.5-1.6-0.5-2.5c0-0.8,0.1-1.6,0.4-2.4c0.3-0.7,0.7-1.4,1.2-1.9c0.5-0.5,1.1-1,1.8-1.3c0.7-0.3,1.4-0.5,2.2-0.5
		c0.9,0,1.6,0.2,2.3,0.5c0.7,0.3,1.2,0.8,1.7,1.3c0.5,0.6,0.8,1.2,1.1,2c0.2,0.8,0.4,1.6,0.4,2.4c0,0.1,0,0.2,0,0.2
		c0,0.1,0,0.2,0,0.3h-9.2C289.6,166.8,289.8,167.4,290,167.8z M297,164.9c0-0.5-0.2-1-0.3-1.5s-0.4-0.9-0.7-1.3s-0.7-0.7-1.1-0.9
		c-0.4-0.2-1-0.3-1.5-0.3c-0.5,0-1,0.1-1.4,0.3s-0.8,0.5-1.1,0.8s-0.6,0.8-0.8,1.3c-0.2,0.5-0.3,1-0.4,1.6H297z"/>
	<path d="M307,171.7c-0.5,1.2-1,2.1-1.7,2.6c-0.6,0.5-1.4,0.7-2.2,0.7c-0.5,0-0.9,0-1.3-0.1c-0.4-0.1-0.8-0.2-1.2-0.4l0.6-1.4
		c0.3,0.1,0.6,0.3,0.8,0.3c0.3,0.1,0.6,0.1,1,0.1c0.5,0,1-0.2,1.3-0.5c0.4-0.3,0.7-0.9,1.1-1.7l-5.3-11.6h1.9l4.2,9.7l3.7-9.7h1.9
		L307,171.7z"/>
	<path d="M326.1,169l3.1-9.4h1.8l-4.1,11.8h-1.5l-3.1-9.2l-3.2,9.2h-1.5l-4.1-11.8h1.9l3.1,9.4l3.1-9.4h1.4L326.1,169z"/>
	<path d="M344.3,167.9c-0.3,0.7-0.7,1.4-1.3,2c-0.5,0.6-1.2,1-1.9,1.3c-0.8,0.3-1.6,0.5-2.4,0.5c-0.9,0-1.7-0.2-2.4-0.5
		c-0.7-0.3-1.4-0.8-1.9-1.3c-0.5-0.5-1-1.2-1.3-1.9c-0.3-0.7-0.5-1.5-0.5-2.3c0-0.8,0.2-1.6,0.5-2.4c0.3-0.7,0.7-1.4,1.3-2
		c0.5-0.6,1.2-1,1.9-1.3c0.7-0.3,1.6-0.5,2.4-0.5c0.9,0,1.7,0.2,2.4,0.5c0.7,0.3,1.4,0.8,1.9,1.3c0.5,0.5,1,1.2,1.3,1.9
		c0.3,0.7,0.5,1.5,0.5,2.3S344.6,167.1,344.3,167.9z M342.6,163.8c-0.2-0.6-0.5-1-0.9-1.5c-0.4-0.4-0.9-0.7-1.4-1s-1.1-0.4-1.7-0.4
		c-0.6,0-1.2,0.1-1.7,0.3c-0.5,0.2-1,0.6-1.3,1c-0.4,0.4-0.7,0.9-0.9,1.4c-0.2,0.5-0.3,1.1-0.3,1.8c0,0.6,0.1,1.2,0.3,1.8
		c0.2,0.6,0.5,1,0.9,1.4s0.8,0.7,1.4,1s1.1,0.4,1.7,0.4c0.6,0,1.2-0.1,1.7-0.3c0.5-0.2,1-0.6,1.4-1s0.7-0.9,0.9-1.4
		c0.2-0.5,0.3-1.1,0.3-1.8C343,164.9,342.8,164.3,342.6,163.8z"/>
	<path d="M349.6,171.4h-1.7v-11.7h1.7v3c0.2-0.5,0.5-0.9,0.8-1.3c0.3-0.4,0.7-0.8,1.1-1c0.4-0.3,0.8-0.5,1.3-0.7s1-0.2,1.6-0.2v1.9
		h-0.1c-0.6,0-1.2,0.1-1.8,0.3s-1.1,0.6-1.5,1c-0.4,0.5-0.8,1-1,1.7c-0.2,0.7-0.4,1.4-0.4,2.3V171.4z"/>
	<path d="M365.9,171.4V169c-0.2,0.3-0.5,0.7-0.8,1c-0.3,0.3-0.6,0.6-1,0.8c-0.4,0.2-0.8,0.4-1.2,0.6c-0.4,0.1-0.9,0.2-1.5,0.2
		c-0.7,0-1.4-0.1-2.1-0.4c-0.7-0.3-1.3-0.7-1.8-1.2c-0.5-0.5-0.9-1.2-1.3-1.9c-0.3-0.8-0.5-1.6-0.5-2.6s0.2-1.8,0.5-2.6
		c0.3-0.8,0.7-1.4,1.3-1.9s1.1-0.9,1.8-1.2s1.3-0.4,2.1-0.4c0.5,0,1,0.1,1.5,0.2c0.5,0.1,0.9,0.3,1.2,0.5s0.7,0.5,1,0.8
		c0.3,0.3,0.6,0.6,0.8,0.9v-7h1.7v16.5H365.9z M365.6,163.7c-0.2-0.6-0.5-1-0.9-1.4c-0.4-0.4-0.9-0.7-1.4-0.9s-1-0.3-1.6-0.3
		c-0.6,0-1.1,0.1-1.6,0.3s-0.9,0.5-1.3,0.9c-0.4,0.4-0.7,0.9-0.9,1.4c-0.2,0.6-0.3,1.2-0.3,1.9c0,0.7,0.1,1.3,0.3,1.9
		c0.2,0.6,0.5,1,0.9,1.4c0.4,0.4,0.8,0.7,1.3,0.9c0.5,0.2,1,0.3,1.6,0.3c0.5,0,1.1-0.1,1.6-0.3s1-0.5,1.4-0.9
		c0.4-0.4,0.7-0.9,0.9-1.4s0.3-1.2,0.3-1.9S365.9,164.2,365.6,163.7z"/>
	<path d="M379.2,169.6c-0.2,0.4-0.5,0.8-0.9,1.1c-0.4,0.3-0.8,0.5-1.3,0.7c-0.5,0.2-1,0.2-1.6,0.2c-0.8,0-1.7-0.2-2.6-0.5
		c-0.9-0.3-1.6-0.7-2.3-1.3l0.9-1.2c0.6,0.5,1.3,0.9,2,1.1c0.7,0.3,1.4,0.4,2.1,0.4c0.7,0,1.3-0.2,1.7-0.5c0.5-0.3,0.7-0.8,0.7-1.4
		v0c0-0.3-0.1-0.5-0.2-0.7s-0.4-0.4-0.6-0.6c-0.3-0.2-0.6-0.3-0.9-0.4s-0.7-0.2-1.1-0.3c-0.5-0.1-0.9-0.3-1.4-0.4
		c-0.5-0.2-0.9-0.4-1.2-0.6c-0.4-0.2-0.7-0.5-0.9-0.9c-0.2-0.4-0.4-0.8-0.4-1.4v0c0-0.5,0.1-1,0.3-1.4c0.2-0.4,0.5-0.8,0.8-1.1
		c0.4-0.3,0.8-0.5,1.3-0.7c0.5-0.2,1-0.2,1.6-0.2c0.7,0,1.5,0.1,2.2,0.3s1.4,0.5,2,0.9l-0.8,1.3c-0.5-0.3-1.1-0.6-1.7-0.8
		c-0.6-0.2-1.2-0.3-1.8-0.3c-0.7,0-1.2,0.2-1.6,0.5s-0.6,0.7-0.6,1.2v0c0,0.3,0.1,0.5,0.2,0.7c0.2,0.2,0.4,0.4,0.7,0.5
		s0.6,0.3,1,0.4c0.4,0.1,0.7,0.2,1.1,0.4c0.5,0.1,0.9,0.3,1.3,0.5c0.4,0.2,0.8,0.4,1.2,0.6s0.7,0.6,0.9,0.9c0.2,0.4,0.3,0.8,0.3,1.3
		v0C379.5,168.6,379.4,169.1,379.2,169.6z"/>
</g>
<g id="freepik--Number--inject-10">
	<path class="st7" d="M383.6,116.7h5.7v4.8H383l-0.9,7h-5l0.9-7h-6.5l-0.9,7h-4.9l0.9-7h-5.8v-4.8h6.3l0.9-7.1h-5.8v-4.8h6.3l0.9-7
		h4.9l-0.9,7h6.5l0.9-7h4.9l-0.9,7h5.7v4.8h-6.3L383.6,116.7z M378.6,116.7l0.9-7.1h-6.4l-1,7.1H378.6z"/>
	<path class="st7" d="M405.3,97.7v30.8h-7.2v-25.1h-6.2v-5.7C391.9,97.7,405.3,97.7,405.3,97.7z"/>
</g>
</svg>
