<?xml version="1.0" encoding="utf-8"?>
<!-- Generator: Adobe Illustrator 24.2.3, SVG Export Plug-In . SVG Version: 6.00 Build 0)  -->
<svg version="1.1" id="Layer_1" xmlns="http://www.w3.org/2000/svg" xmlns:xlink="http://www.w3.org/1999/xlink" x="0px" y="0px"
	 viewBox="0 0 500 500" style="enable-background:new 0 0 500 500;" xml:space="preserve">
<style type="text/css">
	.st0{fill:#00BFA6;}
	.st1{opacity:0.9;fill:#FFFFFF;enable-background:new    ;}
	.st2{fill:#F5F5F5;}
	.st3{fill:#263238;}
	.st4{opacity:0.2;fill:#FFFFFF;enable-background:new    ;}
	.st5{opacity:0.3;enable-background:new    ;}
	.st6{opacity:0.6;fill:#FFFFFF;enable-background:new    ;}
	.st7{opacity:0.2;}
	.st8{fill:#FFFFFF;}
	.st9{opacity:0.5;fill:#FFFFFF;enable-background:new    ;}
	.st10{opacity:0.1;}
	.st11{opacity:0.2;enable-background:new    ;}
	.st12{opacity:0.8;fill:#FFFFFF;enable-background:new    ;}
	.st13{opacity:0.4;fill:#FFFFFF;enable-background:new    ;}
	.st14{opacity:0.1;fill:#FFFFFF;enable-background:new    ;}
	.st15{opacity:0.7;}
	.st16{fill:#FAB27B;}
	.st17{opacity:0.4;enable-background:new    ;}
	.st18{opacity:0.1;enable-background:new    ;}
	.st19{fill:#ED893E;}
	.st20{opacity:0.7;fill:#FFFFFF;enable-background:new    ;}
	.st21{opacity:0.3;fill:#FFFFFF;enable-background:new    ;}
</style>
<g id="freepik--background-simple--inject-10">
	<path class="st0" d="M228.4,175.8c-17.9,3.3-49.3-23.5-65.6-31.6c-41.1-20.6-95.8-13.6-105.1,48.3C45,277,147.5,395.9,285.6,380.7
		c69.8-7.6,136.7-57.6,153.1-131.8c29.8-134.8-96.9-167.9-144.6-143C249.6,129.1,252.1,171.4,228.4,175.8z"/>
	<path class="st1" d="M228.4,175.8c-17.9,3.3-49.3-23.5-65.6-31.6c-41.1-20.6-95.8-13.6-105.1,48.3C45,277,147.5,395.9,285.6,380.7
		c69.8-7.6,136.7-57.6,153.1-131.8c29.8-134.8-96.9-167.9-144.6-143C249.6,129.1,252.1,171.4,228.4,175.8z"/>
</g>
<g id="freepik--Shadow--inject-10">
	<ellipse id="freepik--path--inject-10" class="st2" cx="245.2" cy="412.4" rx="193.9" ry="11.3"/>
</g>
<path class="st3" d="M179.7,402.4l-0.2,2.3c0,0.3,0,0.6,0.1,0.8l0,0c0,0.1,0.1,0.2,0.2,0.4c0.1,0.1,0.2,0.2,0.2,0.3
	c0.1,0.1,0.2,0.2,0.3,0.3c0.3,0.2,0.7,0.4,1.2,0.4h82.4c0.2,0,0.4,0,0.6-0.1c0.1,0,0.3-0.1,0.4-0.1c0.4-0.2,0.8-0.6,1-1
	c0.1-0.2,0.2-0.5,0.2-0.8l0.2-2.2c0-0.3,0-0.5-0.1-0.8c0-0.1-0.1-0.2-0.1-0.3c-0.2-0.3-0.4-0.5-0.6-0.6c-0.1-0.1-0.2-0.1-0.4-0.2
	c-0.2-0.1-0.4-0.1-0.6-0.1H244c-0.3,0-0.5,0-0.8-0.1l0,0l-0.3-0.1l0,0l0,0c-0.1,0-0.2-0.1-0.3-0.1s-0.2-0.1-0.3-0.1
	c-0.1-0.1-0.3-0.2-0.4-0.3c-0.2-0.1-0.3-0.3-0.4-0.4c-0.1-0.1-0.1-0.2-0.2-0.3l-0.1-0.2L241,399l0,0c-0.1-0.1-0.1-0.2-0.1-0.3
	l-0.1-0.3c0,0,0,0,0-0.1c0,0,0,0,0-0.1l0,0c0-0.1,0-0.2-0.1-0.2c0-0.1,0-0.2,0-0.3l0,0c0-0.1,0-0.2,0-0.3s0-0.2,0-0.3V397
	c0-0.1,0-0.2,0-0.3c0-0.1,0.1-0.2,0.1-0.3l0,0l8.1-30.9l1.6-5.9l1.2-4.6h-46.8l-2.5,4.6l-3.2,5.9L181,399.2
	c-0.1,0.1-0.1,0.2-0.2,0.4l0,0l-0.2,0.4c-0.1,0.1-0.1,0.3-0.2,0.4l-0.1,0.3C180,401.2,179.8,401.8,179.7,402.4z"/>
<path class="st4" d="M266.2,402.7l-0.2,2.2c-0.1,1.1-1,2-2.2,2h-82.4c-1.1,0-2-0.9-2-2c0-0.1,0-0.1,0-0.2l0.2-2.3
	c0.1-0.6,0.2-1.2,0.4-1.8c0.2-0.5,0.4-1,0.6-1.5l23.9-44.3h46.8l-10.8,41.5c-0.1,0.2-0.1,0.5-0.1,0.7c-0.1,1.7,1,3.2,2.7,3.6
	c0.3,0.1,0.5,0.1,0.8,0.1h20.5c1,0,1.8,0.8,1.8,1.7C266.2,402.5,266.2,402.6,266.2,402.7z"/>
<path class="st3" d="M178,399.1l23.9-44.3h2.6l-23.9,44.3c-0.6,1-0.9,2.1-1,3.3l-0.2,2.3c-0.1,1.1,0.7,2,1.7,2.1c0.1,0,0.2,0,0.3,0
	h-2.6c-1.1,0-2-0.8-2-1.9c0-0.1,0-0.2,0-0.3l0.2-2.3C177.1,401.3,177.4,400.1,178,399.1z"/>
<polygon class="st5" points="204.6,354.8 251.4,354.8 248.6,365.4 198.9,365.4 "/>
<path class="st3" d="M125.2,207.9v144.3c0,4,3.3,7.3,7.3,7.3l0,0h199.7c4,0,7.3-3.3,7.3-7.3l0,0V207.9c0-4-3.3-7.3-7.3-7.3l0,0
	H132.5c-1.6,0-3.2,0.5-4.4,1.5c-0.2,0.1-0.3,0.3-0.5,0.4c-0.5,0.4-0.9,1-1.3,1.5c-0.2,0.4-0.4,0.8-0.6,1.2
	C125.4,206.1,125.2,207,125.2,207.9z"/>
<path class="st0" d="M339.4,336.5v15.6c0,4-3.3,7.3-7.3,7.3H132.5c-4,0-7.3-3.3-7.3-7.3v-15.6H339.4z"/>
<path class="st6" d="M339.4,336.5v15.6c0,4-3.3,7.3-7.3,7.3H132.5c-4,0-7.3-3.3-7.3-7.3v-15.6H339.4z"/>
<path class="st0" d="M132.6,332.1H332c2.2,0,4-1.8,4-4V209c0-2.2-1.8-4-4-4H132.6c-2.2,0-4,1.8-4,4v119.2
	C128.6,330.4,130.4,332.1,132.6,332.1z"/>
<path class="st3" d="M128.1,200.6h4.4c-4,0-7.3,3.3-7.3,7.3l0,0v144.3c0,4,3.3,7.3,7.3,7.3h-4.4c-4,0-7.3-3.3-7.3-7.3V207.9
	C120.8,203.8,124,200.6,128.1,200.6L128.1,200.6z"/>
<g class="st7">
	<path class="st8" d="M128.1,200.6h4.4c-4,0-7.3,3.3-7.3,7.3l0,0v144.3c0,4,3.3,7.3,7.3,7.3h-4.4c-4,0-7.3-3.3-7.3-7.3V207.9
		C120.8,203.8,124,200.6,128.1,200.6L128.1,200.6z"/>
</g>
<path class="st9" d="M337.2,280.9c-5.1-1-13.3,2.3-14.8,7.3c0.3-3.1-1.2-6.2-3.9-7.8c-2.6-1.5-6.1-2.6-8.6-0.8
	c2.4-10-1.1-20.5-9.1-27.1c-7.8-6.3-19.2-7-28.3-2.6c4.9-9.5,1.2-21.2-8.2-26.1c-1-0.5-2-0.9-3.1-1.3c-12.6-4.4-26-5.6-39.1-3.7
	c-7.6,1.1-15.4,3.5-20.9,8.8s-7,15-3.3,21.7c-8.7-2.8-18.3-0.6-24.9,5.9c-6.3,6.6-8.4,16.2-5.4,24.8c-2.4-1.4-5.4-1.5-7.9-0.3
	s-4.1,3.7-4.4,6.4c-5.5-7.3-15.9-8.7-23.2-3.2c-1.5,1.1-2.8,2.5-3.8,4.1v44.9H336L337.2,280.9z"/>
<path class="st8" d="M184,261.2h106.9c5.4,0,9.9,4.4,9.9,9.9l0,0c0,5.4-4.4,9.9-9.9,9.9H184c-5.4,0-9.9-4.4-9.9-9.9l0,0
	C174.2,265.6,178.6,261.2,184,261.2z"/>
<path class="st3" d="M183.4,274.8c-3.2,0-5.8-2.6-5.8-5.8s2.6-5.8,5.8-5.8s5.8,2.6,5.8,5.8C189.2,272.2,186.6,274.8,183.4,274.8z
	 M183.4,266.2c-1.6,0-2.8,1.3-2.8,2.8s1.3,2.8,2.8,2.8c1.6,0,2.8-1.3,2.8-2.8S185,266.2,183.4,266.2L183.4,266.2z"/>
<rect x="188.3" y="270.7" transform="matrix(0.7076 -0.7066 0.7066 0.7076 -139.247 214.7056)" class="st3" width="3" height="9.8"/>
<g class="st10">
	<polygon class="st8" points="268.5,205 276.1,205 292,332.1 284.4,332.1 	"/>
	<polygon class="st8" points="299.8,332.1 283.9,205 312.7,205 328.6,332.1 	"/>
</g>
<path class="st4" d="M193.9,402.7l-0.2,2.1c-0.1,1,0.6,2,1.6,2.1c0.1,0,0.2,0,0.2,0h68.2c1.1,0,2.1-0.9,2.2-2l0.2-2.2
	c0.1-1-0.6-1.9-1.5-2c-0.1,0-0.2,0-0.3,0h-20.5c-0.3,0-0.5,0-0.8-0.1h-47C194.9,400.6,194,401.5,193.9,402.7z"/>
<path class="st11" d="M180,400.6h63.1c-1.7-0.3-2.8-1.9-2.7-3.6H182L180,400.6z"/>
<path class="st12" d="M190,293.8h42.2c2.1,0,3.9,1.7,3.9,3.9v8.9c0,2.1-1.7,3.9-3.9,3.9H190c-2.1,0-3.9-1.7-3.9-3.9v-8.9
	C186.2,295.6,187.9,293.8,190,293.8z"/>
<path class="st12" d="M251.2,293.8h42.2c2.1,0,3.9,1.7,3.9,3.9v8.9c0,2.1-1.7,3.9-3.9,3.9h-42.2c-2.1,0-3.9-1.7-3.9-3.9v-8.9
	C247.4,295.6,249.1,293.8,251.2,293.8z"/>
<path class="st0" d="M209.9,210.7l24.8-44c0.3-0.5,0.9-0.6,1.4-0.4c0.2,0.1,0.3,0.2,0.4,0.4l24.8,44c0.3,0.5,0.1,1.1-0.4,1.4
	c-0.1,0.1-0.3,0.1-0.5,0.1h-49.6c-0.6,0-1-0.4-1-1C209.8,211,209.8,210.8,209.9,210.7z"/>
<path class="st5" d="M209.9,210.7l24.8-44c0.3-0.5,0.9-0.6,1.4-0.4c0.2,0.1,0.3,0.2,0.4,0.4l24.8,44c0.3,0.5,0.1,1.1-0.4,1.4
	c-0.1,0.1-0.3,0.1-0.5,0.1h-49.6c-0.6,0-1-0.4-1-1C209.8,211,209.8,210.8,209.9,210.7z"/>
<path class="st3" d="M223.8,218.7l-1.2-4.9h-4.3l-1.2,4.9C219.2,219.6,221.6,219.6,223.8,218.7z"/>
<path class="st4" d="M218.3,213.8l-0.3,1.1c1.6,0.5,3.3,0.5,4.9,0l-0.3-1.1H218.3z"/>
<path class="st13" d="M217.7,216.2c-0.1,0.3-0.2,0.6-0.2,0.9c2,0.6,4,0.6,6,0l-0.2-0.9C221.4,216.6,219.5,216.6,217.7,216.2z"/>
<path class="st0" d="M225,213.4c-2.9,1.2-6.2,1.2-9.2,0v-36.7c0-4.1,1.6-8.1,4.6-11.1c2.9,2.9,4.6,6.9,4.6,11.1L225,213.4L225,213.4
	z"/>
<path class="st0" d="M215.8,176.7v34.6c3,1,6.2,1,9.2,0v-34.6c0-4.1-1.6-8.1-4.6-11.1C217.5,168.6,215.8,172.6,215.8,176.7z"/>
<path class="st13" d="M215.8,176.7v34.6c3,1,6.2,1,9.2,0v-34.6c0-4.1-1.6-8.1-4.6-11.1C217.5,168.6,215.8,172.6,215.8,176.7z"/>
<path class="st0" d="M215.8,176.7v26c3,0.9,6.2,0.9,9.2,0v-26c0-4.1-1.6-8.1-4.6-11.1C217.5,168.6,215.8,172.6,215.8,176.7z"/>
<path class="st6" d="M215.8,176.7v26c3,0.9,6.2,0.9,9.2,0v-26c0-4.1-1.6-8.1-4.6-11.1C217.5,168.6,215.8,172.6,215.8,176.7z"/>
<path class="st0" d="M215.8,176.7v13.6c3,0.9,6.2,0.9,9.2,0v-13.6c0-4.1-1.6-8.1-4.6-11.1C217.5,168.6,215.8,172.6,215.8,176.7z"/>
<path class="st12" d="M215.8,176.7v13.6c3,0.9,6.2,0.9,9.2,0v-13.6c0-4.1-1.6-8.1-4.6-11.1C217.5,168.6,215.8,172.6,215.8,176.7z"/>
<path class="st0" d="M215.8,176.7v1.6c3,0.9,6.2,0.9,9.2,0v-1.6c0-4.1-1.6-8.1-4.6-11.1C217.5,168.6,215.8,172.6,215.8,176.7z"/>
<path class="st13" d="M215.8,176.7v1.6c3,0.9,6.2,0.9,9.2,0v-1.6c0-4.1-1.6-8.1-4.6-11.1C217.5,168.6,215.8,172.6,215.8,176.7z"/>
<path class="st3" d="M253.3,218.7l-1.2-4.9h-4.3l-1.2,4.9C248.7,219.6,251.1,219.6,253.3,218.7z"/>
<path class="st4" d="M247.7,213.8l-0.3,1.1c1.6,0.5,3.3,0.5,4.9,0l-0.3-1.1H247.7z"/>
<path class="st13" d="M247.1,216.2c-0.1,0.3-0.1,0.6-0.2,0.9c2,0.6,4,0.6,6,0l-0.2-0.9C250.9,216.6,249,216.6,247.1,216.2z"/>
<path class="st0" d="M254.5,213.4c-2.9,1.2-6.2,1.2-9.2,0v-36.7c0-4.1,1.6-8.1,4.6-11.1c2.9,2.9,4.6,6.9,4.6,11.1L254.5,213.4
	L254.5,213.4z"/>
<path class="st0" d="M245.3,176.7v34.6c3,1,6.2,1,9.2,0v-34.6c0-4.1-1.6-8.1-4.6-11.1C247,168.6,245.3,172.6,245.3,176.7z"/>
<path class="st13" d="M245.3,176.7v34.6c3,1,6.2,1,9.2,0v-34.6c0-4.1-1.6-8.1-4.6-11.1C247,168.6,245.3,172.6,245.3,176.7z"/>
<path class="st0" d="M245.3,176.7v26c3,0.9,6.2,0.9,9.2,0v-26c0-4.1-1.6-8.1-4.6-11.1C247,168.6,245.3,172.6,245.3,176.7z"/>
<path class="st6" d="M245.3,176.7v26c3,0.9,6.2,0.9,9.2,0v-26c0-4.1-1.6-8.1-4.6-11.1C247,168.6,245.3,172.6,245.3,176.7z"/>
<path class="st0" d="M245.3,176.7v13.6c3,0.9,6.2,0.9,9.2,0v-13.6c0-4.1-1.6-8.1-4.6-11.1C247,168.6,245.3,172.6,245.3,176.7z"/>
<path class="st12" d="M245.3,176.7v13.6c3,0.9,6.2,0.9,9.2,0v-13.6c0-4.1-1.6-8.1-4.6-11.1C247,168.6,245.3,172.6,245.3,176.7z"/>
<path class="st0" d="M245.3,176.7v1.6c3,0.9,6.2,0.9,9.2,0v-1.6c0-4.1-1.6-8.1-4.6-11.1C247,168.6,245.3,172.6,245.3,176.7z"/>
<path class="st13" d="M245.3,176.7v1.6c3,0.9,6.2,0.9,9.2,0v-1.6c0-4.1-1.6-8.1-4.6-11.1C247,168.6,245.3,172.6,245.3,176.7z"/>
<path class="st3" d="M240.6,221.6l-2-8h-7l-1.9,8C233.2,223,237.1,223,240.6,221.6z"/>
<path class="st4" d="M231.7,213.6c0,0-0.3,1.2-0.5,1.9c2.6,0.8,5.3,0.8,7.9,0l-0.5-1.9H231.7z"/>
<path class="st13" d="M230.7,217.5l-0.4,1.5c3.1,1,6.5,1,9.6,0l-0.4-1.5C236.7,218,233.6,218,230.7,217.5z"/>
<path class="st0" d="M242.6,213c-4.7,2-10.1,2-14.8,0v-59.2c0-6.7,2.7-13.1,7.4-17.9c4.7,4.7,7.4,11.2,7.4,17.9L242.6,213z"/>
<path class="st0" d="M227.8,153.8v55.9c4.8,1.7,10,1.7,14.8,0v-55.9c0-6.7-2.7-13.1-7.4-17.9C230.4,140.7,227.8,147.1,227.8,153.8z"
	/>
<path class="st13" d="M227.8,153.8v55.9c4.8,1.7,10,1.7,14.8,0v-55.9c0-6.7-2.7-13.1-7.4-17.9C230.4,140.7,227.8,147.1,227.8,153.8z
	"/>
<path class="st0" d="M227.8,153.8v41.9c4.8,1.4,10,1.4,14.8,0v-41.9c0-6.7-2.7-13.1-7.4-17.9C230.4,140.7,227.8,147.1,227.8,153.8z"
	/>
<path class="st6" d="M227.8,153.8v41.9c4.8,1.4,10,1.4,14.8,0v-41.9c0-6.7-2.7-13.1-7.4-17.9C230.4,140.7,227.8,147.1,227.8,153.8z"
	/>
<path class="st0" d="M227.8,153.8v22c4.8,1.4,10,1.4,14.8,0v-22c0-6.7-2.7-13.1-7.4-17.9C230.4,140.7,227.8,147.1,227.8,153.8z"/>
<path class="st12" d="M227.8,153.8v22c4.8,1.4,10,1.4,14.8,0v-22c0-6.7-2.7-13.1-7.4-17.9C230.4,140.7,227.8,147.1,227.8,153.8z"/>
<path class="st0" d="M227.8,153.8v2.6c4.8,1.4,10,1.4,14.8,0v-2.6c0-6.7-2.7-13.1-7.4-17.9C230.4,140.7,227.8,147.1,227.8,153.8z"/>
<path class="st14" d="M227.8,153.8v2.6c4.8,1.4,10,1.4,14.8,0v-2.6c0-6.7-2.7-13.1-7.4-17.9C230.4,140.7,227.8,147.1,227.8,153.8z"
	/>
<path class="st0" d="M239.5,165.6c0,2.4-1.9,4.3-4.3,4.3c-2.4,0-4.3-1.9-4.3-4.3s1.9-4.3,4.3-4.3l0,0
	C237.5,161.3,239.5,163.3,239.5,165.6z"/>
<path class="st0" d="M235.2,169.9c-2.3,0-4.1-1.7-4.3-4c0,0.1,0,0.2,0,0.3c0,2.4,1.9,4.3,4.3,4.3c2.4,0,4.3-1.9,4.3-4.3
	c0-0.1,0-0.2,0-0.3C239.3,168.2,237.4,170,235.2,169.9z"/>
<path class="st5" d="M235.2,169.9c-2.3,0-4.1-1.7-4.3-4c0,0.1,0,0.2,0,0.3c0,2.4,1.9,4.3,4.3,4.3c2.4,0,4.3-1.9,4.3-4.3
	c0-0.1,0-0.2,0-0.3C239.3,168.2,237.4,170,235.2,169.9z"/>
<circle class="st8" cx="235.2" cy="165.6" r="3.1"/>
<path class="st0" d="M235,168.7l1.3-5.9c-0.3-0.1-0.7-0.2-1-0.2l-1.3,5.8C234.3,168.6,234.7,168.7,235,168.7z"/>
<path class="st0" d="M236.1,168.5l1.1-5.1c-0.1-0.1-0.3-0.2-0.4-0.3l-1.2,5.6C235.8,168.6,236,168.6,236.1,168.5z"/>
<g class="st15">
	<path class="st8" d="M235,168.7l1.3-5.9c-0.3-0.1-0.7-0.2-1-0.2l-1.3,5.8C234.3,168.6,234.7,168.7,235,168.7z"/>
	<path class="st8" d="M236.1,168.5l1.1-5.1c-0.1-0.1-0.3-0.2-0.4-0.3l-1.2,5.6C235.8,168.6,236,168.6,236.1,168.5z"/>
</g>
<g id="freepik--Character--inject-10">
	<path class="st16" d="M345.6,281.3l-1.1,0.3c-1.1,0.2-1.9,1.1-2,2.1l-0.1,0.8c-0.1,0.8,0.2,1.6,0.8,2.2c1.9,1.6,6.4,4.7,11.8,2.7
		l4.3-3.3l-0.7-5.8l-9-1.3c-0.5,0-1.1,0.2-1.5,0.6L345.6,281.3z"/>
	<polygon class="st16" points="359.2,286.1 371.2,285.5 369.4,279 358.5,280.3 	"/>
	<path class="st0" d="M366.4,279.1c-0.5,0.9-0.7,2-0.5,3c0.2,1.7,0.9,3.2,1.9,4.5l0,0c-2,0-4,0.5-5.8,1.4h-0.1
		c-6.2-4.3-2.6-9.3-2.6-9.3l0.4,0.1C361.9,279.2,364.1,279.2,366.4,279.1z"/>
	<path class="st0" d="M390.9,284.5c-11.1,2.6-25,2.3-25,2.3c-0.5-0.8-0.7-1.7-0.6-2.5c0.1-1.9,0.4-4.2,1-5.1s5.5-1.4,5.5-1.4
		s9.3-4.3,11-5.7s1.7-8,1.4-12.3c-1.8-23.3,2.3-25,6-26.1C398,231.4,400.7,282.2,390.9,284.5z"/>
	<path class="st0" d="M314.7,289.4h31.1c1,0,1.5-0.8,1-1.8l-7.8-17.5c-0.5-1-1.5-1.7-2.6-1.8h-31.1c-1,0-1.5,0.8-1,1.8l7.8,17.5
		C312.5,288.6,313.5,289.3,314.7,289.4z"/>
	<path class="st11" d="M314.7,289.4h31.1c1,0,1.5-0.8,1-1.8l-7.8-17.5c-0.5-1-1.5-1.7-2.6-1.8h-31.1c-1,0-1.5,0.8-1,1.8l7.8,17.5
		C312.5,288.6,313.5,289.3,314.7,289.4z"/>
	<path class="st0" d="M303.9,268.3h1.4c-1,0-1.5,0.8-1,1.8l7.8,17.5c0.5,1,1.5,1.7,2.6,1.8h-1.3c-1.1-0.1-2.2-0.8-2.6-1.8l-7.8-17.5
		C302.5,269.1,302.9,268.3,303.9,268.3z"/>
	<path class="st17" d="M303.9,268.3h1.4c-1,0-1.5,0.8-1,1.8l7.8,17.5c0.5,1,1.5,1.7,2.6,1.8h-1.3c-1.1-0.1-2.2-0.8-2.6-1.8
		l-7.8-17.5C302.5,269.1,302.9,268.3,303.9,268.3z"/>
	<polygon class="st3" points="315.3,287.4 343.4,287.4 335.8,270.3 307.6,270.3 	"/>
	<polygon class="st12" points="315.3,287.4 343.4,287.4 335.8,270.3 307.6,270.3 	"/>
	<path class="st3" d="M407.8,288.1c0,0,0.8,10.3,0.9,13.9c0.8,24-18.9,25.9-33.3,23.2l-52.3-14.6c-2.1,7-26.3,45.2-26.3,45.2
		l-12.7-7.3c0,0,13.2-31.6,21.7-53.6c4.9-12.5,44.4-3.9,58.9-1.3c4.4,1.2,3.6-5.7,3.6-5.7L407.8,288.1z"/>
	<polygon class="st16" points="293.6,355 288.7,363.1 279.7,358.6 284.4,349.4 	"/>
	<path class="st0" d="M274.9,357c-1.2-0.5-2.3-1.3-2.5-2c-0.1-0.4,0.1-0.8,0.5-1c0.3-0.2,0.7-0.3,1-0.2c1.8,0.3,4.3,3.7,4.4,3.9
		c0.1,0.1,0.1,0.2,0,0.3c-0.1,0.1-0.2,0.1-0.3,0.1C276.9,357.8,275.9,357.5,274.9,357z M274.2,354.4c-0.1-0.1-0.3-0.1-0.5-0.1
		c-0.2-0.1-0.4,0-0.6,0.1c-0.3,0.2-0.3,0.4-0.3,0.5c0.2,0.8,2.6,2,4.5,2.5C276.5,356.2,275.4,355.2,274.2,354.4L274.2,354.4z"/>
	<path class="st0" d="M277.9,358C277.9,358,277.8,358,277.9,358c-1-1-2.4-4.2-1.7-5.2c0.1-0.3,0.5-0.5,1.1-0.3
		c0.5,0.2,0.9,0.5,1.1,1c0.8,1.6-0.2,4.3-0.2,4.4s-0.1,0.1-0.2,0.2C278,358.1,277.9,358.1,277.9,358z M277.3,353l-0.1-0.1
		c-0.4-0.2-0.5,0-0.6,0c-0.4,0.6,0.4,2.9,1.3,4.2c0.4-1.1,0.4-2.4,0.1-3.5C277.8,353.4,277.6,353.1,277.3,353L277.3,353z"/>
	<path class="st3" d="M279.5,357.1l10.5,4.8c0.4,0.2,0.6,0.6,0.5,1l-2,9.4c-0.2,0.8-1,1.4-1.8,1.2l0,0c-0.1,0-0.2-0.1-0.3-0.1
		c-3.8-1.8-7-3.5-11.7-5.7c-5.5-2.5-4.5-1.2-11-4.1c-4-1.8-2.6-6.5-0.9-6c8.1,2.5,9.9,0.6,14.1-0.8
		C277.8,356.6,278.7,356.7,279.5,357.1z"/>
	<polygon class="st11" points="291.1,359.1 293.6,355 284.4,349.4 282.1,353.9 	"/>
	<path class="st0" d="M298.9,355l-15.8-9.8c-1.5,0.8-2.3,2.5-2,4.1l15.2,9.7C296.3,359,298.3,358.9,298.9,355z"/>
	<polygon class="st16" points="320.4,395.3 318.5,404.3 308.8,403 310.2,393 	"/>
	<path class="st0" d="M303.8,403c-1.3-0.1-2.6-0.5-2.9-1.1c-0.2-0.3-0.1-0.7,0.1-1s0.5-0.4,0.8-0.5c1.8-0.3,5.1,2.1,5.3,2.2
		c0.1,0.1,0.1,0.2,0.1,0.3c0,0.1-0.1,0.2-0.2,0.2C305.9,403.1,304.9,403.1,303.8,403z M302.4,400.9c-0.2,0-0.3,0-0.5,0
		s-0.4,0.1-0.5,0.3c-0.2,0.3-0.2,0.4-0.1,0.5c0.4,0.7,3,1,4.9,0.9C305.1,401.8,303.8,401.2,302.4,400.9L302.4,400.9z"/>
	<path class="st0" d="M306.9,403h-0.1c-1.2-0.7-3.4-3.1-3.1-4.3c0-0.3,0.3-0.6,1-0.6c0.5,0,1,0.2,1.3,0.5c1.2,1.2,1.2,4,1.2,4.1
		s0,0.2-0.1,0.2C307.1,403.1,307,403,306.9,403z M304.8,398.6h-0.1c-0.4,0-0.5,0.2-0.5,0.2c-0.1,0.7,1.3,2.6,2.5,3.5
		c0-1.2-0.4-2.3-1-3.3C305.4,398.8,305.1,398.7,304.8,398.6L304.8,398.6z"/>
	<path class="st3" d="M308.1,401.7l11.1,1.1c0.4,0,0.8,0.4,0.8,0.8l1.1,9.3c0.1,0.8-0.5,1.6-1.3,1.7c-0.1,0-0.2,0-0.3,0
		c-4-0.5-7.6-1-12.6-1.5c-5.9-0.6-4.5,0.3-11.4-0.3c-4.2-0.4-4.5-5.2-2.7-5.3c8.2-0.2,9.3-2.6,12.7-5.2
		C306.4,401.7,307.3,401.5,308.1,401.7z"/>
	<polygon class="st11" points="309.4,398.3 319.6,399 320.4,395.3 310.2,393 	"/>
	<polygon class="st3" points="323.3,391.7 323,392.9 308.1,391.7 308.2,390.6 	"/>
	<path class="st0" d="M323.9,396.4l-3.7-0.3l-10.4-0.9l-3.3-0.3c-1-1.3-1-3.1-0.1-4.5l1.9,0.1l15.1,1.2l1.1,0.1
		C325.6,395.4,323.9,396.4,323.9,396.4z"/>
	<path class="st3" d="M384.5,334.1c-13.5,1.2-44.7,1.7-48.9,1.1l-12.3,56.6l-15.1-1.2c0,0,1.6-48.9,8.2-69.2
		c5.3-16.3,90.8-12.9,90.8-12.9l0.3,4.6C408.1,328.9,400,332.7,384.5,334.1z"/>
	<path class="st18" d="M384.5,334.1c-13.5,1.2-44.7,1.7-48.9,1.1l-12.3,56.6l-15.1-1.2c0,0,1.6-48.9,8.2-69.2
		c5.3-16.3,90.8-12.9,90.8-12.9l0.3,4.6C408.1,328.9,400,332.7,384.5,334.1z"/>
	<path class="st3" d="M316.2,327.3c0-0.1,0-0.2,0-0.3V327.3z"/>
	<path class="st3" d="M317.2,320l-0.1,1.1C317.1,320.7,317.2,320.4,317.2,320z"/>
	<polygon class="st16" points="365.1,231.6 369.2,237.6 378.5,229.7 372.7,222.5 	"/>
	<path class="st11" d="M367.1,234.5c1.8-2.6,1-6.8,1-6.8l-1.6,2.1l-1.4,1.8L367.1,234.5z"/>
	<path class="st3" d="M349.1,218.2c0.2,0.6,0.7,1,1.1,0.8s0.6-0.8,0.4-1.3s-0.7-1-1.1-0.8S348.9,217.6,349.1,218.2z"/>
	<path class="st19" d="M351.3,218.4l-1.3,5.7c1.4,0.3,2.8-0.1,3.8-1L351.3,218.4z"/>
	<path class="st3" d="M348.5,214.1c0.1,0,0.2,0,0.3,0c0.8,0.3,1.6,0.3,2.4-0.2c0.1-0.1,0.3-0.1,0.4,0.1l0,0c0.1,0.2,0.1,0.4-0.1,0.5
		c-0.9,0.6-2,0.7-3,0.3c-0.2-0.1-0.3-0.3-0.2-0.4l0,0l0,0C348.4,214.2,348.4,214.2,348.5,214.1z"/>
	<path class="st16" d="M371.3,208c3,7.7,4.5,10.9,2.4,16.6c-4,6.8-13.4,10.9-18.7,4.2c-4.8-6-8.9-17.6-2.9-24.2
		c4.2-4.7,11.4-5.2,16.2-1C369.6,204.9,370.7,206.3,371.3,208z"/>
	<path class="st3" d="M378.6,210.3c-0.4,2.6-0.7,5.2-0.8,7.8c-0.1,5-3.3,9.3-7.9,11.1l0,0c0,0-10.9-0.1-15.5-13.8
		c-4.3,0.4-8.1-2.8-8.5-7.1c-0.1-1,0-2,0.3-3c0.9-2.9,4.6-4.7,7.6-4.9c2-2.6,5.2-4.1,8.6-3.9c3.3,0.3,6.5,1.3,9.3,3.1
		c2.5,1.3,4.7,3.2,6.2,5.6C378.6,206.8,378.9,208.6,378.6,210.3z"/>
	<path class="st16" d="M356.6,217c-0.7,1.6-0.7,3.3-0.1,4.9c0.8,2.1,3.1,1.7,4.4,0c1.2-1.6,2.1-4.6,0.5-6.1S357.5,215.1,356.6,217z"
		/>
	<path class="st0" d="M378.6,225.2c-3,0.1-7.4,2.2-13.4,6.2c-0.6,0.5-0.9,1.4-0.8,2.2s0.9,1.6,1.6,1.3c0.4,1,0.6,2.1,1,3.1
		c1.9-0.9,3.8-1.7,5.7-2.4c3-1.2,6-2.2,9.1-3c-0.8-1.3-1.9-2.5-2.3-4c0.7-0.3,1.1-1.1,0.9-1.9C380.3,225.8,379.5,225.3,378.6,225.2z
		"/>
	<path class="st0" d="M378.6,225.2c-3,0.1-7.4,2.2-13.4,6.2c-0.6,0.5-0.9,1.4-0.8,2.2s0.9,1.6,1.6,1.3c0.4,1,0.6,2.1,1,3.1
		c1.9-0.9,3.8-1.7,5.7-2.4c3-1.2,6-2.2,9.1-3c-0.8-1.3-1.9-2.5-2.3-4c0.7-0.3,1.1-1.1,0.9-1.9C380.3,225.8,379.5,225.3,378.6,225.2z
		"/>
	<path class="st0" d="M369.8,301.8c-6.3-15.2-11.7-30.8-16.2-46.6c-4.6-17.3,8.6-17.6,24.6-21.9c12.7-3.4,18.1-0.4,21.7,6.1
		s9.5,60.9,9.5,60.9L369.8,301.8z"/>
	<path class="st0" d="M369.8,301.8c-6.3-15.2-11.7-30.8-16.2-46.6c-4.6-17.3,8.6-17.6,24.6-21.9c12.7-3.4,18.1-0.4,21.7,6.1
		s9.5,60.9,9.5,60.9L369.8,301.8z"/>
	<path class="st5" d="M369.8,301.8c-6.3-15.2-11.7-30.8-16.2-46.6c-4.6-17.3,8.6-17.6,24.6-21.9c12.7-3.4,18.1-0.4,21.7,6.1
		s9.5,60.9,9.5,60.9L369.8,301.8z"/>
	<path class="st16" d="M312,276.8h-1.1c-1,0-1.9,0.7-2.2,1.7l-0.2,0.7c-0.2,0.8-0.1,1.6,0.4,2.2c1.5,1.9,5.2,5.5,10.6,4.5l4.6-2.3
		l0.3-5.6l-8.2-2.7c-0.5-0.1-1,0-1.5,0.3L312,276.8z"/>
	<polygon class="st16" points="324.1,283.7 335.4,285.1 334.8,278.7 324.4,278.1 	"/>
	<path class="st0" d="M332,278.2c-0.6,0.8-1,1.8-1,2.8c-0.1,1.6,0.3,3.2,1.1,4.6l0,0c-1.9-0.3-3.9-0.2-5.7,0.4h-0.1
		c-5.2-5-0.9-9.2-0.9-9.2l0.4,0.1C327.8,277.5,329.9,278,332,278.2z"/>
	<path class="st0" d="M354.1,287.3c-10.9,0.6-23.9-2-23.9-2c-0.3-0.8-0.4-1.7-0.1-2.5c0.4-1.7,1-3.9,1.8-4.7s5.4-0.4,5.4-0.4
		s9.5-2.5,11.4-3.5s2.9-7.2,3.3-11.4c2.2-22.2,6.4-23.2,10-23.5C369.6,238.6,363.8,286.9,354.1,287.3z"/>
	<path class="st3" d="M390,413.8l-7.5-63.1c-0.8-6.4-6.2-11.2-12.6-11.2H345c-6.2,0-11.6,4.5-12.5,10.7L322.2,413l-2-0.3l10.2-62.8
		c1.1-7.1,7.3-12.4,14.5-12.4h25c7.4,0,13.7,5.6,14.6,13l7.5,63.1L390,413.8z"/>
	<path class="st3" d="M424.9,413.8l-7.5-63.1c-0.8-6.4-6.2-11.2-12.6-11.2h-25c-6.2,0-11.6,4.5-12.5,10.7L357.1,413l-2-0.3
		l10.2-62.8c1.1-7.1,7.3-12.4,14.5-12.4h25c7.4,0,13.7,5.6,14.6,13l7.5,63.1L424.9,413.8z"/>
	<rect x="323.9" y="395.4" class="st3" width="34.4" height="2"/>
	<rect x="383.5" y="349.6" class="st3" width="35.5" height="2"/>
	<path class="st0" d="M390,339.9h26.1c10.1,0,18.5-7.7,19.3-17.8l3.7-46.9c0.6-7.2-4.8-13.5-12-14.1c-0.3,0-0.7,0-1,0h-14.5
		c-16.8,0-31.7,11.1-36.5,27.2l-10,33.5c-1.7,5.6-6.8,9.5-12.7,9.5h-18.3c-4.8,0-8.6,3.9-8.6,8.7H390V339.9z"/>
	<path class="st20" d="M390,339.9h26.1c10.1,0,18.5-7.7,19.3-17.8l3.7-46.9c0.6-7.2-4.8-13.5-12-14.1c-0.3,0-0.7,0-1,0h-14.5
		c-16.8,0-31.7,11.1-36.5,27.2l-10,33.5c-1.7,5.6-6.8,9.5-12.7,9.5h-18.3c-4.8,0-8.6,3.9-8.6,8.7H390V339.9z"/>
</g>
<g id="freepik--Speedometer--inject-10">
	<path class="st0" d="M364.1,177.9L364.1,177.9v-0.1C364.1,177.9,364.1,177.9,364.1,177.9z"/>
	<path class="st0" d="M317,165.3c-3.4,3.2-5.9,7.2-7.3,11.6h-1.8c0.6-5,2.5-9.8,5.5-13.9L317,165.3z"/>
	<path class="st6" d="M317,165.3c-3.4,3.2-5.9,7.2-7.3,11.6h-1.8c0.6-5,2.5-9.8,5.5-13.9L317,165.3z"/>
	<path class="st0" d="M327.6,159.3c-4,1.1-7.6,3.2-10.6,6l-3.6-2.3c2.9-4.1,6.8-7.5,11.3-9.8L327.6,159.3z"/>
	<path class="st9" d="M327.6,159.3c-4,1.1-7.6,3.2-10.6,6l-3.6-2.3c2.9-4.1,6.8-7.5,11.3-9.8L327.6,159.3z"/>
	<path class="st0" d="M338.8,149.8l-0.9,8.9c-1.3-0.2-2.6-0.3-3.9-0.3c-2.2,0-4.4,0.3-6.5,0.9l-2.9-6.1c4.2-2.2,8.9-3.4,13.7-3.4
		L338.8,149.8L338.8,149.8z"/>
	<path class="st13" d="M338.8,149.8l-0.9,8.9c-1.3-0.2-2.6-0.3-3.9-0.3c-2.2,0-4.4,0.3-6.5,0.9l-2.9-6.1c4.2-2.2,8.9-3.4,13.7-3.4
		L338.8,149.8L338.8,149.8z"/>
	<path class="st0" d="M352.2,153.6l-5.8,8.6c-2.5-1.7-5.4-2.9-8.4-3.4l0.9-8.9C343.6,149.8,348.2,151.1,352.2,153.6z"/>
	<path class="st21" d="M352.2,153.6l-5.8,8.6c-2.5-1.7-5.4-2.9-8.4-3.4l0.9-8.9C343.6,149.8,348.2,151.1,352.2,153.6z"/>
	<path class="st0" d="M361.5,163.7l-9.1,4.9c-1.5-2.5-3.6-4.7-6-6.4l5.8-8.6C356.2,156,359.4,159.5,361.5,163.7z"/>
	<path class="st4" d="M361.5,163.7l-9.1,4.9c-1.5-2.5-3.6-4.7-6-6.4l5.8-8.6C356.2,156,359.4,159.5,361.5,163.7z"/>
	<path class="st0" d="M364.1,177.6l-8.9-0.1c-0.3-3.2-1.3-6.2-2.9-8.9l9.1-4.9C363.6,168,364.5,172.8,364.1,177.6z"/>
	<path class="st14" d="M364.1,177.6l-8.9-0.1c-0.3-3.2-1.3-6.2-2.9-8.9l9.1-4.9C363.6,168,364.5,172.8,364.1,177.6z"/>
	<path class="st0" d="M364.1,177.8v0.1c-0.4,3.1-1.2,6.2-2.4,9.1l-7.2-1.6l0.6-2.8c0-0.4,0.1-0.7,0.1-1.1l0,0v-0.2l0,0
		c0.1-1.3,0.1-2.6,0-3.9l8.9,0.1c0,0.1,0,0.1,0,0.1C364.1,177.8,364.1,177.8,364.1,177.8z"/>
	<path class="st0" d="M309,186.5l-0.5,0.1c-0.2-0.7-0.3-1.4-0.4-2.1c-0.3-2.2-0.4-4.4-0.2-6.6l0,0v-0.1v-0.1c0-0.3,0-0.6,0.1-0.8
		h1.8c-0.4,1.4-0.7,2.9-0.9,4.4v0.1v0.1c-0.1,0.9-0.1,1.8,0,2.7C308.9,185,308.9,185.7,309,186.5z"/>
	<path class="st20" d="M309,186.5l-0.5,0.1c-0.2-0.7-0.3-1.4-0.4-2.1c-0.3-2.2-0.4-4.4-0.2-6.6l0,0v-0.1v-0.1c0-0.3,0-0.6,0.1-0.8
		h1.8c-0.4,1.4-0.7,2.9-0.9,4.4v0.1v0.1c-0.1,0.9-0.1,1.8,0,2.7C308.9,185,308.9,185.7,309,186.5z"/>
	<path class="st3" d="M363.5,185l-0.8,1.9l-1.5-0.3l-14.4-3.3l-6.2-1.4c0.4-0.6,0.8-1.2,1.1-1.8c0.3-0.8,0.5-1.6,0.6-2.4l13.7,4.7
		l0,0L363.5,185z"/>
	<path class="st3" d="M342.3,177.7c-0.1,1.5-0.7,3-1.6,4.2l-5.5-1.3l1.8-4.8L342.3,177.7z"/>
	<path class="st0" d="M342.3,177.7c-0.1,1.5-0.7,3-1.6,4.2c-0.7,0.9-1.6,1.6-2.5,2.1c-3.6,1.9-7.8,0.7-9.4-2.7
		c-1.5-3.6,0-7.8,3.5-9.6c3.6-1.9,7.8-0.7,9.4,2.7C342.2,175.4,342.4,176.6,342.3,177.7z"/>
</g>
<g id="freepik--Number--inject-10">
	<path class="st0" d="M114.5,173.5h5.7v4.8h-6.3l-0.9,7h-5l0.9-7h-6.5l-0.9,7h-4.9l0.9-7h-5.8v-4.8H98l0.9-7.1h-5.8v-4.8h6.3l0.9-7
		h4.9l-0.9,7h6.5l0.9-7h4.9l-0.9,7h5.7v4.8h-6.3L114.5,173.5z M109.5,173.5l0.9-7.1H104l-1,7.1H109.5z"/>
	<path class="st0" d="M136.2,154.5v30.8H129v-25.1h-6.2v-5.7H136.2z"/>
</g>
<g id="freepik--Symbol--inject-10">
	<rect x="60.2" y="282.7" class="st3" width="49.3" height="34"/>
	<rect x="60.2" y="282.7" class="st0" width="49.3" height="3.1"/>
	<path class="st8" d="M69.2,301.5l8.1,4.5c0.3,0.1,0.6,0.4,0.8,0.6c0.1,0.2,0.2,0.4,0.2,0.7c0,0.3-0.1,0.7-0.4,0.9
		c-0.2,0.2-0.5,0.4-0.9,0.4s-0.7-0.2-1-0.4l-10.4-5.8c-0.5-0.3-0.7-0.9-0.4-1.3c0.1-0.2,0.2-0.3,0.4-0.4l10.4-5.8
		c0.3-0.2,0.6-0.3,1-0.4c0.7,0,1.3,0.6,1.3,1.3c0,0.2-0.1,0.5-0.2,0.7c-0.2,0.3-0.5,0.5-0.8,0.6L69.2,301.5z"/>
	<path class="st8" d="M89.9,293.1l-8,17.2c-0.1,0.3-0.3,0.6-0.6,0.8c-0.2,0.2-0.5,0.3-0.8,0.3s-0.6-0.1-0.9-0.4
		c-0.2-0.2-0.4-0.5-0.4-0.8s0.1-0.7,0.3-1l8-17.2c0.1-0.3,0.3-0.6,0.5-0.8c0.5-0.4,1.2-0.3,1.6,0.1c0.2,0.2,0.4,0.5,0.4,0.8
		C90.2,292.5,90.1,292.8,89.9,293.1z"/>
	<path class="st8" d="M100,301.5l-8.1-4.5c-0.3-0.1-0.6-0.4-0.8-0.6c-0.1-0.2-0.2-0.4-0.2-0.7c0-0.3,0.1-0.7,0.4-0.9
		c0.2-0.2,0.5-0.4,0.9-0.4s0.7,0.2,1,0.4l10.4,5.8c0.5,0.3,0.7,0.9,0.4,1.3c-0.1,0.2-0.2,0.3-0.4,0.4l-10.4,5.8
		c-0.3,0.2-0.6,0.3-1,0.4c-0.3,0-0.7-0.1-0.9-0.4c-0.2-0.2-0.4-0.6-0.4-0.9c0-0.2,0.1-0.5,0.2-0.7c0.2-0.3,0.5-0.5,0.8-0.6
		L100,301.5z"/>
</g>
</svg>
